<svg width="260" height="92" viewBox="0 0 260 92" fill="none" xmlns="http://www.w3.org/2000/svg">
<mask id="mask0" mask-type="alpha" maskUnits="userSpaceOnUse" x="0" y="0" width="260" height="54">
<path fill-rule="evenodd" clip-rule="evenodd" d="M0.0090332 9.04691L257.83 -5.12957e-06L259.383 44.702L1.56254 53.7489L0.0090332 9.04691Z" fill="white"/>
</mask>
<g mask="url(#mask0)">
<path fill-rule="evenodd" clip-rule="evenodd" d="M257.861 32.6169C259.676 29.877 257.661 26.028 256.177 22.9372C257.341 18.1768 255.424 12.9845 251.329 9.9503C254.069 9.83777 251.174 8.39836 253.135 7.96692C250.241 6.92285 252.469 4.13259 250.315 2.75736C248.06 2.52917 247.101 1.3571 245.756 0.466545C244.514 0.438437 243.386 0.500757 242.323 0.621316C241.167 0.604844 240.107 0.665337 239.106 0.77888C237.95 0.762216 236.891 0.822889 235.89 0.93624C234.734 0.919575 233.675 0.980261 232.674 1.0938C231.518 1.07714 230.458 1.13782 229.457 1.25137C228.302 1.23469 227.242 1.29518 226.241 1.40892C225.085 1.39226 224.026 1.45275 223.025 1.56629C221.869 1.54963 220.81 1.6103 219.809 1.72384C218.653 1.70718 217.593 1.76786 216.592 1.88121C215.436 1.86474 214.377 1.92523 213.376 2.03878C212.22 2.0221 211.161 2.08279 210.16 2.19633C209.004 2.17967 207.945 2.24034 206.943 2.3537C205.788 2.33722 204.728 2.39771 203.727 2.51125C202.571 2.49459 201.512 2.55527 200.511 2.66881C199.355 2.65214 198.296 2.71263 197.295 2.82637C196.139 2.80971 195.079 2.8702 194.078 2.98374C192.923 2.96707 191.863 3.02775 190.862 3.14129C189.706 3.12463 188.647 3.18531 187.646 3.29866C186.49 3.28219 185.431 3.34267 184.43 3.45622C183.274 3.43955 182.214 3.50024 181.213 3.61378C180.057 3.59712 178.998 3.65761 177.997 3.77133C176.841 3.75467 175.782 3.81516 174.781 3.9287C173.625 3.91204 172.566 3.97271 171.564 4.08627C170.409 4.06959 169.349 4.13008 168.348 4.24382C167.192 4.22716 166.133 4.28764 165.132 4.40118C163.976 4.38452 162.917 4.4452 161.916 4.55874C160.76 4.54208 159.7 4.60276 158.699 4.71612C157.544 4.69944 156.484 4.76012 155.483 4.87367C154.327 4.857 153.268 4.91769 152.267 5.03123C151.111 5.01457 150.052 5.07506 149.051 5.18879C147.895 5.17212 146.835 5.23261 145.834 5.34615C144.679 5.32949 143.619 5.39018 142.618 5.50372C141.462 5.48704 140.403 5.54754 139.402 5.66108C138.246 5.64461 137.187 5.7051 136.186 5.81864C135.03 5.80216 133.97 5.86265 132.969 5.97619C131.814 5.95953 130.754 6.02021 129.753 6.13357C128.597 6.11689 127.538 6.17758 126.537 6.29112C125.381 6.27445 124.322 6.33514 123.321 6.44868C122.165 6.43201 121.105 6.49251 120.104 6.60623C118.949 6.58957 117.889 6.65006 116.888 6.76361C115.732 6.74694 114.673 6.80761 113.672 6.92116C112.516 6.90449 111.457 6.96518 110.456 7.07853C109.3 7.06206 108.24 7.12255 107.239 7.23609C106.084 7.21961 105.024 7.2801 104.023 7.39365C102.867 7.37698 101.808 7.43767 100.807 7.55102C99.6511 7.53453 98.5916 7.59503 97.5905 7.70857C96.4347 7.6919 95.3752 7.75259 94.3741 7.86613C93.2186 7.84946 92.159 7.90995 91.158 8.02369C90.0022 8.00702 88.9426 8.06751 87.9416 8.18106C86.7858 8.16439 85.7262 8.22508 84.7255 8.33861C83.5697 8.32194 82.5102 8.38263 81.5091 8.49598C80.3533 8.47951 79.294 8.53999 78.293 8.65353C77.1372 8.63687 76.0776 8.69755 75.0766 8.8111C73.9208 8.79443 72.8612 8.85492 71.8602 8.96866C70.7047 8.95198 69.6451 9.01248 68.6441 9.12602C67.4883 9.10935 66.4287 9.17004 65.4277 9.28358C64.2719 9.26692 63.2126 9.3274 62.2116 9.44114C61.0558 9.42447 59.9963 9.48496 58.9952 9.59851C57.8394 9.58184 56.7801 9.64252 55.7791 9.75606C54.6233 9.73939 53.5638 9.80008 52.5627 9.91343C51.4069 9.89677 50.3473 9.95745 49.3466 10.071C48.1908 10.0543 47.1312 10.115 46.1302 10.2285C44.9744 10.2119 43.9151 10.2724 42.9141 10.3861C41.7583 10.3694 40.6987 10.4299 39.6977 10.5435C38.5419 10.5268 37.4823 10.5875 36.4813 10.701C35.3258 10.6844 34.2662 10.7449 33.2652 10.8586C32.1094 10.8419 31.0498 10.9024 30.0488 11.016C28.893 10.9995 27.8337 11.06 26.8327 11.1735C25.6769 11.1568 24.6174 11.2175 23.6163 11.3309C22.4608 11.3142 21.4012 11.3749 20.3999 11.4884C19.2444 11.4718 18.1849 11.5325 17.1838 11.646C11.497 11.5641 8.16546 13.3693 2.4373 13.9867C1.1468 15.8556 1.96662 17.6012 0.348644 18.8192C1.02226 20.5292 3.09704 21.2202 4.97619 22.0498C4.32946 22.4867 4.7845 23.5467 4.14135 23.9835C5.93403 24.4021 6.48877 23.8075 8.05536 24.0978C8.03378 24.0434 8.02007 23.9923 8.00939 23.9425C9.09741 24.0753 9.69647 23.8117 10.6523 23.8658C10.5402 24.2709 10.4978 24.7157 10.5789 25.2307C7.25673 24.1722 6.90481 28.2255 6.89295 28.2533C6.8529 28.3456 5.89709 27.9743 5.89816 27.988C5.27906 31.872 13.0335 34.3451 11.0745 38.7534C11.674 39.0861 12.8213 39.0187 14.0166 38.917C14.321 40.4046 13.8986 42.981 12.4617 44.3543C13.0799 45.1125 14.4749 45.3054 14.5657 46.4519C13.4494 48.6031 10.3218 47.8125 9.97667 50.466C11.7034 50.7459 13.5299 50.9552 13.079 52.8287C15.0328 53.3251 16.9902 53.2915 18.8629 53.0439C19.9514 53.0957 21.0288 53.0253 22.0793 52.8863C23.1675 52.9383 24.2449 52.8677 25.2954 52.7288C26.3839 52.7807 27.4613 52.7102 28.5118 52.5712C29.6003 52.6232 30.6774 52.5528 31.7279 52.4138C32.8164 52.4656 33.8938 52.3953 34.9443 52.2563C36.0325 52.3083 37.1099 52.2377 38.1604 52.0989C39.2489 52.1507 40.3263 52.0803 41.3768 51.9414C42.4653 51.9931 43.5424 51.9228 44.5929 51.7838C45.6814 51.8356 46.7588 51.7654 47.8093 51.6264C48.8978 51.6782 49.9749 51.6079 51.0254 51.4689C52.1139 51.5207 53.1913 51.4503 54.2418 51.3113C55.3303 51.3633 56.4074 51.2927 57.4582 51.1537C58.5467 51.2057 59.6238 51.1354 60.6743 50.9964C61.7628 51.0482 62.8402 50.9778 63.8907 50.8388C64.9792 50.8908 66.0563 50.8203 67.1068 50.6815C68.1953 50.7332 69.2724 50.6627 70.3229 50.5239C71.4117 50.5757 72.4888 50.5053 73.5393 50.3663C74.6278 50.4183 75.7052 50.348 76.7557 50.2088C77.8442 50.2608 78.9213 50.1904 79.9718 50.0514C81.0603 50.1032 82.1377 50.0328 83.1882 49.8939C84.2767 49.9458 85.3538 49.8753 86.4043 49.7363C87.4928 49.7883 88.5702 49.7179 89.6207 49.5789C90.7092 49.6307 91.7863 49.5604 92.8368 49.4214C93.9256 49.4732 95.0027 49.4028 96.0533 49.264C97.1417 49.3158 98.2188 49.2452 99.2696 49.1065C100.358 49.1582 101.435 49.0879 102.486 48.9489C103.574 49.0009 104.652 48.9303 105.702 48.7913C106.791 48.8433 107.868 48.773 108.918 48.634C110.007 48.6858 111.084 48.6154 112.135 48.4764C113.223 48.5284 114.3 48.4578 115.351 48.319C116.439 48.3708 117.517 48.3005 118.567 48.1615C119.656 48.2133 120.733 48.1429 121.784 48.0039C122.872 48.0557 123.949 47.9854 125 47.8466C126.088 47.8983 127.165 47.828 128.216 47.689C129.305 47.741 130.382 47.6704 131.432 47.5314C132.521 47.5834 133.598 47.5131 134.649 47.3739C135.737 47.4259 136.814 47.3555 137.865 47.2165C138.953 47.2683 140.03 47.1979 141.081 47.059C142.17 47.1109 143.247 47.0404 144.297 46.9016C145.386 46.9534 146.463 46.883 147.514 46.744C148.602 46.7958 149.679 46.7255 150.73 46.5865C151.818 46.6383 152.896 46.5681 153.946 46.4291C155.035 46.4809 156.112 46.4105 157.162 46.2716C158.251 46.3233 159.328 46.253 160.379 46.114C161.467 46.166 162.544 46.0954 163.595 45.9564C164.683 46.0084 165.761 45.9381 166.811 45.7991C167.9 45.8509 168.977 45.7805 170.027 45.6415C171.116 45.6935 172.193 45.6229 173.244 45.4841C174.332 45.5359 175.409 45.4654 176.46 45.3266C177.548 45.3784 178.626 45.308 179.676 45.169C180.765 45.2208 181.842 45.1506 182.892 45.0115C183.981 45.0634 185.058 44.9931 186.109 44.8541C187.197 44.9059 188.274 44.8355 189.325 44.6965C190.413 44.7485 191.491 44.678 192.541 44.539C193.63 44.591 194.707 44.5206 195.757 44.3816C196.846 44.4334 197.923 44.363 198.974 44.2241C200.062 44.276 201.139 44.2055 202.19 44.0667C203.278 44.1185 204.356 44.0481 205.406 43.9091C206.495 43.9609 207.572 43.8906 208.622 43.7516C209.711 43.8036 210.788 43.733 211.839 43.594C212.927 43.646 214.004 43.5756 215.055 43.4367C216.143 43.4884 217.221 43.4181 218.271 43.2791C219.36 43.3311 220.437 43.2605 221.487 43.1215C222.576 43.1735 223.653 43.1032 224.704 42.9642C225.792 43.016 226.869 42.9456 227.92 42.8066C229.009 42.8584 230.086 42.788 231.136 42.6492C232.225 42.701 233.302 42.6307 234.353 42.4917C235.441 42.5435 236.518 42.4731 237.569 42.3341C238.657 42.3861 239.735 42.3157 240.785 42.1766C241.874 42.2285 242.951 42.1582 244.001 42.0192C248.11 42.2149 252.061 40.6586 255.003 40.3255C255.881 39.3171 256.436 38.1308 256.695 36.7703C258.269 36.963 258.164 36.2012 259.081 36.0212C258.116 34.2852 260.128 33.7832 257.861 32.6169Z" fill="#1071B9"/>
</g>
<mask id="mask1" mask-type="alpha" maskUnits="userSpaceOnUse" x="0" y="38" width="260" height="54">
<path fill-rule="evenodd" clip-rule="evenodd" d="M0.0090332 47.1685L257.83 38.1215L259.383 82.8236L1.56254 91.8705L0.0090332 47.1685Z" fill="white"/>
</mask>
<g mask="url(#mask1)">
<path fill-rule="evenodd" clip-rule="evenodd" d="M257.861 70.7385C259.676 67.9986 257.661 64.1496 256.177 61.0588C257.341 56.2984 255.424 51.1061 251.329 48.0718C254.069 47.9593 251.174 46.5199 253.135 46.0885C250.241 45.0444 252.469 42.2541 250.315 40.8789C248.06 40.6507 247.101 39.4787 245.756 38.5881C244.514 38.56 243.386 38.6223 242.323 38.7429C241.167 38.7264 240.107 38.7869 239.106 38.9004C237.95 38.8838 236.891 38.9444 235.89 39.0578C234.734 39.0411 233.675 39.1018 232.674 39.2154C231.518 39.1987 230.458 39.2594 229.457 39.3729C228.302 39.3562 227.242 39.4167 226.241 39.5305C225.085 39.5138 224.026 39.5743 223.025 39.6878C221.869 39.6712 220.81 39.7319 219.809 39.8454C218.653 39.8287 217.593 39.8894 216.592 40.0028C215.436 39.9863 214.377 40.0468 213.376 40.1603C212.22 40.1437 211.161 40.2043 210.16 40.3179C209.004 40.3012 207.945 40.3619 206.943 40.4753C205.788 40.4588 204.728 40.5193 203.727 40.6328C202.571 40.6161 201.512 40.6768 200.511 40.7904C199.355 40.7737 198.296 40.8342 197.295 40.9479C196.139 40.9313 195.079 40.9917 194.078 41.1053C192.923 41.0886 191.863 41.1493 190.862 41.2628C189.706 41.2462 188.647 41.3069 187.646 41.4202C186.49 41.4037 185.431 41.4642 184.43 41.5778C183.274 41.5611 182.214 41.6218 181.213 41.7353C180.057 41.7187 178.998 41.7792 177.997 41.8929C176.841 41.8762 175.782 41.9367 174.781 42.0503C173.625 42.0336 172.566 42.0943 171.564 42.2078C170.409 42.1911 169.349 42.2516 168.348 42.3654C167.192 42.3487 166.133 42.4092 165.132 42.5227C163.976 42.5061 162.917 42.5668 161.916 42.6803C160.76 42.6636 159.7 42.7243 158.699 42.8377C157.544 42.821 156.484 42.8817 155.483 42.9952C154.327 42.9786 153.268 43.0392 152.267 43.1528C151.111 43.1361 150.052 43.1966 149.051 43.3103C147.895 43.2937 146.835 43.3542 145.834 43.4677C144.679 43.451 143.619 43.5117 142.618 43.6253C141.462 43.6086 140.403 43.6691 139.402 43.7826C138.246 43.7662 137.187 43.8266 136.186 43.9402C135.03 43.9237 133.97 43.9842 132.969 44.0977C131.814 44.0811 130.754 44.1418 129.753 44.2551C128.597 44.2384 127.538 44.2991 126.537 44.4127C125.381 44.396 124.322 44.4567 123.321 44.5702C122.165 44.5536 121.105 44.6141 120.104 44.7278C118.949 44.7111 117.889 44.7716 116.888 44.8852C115.732 44.8685 114.673 44.9292 113.672 45.0427C112.516 45.026 111.457 45.0867 110.456 45.2001C109.3 45.1836 108.24 45.2441 107.239 45.3576C106.084 45.3412 105.024 45.4017 104.023 45.5152C102.867 45.4985 101.808 45.5592 100.807 45.6726C99.6511 45.6561 98.5916 45.7166 97.5905 45.8301C96.4347 45.8135 95.3752 45.8741 94.3741 45.9877C93.2186 45.971 92.159 46.0315 91.158 46.1452C90.0022 46.1286 88.9426 46.1891 87.9416 46.3026C86.7858 46.2859 85.7262 46.3466 84.7255 46.4602C83.5697 46.4435 82.5102 46.5042 81.5091 46.6175C80.3533 46.6011 79.294 46.6615 78.293 46.7751C77.1372 46.7584 76.0776 46.8191 75.0766 46.9326C73.9208 46.916 72.8612 46.9765 71.8602 47.0902C70.7047 47.0735 69.6451 47.134 68.6441 47.2476C67.4883 47.2309 66.4287 47.2916 65.4277 47.4051C64.2719 47.3885 63.2126 47.449 62.2116 47.5627C61.0558 47.546 59.9963 47.6065 58.9952 47.7201C57.8394 47.7034 56.7801 47.7641 55.7791 47.8776C54.6233 47.8609 53.5638 47.9216 52.5627 48.035C51.4069 48.0183 50.3473 48.079 49.3466 48.1925C48.1908 48.1759 47.1312 48.2366 46.1302 48.3501C44.9744 48.3334 43.9151 48.3939 42.9141 48.5077C41.7583 48.491 40.6987 48.5515 39.6977 48.665C38.5419 48.6484 37.4823 48.709 36.4813 48.8226C35.3258 48.8059 34.2662 48.8664 33.2652 48.9801C32.1094 48.9635 31.0498 49.024 30.0488 49.1375C28.893 49.121 27.8337 49.1815 26.8327 49.2951C25.6769 49.2784 24.6174 49.3391 23.6163 49.4524C22.4608 49.4358 21.4012 49.4964 20.3999 49.61C19.2444 49.5933 18.1849 49.654 17.1838 49.7675C11.497 49.6856 8.16546 51.4909 2.4373 52.1083C1.1468 53.9772 1.96662 55.7228 0.348644 56.9408C1.02226 58.6508 3.09704 59.3417 4.97619 60.1713C4.32946 60.6083 4.7845 61.6682 4.14135 62.105C5.93403 62.5236 6.48877 61.929 8.05536 62.2193C8.03378 62.165 8.02007 62.1138 8.00939 62.0641C9.09741 62.1968 9.69647 61.9332 10.6523 61.9873C10.5402 62.3924 10.4978 62.8372 10.5789 63.3523C7.25673 62.2938 6.90481 66.347 6.89295 66.3748C6.8529 66.4672 5.89709 66.0959 5.89816 66.1095C5.27906 69.9936 13.0335 72.4667 11.0745 76.875C11.674 77.2077 12.8213 77.1403 14.0166 77.0386C14.321 78.5261 13.8986 81.1025 12.4617 82.4759C13.0799 83.2341 14.4749 83.427 14.5657 84.5734C13.4494 86.7247 10.3218 85.9341 9.97667 88.5875C11.7034 88.8674 13.5299 89.0767 13.079 90.9503C15.0328 91.4466 16.9902 91.413 18.8629 91.1654C19.9514 91.2172 21.0288 91.1468 22.0793 91.0079C23.1675 91.0598 24.2449 90.9893 25.2954 90.8503C26.3839 90.9023 27.4613 90.8317 28.5118 90.6927C29.6003 90.7447 30.6774 90.6744 31.7279 90.5354C32.8164 90.5872 33.8938 90.5168 34.9443 90.3778C36.0325 90.4298 37.1099 90.3593 38.1604 90.2205C39.2489 90.2722 40.3263 90.2019 41.3768 90.0629C42.4653 90.1147 43.5424 90.0443 44.5929 89.9053C45.6814 89.9571 46.7588 89.887 47.8093 89.748C48.8978 89.7998 49.9749 89.7294 51.0254 89.5904C52.1139 89.6422 53.1913 89.5718 54.2418 89.4329C55.3303 89.4848 56.4074 89.4143 57.4582 89.2753C58.5467 89.3273 59.6238 89.2569 60.6743 89.1179C61.7628 89.1697 62.8402 89.0994 63.8907 88.9604C64.9792 89.0124 66.0563 88.9418 67.1068 88.803C68.1953 88.8548 69.2724 88.7843 70.3229 88.6455C71.4117 88.6972 72.4888 88.6269 73.5393 88.4879C74.6278 88.5399 75.7052 88.4695 76.7557 88.3303C77.8442 88.3823 78.9213 88.312 79.9718 88.173C81.0603 88.2248 82.1377 88.1544 83.1882 88.0154C84.2767 88.0674 85.3538 87.9968 86.4043 87.8579C87.4928 87.9098 88.5702 87.8395 89.6207 87.7005C90.7092 87.7523 91.7863 87.6819 92.8368 87.5429C93.9256 87.5947 95.0027 87.5244 96.0533 87.3856C97.1417 87.4374 98.2188 87.3668 99.2696 87.228C100.358 87.2798 101.435 87.2094 102.486 87.0704C103.574 87.1224 104.652 87.0519 105.702 86.9129C106.791 86.9649 107.868 86.8945 108.918 86.7555C110.007 86.8073 111.084 86.7369 112.135 86.598C113.223 86.6499 114.3 86.5794 115.351 86.4406C116.439 86.4924 117.517 86.422 118.567 86.283C119.656 86.3348 120.733 86.2645 121.784 86.1255C122.872 86.1773 123.949 86.1069 125 85.9681C126.088 86.0199 127.165 85.9495 128.216 85.8106C129.305 85.8625 130.382 85.792 131.432 85.653C132.521 85.705 133.598 85.6346 134.649 85.4954C135.737 85.5474 136.814 85.4771 137.865 85.3381C138.953 85.3899 140.03 85.3195 141.081 85.1805C142.17 85.2325 143.247 85.1619 144.297 85.0231C145.386 85.0749 146.463 85.0046 147.514 84.8656C148.602 84.9174 149.679 84.847 150.73 84.708C151.818 84.7598 152.896 84.6896 153.946 84.5507C155.035 84.6024 156.112 84.5321 157.162 84.3931C158.251 84.4449 159.328 84.3745 160.379 84.2355C161.467 84.2875 162.544 84.217 163.595 84.078C164.683 84.13 165.761 84.0596 166.811 83.9206C167.9 83.9724 168.977 83.902 170.027 83.7631C171.116 83.815 172.193 83.7445 173.244 83.6057C174.332 83.6575 175.409 83.5869 176.46 83.4481C177.548 83.4999 178.626 83.4296 179.676 83.2906C180.765 83.3424 181.842 83.2722 182.892 83.133C183.981 83.185 185.058 83.1146 186.109 82.9757C187.197 83.0274 188.274 82.9571 189.325 82.8181C190.413 82.8701 191.491 82.7995 192.541 82.6605C193.63 82.7125 194.707 82.6422 195.757 82.5032C196.846 82.555 197.923 82.4846 198.974 82.3456C200.062 82.3976 201.139 82.327 202.19 82.1882C203.278 82.24 204.356 82.1697 205.406 82.0307C206.495 82.0825 207.572 82.0121 208.622 81.8731C209.711 81.9251 210.788 81.8545 211.839 81.7156C212.927 81.7675 214.004 81.6972 215.055 81.5582C216.143 81.61 217.221 81.5396 218.271 81.4006C219.36 81.4526 220.437 81.3821 221.487 81.2431C222.576 81.2951 223.653 81.2247 224.704 81.0857C225.792 81.1375 226.869 81.0672 227.92 80.9282C229.009 80.9799 230.086 80.9096 231.136 80.7708C232.225 80.8226 233.302 80.7522 234.353 80.6132C235.441 80.665 236.518 80.5947 237.569 80.4557C238.657 80.5077 239.735 80.4373 240.785 80.2981C241.874 80.3501 242.951 80.2797 244.001 80.1408C248.11 80.3365 252.061 78.7801 255.003 78.447C255.881 77.4386 256.436 76.2523 256.695 74.8918C258.269 75.0846 258.164 74.3227 259.081 74.1428C258.116 72.4068 260.128 71.9048 257.861 70.7385Z" fill="#1071B9"/>
</g>
</svg>
