<svg width="441" height="132" viewBox="0 0 441 132" fill="none" xmlns="http://www.w3.org/2000/svg">
<mask id="mask0" mask-type="alpha" maskUnits="userSpaceOnUse" x="0" y="61" width="441" height="71">
<path fill-rule="evenodd" clip-rule="evenodd" d="M0 61H441V132H0V61Z" fill="white"/>
</mask>
<g mask="url(#mask0)">
<path fill-rule="evenodd" clip-rule="evenodd" d="M439.118 112.744C442.381 108.499 439.167 102.28 436.815 97.2947C439.086 89.8078 436.119 81.4642 429.303 76.4229C433.991 76.3969 429.13 73.9523 432.507 73.3771C427.624 71.5597 431.597 67.2574 427.998 64.9559C424.16 64.4684 422.59 62.5556 420.346 61.068C418.226 60.9543 416.295 60.9904 414.471 61.1224C412.497 61.032 410.683 61.0689 408.967 61.1933C406.993 61.1026 405.18 61.1399 403.463 61.264C401.489 61.1732 399.675 61.2105 397.958 61.3349C395.985 61.2441 394.171 61.2814 392.454 61.4058C390.481 61.315 388.667 61.352 386.95 61.4767C384.977 61.3859 383.163 61.4229 381.446 61.5473C379.472 61.4565 377.659 61.4938 375.942 61.6182C373.969 61.5274 372.155 61.5647 370.438 61.6888C368.464 61.5983 366.651 61.6353 364.934 61.7597C362.961 61.6689 361.147 61.7062 359.43 61.8306C357.456 61.7398 355.643 61.7771 353.926 61.9012C351.953 61.8108 350.139 61.8477 348.422 61.9721C346.448 61.8814 344.635 61.9187 342.918 62.0431C340.945 61.9523 339.131 61.9893 337.414 62.114C335.44 62.0232 333.627 62.0602 331.91 62.1846C329.937 62.0938 328.123 62.1311 326.406 62.2555C324.432 62.1647 322.619 62.202 320.902 62.3261C318.928 62.2356 317.115 62.2726 315.398 62.397C313.424 62.3062 311.611 62.3435 309.894 62.4679C307.92 62.3771 306.106 62.4141 304.39 62.5388C302.416 62.448 300.602 62.485 298.886 62.6094C296.912 62.5186 295.099 62.5559 293.381 62.6803C291.408 62.5895 289.594 62.6265 287.878 62.7512C285.904 62.6605 284.091 62.6974 282.374 62.8218C280.4 62.7311 278.586 62.7684 276.87 62.8928C274.896 62.802 273.082 62.8393 271.365 62.9634C269.392 62.8726 267.578 62.9099 265.861 63.0343C263.888 62.9435 262.074 62.9808 260.357 63.1052C258.383 63.0144 256.57 63.0514 254.853 63.1761C252.88 63.0853 251.066 63.1223 249.349 63.2467C247.375 63.1559 245.562 63.1932 243.845 63.3176C241.872 63.2268 240.058 63.2638 238.341 63.3882C236.367 63.2977 234.554 63.3347 232.837 63.4591C230.864 63.3686 229.05 63.4056 227.333 63.53C225.359 63.4393 223.546 63.4765 221.829 63.6006C219.856 63.5099 218.042 63.5471 216.325 63.6715C214.351 63.5808 212.538 63.6181 210.821 63.7425C208.848 63.6517 207.033 63.6887 205.317 63.8134C203.343 63.7226 201.53 63.7596 199.813 63.884C197.839 63.7932 196.026 63.8305 194.309 63.9549C192.335 63.8641 190.522 63.9014 188.805 64.0255C186.831 63.935 185.017 63.972 183.3 64.0964C181.327 64.0059 179.514 64.0429 177.797 64.1673C175.823 64.0765 174.009 64.1138 172.292 64.2379C170.319 64.1474 168.505 64.1844 166.789 64.3088C164.815 64.218 163.001 64.2553 161.284 64.3797C159.311 64.289 157.497 64.3259 155.781 64.4506C153.807 64.3599 151.993 64.3968 150.276 64.5212C148.303 64.4305 146.489 64.4678 144.773 64.5922C142.799 64.5014 140.985 64.5387 139.268 64.6628C137.295 64.5723 135.481 64.6093 133.764 64.7337C131.791 64.6429 129.977 64.6802 128.26 64.8046C126.286 64.7138 124.473 64.7508 122.756 64.8755C120.783 64.7847 118.969 64.8217 117.252 64.9461C115.278 64.8553 113.465 64.8926 111.748 65.017C109.774 64.9262 107.961 64.9632 106.244 65.0879C104.27 64.9971 102.457 65.0341 100.74 65.1585C98.7661 65.0677 96.9529 65.105 95.2361 65.2294C93.2623 65.1387 91.4487 65.1759 89.7318 65.3C87.7581 65.2093 85.9444 65.2465 84.228 65.3709C82.2543 65.2802 80.4406 65.3175 78.7237 65.4419C76.75 65.3511 74.9368 65.3881 73.22 65.5128C71.2463 65.422 69.4326 65.459 67.7157 65.5834C65.742 65.4926 63.9283 65.5299 62.2114 65.6543C60.2382 65.5635 58.4245 65.6005 56.7077 65.7252C54.7339 65.6344 52.9202 65.6714 51.2034 65.7958C49.2297 65.7053 47.4165 65.7423 45.6996 65.8667C43.7259 65.7759 41.9122 65.8132 40.1953 65.9373C38.2221 65.8465 36.4084 65.8838 34.6911 66.0082C32.7179 65.9174 30.9042 65.9547 29.1873 66.0791C19.4767 65.6326 13.6779 68.311 3.85518 68.9715C1.53953 71.8644 2.83648 74.6792 0 76.5213C1.04928 79.2715 4.55284 80.4831 7.71394 81.9038C6.58312 82.5609 7.29759 84.2676 6.17288 84.9248C9.21066 85.6886 10.1937 84.7762 12.8528 85.324C12.8192 85.2366 12.7988 85.1546 12.7835 85.0752C14.6344 85.3463 15.6735 84.9615 17.3032 85.1005C17.0877 85.7369 16.9888 86.4402 17.0968 87.2618C11.484 85.3976 10.6421 91.808 10.6202 91.8514C10.5463 91.9957 8.93547 91.3535 8.93649 91.3752C7.6482 97.5022 20.7492 101.857 17.1407 108.741C18.1451 109.302 20.1091 109.259 22.1572 109.165C22.5889 111.541 21.7144 115.605 19.1781 117.703C20.1891 118.941 22.5609 119.324 22.648 121.148C20.6131 124.499 15.3168 123.07 14.5697 127.26C17.503 127.801 20.6111 128.234 19.7295 131.181C23.0379 132.077 26.3839 132.133 29.598 131.845C31.4545 131.987 33.2993 131.936 35.1023 131.774C36.9583 131.917 38.8031 131.865 40.6061 131.703C42.4626 131.846 44.3074 131.794 46.1104 131.632C47.9669 131.775 49.8111 131.723 51.6141 131.561C53.4706 131.704 55.3154 131.652 57.1184 131.49C58.9744 131.633 60.8192 131.581 62.6222 131.42C64.4787 131.562 66.3234 131.511 68.1264 131.349C69.9829 131.492 71.8272 131.44 73.6302 131.278C75.4867 131.421 77.3315 131.369 79.1345 131.207C80.991 131.35 82.8353 131.298 84.6382 131.136C86.4947 131.279 88.3395 131.227 90.1425 131.065C91.999 131.208 93.8433 131.157 95.6468 130.995C97.5033 131.138 99.3476 131.086 101.151 130.924C103.007 131.067 104.852 131.015 106.655 130.853C108.511 130.996 110.356 130.944 112.159 130.782C114.015 130.925 115.859 130.873 117.662 130.712C119.519 130.854 121.364 130.803 123.167 130.641C125.023 130.784 126.868 130.732 128.671 130.57C130.527 130.713 132.372 130.661 134.175 130.499C136.031 130.642 137.876 130.59 139.679 130.428C141.535 130.571 143.38 130.519 145.183 130.357C147.039 130.5 148.884 130.449 150.687 130.287C152.544 130.429 154.388 130.378 156.191 130.216C158.048 130.358 159.892 130.307 161.695 130.145C163.552 130.288 165.396 130.236 167.199 130.074C169.056 130.217 170.9 130.165 172.703 130.003C174.56 130.146 176.404 130.094 178.207 129.932C180.064 130.075 181.908 130.024 183.711 129.862C185.568 130.005 187.412 129.953 189.215 129.791C191.072 129.934 192.916 129.882 194.719 129.72C196.576 129.863 198.42 129.811 200.223 129.649C202.08 129.792 203.924 129.74 205.728 129.578C207.584 129.721 209.429 129.67 211.232 129.508C213.088 129.651 214.932 129.599 216.736 129.437C218.592 129.58 220.437 129.528 222.24 129.366C224.096 129.509 225.941 129.457 227.744 129.295C229.6 129.438 231.445 129.387 233.248 129.225C235.104 129.367 236.949 129.316 238.752 129.154C240.608 129.297 242.453 129.245 244.256 129.083C246.112 129.226 247.957 129.174 249.76 129.012C251.616 129.155 253.461 129.103 255.264 128.941C257.12 129.084 258.965 129.033 260.768 128.871C262.624 129.013 264.469 128.962 266.272 128.8C268.129 128.942 269.973 128.891 271.776 128.729C273.633 128.872 275.477 128.82 277.28 128.658C279.137 128.801 280.981 128.749 282.784 128.587C284.641 128.73 286.485 128.678 288.288 128.516C290.145 128.659 291.989 128.607 293.792 128.446C295.649 128.588 297.493 128.537 299.296 128.375C301.153 128.518 302.997 128.466 304.8 128.304C306.657 128.447 308.501 128.395 310.304 128.233C312.161 128.376 314.005 128.324 315.808 128.162C317.665 128.305 319.509 128.253 321.312 128.091C323.169 128.235 325.013 128.183 326.816 128.021C328.673 128.164 330.518 128.112 332.32 127.95C334.177 128.093 336.022 128.041 337.825 127.879C339.681 128.022 341.526 127.97 343.329 127.808C345.185 127.951 347.03 127.9 348.833 127.738C350.689 127.88 352.534 127.829 354.337 127.667C356.193 127.81 358.038 127.758 359.841 127.596C361.697 127.739 363.542 127.687 365.345 127.525C367.201 127.668 369.046 127.616 370.849 127.454C372.705 127.597 374.55 127.545 376.353 127.383C378.209 127.526 380.054 127.475 381.857 127.313C383.713 127.455 385.558 127.404 387.361 127.242C389.218 127.385 391.062 127.333 392.865 127.171C394.721 127.314 396.566 127.262 398.369 127.1C400.226 127.243 402.07 127.191 403.873 127.029C405.73 127.172 407.574 127.121 409.377 126.958C411.234 127.102 413.078 127.05 414.881 126.888C421.889 127.427 428.732 125.178 433.777 124.813C435.336 123.263 436.355 121.412 436.879 119.268C439.556 119.661 439.423 118.447 441 118.212C439.453 115.405 442.921 114.72 439.118 112.744" fill="white"/>
<path fill-rule="evenodd" clip-rule="evenodd" d="M439.118 169.744C442.381 165.499 439.167 159.28 436.815 154.295C439.086 146.808 436.119 138.464 429.303 133.423C433.991 133.397 429.13 130.952 432.507 130.377C427.624 128.56 431.597 124.257 427.998 121.956C424.16 121.468 422.59 119.556 420.346 118.068C418.226 117.954 416.295 117.99 414.471 118.122C412.497 118.032 410.683 118.069 408.967 118.193C406.993 118.103 405.18 118.14 403.463 118.264C401.489 118.173 399.675 118.21 397.958 118.335C395.985 118.244 394.171 118.281 392.454 118.406C390.481 118.315 388.667 118.352 386.95 118.477C384.977 118.386 383.163 118.423 381.446 118.547C379.472 118.457 377.659 118.494 375.942 118.618C373.969 118.527 372.155 118.565 370.438 118.689C368.464 118.598 366.651 118.635 364.934 118.76C362.961 118.669 361.147 118.706 359.43 118.831C357.456 118.74 355.643 118.777 353.926 118.901C351.953 118.811 350.139 118.848 348.422 118.972C346.448 118.881 344.635 118.919 342.918 119.043C340.945 118.952 339.131 118.989 337.414 119.114C335.44 119.023 333.627 119.06 331.91 119.185C329.937 119.094 328.123 119.131 326.406 119.255C324.432 119.165 322.619 119.202 320.902 119.326C318.928 119.236 317.115 119.273 315.398 119.397C313.424 119.306 311.611 119.344 309.894 119.468C307.92 119.377 306.106 119.414 304.39 119.539C302.416 119.448 300.602 119.485 298.886 119.609C296.912 119.519 295.099 119.556 293.381 119.68C291.408 119.59 289.594 119.627 287.878 119.751C285.904 119.66 284.091 119.697 282.374 119.822C280.4 119.731 278.586 119.768 276.87 119.893C274.896 119.802 273.082 119.839 271.365 119.963C269.392 119.873 267.578 119.91 265.861 120.034C263.888 119.943 262.074 119.981 260.357 120.105C258.383 120.014 256.57 120.051 254.853 120.176C252.88 120.085 251.066 120.122 249.349 120.247C247.375 120.156 245.562 120.193 243.845 120.318C241.872 120.227 240.058 120.264 238.341 120.388C236.367 120.298 234.554 120.335 232.837 120.459C230.864 120.369 229.05 120.406 227.333 120.53C225.359 120.439 223.546 120.477 221.829 120.601C219.856 120.51 218.042 120.547 216.325 120.672C214.351 120.581 212.538 120.618 210.821 120.742C208.848 120.652 207.033 120.689 205.317 120.813C203.343 120.723 201.53 120.76 199.813 120.884C197.839 120.793 196.026 120.83 194.309 120.955C192.335 120.864 190.522 120.901 188.805 121.025C186.831 120.935 185.017 120.972 183.3 121.096C181.327 121.006 179.514 121.043 177.797 121.167C175.823 121.077 174.009 121.114 172.292 121.238C170.319 121.147 168.505 121.184 166.789 121.309C164.815 121.218 163.001 121.255 161.284 121.38C159.311 121.289 157.497 121.326 155.781 121.451C153.807 121.36 151.993 121.397 150.276 121.521C148.303 121.43 146.489 121.468 144.773 121.592C142.799 121.501 140.985 121.539 139.268 121.663C137.295 121.572 135.481 121.609 133.764 121.734C131.791 121.643 129.977 121.68 128.26 121.805C126.286 121.714 124.473 121.751 122.756 121.875C120.783 121.785 118.969 121.822 117.252 121.946C115.278 121.855 113.465 121.893 111.748 122.017C109.774 121.926 107.961 121.963 106.244 122.088C104.27 121.997 102.457 122.034 100.74 122.159C98.7661 122.068 96.9529 122.105 95.2361 122.229C93.2623 122.139 91.4487 122.176 89.7318 122.3C87.7581 122.209 85.9444 122.247 84.228 122.371C82.2543 122.28 80.4406 122.317 78.7237 122.442C76.75 122.351 74.9368 122.388 73.22 122.513C71.2463 122.422 69.4326 122.459 67.7157 122.583C65.742 122.493 63.9283 122.53 62.2114 122.654C60.2382 122.564 58.4245 122.6 56.7077 122.725C54.7339 122.634 52.9202 122.671 51.2034 122.796C49.2297 122.705 47.4165 122.742 45.6996 122.867C43.7259 122.776 41.9122 122.813 40.1953 122.937C38.2221 122.847 36.4084 122.884 34.6911 123.008C32.7179 122.917 30.9042 122.955 29.1873 123.079C19.4767 122.633 13.6779 125.311 3.85518 125.971C1.53953 128.864 2.83648 131.679 0 133.521C1.04928 136.272 4.55284 137.483 7.71394 138.904C6.58312 139.561 7.29759 141.268 6.17288 141.925C9.21066 142.689 10.1937 141.776 12.8528 142.324C12.8192 142.237 12.7988 142.155 12.7835 142.075C14.6344 142.346 15.6735 141.961 17.3032 142.101C17.0877 142.737 16.9888 143.44 17.0968 144.262C11.484 142.398 10.6421 148.808 10.6202 148.851C10.5463 148.996 8.93547 148.353 8.93649 148.375C7.6482 154.502 20.7492 158.857 17.1407 165.741C18.1451 166.302 20.1091 166.259 22.1572 166.165C22.5889 168.541 21.7144 172.605 19.1781 174.703C20.1891 175.941 22.5609 176.324 22.648 178.148C20.6131 181.499 15.3168 180.07 14.5697 184.26C17.503 184.801 20.6111 185.234 19.7295 188.181C23.0379 189.077 26.3839 189.133 29.598 188.845C31.4545 188.987 33.2993 188.936 35.1023 188.774C36.9583 188.917 38.8031 188.865 40.6061 188.703C42.4626 188.846 44.3074 188.794 46.1104 188.632C47.9669 188.775 49.8111 188.723 51.6141 188.561C53.4706 188.704 55.3154 188.652 57.1184 188.49C58.9744 188.633 60.8192 188.581 62.6222 188.42C64.4787 188.562 66.3234 188.511 68.1264 188.349C69.9829 188.492 71.8272 188.44 73.6302 188.278C75.4867 188.421 77.3315 188.369 79.1345 188.207C80.991 188.35 82.8353 188.298 84.6382 188.136C86.4947 188.279 88.3395 188.227 90.1425 188.065C91.999 188.208 93.8433 188.157 95.6468 187.995C97.5033 188.138 99.3476 188.086 101.151 187.924C103.007 188.067 104.852 188.015 106.655 187.853C108.511 187.996 110.356 187.944 112.159 187.782C114.015 187.925 115.859 187.873 117.662 187.712C119.519 187.854 121.364 187.803 123.167 187.641C125.023 187.784 126.868 187.732 128.671 187.57C130.527 187.713 132.372 187.661 134.175 187.499C136.031 187.642 137.876 187.59 139.679 187.428C141.535 187.571 143.38 187.519 145.183 187.357C147.039 187.5 148.884 187.449 150.687 187.287C152.544 187.429 154.388 187.378 156.191 187.216C158.048 187.358 159.892 187.307 161.695 187.145C163.552 187.288 165.396 187.236 167.199 187.074C169.056 187.217 170.9 187.165 172.703 187.003C174.56 187.146 176.404 187.094 178.207 186.932C180.064 187.075 181.908 187.024 183.711 186.862C185.568 187.005 187.412 186.953 189.215 186.791C191.072 186.934 192.916 186.882 194.719 186.72C196.576 186.863 198.42 186.811 200.223 186.649C202.08 186.792 203.924 186.74 205.728 186.578C207.584 186.721 209.429 186.67 211.232 186.508C213.088 186.651 214.932 186.599 216.736 186.437C218.592 186.58 220.437 186.528 222.24 186.366C224.096 186.509 225.941 186.457 227.744 186.295C229.6 186.438 231.445 186.387 233.248 186.225C235.104 186.367 236.949 186.316 238.752 186.154C240.608 186.297 242.453 186.245 244.256 186.083C246.112 186.226 247.957 186.174 249.76 186.012C251.616 186.155 253.461 186.103 255.264 185.941C257.12 186.084 258.965 186.033 260.768 185.871C262.624 186.013 264.469 185.962 266.272 185.8C268.129 185.942 269.973 185.891 271.776 185.729C273.633 185.872 275.477 185.82 277.28 185.658C279.137 185.801 280.981 185.749 282.784 185.587C284.641 185.73 286.485 185.678 288.288 185.516C290.145 185.659 291.989 185.607 293.792 185.446C295.649 185.588 297.493 185.537 299.296 185.375C301.153 185.518 302.997 185.466 304.8 185.304C306.657 185.447 308.501 185.395 310.304 185.233C312.161 185.376 314.005 185.324 315.808 185.162C317.665 185.305 319.509 185.253 321.312 185.091C323.169 185.235 325.013 185.183 326.816 185.021C328.673 185.164 330.518 185.112 332.32 184.95C334.177 185.093 336.022 185.041 337.825 184.879C339.681 185.022 341.526 184.97 343.329 184.808C345.185 184.951 347.03 184.9 348.833 184.738C350.689 184.88 352.534 184.829 354.337 184.667C356.193 184.81 358.038 184.758 359.841 184.596C361.697 184.739 363.542 184.687 365.345 184.525C367.201 184.668 369.046 184.616 370.849 184.454C372.705 184.597 374.55 184.545 376.353 184.383C378.209 184.526 380.054 184.475 381.857 184.313C383.713 184.455 385.558 184.404 387.361 184.242C389.218 184.385 391.062 184.333 392.865 184.171C394.721 184.314 396.566 184.262 398.369 184.1C400.226 184.243 402.07 184.191 403.873 184.029C405.73 184.172 407.574 184.121 409.377 183.958C411.234 184.102 413.078 184.05 414.881 183.888C421.889 184.427 428.732 182.178 433.777 181.813C435.336 180.263 436.355 178.412 436.879 176.268C439.556 176.661 439.423 175.447 441 175.212C439.453 172.405 442.921 171.72 439.118 169.744" fill="white"/>
</g>
<mask id="mask1" mask-type="alpha" maskUnits="userSpaceOnUse" x="0" y="0" width="441" height="71">
<path fill-rule="evenodd" clip-rule="evenodd" d="M0 0H441V71H0V0Z" fill="white"/>
</mask>
<g mask="url(#mask1)">
<path fill-rule="evenodd" clip-rule="evenodd" d="M439.118 51.744C442.381 47.4985 439.167 41.2804 436.815 36.2947C439.086 28.8078 436.119 20.4642 429.303 15.4229C433.991 15.3969 429.13 12.9523 432.507 12.3771C427.624 10.5597 431.597 6.25741 427.998 3.95588C424.16 3.46837 422.59 1.55562 420.346 0.0680322C418.226 -0.045669 416.295 -0.00960249 414.471 0.122438C412.497 0.0319657 410.683 0.0689491 408.967 0.193348C406.993 0.10257 405.18 0.139859 403.463 0.263953C401.489 0.173175 399.675 0.210464 397.958 0.334863C395.985 0.244086 394.171 0.281375 392.454 0.405773C390.481 0.314996 388.667 0.351979 386.95 0.476684C384.977 0.385906 383.163 0.42289 381.446 0.547289C379.472 0.456511 377.659 0.4938 375.942 0.618199C373.969 0.527421 372.155 0.564711 370.438 0.688804C368.464 0.598332 366.651 0.635315 364.934 0.759714C362.961 0.668937 361.147 0.706226 359.43 0.830625C357.456 0.739847 355.643 0.777136 353.926 0.901229C351.953 0.810757 350.139 0.847741 348.422 0.97214C346.448 0.881362 344.635 0.918651 342.918 1.04305C340.945 0.952273 339.131 0.989256 337.414 1.11396C335.44 1.02318 333.627 1.06017 331.91 1.18457C329.937 1.09379 328.123 1.13108 326.406 1.25548C324.432 1.1647 322.619 1.20199 320.902 1.32608C318.928 1.23561 317.115 1.27259 315.398 1.39699C313.424 1.30621 311.611 1.3435 309.894 1.4679C307.92 1.37712 306.106 1.41411 304.39 1.53881C302.416 1.44803 300.602 1.48502 298.886 1.60942C296.912 1.51864 295.099 1.55593 293.381 1.68033C291.408 1.58955 289.594 1.62653 287.878 1.75124C285.904 1.66046 284.091 1.69744 282.374 1.82184C280.4 1.73106 278.586 1.76835 276.87 1.89275C274.896 1.80197 273.082 1.83926 271.365 1.96336C269.392 1.87258 267.578 1.90987 265.861 2.03427C263.888 1.94349 262.074 1.98078 260.357 2.10518C258.383 2.0144 256.57 2.05138 254.853 2.17609C252.88 2.08531 251.066 2.12229 249.349 2.24669C247.375 2.15592 245.562 2.1932 243.845 2.3176C241.872 2.22683 240.058 2.26381 238.341 2.38821C236.367 2.29774 234.554 2.33472 232.837 2.45912C230.864 2.36865 229.05 2.40563 227.333 2.53003C225.359 2.43925 223.546 2.47654 221.829 2.60063C219.856 2.50986 218.042 2.54714 216.325 2.67154C214.351 2.58077 212.538 2.61806 210.821 2.74245C208.848 2.65168 207.033 2.68866 205.317 2.81336C203.343 2.72259 201.53 2.75957 199.813 2.88397C197.839 2.79319 196.026 2.83048 194.309 2.95488C192.335 2.8641 190.522 2.90139 188.805 3.02548C186.831 2.93501 185.017 2.972 183.3 3.09639C181.327 3.00592 179.514 3.04291 177.797 3.16731C175.823 3.07653 174.009 3.11382 172.292 3.23791C170.319 3.14744 168.505 3.18442 166.789 3.30882C164.815 3.21804 163.001 3.25533 161.284 3.37973C159.311 3.28895 157.497 3.32594 155.781 3.45064C153.807 3.35986 151.993 3.39685 150.276 3.52125C148.303 3.43047 146.489 3.46776 144.773 3.59216C142.799 3.50138 140.985 3.53867 139.268 3.66276C137.295 3.57229 135.481 3.60927 133.764 3.73367C131.791 3.64289 129.977 3.68018 128.26 3.80458C126.286 3.7138 124.473 3.75079 122.756 3.87549C120.783 3.78471 118.969 3.8217 117.252 3.9461C115.278 3.85532 113.465 3.89261 111.748 4.01701C109.774 3.92623 107.961 3.96321 106.244 4.08792C104.27 3.99714 102.457 4.03412 100.74 4.15852C98.7661 4.06775 96.9529 4.10503 95.2361 4.22943C93.2623 4.13866 91.4487 4.17594 89.7318 4.30004C87.7581 4.20926 85.9444 4.24655 84.228 4.37095C82.2543 4.28017 80.4406 4.31746 78.7237 4.44186C76.75 4.35108 74.9368 4.38806 73.22 4.51277C71.2463 4.42199 69.4326 4.45897 67.7157 4.58337C65.742 4.4926 63.9283 4.52989 62.2114 4.65428C60.2382 4.56351 58.4245 4.60049 56.7077 4.72519C54.7339 4.63442 52.9202 4.6714 51.2034 4.7958C49.2297 4.70533 47.4165 4.74231 45.6996 4.86671C43.7259 4.77593 41.9122 4.81322 40.1953 4.93731C38.2221 4.84654 36.4084 4.88383 34.6911 5.00822C32.7179 4.91745 30.9042 4.95474 29.1873 5.07913C19.4767 4.63258 13.6779 7.31098 3.85518 7.97148C1.53953 10.8644 2.83648 13.6792 0 15.5213C1.04928 18.2715 4.55284 19.4831 7.71394 20.9038C6.58312 21.5609 7.29759 23.2676 6.17288 23.9248C9.21066 24.6886 10.1937 23.7762 12.8528 24.324C12.8192 24.2366 12.7988 24.1546 12.7835 24.0752C14.6344 24.3463 15.6735 23.9615 17.3032 24.1005C17.0877 24.7369 16.9888 25.4402 17.0968 26.2618C11.484 24.3976 10.6421 30.808 10.6202 30.8514C10.5463 30.9957 8.93547 30.3535 8.93649 30.3752C7.6482 36.5022 20.7492 40.8571 17.1407 47.7412C18.1451 48.3024 20.1091 48.2593 22.1572 48.1645C22.5889 50.5413 21.7144 54.6048 19.1781 56.7034C20.1891 57.9407 22.5609 58.3243 22.648 60.1481C20.6131 63.4986 15.3168 62.0703 14.5697 66.2604C17.503 66.8005 20.6111 67.2342 19.7295 70.1813C23.0378 71.0775 26.3839 71.1331 29.598 70.8446C31.4545 70.9873 33.2993 70.9356 35.1023 70.7736C36.9583 70.9167 38.8031 70.8647 40.6061 70.7027C42.4626 70.8458 44.3074 70.7938 46.1104 70.6318C47.9669 70.7749 49.8111 70.7232 51.6141 70.5612C53.4706 70.7039 55.3154 70.6523 57.1184 70.4903C58.9744 70.6333 60.8192 70.5814 62.6222 70.4197C64.4787 70.5624 66.3234 70.5108 68.1264 70.3488C69.9829 70.4915 71.8272 70.4399 73.6302 70.2779C75.4867 70.4206 77.3315 70.3693 79.1345 70.2073C80.991 70.35 82.8353 70.2984 84.6382 70.1364C86.4947 70.2791 88.3395 70.2274 90.1425 70.0655C91.999 70.2085 93.8433 70.1565 95.6468 69.9945C97.5033 70.1376 99.3476 70.0859 101.151 69.9239C103.007 70.0667 104.852 70.015 106.655 69.853C108.511 69.9961 110.356 69.9441 112.159 69.7824C114.015 69.9252 115.859 69.8732 117.662 69.7115C119.519 69.8542 121.364 69.8026 123.167 69.6406C125.023 69.7836 126.868 69.732 128.671 69.5697C130.527 69.7127 132.372 69.6611 134.175 69.4991C136.031 69.6418 137.876 69.5902 139.679 69.4282C141.535 69.5712 143.38 69.5193 145.183 69.3573C147.039 69.5003 148.884 69.4487 150.687 69.2867C152.544 69.4294 154.388 69.3777 156.191 69.2158C158.048 69.3585 159.892 69.3068 161.695 69.1451C163.552 69.2879 165.396 69.2359 167.199 69.0742C169.056 69.217 170.9 69.1653 172.703 69.0033C174.56 69.1464 176.404 69.0944 178.207 68.9324C180.064 69.0755 181.908 69.0238 183.711 68.8618C185.568 69.0045 187.412 68.9529 189.215 68.7909C191.072 68.9339 192.916 68.882 194.719 68.7203C196.576 68.863 198.42 68.8114 200.223 68.6494C202.08 68.7921 203.924 68.7405 205.728 68.5785C207.584 68.7212 209.429 68.6696 211.232 68.5079C213.088 68.6506 214.932 68.599 216.736 68.437C218.592 68.58 220.437 68.528 222.24 68.3661C224.096 68.5091 225.941 68.4574 227.744 68.2951C229.6 68.4382 231.445 68.3865 233.248 68.2245C235.104 68.3673 236.949 68.3156 238.752 68.1536C240.608 68.2967 242.453 68.2447 244.256 68.083C246.112 68.2258 247.957 68.1741 249.76 68.0121C251.616 68.1548 253.461 68.1032 255.264 67.9412C257.12 68.0839 258.965 68.0326 260.768 67.8706C262.624 68.0133 264.469 67.9617 266.272 67.7997C268.129 67.9424 269.973 67.8908 271.776 67.7288C273.633 67.8718 275.477 67.8199 277.28 67.6579C279.137 67.8009 280.981 67.7493 282.784 67.5873C284.641 67.73 286.485 67.6783 288.288 67.5163C290.145 67.6594 291.989 67.6074 293.792 67.4457C295.649 67.5885 297.493 67.5365 299.296 67.3748C301.153 67.5176 302.997 67.4659 304.8 67.3039C306.657 67.4467 308.501 67.3953 310.304 67.233C312.161 67.3761 314.005 67.3244 315.808 67.1624C317.665 67.3051 319.509 67.2535 321.312 67.0915C323.169 67.2345 325.013 67.1826 326.816 67.0206C328.673 67.1636 330.518 67.112 332.32 66.95C334.177 67.0927 336.022 67.0411 337.825 66.8791C339.681 67.0221 341.526 66.9702 343.329 66.8085C345.185 66.9512 347.03 66.8996 348.833 66.7376C350.689 66.8803 352.534 66.8286 354.337 66.6666C356.193 66.8097 358.038 66.7577 359.841 66.5957C361.697 66.7388 363.542 66.6871 365.345 66.5251C367.201 66.6679 369.046 66.6162 370.849 66.4542C372.705 66.5973 374.55 66.5453 376.353 66.3833C378.209 66.5264 380.054 66.4747 381.857 66.3127C383.713 66.4554 385.558 66.4038 387.361 66.2418C389.218 66.3845 391.062 66.3329 392.865 66.1712C394.721 66.3139 396.566 66.2623 398.369 66.1003C400.226 66.243 402.07 66.1914 403.873 66.0294C405.73 66.1724 407.574 66.1208 409.377 65.9585C411.234 66.1015 413.078 66.0499 414.881 65.8879C421.889 66.427 428.732 64.1781 433.777 63.8134C435.336 62.2626 436.355 60.4116 436.879 58.2677C439.556 58.6611 439.423 57.4468 441 57.2123C439.453 54.4046 442.921 53.7203 439.118 51.744Z" fill="white"/>
<path fill-rule="evenodd" clip-rule="evenodd" d="M439.118 108.744C442.381 104.499 439.167 98.2804 436.815 93.2947C439.086 85.8078 436.119 77.4642 429.303 72.4229C433.991 72.3969 429.13 69.9523 432.507 69.3771C427.624 67.5597 431.597 63.2574 427.998 60.9559C424.16 60.4684 422.59 58.5556 420.346 57.068C418.226 56.9543 416.295 56.9904 414.471 57.1224C412.497 57.032 410.683 57.0689 408.967 57.1933C406.993 57.1026 405.18 57.1399 403.463 57.264C401.489 57.1732 399.675 57.2105 397.958 57.3349C395.985 57.2441 394.171 57.2814 392.454 57.4058C390.481 57.315 388.667 57.352 386.95 57.4767C384.977 57.3859 383.163 57.4229 381.446 57.5473C379.472 57.4565 377.659 57.4938 375.942 57.6182C373.969 57.5274 372.155 57.5647 370.438 57.6888C368.464 57.5983 366.651 57.6353 364.934 57.7597C362.961 57.6689 361.147 57.7062 359.43 57.8306C357.456 57.7398 355.643 57.7771 353.926 57.9012C351.953 57.8108 350.139 57.8477 348.422 57.9721C346.448 57.8814 344.635 57.9187 342.918 58.0431C340.945 57.9523 339.131 57.9893 337.414 58.114C335.44 58.0232 333.627 58.0602 331.91 58.1846C329.937 58.0938 328.123 58.1311 326.406 58.2555C324.432 58.1647 322.619 58.202 320.902 58.3261C318.928 58.2356 317.115 58.2726 315.398 58.397C313.424 58.3062 311.611 58.3435 309.894 58.4679C307.92 58.3771 306.106 58.4141 304.39 58.5388C302.416 58.448 300.602 58.485 298.886 58.6094C296.912 58.5186 295.099 58.5559 293.381 58.6803C291.408 58.5895 289.594 58.6265 287.878 58.7512C285.904 58.6605 284.091 58.6974 282.374 58.8218C280.4 58.7311 278.586 58.7684 276.87 58.8928C274.896 58.802 273.082 58.8393 271.365 58.9634C269.392 58.8726 267.578 58.9099 265.861 59.0343C263.888 58.9435 262.074 58.9808 260.357 59.1052C258.383 59.0144 256.57 59.0514 254.853 59.1761C252.88 59.0853 251.066 59.1223 249.349 59.2467C247.375 59.1559 245.562 59.1932 243.845 59.3176C241.872 59.2268 240.058 59.2638 238.341 59.3882C236.367 59.2977 234.554 59.3347 232.837 59.4591C230.864 59.3686 229.05 59.4056 227.333 59.53C225.359 59.4393 223.546 59.4765 221.829 59.6006C219.856 59.5099 218.042 59.5471 216.325 59.6715C214.351 59.5808 212.538 59.6181 210.821 59.7425C208.848 59.6517 207.033 59.6887 205.317 59.8134C203.343 59.7226 201.53 59.7596 199.813 59.884C197.839 59.7932 196.026 59.8305 194.309 59.9549C192.335 59.8641 190.522 59.9014 188.805 60.0255C186.831 59.935 185.017 59.972 183.3 60.0964C181.327 60.0059 179.514 60.0429 177.797 60.1673C175.823 60.0765 174.009 60.1138 172.292 60.2379C170.319 60.1474 168.505 60.1844 166.789 60.3088C164.815 60.218 163.001 60.2553 161.284 60.3797C159.311 60.289 157.497 60.3259 155.781 60.4506C153.807 60.3599 151.993 60.3968 150.276 60.5212C148.303 60.4305 146.489 60.4678 144.773 60.5922C142.799 60.5014 140.985 60.5387 139.268 60.6628C137.295 60.5723 135.481 60.6093 133.764 60.7337C131.791 60.6429 129.977 60.6802 128.26 60.8046C126.286 60.7138 124.473 60.7508 122.756 60.8755C120.783 60.7847 118.969 60.8217 117.252 60.9461C115.278 60.8553 113.465 60.8926 111.748 61.017C109.774 60.9262 107.961 60.9632 106.244 61.0879C104.27 60.9971 102.457 61.0341 100.74 61.1585C98.7661 61.0677 96.9529 61.105 95.2361 61.2294C93.2623 61.1387 91.4487 61.1759 89.7318 61.3C87.7581 61.2093 85.9444 61.2465 84.228 61.3709C82.2543 61.2802 80.4406 61.3175 78.7237 61.4419C76.75 61.3511 74.9368 61.3881 73.22 61.5128C71.2463 61.422 69.4326 61.459 67.7157 61.5834C65.742 61.4926 63.9283 61.5299 62.2114 61.6543C60.2382 61.5635 58.4245 61.6005 56.7077 61.7252C54.7339 61.6344 52.9202 61.6714 51.2034 61.7958C49.2297 61.7053 47.4165 61.7423 45.6996 61.8667C43.7259 61.7759 41.9122 61.8132 40.1953 61.9373C38.2221 61.8465 36.4084 61.8838 34.6911 62.0082C32.7179 61.9174 30.9042 61.9547 29.1873 62.0791C19.4767 61.6326 13.6779 64.311 3.85518 64.9715C1.53953 67.8644 2.83648 70.6792 0 72.5213C1.04928 75.2715 4.55284 76.4831 7.71394 77.9038C6.58312 78.5609 7.29759 80.2676 6.17288 80.9248C9.21066 81.6886 10.1937 80.7762 12.8528 81.324C12.8192 81.2366 12.7988 81.1546 12.7835 81.0752C14.6344 81.3463 15.6735 80.9615 17.3032 81.1005C17.0877 81.7369 16.9888 82.4402 17.0968 83.2618C11.484 81.3976 10.6421 87.808 10.6202 87.8514C10.5463 87.9957 8.93547 87.3535 8.93649 87.3752C7.6482 93.5022 20.7492 97.8571 17.1407 104.741C18.1451 105.302 20.1091 105.259 22.1572 105.165C22.5889 107.541 21.7144 111.605 19.1781 113.703C20.1891 114.941 22.5609 115.324 22.648 117.148C20.6131 120.499 15.3168 119.07 14.5697 123.26C17.503 123.801 20.6111 124.234 19.7295 127.181C23.0379 128.077 26.3839 128.133 29.598 127.845C31.4545 127.987 33.2993 127.936 35.1023 127.774C36.9583 127.917 38.8031 127.865 40.6061 127.703C42.4626 127.846 44.3074 127.794 46.1104 127.632C47.9669 127.775 49.8111 127.723 51.6141 127.561C53.4706 127.704 55.3154 127.652 57.1184 127.49C58.9744 127.633 60.8192 127.581 62.6222 127.42C64.4787 127.562 66.3234 127.511 68.1264 127.349C69.9829 127.492 71.8272 127.44 73.6302 127.278C75.4867 127.421 77.3315 127.369 79.1345 127.207C80.991 127.35 82.8353 127.298 84.6382 127.136C86.4947 127.279 88.3395 127.227 90.1425 127.065C91.999 127.208 93.8433 127.157 95.6468 126.995C97.5033 127.138 99.3476 127.086 101.151 126.924C103.007 127.067 104.852 127.015 106.655 126.853C108.511 126.996 110.356 126.944 112.159 126.782C114.015 126.925 115.859 126.873 117.662 126.712C119.519 126.854 121.364 126.803 123.167 126.641C125.023 126.784 126.868 126.732 128.671 126.57C130.527 126.713 132.372 126.661 134.175 126.499C136.031 126.642 137.876 126.59 139.679 126.428C141.535 126.571 143.38 126.519 145.183 126.357C147.039 126.5 148.884 126.449 150.687 126.287C152.544 126.429 154.388 126.378 156.191 126.216C158.048 126.358 159.892 126.307 161.695 126.145C163.552 126.288 165.396 126.236 167.199 126.074C169.056 126.217 170.9 126.165 172.703 126.003C174.56 126.146 176.404 126.094 178.207 125.932C180.064 126.075 181.908 126.024 183.711 125.862C185.568 126.005 187.412 125.953 189.215 125.791C191.072 125.934 192.916 125.882 194.719 125.72C196.576 125.863 198.42 125.811 200.223 125.649C202.08 125.792 203.924 125.74 205.728 125.578C207.584 125.721 209.429 125.67 211.232 125.508C213.088 125.651 214.932 125.599 216.736 125.437C218.592 125.58 220.437 125.528 222.24 125.366C224.096 125.509 225.941 125.457 227.744 125.295C229.6 125.438 231.445 125.387 233.248 125.225C235.104 125.367 236.949 125.316 238.752 125.154C240.608 125.297 242.453 125.245 244.256 125.083C246.112 125.226 247.957 125.174 249.76 125.012C251.616 125.155 253.461 125.103 255.264 124.941C257.12 125.084 258.965 125.033 260.768 124.871C262.624 125.013 264.469 124.962 266.272 124.8C268.129 124.942 269.973 124.891 271.776 124.729C273.633 124.872 275.477 124.82 277.28 124.658C279.137 124.801 280.981 124.749 282.784 124.587C284.641 124.73 286.485 124.678 288.288 124.516C290.145 124.659 291.989 124.607 293.792 124.446C295.649 124.588 297.493 124.537 299.296 124.375C301.153 124.518 302.997 124.466 304.8 124.304C306.657 124.447 308.501 124.395 310.304 124.233C312.161 124.376 314.005 124.324 315.808 124.162C317.665 124.305 319.509 124.253 321.312 124.091C323.169 124.235 325.013 124.183 326.816 124.021C328.673 124.164 330.518 124.112 332.32 123.95C334.177 124.093 336.022 124.041 337.825 123.879C339.681 124.022 341.526 123.97 343.329 123.808C345.185 123.951 347.03 123.9 348.833 123.738C350.689 123.88 352.534 123.829 354.337 123.667C356.193 123.81 358.038 123.758 359.841 123.596C361.697 123.739 363.542 123.687 365.345 123.525C367.201 123.668 369.046 123.616 370.849 123.454C372.705 123.597 374.55 123.545 376.353 123.383C378.209 123.526 380.054 123.475 381.857 123.313C383.713 123.455 385.558 123.404 387.361 123.242C389.218 123.385 391.062 123.333 392.865 123.171C394.721 123.314 396.566 123.262 398.369 123.1C400.226 123.243 402.07 123.191 403.873 123.029C405.73 123.172 407.574 123.121 409.377 122.958C411.234 123.102 413.078 123.05 414.881 122.888C421.889 123.427 428.732 121.178 433.777 120.813C435.336 119.263 436.355 117.412 436.879 115.268C439.556 115.661 439.423 114.447 441 114.212C439.453 111.405 442.921 110.72 439.118 108.744" fill="white"/>
</g>
</svg>
