<svg width="260" height="76" viewBox="0 0 260 76" fill="none" xmlns="http://www.w3.org/2000/svg">
<mask id="mask0" mask-type="alpha" maskUnits="userSpaceOnUse" x="0" y="0" width="260" height="42">
<path fill-rule="evenodd" clip-rule="evenodd" d="M0 0H260V41.8594H0V0Z" fill="white"/>
</mask>
<g mask="url(#mask0)">
<path fill-rule="evenodd" clip-rule="evenodd" d="M258.89 30.5067C260.814 28.0037 258.919 24.3377 257.532 21.3982C258.871 16.9842 257.122 12.0651 253.104 9.09286C255.868 9.07754 253.002 7.63629 254.993 7.29716C252.114 6.22568 254.456 3.68918 252.335 2.33226C250.072 2.04484 249.146 0.917147 247.823 0.0401097C246.573 -0.026925 245.435 -0.00566133 244.359 0.0721854C243.196 0.018846 242.126 0.0406503 241.114 0.113992C239.95 0.0604723 238.881 0.0824568 237.869 0.155618C236.706 0.102099 235.636 0.124083 234.624 0.197425C233.46 0.143905 232.391 0.16589 231.379 0.239232C230.216 0.185712 229.146 0.207516 228.134 0.281038C226.97 0.227518 225.901 0.249323 224.889 0.322664C223.725 0.269145 222.656 0.291129 221.644 0.364471C220.48 0.310951 219.411 0.332936 218.399 0.406097C217.235 0.352758 216.166 0.374562 215.154 0.447904C213.99 0.394384 212.921 0.416369 211.909 0.489711C210.745 0.436191 209.676 0.458175 208.664 0.531337C207.5 0.477998 206.431 0.499802 205.419 0.573144C204.255 0.519624 203.186 0.541608 202.174 0.61495C201.01 0.561431 199.941 0.583235 198.929 0.656757C197.765 0.603237 196.696 0.625041 195.684 0.698383C194.52 0.644863 193.451 0.666848 192.439 0.74019C191.275 0.68667 190.206 0.708655 189.194 0.781816C188.03 0.728477 186.961 0.750281 185.949 0.823623C184.785 0.770103 183.716 0.792087 182.704 0.865429C181.54 0.81191 180.471 0.833714 179.459 0.907236C178.295 0.853716 177.226 0.87552 176.214 0.948862C175.05 0.895343 173.981 0.917327 172.969 0.990669C171.805 0.937149 170.736 0.958953 169.724 1.03248C168.56 0.978956 167.491 1.00076 166.479 1.0741C165.315 1.02058 164.246 1.04257 163.234 1.11591C162.07 1.06239 161.001 1.08437 159.989 1.15753C158.825 1.10401 157.756 1.126 156.744 1.19934C155.58 1.14582 154.511 1.16781 153.499 1.24115C152.335 1.18763 151.266 1.20943 150.253 1.28295C149.09 1.22943 148.021 1.25124 147.009 1.32458C145.845 1.27106 144.776 1.29305 143.763 1.36639C142.6 1.31287 141.531 1.33467 140.519 1.40801C139.355 1.35467 138.286 1.37648 137.273 1.44982C136.11 1.39648 135.041 1.41829 134.029 1.49163C132.865 1.43811 131.796 1.46009 130.783 1.53325C129.62 1.47973 128.551 1.50172 127.539 1.57506C126.375 1.52154 125.306 1.54352 124.293 1.61687C123.13 1.56335 122.06 1.58515 121.049 1.65867C119.885 1.60515 118.816 1.62696 117.803 1.7003C116.64 1.64678 115.571 1.66876 114.559 1.74211C113.395 1.68859 112.326 1.71057 111.313 1.78373C110.15 1.73039 109.08 1.7522 108.068 1.82554C106.905 1.7722 105.836 1.794 104.823 1.86735C103.66 1.81383 102.59 1.83581 101.578 1.90897C100.415 1.85563 99.3456 1.87744 98.3334 1.95078C97.1698 1.89726 96.1005 1.91924 95.0883 1.99258C93.9249 1.93907 92.8556 1.96087 91.8434 2.03439C90.6798 1.98087 89.6105 2.00268 88.5983 2.07602C87.4346 2.0225 86.3653 2.04448 85.3534 2.11782C84.1898 2.06431 83.1205 2.08629 82.1083 2.15945C80.9446 2.10611 79.8756 2.12792 78.8634 2.20126C77.6998 2.14774 76.6305 2.16972 75.6182 2.24306C74.4546 2.18954 73.3853 2.21135 72.3731 2.28487C71.2098 2.23135 70.1405 2.25316 69.1283 2.3265C67.9646 2.27298 66.8953 2.29496 65.8831 2.3683C64.7195 2.31478 63.6505 2.33659 62.6382 2.41011C61.4746 2.35659 60.4053 2.37839 59.3931 2.45174C58.2295 2.39822 57.1605 2.4202 56.1482 2.49354C54.9846 2.44002 53.9153 2.46201 52.9031 2.53517C51.7394 2.48165 50.6702 2.50363 49.6582 2.57698C48.4946 2.52346 47.4253 2.54544 46.4131 2.61878C45.2494 2.56526 44.1805 2.58707 43.1682 2.66059C42.0046 2.60707 40.9353 2.62887 39.9231 2.70222C38.7594 2.6487 37.6901 2.67068 36.6779 2.74402C35.5146 2.6905 34.4453 2.71231 33.4331 2.78583C32.2694 2.73231 31.2001 2.75411 30.1879 2.82746C29.0243 2.77412 27.9553 2.79592 26.9431 2.86926C25.7794 2.81574 24.7101 2.83773 23.6979 2.91089C22.5346 2.85737 21.4653 2.87935 20.4528 2.95269C19.2894 2.89917 18.2201 2.92116 17.2079 2.9945C11.4829 2.73123 8.06406 4.31033 2.2729 4.69974C0.907657 6.40534 1.6723 8.06481 0 9.15088C0.618625 10.7723 2.68421 11.4866 4.5479 12.3242C3.8812 12.7116 4.30243 13.7179 3.63934 14.1053C5.43032 14.5556 6.00988 14.0177 7.57763 14.3407C7.5578 14.2891 7.54578 14.2408 7.53677 14.194C8.628 14.3538 9.24061 14.1269 10.2015 14.2089C10.0744 14.5841 10.0161 14.9988 10.0798 15.4831C6.77062 14.3841 6.27428 18.1634 6.26136 18.189C6.2178 18.2741 5.26808 17.8955 5.26868 17.9083C4.50914 21.5206 12.2331 24.0881 10.1056 28.1467C10.6978 28.4776 11.8557 28.4522 13.0632 28.3963C13.3177 29.7976 12.8021 32.1933 11.3068 33.4306C11.9029 34.16 13.3012 34.3862 13.3526 35.4615C12.1529 37.4368 9.0303 36.5947 8.58984 39.0651C10.3192 39.3835 12.1517 39.6392 11.6319 41.3767C13.5824 41.9051 15.5552 41.9379 17.4501 41.7678C18.5446 41.8519 19.6322 41.8215 20.6952 41.726C21.7895 41.8103 22.8771 41.7797 23.9401 41.6841C25.0346 41.7685 26.1223 41.7379 27.1852 41.6423C28.2798 41.7267 29.3671 41.6962 30.4301 41.6007C31.5246 41.6849 32.6123 41.6544 33.6752 41.5589C34.7695 41.6432 35.8571 41.6126 36.9201 41.5173C38.0146 41.6014 39.1023 41.571 40.1652 41.4755C41.2598 41.5596 42.3471 41.5292 43.4101 41.4337C44.5046 41.5178 45.5923 41.4875 46.6553 41.392C47.7498 41.4762 48.8371 41.4457 49.9001 41.3502C50.9946 41.4344 52.0823 41.4039 53.1453 41.3084C54.2398 41.3928 55.3271 41.3621 56.3904 41.2666C57.4849 41.351 58.5723 41.3205 59.6353 41.225C60.7298 41.3091 61.8174 41.2787 62.8804 41.1832C63.9749 41.2675 65.0623 41.2369 66.1253 41.1416C67.2198 41.2257 68.3071 41.1951 69.3701 41.0998C70.4649 41.1839 71.5523 41.1535 72.6153 41.0579C73.7098 41.1423 74.7974 41.1118 75.8604 41.0161C76.9549 41.1005 78.0423 41.07 79.1053 40.9745C80.1998 41.0587 81.2874 41.0282 82.3504 40.9327C83.4449 41.017 84.5323 40.9864 85.5953 40.8909C86.6898 40.9752 87.7774 40.9448 88.8404 40.8493C89.935 40.9334 91.0223 40.903 92.0853 40.8075C93.1801 40.8916 94.2674 40.8612 95.3304 40.7658C96.4249 40.85 97.5123 40.8194 98.5756 40.724C99.6701 40.8082 100.757 40.7777 101.82 40.6822C102.915 40.7666 104.003 40.7359 105.066 40.6404C106.16 40.7248 107.247 40.6943 108.31 40.5988C109.405 40.683 110.493 40.6525 111.556 40.557C112.65 40.6413 113.737 40.6107 114.8 40.5154C115.895 40.5995 116.983 40.5691 118.046 40.4736C119.14 40.5577 120.227 40.5273 121.291 40.4318C122.385 40.5159 123.473 40.4855 124.536 40.3901C125.63 40.4743 126.717 40.4438 127.781 40.3483C128.875 40.4327 129.963 40.402 131.026 40.3065C132.12 40.3909 133.208 40.3604 134.271 40.2647C135.365 40.349 136.453 40.3186 137.516 40.2231C138.61 40.3072 139.698 40.2768 140.761 40.1813C141.855 40.2656 142.943 40.235 144.006 40.1396C145.1 40.2238 146.188 40.1933 147.251 40.0978C148.345 40.182 149.433 40.1515 150.496 40.056C151.59 40.1402 152.678 40.1099 153.741 40.0144C154.835 40.0986 155.923 40.0681 156.986 39.9726C158.08 40.0568 159.168 40.0263 160.231 39.9308C161.325 40.0151 162.413 39.9845 163.476 39.889C164.57 39.9733 165.658 39.9429 166.721 39.8474C167.815 39.9315 168.903 39.9011 169.966 39.8056C171.06 39.8899 172.148 39.8593 173.211 39.7639C174.305 39.8481 175.393 39.8174 176.456 39.7221C177.55 39.8063 178.638 39.7758 179.701 39.6803C180.796 39.7645 181.883 39.7342 182.946 39.6385C184.04 39.7228 185.128 39.6924 186.191 39.5969C187.285 39.681 188.373 39.6506 189.436 39.5551C190.53 39.6394 191.618 39.6088 192.681 39.5133C193.775 39.5976 194.863 39.5672 195.926 39.4716C197.02 39.5558 198.108 39.5253 199.171 39.4298C200.266 39.5142 201.353 39.4835 202.416 39.3882C203.51 39.4724 204.598 39.4419 205.661 39.3464C206.756 39.4306 207.843 39.4001 208.906 39.3046C210 39.3889 211.088 39.3583 212.151 39.2628C213.246 39.3471 214.333 39.3167 215.396 39.2212C216.49 39.3053 217.578 39.2749 218.641 39.1794C219.736 39.2637 220.823 39.2331 221.886 39.1376C222.98 39.2219 224.068 39.1914 225.131 39.0959C226.226 39.1801 227.313 39.1496 228.376 39.0541C229.471 39.1383 230.558 39.1078 231.621 39.0125C232.716 39.0966 233.803 39.0662 234.866 38.9707C235.961 39.0548 237.048 39.0244 238.111 38.9289C239.206 39.0132 240.293 38.9828 241.356 38.8871C242.451 38.9714 243.538 38.941 244.601 38.8454C248.733 39.1633 252.767 37.8374 255.742 37.6224C256.661 36.7081 257.262 35.6168 257.57 34.3529C259.149 34.5848 259.07 33.8688 260 33.7306C259.088 32.0753 261.133 31.6718 258.89 30.5067Z" fill="white"/>
</g>
<mask id="mask1" mask-type="alpha" maskUnits="userSpaceOnUse" x="0" y="34" width="260" height="42">
<path fill-rule="evenodd" clip-rule="evenodd" d="M0 34H260V75.8594H0V34Z" fill="white"/>
</mask>
<g mask="url(#mask1)">
<path fill-rule="evenodd" clip-rule="evenodd" d="M258.89 64.5067C260.814 62.0037 258.919 58.3377 257.532 55.3982C258.872 50.9842 257.122 46.0651 253.104 43.0929C255.868 43.0775 253.002 41.6363 254.993 41.2972C252.114 40.2257 254.456 37.6892 252.335 36.3323C250.072 36.0448 249.146 34.9171 247.823 34.0401C246.573 33.9731 245.435 33.9943 244.359 34.0722C243.196 34.0188 242.126 34.0407 241.114 34.114C239.95 34.0605 238.881 34.0825 237.869 34.1556C236.706 34.1021 235.636 34.1241 234.624 34.1974C233.46 34.1439 232.391 34.1659 231.379 34.2392C230.216 34.1857 229.146 34.2075 228.134 34.281C226.97 34.2275 225.901 34.2493 224.889 34.3227C223.725 34.2691 222.656 34.2911 221.644 34.3645C220.48 34.311 219.411 34.3329 218.399 34.4061C217.235 34.3528 216.166 34.3746 215.154 34.4479C213.99 34.3944 212.921 34.4164 211.909 34.4897C210.745 34.4362 209.676 34.4582 208.664 34.5313C207.5 34.478 206.431 34.4998 205.419 34.5731C204.255 34.5196 203.186 34.5416 202.174 34.615C201.01 34.5614 199.941 34.5832 198.929 34.6568C197.765 34.6032 196.696 34.625 195.684 34.6984C194.52 34.6449 193.451 34.6668 192.439 34.7402C191.275 34.6867 190.206 34.7087 189.194 34.7818C188.03 34.7285 186.961 34.7503 185.949 34.8236C184.785 34.7701 183.716 34.7921 182.704 34.8654C181.54 34.8119 180.471 34.8337 179.459 34.9072C178.295 34.8537 177.226 34.8755 176.214 34.9489C175.05 34.8953 173.981 34.9173 172.969 34.9907C171.805 34.9371 170.736 34.959 169.724 35.0325C168.56 34.979 167.491 35.0008 166.479 35.0741C165.315 35.0206 164.246 35.0426 163.234 35.1159C162.07 35.0624 161.001 35.0844 159.989 35.1575C158.825 35.104 157.756 35.126 156.744 35.1993C155.58 35.1458 154.511 35.1678 153.499 35.2411C152.335 35.1876 151.266 35.2094 150.253 35.283C149.09 35.2294 148.021 35.2512 147.009 35.3246C145.845 35.2711 144.776 35.293 143.763 35.3664C142.6 35.3129 141.531 35.3347 140.519 35.408C139.355 35.3547 138.286 35.3765 137.273 35.4498C136.11 35.3965 135.041 35.4183 134.029 35.4916C132.865 35.4381 131.796 35.4601 130.783 35.5333C129.62 35.4797 128.551 35.5017 127.539 35.5751C126.375 35.5215 125.306 35.5435 124.293 35.6169C123.13 35.5633 122.06 35.5852 121.049 35.6587C119.885 35.6052 118.816 35.627 117.803 35.7003C116.64 35.6468 115.571 35.6688 114.559 35.7421C113.395 35.6886 112.326 35.7106 111.313 35.7837C110.15 35.7304 109.08 35.7522 108.068 35.8255C106.905 35.7722 105.836 35.794 104.823 35.8673C103.66 35.8138 102.59 35.8358 101.578 35.909C100.415 35.8556 99.3456 35.8774 98.3334 35.9508C97.1698 35.8973 96.1005 35.9192 95.0883 35.9926C93.9249 35.9391 92.8556 35.9609 91.8434 36.0344C90.6798 35.9809 89.6105 36.0027 88.5983 36.076C87.4346 36.0225 86.3653 36.0445 85.3534 36.1178C84.1898 36.0643 83.1205 36.0863 82.1083 36.1595C80.9446 36.1061 79.8756 36.1279 78.8634 36.2013C77.6998 36.1477 76.6305 36.1697 75.6182 36.2431C74.4546 36.1895 73.3853 36.2113 72.3731 36.2849C71.2098 36.2314 70.1405 36.2532 69.1282 36.3265C67.9646 36.273 66.8953 36.295 65.8831 36.3683C64.7195 36.3148 63.6505 36.3366 62.6382 36.4101C61.4746 36.3566 60.4053 36.3784 59.3931 36.4517C58.2295 36.3982 57.1605 36.4202 56.1482 36.4935C54.9846 36.44 53.9153 36.462 52.9031 36.5352C51.7395 36.4817 50.6702 36.5036 49.6582 36.577C48.4946 36.5235 47.4253 36.5454 46.4131 36.6188C45.2494 36.5653 44.1804 36.5871 43.1682 36.6606C42.0046 36.6071 40.9353 36.6289 39.9231 36.7022C38.7594 36.6487 37.6901 36.6707 36.6779 36.744C35.5146 36.6905 34.4453 36.7123 33.4331 36.7858C32.2694 36.7323 31.2001 36.7541 30.1879 36.8275C29.0243 36.7741 27.9553 36.7959 26.9431 36.8693C25.7794 36.8157 24.7101 36.8377 23.6979 36.9109C22.5346 36.8574 21.4653 36.8794 20.4528 36.9527C19.2894 36.8992 18.2201 36.9212 17.2079 36.9945C11.4829 36.7312 8.06406 38.3103 2.2729 38.6997C0.907657 40.4053 1.6723 42.0648 0 43.1509C0.618625 44.7723 2.68421 45.4866 4.5479 46.3242C3.8812 46.7116 4.30243 47.7179 3.63934 48.1053C5.43032 48.5556 6.00988 48.0177 7.57763 48.3407C7.5578 48.2891 7.54578 48.2408 7.53677 48.194C8.628 48.3538 9.24061 48.1269 10.2015 48.2089C10.0744 48.5841 10.0161 48.9988 10.0798 49.4831C6.77062 48.3841 6.27428 52.1634 6.26136 52.189C6.2178 52.2741 5.26808 51.8955 5.26868 51.9083C4.50914 55.5206 12.2331 58.0881 10.1056 62.1467C10.6978 62.4776 11.8557 62.4522 13.0632 62.3963C13.3177 63.7976 12.8021 66.1933 11.3068 67.4306C11.9029 68.16 13.3012 68.3862 13.3526 69.4615C12.1529 71.4368 9.0303 70.5947 8.58984 73.0651C10.3192 73.3835 12.1517 73.6392 11.6319 75.3767C13.5824 75.9051 15.5552 75.9379 17.4501 75.7678C18.5446 75.8519 19.6323 75.8215 20.6952 75.726C21.7895 75.8103 22.8771 75.7797 23.9401 75.6841C25.0346 75.7685 26.1223 75.7378 27.1852 75.6423C28.2798 75.7267 29.3671 75.6962 30.4301 75.6007C31.5246 75.6849 32.6123 75.6544 33.6752 75.5589C34.7695 75.6432 35.8571 75.6126 36.9201 75.5173C38.0146 75.6014 39.1023 75.571 40.1652 75.4755C41.2598 75.5596 42.3471 75.5292 43.4101 75.4337C44.5046 75.5178 45.5923 75.4876 46.6553 75.392C47.7498 75.4762 48.8371 75.4457 49.9001 75.3502C50.9946 75.4344 52.0823 75.4039 53.1453 75.3084C54.2398 75.3928 55.3271 75.3621 56.3904 75.2666C57.4849 75.351 58.5723 75.3205 59.6353 75.225C60.7298 75.3091 61.8174 75.2787 62.8804 75.1832C63.9749 75.2675 65.0623 75.2369 66.1253 75.1416C67.2198 75.2257 68.3071 75.1951 69.3701 75.0998C70.4649 75.1839 71.5523 75.1535 72.6153 75.058C73.7098 75.1423 74.7974 75.1118 75.8604 75.0161C76.9549 75.1005 78.0423 75.07 79.1053 74.9745C80.1998 75.0587 81.2874 75.0282 82.3504 74.9327C83.4449 75.017 84.5323 74.9864 85.5953 74.8909C86.6898 74.9752 87.7774 74.9448 88.8404 74.8493C89.9349 74.9334 91.0223 74.903 92.0853 74.8075C93.1801 74.8916 94.2674 74.8612 95.3304 74.7658C96.425 74.85 97.5123 74.8194 98.5756 74.724C99.6701 74.8082 100.757 74.7777 101.82 74.6822C102.915 74.7666 104.003 74.7359 105.066 74.6404C106.16 74.7248 107.247 74.6943 108.31 74.5988C109.405 74.683 110.493 74.6525 111.556 74.557C112.65 74.6413 113.737 74.6107 114.8 74.5154C115.895 74.5995 116.983 74.5691 118.046 74.4736C119.14 74.5577 120.227 74.5273 121.291 74.4318C122.385 74.5159 123.473 74.4855 124.536 74.3901C125.63 74.4743 126.717 74.4438 127.781 74.3483C128.875 74.4327 129.963 74.402 131.026 74.3065C132.12 74.3908 133.208 74.3604 134.271 74.2647C135.365 74.349 136.453 74.3186 137.516 74.2231C138.61 74.3072 139.698 74.2768 140.761 74.1813C141.855 74.2656 142.943 74.235 144.006 74.1396C145.1 74.2238 146.188 74.1933 147.251 74.0978C148.345 74.182 149.433 74.1515 150.496 74.056C151.59 74.1402 152.678 74.1099 153.741 74.0144C154.835 74.0986 155.923 74.0681 156.986 73.9726C158.08 74.0568 159.168 74.0263 160.231 73.9308C161.325 74.0151 162.413 73.9845 163.476 73.889C164.57 73.9733 165.658 73.9429 166.721 73.8474C167.815 73.9315 168.903 73.9011 169.966 73.8056C171.06 73.8899 172.148 73.8593 173.211 73.7639C174.305 73.8481 175.393 73.8174 176.456 73.7221C177.55 73.8063 178.638 73.7758 179.701 73.6803C180.796 73.7645 181.883 73.7342 182.946 73.6385C184.04 73.7228 185.128 73.6924 186.191 73.5969C187.285 73.681 188.373 73.6506 189.436 73.5551C190.53 73.6394 191.618 73.6088 192.681 73.5133C193.775 73.5976 194.863 73.5672 195.926 73.4716C197.02 73.5558 198.108 73.5253 199.171 73.4298C200.266 73.5142 201.353 73.4835 202.416 73.3882C203.51 73.4724 204.598 73.4419 205.661 73.3464C206.756 73.4306 207.843 73.4001 208.906 73.3046C210 73.3889 211.088 73.3583 212.151 73.2628C213.246 73.3471 214.333 73.3167 215.396 73.2212C216.49 73.3053 217.578 73.2749 218.641 73.1794C219.736 73.2637 220.823 73.2331 221.886 73.1376C222.98 73.2219 224.068 73.1914 225.131 73.0959C226.226 73.1801 227.313 73.1496 228.376 73.0541C229.471 73.1383 230.558 73.1078 231.621 73.0125C232.716 73.0966 233.803 73.0662 234.866 72.9707C235.961 73.0548 237.048 73.0244 238.111 72.9289C239.206 73.0132 240.293 72.9828 241.356 72.8871C242.451 72.9714 243.538 72.941 244.601 72.8454C248.733 73.1633 252.767 71.8374 255.742 71.6224C256.661 70.7081 257.262 69.6168 257.57 68.3529C259.149 68.5848 259.07 67.8688 260 67.7306C259.088 66.0753 261.133 65.6718 258.89 64.5067" fill="white"/>
</g>
</svg>
