<svg width="335" height="64" viewBox="0 0 335 64" fill="none" xmlns="http://www.w3.org/2000/svg">
<path fill-rule="evenodd" clip-rule="evenodd" d="M333.57 46.6425C336.049 42.8156 333.608 37.2105 331.821 32.7163C333.546 25.9676 331.292 18.4466 326.115 13.9023C329.676 13.8789 325.983 11.6753 328.548 11.1568C324.839 9.51861 327.857 5.64048 325.123 3.56586C322.208 3.12642 321.015 1.40225 319.31 0.0613248C317.7 -0.0411664 316.233 -0.00865577 314.847 0.110366C313.348 0.0288141 311.97 0.0621513 310.666 0.174285C309.167 0.0924578 307.79 0.126071 306.485 0.237929C304.986 0.156102 303.608 0.189714 302.304 0.301848C300.805 0.220021 299.427 0.253633 298.123 0.365768C296.624 0.28394 295.246 0.317277 293.942 0.429687C292.443 0.347859 291.065 0.381196 289.761 0.493331C288.261 0.411503 286.884 0.445116 285.58 0.55725C284.081 0.475422 282.703 0.509035 281.399 0.620893C279.899 0.539341 278.522 0.572679 277.217 0.684813C275.718 0.602985 274.341 0.636598 273.036 0.748732C271.537 0.666904 270.16 0.700517 268.855 0.812376C267.356 0.730824 265.979 0.764161 264.674 0.876295C263.175 0.794467 261.797 0.82808 260.493 0.940214C258.994 0.858386 257.616 0.891724 256.312 1.00413C254.813 0.922306 253.435 0.955643 252.131 1.06778C250.632 0.985949 249.254 1.01956 247.95 1.1317C246.451 1.04987 245.073 1.08348 243.769 1.19534C242.27 1.11379 240.892 1.14713 239.588 1.25926C238.089 1.17743 236.711 1.21104 235.407 1.32318C233.907 1.24135 232.53 1.27469 231.226 1.3871C229.727 1.30527 228.349 1.33861 227.045 1.45074C225.545 1.36891 224.168 1.40253 222.863 1.51466C221.364 1.43283 219.987 1.46617 218.683 1.57858C217.183 1.49675 215.806 1.53009 214.502 1.64222C213.002 1.5604 211.625 1.59401 210.32 1.70614C208.821 1.62432 207.443 1.65793 206.139 1.76979C204.64 1.68796 203.262 1.72157 201.958 1.83371C200.459 1.75188 199.081 1.78549 197.777 1.89762C196.278 1.8158 194.9 1.84913 193.596 1.96154C192.097 1.87972 190.719 1.91305 189.415 2.02519C187.916 1.94336 186.538 1.97697 185.234 2.08911C183.735 2.00728 182.357 2.04062 181.053 2.15275C179.553 2.0712 178.176 2.10454 176.872 2.21667C175.373 2.13512 173.995 2.16846 172.691 2.28059C171.191 2.19876 169.814 2.23237 168.509 2.34423C167.01 2.26241 165.633 2.29602 164.329 2.40815C162.829 2.32632 161.451 2.35994 160.147 2.47207C158.648 2.39024 157.27 2.42358 155.966 2.53599C154.467 2.45416 153.089 2.4875 151.785 2.59963C150.286 2.51781 148.909 2.55142 147.604 2.66355C146.105 2.58173 144.727 2.61534 143.423 2.7272C141.924 2.64565 140.546 2.67898 139.242 2.79112C137.743 2.70956 136.365 2.7429 135.061 2.85504C133.562 2.77321 132.184 2.80682 130.88 2.91868C129.381 2.83713 128.003 2.87046 126.699 2.9826C125.2 2.90077 123.822 2.93438 122.518 3.04652C121.019 2.96469 119.641 2.99803 118.337 3.11044C116.837 3.02861 115.46 3.06195 114.155 3.17408C112.656 3.09225 111.278 3.12587 109.975 3.238C108.475 3.15617 107.098 3.18979 105.793 3.30164C104.294 3.22009 102.917 3.25343 101.612 3.36556C100.113 3.28374 98.7354 3.31735 97.4312 3.42948C95.9319 3.34765 94.5542 3.38099 93.25 3.4934C91.751 3.41157 90.3733 3.44491 89.0691 3.55705C87.5698 3.47522 86.192 3.50883 84.8878 3.62096C83.3885 3.53914 82.0112 3.57247 80.707 3.68488C79.2077 3.60306 77.8299 3.63639 76.5257 3.74853C75.0264 3.6667 73.649 3.70031 72.3448 3.81245C70.8455 3.73062 69.4678 3.76423 68.1636 3.87609C66.6643 3.79426 65.2865 3.82788 63.9827 3.94001C62.4834 3.85818 61.1057 3.89179 59.8015 4.00393C58.3022 3.9221 56.9248 3.95544 55.6206 4.06785C54.1213 3.98602 52.7436 4.01936 51.4394 4.13149C49.9401 4.04966 48.5623 4.08328 47.2581 4.19541C45.7592 4.11358 44.3814 4.14692 43.0772 4.25933C41.5779 4.1775 40.2002 4.21084 38.896 4.32297C37.3967 4.24142 36.0193 4.27476 34.7151 4.38689C33.2158 4.30507 31.8381 4.33868 30.5339 4.45054C29.035 4.36871 27.6572 4.40232 26.3526 4.51446C24.8537 4.43263 23.4759 4.46624 22.1718 4.57838C14.7952 4.17585 10.3902 6.59018 2.92854 7.18556C1.16948 9.7933 2.15469 12.3305 0 13.991C0.797074 16.4701 3.45851 17.5622 5.85979 18.8428C5.00078 19.4352 5.54352 20.9737 4.68915 21.566C6.99676 22.2545 7.74351 21.4321 9.76348 21.9258C9.73793 21.847 9.72245 21.7732 9.71084 21.7016C11.1168 21.9459 11.9062 21.5991 13.1442 21.7244C12.9804 22.2981 12.9053 22.932 12.9874 23.6726C8.72369 21.9922 8.08417 27.7706 8.06752 27.8097C8.01139 27.9398 6.78771 27.3609 6.78849 27.3805C5.80985 32.9034 15.7619 36.8289 13.0207 43.0343C13.7837 43.5402 15.2756 43.5013 16.8315 43.4159C17.1594 45.5583 16.4951 49.2213 14.5684 51.1129C15.3364 52.2282 17.1381 52.574 17.2043 54.218C15.6585 57.2382 11.6352 55.9507 11.0677 59.7277C13.2959 60.2146 15.657 60.6055 14.9872 63.262C17.5004 64.0698 20.0422 64.12 22.4838 63.8599C23.894 63.9885 25.2954 63.942 26.665 63.796C28.0749 63.9249 29.4763 63.8781 30.8459 63.732C32.2562 63.861 33.6575 63.8141 35.0271 63.6681C36.4374 63.7971 37.8384 63.7505 39.208 63.6045C40.6183 63.7331 42.0196 63.6866 43.3893 63.5406C44.7991 63.6695 46.2005 63.6227 47.5701 63.4769C48.9804 63.6056 50.3818 63.559 51.7514 63.413C53.1616 63.5417 54.5626 63.4951 55.9322 63.3491C57.3425 63.4777 58.7439 63.4315 60.1135 63.2854C61.5238 63.4141 62.9247 63.3675 64.2944 63.2215C65.7046 63.3502 67.106 63.3036 68.4756 63.1576C69.8859 63.2865 71.2869 63.2397 72.6569 63.0937C74.0671 63.2226 75.4681 63.1761 76.8377 63.03C78.248 63.1587 79.6494 63.1121 81.019 62.9661C82.4293 63.0951 83.8302 63.0482 85.1999 62.9025C86.6101 63.0311 88.0111 62.9843 89.3807 62.8385C90.7914 62.9672 92.1923 62.9207 93.562 62.7746C94.9722 62.9036 96.3736 62.857 97.7432 62.7107C99.1535 62.8396 100.554 62.7931 101.924 62.6471C103.334 62.7757 104.736 62.7292 106.105 62.5831C107.516 62.7121 108.917 62.6652 110.286 62.5192C111.696 62.6482 113.098 62.6016 114.467 62.4556C115.878 62.5842 117.279 62.5377 118.648 62.3917C120.059 62.5203 121.46 62.4738 122.83 62.328C124.24 62.4567 125.641 62.4098 127.011 62.2641C128.421 62.3928 129.822 62.3462 131.192 62.2002C132.602 62.3291 134.003 62.2823 135.373 62.1363C136.783 62.2652 138.184 62.2186 139.554 62.0726C140.964 62.2013 142.365 62.1547 143.735 62.0087C145.145 62.1376 146.546 62.0908 147.916 61.9451C149.326 62.0737 150.728 62.0272 152.097 61.8811C153.507 62.0098 154.908 61.9632 156.278 61.8172C157.689 61.9459 159.09 61.8993 160.459 61.7536C161.87 61.8822 163.271 61.8357 164.641 61.6897C166.051 61.8186 167.452 61.7718 168.821 61.6257C170.232 61.7547 171.633 61.7081 173.003 61.5618C174.413 61.6908 175.814 61.6442 177.184 61.4982C178.594 61.6268 179.995 61.5803 181.365 61.4342C182.775 61.5632 184.176 61.5164 185.546 61.3706C186.956 61.4993 188.357 61.4527 189.727 61.3067C191.137 61.4354 192.538 61.3888 193.908 61.2428C195.318 61.3714 196.719 61.3251 198.089 61.1791C199.499 61.3078 200.9 61.2612 202.27 61.1152C203.681 61.2439 205.082 61.1973 206.451 61.0513C207.861 61.1802 209.263 61.1334 210.632 60.9874C212.043 61.1163 213.444 61.0697 214.813 60.9237C216.224 61.0524 217.625 61.0058 218.995 60.8598C220.405 60.9887 221.806 60.9419 223.175 60.7962C224.586 60.9248 225.987 60.878 227.357 60.7322C228.767 60.8609 230.168 60.8143 231.538 60.6683C232.948 60.797 234.349 60.7507 235.719 60.6044C237.129 60.7333 238.53 60.6868 239.9 60.5408C241.31 60.6694 242.711 60.6229 244.081 60.4768C245.491 60.6058 246.892 60.5589 248.262 60.4129C249.672 60.5419 251.073 60.4953 252.443 60.3493C253.853 60.4779 255.255 60.4314 256.624 60.2854C258.035 60.4143 259.435 60.3675 260.805 60.2217C262.215 60.3504 263.617 60.3038 264.986 60.1578C266.397 60.2865 267.798 60.2399 269.167 60.0939C270.578 60.2228 271.979 60.176 273.348 60.03C274.759 60.1589 276.16 60.1123 277.529 59.9663C278.94 60.095 280.341 60.0484 281.711 59.9024C283.121 60.0313 284.522 59.9845 285.891 59.8385C287.302 59.9674 288.703 59.9209 290.073 59.7748C291.483 59.9035 292.884 59.8569 294.254 59.7109C295.664 59.8396 297.065 59.793 298.435 59.6473C299.845 59.7759 301.246 59.7294 302.616 59.5833C304.026 59.712 305.427 59.6655 306.797 59.5194C308.207 59.6484 309.609 59.6018 310.978 59.4555C312.388 59.5844 313.789 59.5379 315.159 59.3919C320.482 59.8779 325.681 57.8506 329.513 57.522C330.698 56.124 331.472 54.4555 331.869 52.523C333.903 52.8776 333.802 51.783 335 51.5717C333.825 49.0408 336.459 48.4239 333.57 46.6425Z" fill="#C7295B"/>
</svg>
