<svg width="513" height="106" viewBox="0 0 513 106" fill="none" xmlns="http://www.w3.org/2000/svg">
<mask id="mask0" mask-type="alpha" maskUnits="userSpaceOnUse" x="0" y="0" width="513" height="106">
<path fill-rule="evenodd" clip-rule="evenodd" d="M0 17.8336L509.691 0.0348051L512.762 87.9812L3.07116 105.78L0 17.8336Z" fill="white"/>
</mask>
<g mask="url(#mask0)">
<path fill-rule="evenodd" clip-rule="evenodd" d="M509.754 64.2051C513.341 58.8146 509.358 51.2421 506.424 45.1613C508.725 35.7958 504.935 25.5805 496.839 19.6109C502.256 19.3896 496.533 16.5577 500.411 15.7089C494.689 13.6548 499.095 8.16524 494.836 5.45963C490.378 5.01067 488.481 2.70476 485.823 0.952691C483.368 0.897393 481.138 1.02 479.035 1.25719C476.75 1.22478 474.656 1.34379 472.677 1.56718C470.392 1.53439 468.298 1.65376 466.319 1.87676C464.034 1.84398 461.939 1.96337 459.96 2.18675C457.675 2.15397 455.58 2.27336 453.601 2.49674C451.317 2.46394 449.222 2.58295 447.244 2.80671C444.958 2.77393 442.864 2.89294 440.885 3.11632C438.6 3.08354 436.506 3.20291 434.527 3.42629C432.242 3.3935 430.147 3.51289 428.168 3.7359C425.883 3.70349 423.789 3.8225 421.81 4.04589C419.525 4.01308 417.431 4.13247 415.452 4.35586C413.167 4.32307 411.073 4.44244 409.093 4.66547C406.809 4.63304 404.714 4.75205 402.735 4.97543C400.45 4.94265 398.356 5.06204 396.377 5.2854C394.092 5.25262 391.998 5.37163 390.019 5.59539C387.734 5.56261 385.639 5.68162 383.66 5.905C381.376 5.87219 379.281 5.99158 377.302 6.21497C375.017 6.18218 372.922 6.30157 370.944 6.52458C368.659 6.49217 366.564 6.61116 364.586 6.83455C362.301 6.80176 360.206 6.92115 358.227 7.14453C355.942 7.11175 353.847 7.23076 351.869 7.4545C349.584 7.42172 347.489 7.54073 345.51 7.76411C343.225 7.73133 341.131 7.8507 339.152 8.0741C336.867 8.0413 334.773 8.16031 332.794 8.38407C330.509 8.35128 328.415 8.47028 326.436 8.69366C324.151 8.66087 322.056 8.78026 320.077 9.00365C317.792 8.97086 315.698 9.09025 313.719 9.31326C311.434 9.28045 309.34 9.39984 307.361 9.62323C305.076 9.59044 302.981 9.70983 301.002 9.93322C298.717 9.90043 296.623 10.0194 294.644 10.2432C292.359 10.2104 290.265 10.3294 288.286 10.5528C286.001 10.52 283.906 10.6394 281.927 10.8628C279.643 10.83 277.548 10.949 275.569 11.1724C273.284 11.14 271.189 11.259 269.211 11.4824C266.926 11.4499 264.831 11.5689 262.853 11.7923C260.567 11.7595 258.473 11.8789 256.494 12.1019C254.209 12.0691 252.115 12.1885 250.136 12.4119C247.851 12.3791 245.756 12.4985 243.777 12.7219C241.493 12.6891 239.398 12.8081 237.419 13.0319C235.134 12.9991 233.04 13.1181 231.061 13.3415C228.776 13.3087 226.682 13.4281 224.703 13.6514C222.418 13.6187 220.323 13.738 218.344 13.9611C216.059 13.9286 213.965 14.0477 211.986 14.271C209.701 14.2386 207.607 14.3576 205.628 14.581C203.343 14.5482 201.248 14.6676 199.269 14.8906C196.985 14.8582 194.89 14.9772 192.911 15.2006C190.626 15.1678 188.531 15.2872 186.553 15.5106C184.268 15.4778 182.173 15.5968 180.195 15.8205C177.91 15.7878 175.815 15.9068 173.836 16.1302C171.551 16.0974 169.456 16.2168 167.478 16.4401C165.193 16.4073 163.098 16.5267 161.119 16.7497C158.834 16.7173 156.74 16.8363 154.761 17.0597C152.476 17.0269 150.382 17.1463 148.403 17.3697C146.118 17.3369 144.023 17.4559 142.044 17.6797C139.76 17.6469 137.665 17.7659 135.686 17.9893C133.401 17.9565 131.307 18.0759 129.328 18.2993C127.043 18.2665 124.949 18.3855 122.97 18.6092C120.685 18.5764 118.59 18.6954 116.611 18.9188C114.326 18.886 112.232 19.0054 110.253 19.2288C107.968 19.196 105.874 19.3154 103.895 19.5384C101.61 19.5056 99.515 19.625 97.5367 19.8484C95.2516 19.8156 93.157 19.935 91.1781 20.1584C88.893 20.1256 86.799 20.2446 84.8201 20.4683C82.535 20.4355 80.4404 20.5546 78.4615 20.7779C76.1765 20.7452 74.0819 20.8646 72.103 21.0879C69.8185 21.0551 67.7239 21.1741 65.745 21.3979C63.4599 21.3651 61.3653 21.4841 59.3864 21.7075C57.1013 21.6751 55.0073 21.7941 53.0284 22.0175C50.7433 21.9847 48.6488 22.1041 46.6698 22.3271C44.3854 22.2943 42.2908 22.4137 40.3113 22.6371C38.0268 22.6043 35.9322 22.7237 33.9533 22.947C22.7108 22.7858 16.1246 26.3376 4.80049 27.5522C2.24928 31.2291 3.87 34.6633 0.671385 37.0596C2.00307 40.4239 6.10476 41.7832 9.81969 43.4154C8.54115 44.275 9.44074 46.3603 8.16927 47.2197C11.7133 48.0432 12.8099 46.8734 15.907 47.4445C15.8643 47.3376 15.8372 47.237 15.8161 47.1391C17.967 47.4003 19.1513 46.8817 21.0409 46.9882C20.8193 47.7851 20.7355 48.6603 20.8959 49.6736C14.3281 47.591 13.6324 55.5654 13.609 55.62C13.5298 55.8017 11.6402 55.0713 11.6424 55.0981C10.4184 62.7396 25.7485 67.6051 21.8756 76.278C23.0608 76.9325 25.3289 76.7999 27.6919 76.5999C28.2936 79.5264 27.4587 84.5952 24.6181 87.2971C25.8401 88.7888 28.5979 89.1683 28.7775 91.4239C26.5706 95.6562 20.3875 94.1008 19.7052 99.3212C23.1188 99.8718 26.7298 100.284 25.8383 103.97C29.7008 104.946 33.5705 104.88 37.2727 104.393C39.4246 104.495 41.5545 104.356 43.6313 104.083C45.7826 104.185 47.9125 104.046 49.9893 103.773C52.1411 103.875 54.271 103.736 56.3479 103.463C58.4997 103.565 60.629 103.427 62.7058 103.153C64.8577 103.255 66.9876 103.117 69.0644 102.843C71.2157 102.946 73.3456 102.807 75.4224 102.534C77.5743 102.636 79.7042 102.497 81.781 102.224C83.9328 102.326 86.0621 102.187 88.139 101.914C90.2908 102.016 92.4207 101.878 94.4975 101.604C96.6494 101.706 98.7787 101.568 100.856 101.294C103.007 101.396 105.137 101.258 107.214 100.984C109.366 101.087 111.495 100.948 113.573 100.674C115.725 100.777 117.854 100.638 119.931 100.365C122.083 100.467 124.212 100.328 126.289 100.055C128.441 100.157 130.57 100.018 132.647 99.7451C134.799 99.847 136.928 99.7082 139.005 99.4351C141.158 99.537 143.287 99.3986 145.364 99.1251C147.516 99.2274 149.646 99.0889 151.722 98.8151C153.874 98.9174 156.004 98.779 158.08 98.5055C160.232 98.6074 162.362 98.469 164.439 98.1956C166.591 98.2978 168.72 98.159 170.797 97.8856C172.949 97.9879 175.079 97.8494 177.155 97.576C179.307 97.6779 181.437 97.5394 183.513 97.266C185.666 97.3679 187.795 97.2295 189.872 96.9564C192.024 97.0583 194.153 96.9195 196.231 96.6464C198.382 96.7483 200.512 96.6099 202.589 96.3364C204.74 96.4387 206.87 96.2999 208.947 96.0265C211.099 96.1287 213.228 95.9903 215.305 95.7169C217.457 95.8188 219.587 95.6803 221.664 95.4069C223.816 95.5091 225.945 95.3703 228.022 95.0973C230.174 95.1992 232.303 95.0607 234.38 94.7873C236.532 94.8892 238.661 94.7508 240.739 94.4773C242.891 94.5792 245.02 94.4408 247.097 94.1677C249.249 94.2696 251.378 94.1312 253.455 93.8577C255.607 93.96 257.737 93.8212 259.813 93.5478C261.965 93.65 264.095 93.5116 266.172 93.2378C268.324 93.34 270.453 93.2016 272.53 92.9282C274.682 93.0301 276.812 92.8916 278.889 92.6182C281.04 92.7205 283.17 92.5817 285.247 92.3086C287.398 92.4105 289.528 92.2721 291.605 91.9986C293.757 92.1005 295.886 91.9621 297.963 91.6887C300.115 91.7905 302.245 91.6525 304.322 91.379C306.474 91.4809 308.603 91.3425 310.68 91.0691C312.832 91.1709 314.961 91.0325 317.038 90.7591C319.19 90.8613 321.32 90.7225 323.397 90.4491C325.549 90.5514 327.678 90.4129 329.755 90.1395C331.907 90.2414 334.037 90.1029 336.113 89.8295C338.265 89.9318 340.394 89.793 342.471 89.5199C344.623 89.6218 346.753 89.483 348.83 89.2099C350.982 89.3118 353.111 89.1734 355.188 88.9C357.34 89.0018 359.47 88.8638 361.546 88.59C363.698 88.6922 365.828 88.5538 367.904 88.2804C370.056 88.3823 372.186 88.2438 374.263 87.9704C376.415 88.0727 378.544 87.9339 380.621 87.6604C382.773 87.7627 384.903 87.6243 386.98 87.3508C389.131 87.4527 391.261 87.3143 393.338 87.0408C395.49 87.1431 397.619 87.0043 399.696 86.7313C401.848 86.8331 403.978 86.6947 406.055 86.4213C408.207 86.5231 410.336 86.3847 412.413 86.1113C414.565 86.2136 416.694 86.0747 418.771 85.8013C420.923 85.9036 423.052 85.7652 425.129 85.4917C427.281 85.5936 429.411 85.4552 431.488 85.1817C433.64 85.284 435.769 85.1452 437.846 84.8718C439.998 84.974 442.128 84.8356 444.204 84.5622C446.356 84.664 448.486 84.5256 450.562 84.2522C452.715 84.354 454.844 84.2156 456.921 83.9426C459.073 84.0445 461.202 83.906 463.28 83.6326C465.431 83.7345 467.561 83.596 469.638 83.3226C471.789 83.4249 473.919 83.2864 475.996 83.0126C478.148 83.1149 480.277 82.9765 482.354 82.703C490.477 83.0881 498.288 80.0261 504.104 79.3708C505.839 77.3869 506.936 75.0529 507.449 72.3763C510.56 72.7555 510.353 71.2567 512.166 70.9027C510.257 67.4873 514.235 66.4996 509.754 64.2051Z" fill="#1071B9"/>
</g>
</svg>
