<svg width="120" height="68" viewBox="0 0 120 68" fill="none" xmlns="http://www.w3.org/2000/svg">
<path fill-rule="evenodd" clip-rule="evenodd" d="M44.6044 47.9928L44.7894 46.6691C44.8063 46.5493 45.1885 43.6978 44.2188 40.4009C43.4554 37.8036 41.7202 34.5043 37.7936 32.347C38.8095 30.9563 39.3757 29.2626 39.3757 27.4795C39.3757 22.9258 35.671 19.221 31.1173 19.221C26.5629 19.221 22.8576 22.9258 22.8576 27.4795C22.8576 29.2639 23.4242 30.9581 24.4406 32.3487C20.5167 34.5099 18.8128 37.8162 18.0768 40.419C17.1439 43.7192 17.5641 46.5722 17.5824 46.6921L17.7876 48.0318C13.9618 44.4512 11.5664 39.3599 11.5664 33.719C11.5664 22.9067 20.3629 14.1103 31.1749 14.1103C41.9872 14.1103 50.7835 22.9067 50.7835 33.719C50.7835 39.3394 48.4057 44.4142 44.6044 47.9928ZM28.1936 34.6172L29.3785 34.2184V36.7022H24.456C25.4144 35.8675 26.6365 35.1413 28.1936 34.6172ZM33.6411 31.4046L31.1198 33.0293L28.5923 31.4037C27.2511 30.5413 26.4504 29.0742 26.4504 27.4795C26.4504 24.9069 28.5441 22.8139 31.1173 22.8139C33.6899 22.8139 35.7829 24.9069 35.7829 27.4795C35.7829 29.0731 34.9823 30.5404 33.6411 31.4046ZM32.9714 36.7022V34.2572L34.0408 34.6172C35.5984 35.1417 36.8254 35.8676 37.7915 36.7022H32.9714ZM41.2876 44.6239H21.0576C21.075 43.5081 21.2473 41.9172 21.9089 40.2951H40.379C41.0595 41.9147 41.2544 43.5043 41.2876 44.6239ZM17.9859 48.2167H44.364C40.8788 51.3902 36.2487 53.3275 31.1749 53.3275C26.1012 53.3275 21.4713 51.3902 17.9859 48.2167ZM31.1749 10.5175C18.3817 10.5175 7.97363 20.9257 7.97363 33.719C7.97363 46.5122 18.3817 56.9203 31.1749 56.9203C43.9682 56.9203 54.3763 46.5122 54.3763 33.719C54.3763 20.9257 43.9682 10.5175 31.1749 10.5175Z" fill="#1071B9"/>
<mask id="mask0" mask-type="alpha" maskUnits="userSpaceOnUse" x="0" y="0" width="120" height="68">
<path fill-rule="evenodd" clip-rule="evenodd" d="M0 67.8569H119.908V0H0V67.8569Z" fill="white"/>
</mask>
<g mask="url(#mask0)">
<path fill-rule="evenodd" clip-rule="evenodd" d="M63.6869 64.2641H116.316V3.59281H63.6869V64.2641ZM3.59281 64.2641H60.0941V3.59281H3.59281V64.2641ZM0 67.8569H119.908V0H0V67.8569Z" fill="#1071B9"/>
<path fill-rule="evenodd" clip-rule="evenodd" d="M69.6582 14.1104H110.344V10.5176H69.6582V14.1104Z" fill="#1071B9"/>
<path fill-rule="evenodd" clip-rule="evenodd" d="M69.6582 56.9205H110.344V53.3276H69.6582V56.9205Z" fill="#1071B9"/>
<path fill-rule="evenodd" clip-rule="evenodd" d="M69.6582 33.2431H110.344V29.6503H69.6582V33.2431Z" fill="#1071B9"/>
<path fill-rule="evenodd" clip-rule="evenodd" d="M69.6582 39.7514H110.344V36.1586H69.6582V39.7514Z" fill="#1071B9"/>
<path fill-rule="evenodd" clip-rule="evenodd" d="M69.6582 26.7348H110.344V23.142H69.6582V26.7348Z" fill="#1071B9"/>
</g>
</svg>
