<svg width="103" height="100" viewBox="0 0 103 100" fill="none" xmlns="http://www.w3.org/2000/svg">
<mask id="mask0" mask-type="alpha" maskUnits="userSpaceOnUse" x="0" y="0" width="103" height="100">
<path fill-rule="evenodd" clip-rule="evenodd" d="M0 0H102.623V99.9291H0V0Z" fill="white"/>
</mask>
<g mask="url(#mask0)">
<path fill-rule="evenodd" clip-rule="evenodd" d="M95.0562 66.9223L94.6524 67.3261C92.8275 68.9441 90.0487 68.8674 88.3071 67.1441L88.2393 67.0768L87.7416 66.5798L70.3667 49.2049L67.7109 51.8608L85.6357 69.7857L85.7188 69.8683C87.3947 71.6265 87.4343 74.3735 85.8003 76.1791L85.4641 76.5153C83.6273 78.1782 80.8252 78.1096 79.0688 76.3531L61.1437 58.4279L61.1355 58.4364L61.1343 58.4352L58.4785 61.0908L76.4057 79.0181C78.1458 80.7582 78.2287 83.5427 76.6024 85.377L76.197 85.7822C74.3719 87.4021 71.594 87.3256 69.854 85.6007L64.1491 79.8967L61.8949 77.6418L61.6303 77.3782L51.9113 67.6606L51.9109 67.6608L51.9104 67.6606L49.2545 70.3162L67.1909 88.2523C67.204 88.2653 67.2186 88.2793 67.2348 88.2948C68.9233 90.0369 68.985 92.7899 67.3742 94.6047L66.9775 95.0031C65.1428 96.6326 62.3515 96.55 60.6125 94.8108L53.9965 88.1951L54.0019 88.1897L53.8599 88.0484C54.6785 86.7326 55.1177 85.211 55.1177 83.6223C55.1177 81.3751 54.2435 79.265 52.6569 77.6815C51.0702 76.0951 48.9611 75.2214 46.7174 75.2214C46.4156 75.2214 46.1163 75.2385 45.82 75.2697C45.8515 74.973 45.8691 74.6735 45.8691 74.3709C45.8691 72.1256 44.9944 70.0162 43.408 68.4329C41.5648 66.5897 39.0529 65.7782 36.6224 66.0209C36.651 65.739 36.6672 65.4549 36.6672 65.169C36.6672 62.9251 35.793 60.8153 34.2062 59.2286C32.6198 57.642 30.5099 56.7683 28.2658 56.7683C27.9637 56.7683 27.6639 56.7854 27.3674 56.8167C27.3986 56.5209 27.416 56.2221 27.416 55.9204C27.416 53.6793 26.5425 51.57 24.955 49.9796C22.131 47.1559 17.7815 46.7692 14.5475 48.8045L10.8332 45.0901C1.39442 35.6491 1.39442 20.2876 10.8332 10.8467C15.4057 6.27418 21.4867 3.75587 27.9557 3.75587C34.4212 3.75587 40.5017 6.27441 45.0761 10.8467L48.6566 14.4272L30.9353 32.1469C30.5132 32.5688 30.1461 33.0425 29.8425 33.5566L29.7494 33.7148C29.2982 34.7711 28.9702 35.8765 28.7731 37.0052C28.6233 37.8545 28.5475 38.7249 28.5475 39.5915C28.5475 43.5768 30.0989 47.3246 32.9165 50.1448C35.7879 53.0162 39.6299 54.5012 43.4961 54.5009C46.1254 54.5007 48.7663 53.8134 51.1179 52.4077L52.0526 51.8007C52.7494 51.3113 53.4097 50.7559 54.0207 50.1448L69.1975 34.9681L88.2071 53.98L88.2073 53.9798L95.3017 61.0746C96.6195 62.8357 96.5205 65.2716 95.0562 66.9223ZM42.7733 94.1347C41.8963 95.0117 40.7301 95.4948 39.4897 95.4948C38.2496 95.4948 37.0834 95.0117 36.2069 94.1352C34.3963 92.3228 34.3961 89.3754 36.2062 87.5653L43.4315 80.3422L43.5085 80.2645C44.3763 79.4336 45.5118 78.9772 46.7174 78.9772C47.9578 78.9772 49.124 79.4603 50.0024 80.3385C50.8792 81.2136 51.3618 82.3798 51.3618 83.6223C51.3618 84.716 50.9871 85.7521 50.2984 86.5815L50.297 86.5829L50.0127 86.8671L48.6656 88.2425L42.7733 94.1347ZM26.9552 84.8836C25.2548 83.1831 25.1407 80.4577 26.6735 78.6263C26.6785 78.6218 26.6827 78.6181 26.6874 78.6136C26.7367 78.5697 26.7822 78.5275 26.8254 78.4864C26.8367 78.4758 26.8472 78.466 26.858 78.4554C26.9015 78.4136 26.9428 78.3732 26.9787 78.3373L34.2144 71.1014C34.3078 71.0078 34.3984 70.912 34.4855 70.8157L34.4886 70.8129L34.4923 70.8087C36.3233 69.2744 39.0524 69.3885 40.7536 71.0899C41.6303 71.9648 42.1132 73.1301 42.1132 74.3709C42.1132 75.6117 41.6299 76.7782 40.7524 77.6559L33.5245 84.8836C31.7144 86.6941 28.7665 86.6937 26.9552 84.8836ZM17.7531 75.6815C15.9421 73.8704 15.9421 70.9232 17.7531 69.112L24.9808 61.8843C25.858 61.0073 27.0247 60.5242 28.2658 60.5242C29.5069 60.5242 30.6733 61.0073 31.5505 61.8845C32.428 62.7617 32.9113 63.9284 32.9113 65.169C32.9113 66.2599 32.5294 67.3113 31.8336 68.1427C31.8139 68.1603 31.7937 68.1796 31.7738 68.1979C31.7552 68.2146 31.7364 68.2317 31.7181 68.2491C31.6545 68.3082 31.5907 68.3692 31.5245 68.435L24.2991 75.6606C24.2099 75.7498 24.1235 75.8415 24.0402 75.9336L24.0341 75.9385L24.0193 75.9554C22.1876 77.4967 19.4559 77.3845 17.7531 75.6815ZM8.50428 66.4326C7.62729 65.5556 7.14419 64.389 7.14419 63.1481C7.14419 61.907 7.62729 60.7404 8.50452 59.8631L15.7322 52.6354C16.6379 51.7298 17.8268 51.2775 19.016 51.2775C20.205 51.2775 21.3935 51.7298 22.2982 52.6343C23.1763 53.5141 23.6602 54.6812 23.6602 55.9204C23.6602 57.1474 23.1855 58.304 22.3231 59.181L15.0719 66.4326C14.1944 67.3099 13.0285 67.793 11.7879 67.793C10.5477 67.793 9.38151 67.3099 8.50428 66.4326ZM57.5468 10.8467C62.1193 6.27418 68.2003 3.75587 74.6693 3.75587C78.6543 3.75587 82.5968 4.74249 86.0879 6.61103L86.2965 6.72512C88.301 7.8216 90.1496 9.20845 91.7897 10.8467C101.228 20.2876 101.228 35.6491 91.7897 45.0901L88.2444 48.6354L69.2306 29.619L51.3648 47.4892C50.8111 48.043 50.2052 48.5345 49.5639 48.9498L49.417 49.0451C45.0433 51.8052 39.2458 51.1622 35.5731 47.4897C33.4644 45.3793 32.3033 42.5742 32.3033 39.5915C32.3033 38.9427 32.3602 38.2918 32.4726 37.654C32.4738 37.6455 32.4754 37.6371 32.4768 37.6286C32.7228 36.2385 33.424 34.9692 34.4224 33.9711L57.5468 10.8467ZM98.2024 58.6854C98.201 58.6836 98.1998 58.6819 98.1984 58.6803C98.197 58.6786 98.1958 58.677 98.1944 58.6751L98.1245 58.5857L98.1001 58.5613C97.9116 58.327 97.7153 58.1038 97.516 57.907L90.9005 51.2911L94.4456 47.746V47.7458C105.349 36.8406 105.349 19.0962 94.4449 8.19014C92.82 6.56737 91.0172 5.15798 89.0742 3.98967L87.667 3.19718C83.6806 1.10423 79.1975 0 74.6693 0C67.197 0 60.1728 2.90892 54.8907 8.19131L51.3123 11.7711L47.7315 8.19061C42.4475 2.90892 35.4242 0 27.9557 0C20.4834 0 13.4592 2.90892 8.17729 8.19108C-2.72576 19.0962 -2.72576 36.8406 8.17729 47.746L11.744 51.3124L5.84865 57.2073C4.26203 58.7939 3.38832 60.9035 3.38832 63.1481C3.38832 65.3923 4.26203 67.5021 5.84865 69.0887C7.43504 70.6751 9.54443 71.5488 11.7879 71.5488C12.0914 71.5488 12.3923 71.5315 12.69 71.4998C12.4303 73.9394 13.2317 76.4716 15.0972 78.3373C16.7289 79.9688 18.8822 80.7927 21.0397 80.7927C21.3228 80.7927 21.6057 80.7768 21.8876 80.7484C21.6425 83.1803 22.454 85.6941 24.2998 87.5399C25.9386 89.1768 28.0897 89.9951 30.2409 89.9951C30.5428 89.9951 30.8444 89.977 31.1449 89.9448C30.8829 92.3864 31.6836 94.9218 33.5503 96.7904C35.1369 98.377 37.2461 99.2507 39.4897 99.2507C41.7336 99.2507 43.8428 98.377 45.4294 96.7904L51.3343 90.8854L51.3672 90.9178L51.3869 90.8969L57.9564 97.4664C59.5942 99.104 61.7472 99.9291 63.9031 99.9291C65.9017 99.9291 67.9024 99.2197 69.4951 97.7904L69.5118 97.7742L69.5132 97.7756C69.6261 97.6754 69.7329 97.5721 69.8386 97.4664C69.9447 97.3603 70.0477 97.2509 70.1449 97.1415L70.1442 97.1411C71.7916 95.3103 72.4883 92.9425 72.2517 90.6563C72.5421 90.6866 72.8339 90.7033 73.1256 90.7033C75.1364 90.7033 77.1498 89.9847 78.7491 88.5385L78.7559 88.5319L78.7562 88.5322C78.8592 88.438 78.9616 88.3408 79.0616 88.2411C79.1611 88.1418 79.2578 88.0392 79.3517 87.9366H79.3515L79.3595 87.9282C81.0174 86.0934 81.7172 83.7204 81.4778 81.43C81.7686 81.4606 82.0606 81.477 82.3526 81.477C84.3839 81.477 86.4186 80.7394 88.0327 79.2559L88.4867 78.8045L88.5414 78.7472C90.2341 76.9054 90.9538 74.5108 90.7137 72.1991C91.0019 72.2289 91.2916 72.2453 91.5813 72.2453C93.5916 72.2451 95.6045 71.5277 97.2031 70.0838L97.7486 69.5415L97.8139 69.4725C100.555 66.4397 100.717 61.9052 98.2022 58.6857L98.2024 58.6854Z" fill="#1071B9"/>
</g>
</svg>
