<svg width="40" height="40" viewBox="0 0 40 40" fill="none" xmlns="http://www.w3.org/2000/svg">
<path d="M20 17.83C21.8898 17.83 23.4218 16.298 23.4218 14.4082C23.4218 12.5183 21.8898 10.9863 20 10.9863C18.1102 10.9863 16.5782 12.5183 16.5782 14.4082C16.5782 16.298 18.1102 17.83 20 17.83Z" fill="white"/>
<path d="M20 0C8.95399 0 0 8.95399 0 20C0 31.046 8.95399 40 20 40C31.046 40 40 31.046 40 20C40 8.95399 31.046 0 20 0ZM28.1629 18.3233L26.9458 21.4329L20 38.0997L13.0484 21.4175L11.8381 18.3233C11.0691 16.3594 10.94 14.2462 11.4633 12.212C11.9904 10.1595 13.1351 8.38159 14.7714 7.07107C16.344 5.81257 18.1518 5.14768 20 5.14768C21.8482 5.14768 23.6569 5.81257 25.2286 7.07107C26.8658 8.38159 28.0096 10.1595 28.5377 12.212C29.0609 14.2462 28.9309 16.3594 28.1629 18.3233Z" fill="white"/>
<path d="M24.265 8.27461C23.6165 7.75618 22.9246 7.36014 22.2067 7.09321C21.4897 6.82629 20.7468 6.68945 20 6.68945C18.5054 6.68945 17.031 7.23776 15.735 8.27461C14.3608 9.37507 13.4001 10.8697 12.9559 12.5965C12.5145 14.3156 12.6234 16.1012 13.2739 17.7615L14.4813 20.848L20 34.091L25.5187 20.847L26.727 17.7615C27.3765 16.1012 27.4864 14.3156 27.0441 12.5965C26.5998 10.8697 25.6391 9.37507 24.265 8.27461ZM20 19.3717C17.2633 19.3717 15.0363 17.1448 15.0363 14.4081C15.0363 11.6704 17.2633 9.44445 20 9.44445C22.7367 9.44445 24.9636 11.6704 24.9636 14.4081C24.9636 17.1448 22.7367 19.3717 20 19.3717Z" fill="white"/>
</svg>
