<svg width="125" height="100" viewBox="0 0 125 100" fill="none" xmlns="http://www.w3.org/2000/svg">
<path fill-rule="evenodd" clip-rule="evenodd" d="M15.7452 39.4445C7.6201 39.4445 1.03223 46.0486 1.03223 54.1954V83.697H5.4459V54.1954C5.4459 48.4929 10.0568 43.8697 15.7452 43.8697C21.4335 43.8697 26.0444 48.4929 26.0444 54.1954V83.697H30.4583V54.1954C30.4583 46.0486 23.8704 39.4445 15.7452 39.4445Z" fill="white"/>
<path fill-rule="evenodd" clip-rule="evenodd" d="M110.26 83.6971C118.385 83.6971 124.973 77.093 124.973 68.9462V39.4446H120.56V68.9462C120.56 74.6487 115.949 79.2716 110.26 79.2716C104.572 79.2716 99.9609 74.6487 99.9609 68.9462V39.4446H95.5472V68.9462C95.5472 77.093 102.135 83.6971 110.26 83.6971Z" fill="white"/>
<path fill-rule="evenodd" clip-rule="evenodd" d="M2.73723 96.7793H5.23559L4.00919 92.4806L3.98335 92.1365L3.95774 92.4806L2.73723 96.7793ZM5.45571 97.5788H2.51145L1.90119 99.7511H1.03229L3.75621 90.4258H4.19644L6.93487 99.7511H6.0714L5.45571 97.5788Z" fill="white"/>
<path d="M2.73723 96.7793L2.60111 96.7406C2.58899 96.7833 2.59759 96.8292 2.62433 96.8646C2.65108 96.8999 2.69287 96.9208 2.73723 96.9208V96.7793ZM5.23559 96.7793V96.9208C5.27998 96.9208 5.3218 96.8999 5.34854 96.8645C5.37528 96.829 5.38384 96.7831 5.37166 96.7404L5.23559 96.7793ZM4.00919 92.4806L3.86809 92.4912C3.86881 92.5008 3.8705 92.5102 3.87312 92.5194L4.00919 92.4806ZM3.98335 92.1365L4.12445 92.1259C4.11891 92.0521 4.05736 91.995 3.98331 91.995C3.90925 91.995 3.84774 92.0522 3.84224 92.126L3.98335 92.1365ZM3.95774 92.4806L4.09386 92.5193C4.09646 92.5101 4.09814 92.5006 4.09885 92.4911L3.95774 92.4806ZM5.45571 97.5788L5.59185 97.5402C5.57459 97.4793 5.519 97.4373 5.45571 97.4373V97.5788ZM2.51145 97.5788V97.4373C2.44804 97.4373 2.39237 97.4795 2.37522 97.5405L2.51145 97.5788ZM1.90119 99.7511V99.8926C1.9646 99.8926 2.02027 99.8504 2.03742 99.7893L1.90119 99.7511ZM1.03229 99.7511L0.896464 99.7114C0.883973 99.7542 0.892349 99.8003 0.919071 99.8359C0.945792 99.8716 0.987739 99.8926 1.03229 99.8926V99.7511ZM3.75621 90.4258V90.2843C3.69334 90.2843 3.63801 90.3258 3.62038 90.3862L3.75621 90.4258ZM4.19644 90.4258L4.33221 90.386C4.31452 90.3257 4.25923 90.2843 4.19644 90.2843V90.4258ZM6.93487 99.7511V99.8926C6.97945 99.8926 7.02143 99.8716 7.04815 99.8359C7.07486 99.8002 7.0832 99.754 7.07064 99.7112L6.93487 99.7511ZM6.0714 99.7511L5.93527 99.7897C5.95252 99.8505 6.00811 99.8926 6.0714 99.8926V99.7511ZM2.73723 96.9208H5.23559V96.6378H2.73723V96.9208ZM5.37166 96.7404L4.14526 92.4418L3.87312 92.5194L5.09952 96.8181L5.37166 96.7404ZM4.1503 92.47L4.12445 92.1259L3.84225 92.1471L3.86809 92.4912L4.1503 92.47ZM3.84224 92.126L3.81663 92.4701L4.09885 92.4911L4.12446 92.147L3.84224 92.126ZM3.82162 92.442L2.60111 96.7406L2.87335 96.8179L4.09386 92.5193L3.82162 92.442ZM5.45571 97.4373H2.51145V97.7203H5.45571V97.4373ZM2.37522 97.5405L1.76497 99.7128L2.03742 99.7893L2.64767 97.6171L2.37522 97.5405ZM1.90119 99.6096H1.03229V99.8926H1.90119V99.6096ZM1.16811 99.7907L3.89203 90.4655L3.62038 90.3862L0.896464 99.7114L1.16811 99.7907ZM3.75621 90.5673H4.19644V90.2843H3.75621V90.5673ZM4.06067 90.4657L6.7991 99.7909L7.07064 99.7112L4.33221 90.386L4.06067 90.4657ZM6.93487 99.6096H6.0714V99.8926H6.93487V99.6096ZM6.20754 99.7125L5.59185 97.5402L5.31957 97.6174L5.93527 99.7897L6.20754 99.7125Z" fill="white"/>
<path fill-rule="evenodd" clip-rule="evenodd" d="M7.99097 99.7511V90.4259H8.827V98.9514H12.3888V99.7511H7.99097Z" fill="white"/>
<path fill-rule="evenodd" clip-rule="evenodd" d="M7.99097 99.7511V90.4259H8.827V98.9514H12.3888V99.7511H7.99097Z" stroke="white" stroke-width="0.283" stroke-linecap="round" stroke-linejoin="round"/>
<mask id="mask0" mask-type="alpha" maskUnits="userSpaceOnUse" x="1" y="0" width="124" height="100">
<path fill-rule="evenodd" clip-rule="evenodd" d="M1 99.9136H124.973V0H1V99.9136Z" fill="white"/>
</mask>
<g mask="url(#mask0)">
<path fill-rule="evenodd" clip-rule="evenodd" d="M13.7178 99.7511H14.5552V90.4259H13.7178V99.7511Z" fill="white"/>
<path fill-rule="evenodd" clip-rule="evenodd" d="M13.7178 99.7511H14.5552V90.4259H13.7178V99.7511Z" stroke="white" stroke-width="0.283" stroke-linecap="round" stroke-linejoin="round"/>
<path fill-rule="evenodd" clip-rule="evenodd" d="M22.412 99.7511V93.3589L22.3532 93.7557L20.1938 99.7511H19.7522L17.5726 93.7557L17.5211 93.3589V99.7511H16.6835V90.4259H17.118L19.9408 98.0732L19.9664 98.4184L19.9923 98.0732L22.808 90.4259H23.248V99.7511H22.412Z" fill="white"/>
<path fill-rule="evenodd" clip-rule="evenodd" d="M22.412 99.7511V93.3589L22.3532 93.7557L20.1938 99.7511H19.7522L17.5726 93.7557L17.5211 93.3589V99.7511H16.6835V90.4259H17.118L19.9408 98.0732L19.9664 98.4184L19.9923 98.0732L22.808 90.4259H23.248V99.7511H22.412Z" stroke="white" stroke-width="0.283" stroke-linecap="round" stroke-linejoin="round"/>
<path fill-rule="evenodd" clip-rule="evenodd" d="M25.3676 99.7511V90.4259H30.6028V91.2252H26.2052V94.6914H29.7652V95.4911H26.2052V98.9514H30.6028V99.7511H25.3676Z" fill="white"/>
<path fill-rule="evenodd" clip-rule="evenodd" d="M25.3676 99.7511V90.4259H30.6028V91.2252H26.2052V94.6914H29.7652V95.4911H26.2052V98.9514H30.6028V99.7511H25.3676Z" stroke="white" stroke-width="0.283" stroke-linecap="round" stroke-linejoin="round"/>
<path fill-rule="evenodd" clip-rule="evenodd" d="M36.9915 99.7511L33.1126 92.962L33.0353 92.5593V99.7511H32.1979V90.4259H32.6324L36.5114 97.222L36.5957 97.6175V90.4259H37.4331V99.7511H36.9915Z" fill="white"/>
<path fill-rule="evenodd" clip-rule="evenodd" d="M36.9915 99.7511L33.1126 92.962L33.0353 92.5593V99.7511H32.1979V90.4259H32.6324L36.5114 97.222L36.5957 97.6175V90.4259H37.4331V99.7511H36.9915Z" stroke="white" stroke-width="0.283" stroke-linecap="round" stroke-linejoin="round"/>
<path fill-rule="evenodd" clip-rule="evenodd" d="M41.8181 91.2253V99.7512H40.9805V91.2253H38.7625V90.4257H44.036V91.2253H41.8181Z" fill="white"/>
<path fill-rule="evenodd" clip-rule="evenodd" d="M41.8181 91.2253V99.7512H40.9805V91.2253H38.7625V90.4257H44.036V91.2253H41.8181Z" stroke="white" stroke-width="0.283" stroke-linecap="round" stroke-linejoin="round"/>
<path fill-rule="evenodd" clip-rule="evenodd" d="M49.6273 92.5851C49.6273 92.376 49.5888 92.1826 49.5101 92.0033C49.433 91.8228 49.3272 91.6651 49.1927 91.5319C49.0585 91.3972 48.9012 91.2913 48.7226 91.2124C48.5426 91.1351 48.3497 91.0947 48.1425 91.0947H47.5579C47.3507 91.0947 47.1577 91.1351 46.9775 91.2124C46.7975 91.2913 46.6402 91.3972 46.5046 91.5319C46.3673 91.6651 46.2616 91.8228 46.183 92.0033C46.1057 92.1826 46.0658 92.376 46.0658 92.5851V97.5915C46.0658 97.7994 46.1057 97.9944 46.183 98.1733C46.2616 98.354 46.3673 98.5115 46.5046 98.6492C46.6402 98.7851 46.7975 98.8928 46.9775 98.9701C47.1577 99.049 47.3507 99.0876 47.5579 99.0876H48.1425C48.3497 99.0876 48.5426 99.049 48.7226 98.9701C48.9012 98.8928 49.0585 98.7851 49.1927 98.6492C49.3272 98.5115 49.433 98.354 49.5101 98.1733C49.5888 97.9944 49.6273 97.7994 49.6273 97.5915V92.5851ZM50.2863 98.4828C50.1662 98.761 50.0032 99.0031 49.7962 99.2108C49.5888 99.4201 49.3458 99.5835 49.0699 99.7022C48.7926 99.8213 48.4968 99.8815 48.181 99.8815H47.5193C47.2033 99.8815 46.9061 99.8213 46.6275 99.7022C46.3487 99.5835 46.1057 99.4201 45.8971 99.2108C45.6897 99.0031 45.5269 98.761 45.4084 98.4828C45.2896 98.2051 45.2297 97.9083 45.2297 97.5915V92.5851C45.2297 92.2683 45.2896 91.9719 45.4084 91.6938C45.5269 91.4158 45.6897 91.1738 45.8971 90.9658C46.1057 90.7567 46.3487 90.5933 46.6275 90.4744C46.9061 90.3553 47.2033 90.2953 47.5193 90.2953H48.181C48.4968 90.2953 48.7926 90.3553 49.0699 90.4744C49.3458 90.5933 49.5888 90.7567 49.7962 90.9658C50.0032 91.1738 50.1662 91.4158 50.2863 91.6938C50.4049 91.9719 50.4634 92.2683 50.4634 92.5851V97.5915C50.4634 97.9083 50.4049 98.2051 50.2863 98.4828Z" fill="white"/>
<path d="M49.5101 92.0033L49.38 92.0589L49.3805 92.0601L49.5101 92.0033ZM49.1927 91.5319L49.0925 91.6318L49.0932 91.6325L49.1927 91.5319ZM48.7226 91.2124L48.7797 91.0829L48.7784 91.0824L48.7226 91.2124ZM46.9775 91.2124L46.9218 91.0823L46.9207 91.0828L46.9775 91.2124ZM46.5046 91.5319L46.6031 91.6335L46.6044 91.6323L46.5046 91.5319ZM46.183 92.0033L46.0533 91.9468L46.053 91.9473L46.183 92.0033ZM46.183 98.1733L46.0531 98.2294L46.0532 98.2298L46.183 98.1733ZM46.5046 98.6492L46.6048 98.5493L46.5046 98.6492ZM46.9775 98.9701L47.0343 98.8405L47.0333 98.8401L46.9775 98.9701ZM48.7226 98.9701L48.6664 98.8403L48.6658 98.8405L48.7226 98.9701ZM49.1927 98.6492L49.2934 98.7486L49.294 98.748L49.1927 98.6492ZM49.5101 98.1733L49.3806 98.1163L49.38 98.1178L49.5101 98.1733ZM50.2863 98.4828L50.4162 98.539L50.4164 98.5384L50.2863 98.4828ZM49.7962 99.2108L49.696 99.1109L49.6957 99.1112L49.7962 99.2108ZM49.0699 99.7022L49.1257 99.8322L49.1258 99.8322L49.0699 99.7022ZM46.6275 99.7022L46.6831 99.5721L46.6829 99.572L46.6275 99.7022ZM45.8971 99.2108L45.9974 99.1109L45.9972 99.1108L45.8971 99.2108ZM45.4084 98.4828L45.5385 98.4274L45.5385 98.4272L45.4084 98.4828ZM45.4084 91.6938L45.5385 91.7493L45.5385 91.7493L45.4084 91.6938ZM45.8971 90.9658L45.7969 90.8659L45.8971 90.9658ZM46.6275 90.4744L46.683 90.6046L46.6831 90.6046L46.6275 90.4744ZM49.0699 90.4744L49.1259 90.3445L49.1257 90.3444L49.0699 90.4744ZM49.7962 90.9658L49.6957 91.0655L49.6959 91.0656L49.7962 90.9658ZM50.2863 91.6938L50.4165 91.6383L50.4162 91.6376L50.2863 91.6938ZM49.7688 92.5851C49.7688 92.3581 49.7269 92.1452 49.6397 91.9465L49.3805 92.0601C49.4507 92.2201 49.4858 92.3939 49.4858 92.5851H49.7688ZM49.6402 91.9477C49.5563 91.7513 49.4404 91.5781 49.2923 91.4314L49.0932 91.6325C49.214 91.7522 49.3097 91.8944 49.38 92.0589L49.6402 91.9477ZM49.293 91.4321C49.1456 91.2841 48.9734 91.1685 48.7797 91.0829L48.6654 91.3418C48.829 91.4141 48.9715 91.5102 49.0925 91.6318L49.293 91.4321ZM48.7784 91.0824C48.5806 90.9975 48.3687 90.9532 48.1425 90.9532V91.2362C48.3307 91.2362 48.5046 91.2728 48.6668 91.3424L48.7784 91.0824ZM48.1425 90.9532H47.5579V91.2362H48.1425V90.9532ZM47.5579 90.9532C47.3316 90.9532 47.1197 90.9975 46.9218 91.0823L47.0333 91.3424C47.1958 91.2728 47.3697 91.2362 47.5579 91.2362V90.9532ZM46.9207 91.0828C46.7254 91.1684 46.5534 91.284 46.4049 91.4316L46.6044 91.6323C46.7271 91.5104 46.8696 91.4142 47.0343 91.342L46.9207 91.0828ZM46.4062 91.4303C46.2543 91.5776 46.1386 91.7511 46.0533 91.9468L46.3127 92.0598C46.3847 91.8946 46.4803 91.7527 46.6031 91.6335L46.4062 91.4303ZM46.053 91.9473C45.9678 92.1449 45.9243 92.3575 45.9243 92.5851H46.2073C46.2073 92.3946 46.2435 92.2203 46.3129 92.0593L46.053 91.9473ZM45.9243 92.5851V97.5915H46.2073V92.5851H45.9243ZM45.9243 97.5915C45.9243 97.8179 45.9678 98.0321 46.0531 98.2294L46.3129 98.1172C46.2436 97.9568 46.2073 97.781 46.2073 97.5915H45.9243ZM46.0532 98.2298C46.1386 98.426 46.2541 98.5984 46.4045 98.7491L46.6048 98.5493C46.4805 98.4246 46.3846 98.282 46.3127 98.1168L46.0532 98.2298ZM46.4045 98.7491C46.5526 98.8977 46.7249 99.0157 46.9217 99.1001L47.0333 98.8401C46.8701 98.77 46.7278 98.6726 46.6048 98.5493L46.4045 98.7491ZM46.9208 99.0998C47.1201 99.187 47.3325 99.2291 47.5579 99.2291V98.9461C47.3688 98.9461 47.1954 98.911 47.0343 98.8405L46.9208 99.0998ZM47.5579 99.2291H48.1425V98.9461H47.5579V99.2291ZM48.1425 99.2291C48.3678 99.2291 48.5802 99.187 48.7794 99.0997L48.6658 98.8405C48.505 98.911 48.3315 98.9461 48.1425 98.9461V99.2291ZM48.7788 99.1C48.9739 99.0156 49.1464 98.8975 49.2934 98.7486L49.0921 98.5498C48.9707 98.6727 48.8285 98.7701 48.6664 98.8403L48.7788 99.1ZM49.294 98.748C49.4406 98.5979 49.5563 98.4257 49.6403 98.2288L49.38 98.1178C49.3098 98.2822 49.2138 98.4251 49.0915 98.5504L49.294 98.748ZM49.6396 98.2303C49.7269 98.0318 49.7688 97.8172 49.7688 97.5915H49.4858C49.4858 97.7817 49.4506 97.957 49.3806 98.1163L49.6396 98.2303ZM49.7688 97.5915V92.5851H49.4858V97.5915H49.7688ZM50.1564 98.4267C50.0431 98.6891 49.89 98.9162 49.696 99.1109L49.8964 99.3107C50.1164 99.0899 50.2892 98.8329 50.4162 98.539L50.1564 98.4267ZM49.6957 99.1112C49.5016 99.3071 49.2739 99.4604 49.014 99.5722L49.1258 99.8322C49.4176 99.7067 49.676 99.5332 49.8967 99.3104L49.6957 99.1112ZM49.014 99.5722C48.755 99.6834 48.4783 99.74 48.181 99.74V100.023C48.5154 100.023 48.8303 99.9591 49.1257 99.8322L49.014 99.5722ZM48.181 99.74H47.5193V100.023H48.181V99.74ZM47.5193 99.74C47.2218 99.74 46.9436 99.6834 46.6831 99.5721L46.5719 99.8323C46.8686 99.9591 47.1848 100.023 47.5193 100.023V99.74ZM46.6829 99.572C46.4204 99.4603 46.1927 99.307 45.9974 99.1109L45.7969 99.3107C46.0186 99.5332 46.277 99.7068 46.5721 99.8324L46.6829 99.572ZM45.9972 99.1108C45.8029 98.9162 45.6502 98.6893 45.5385 98.4274L45.2782 98.5383C45.4037 98.8327 45.5765 99.09 45.797 99.3108L45.9972 99.1108ZM45.5385 98.4272C45.4275 98.1678 45.3712 97.89 45.3712 97.5915H45.0882C45.0882 97.9267 45.1517 98.2425 45.2783 98.5385L45.5385 98.4272ZM45.3712 97.5915V92.5851H45.0882V97.5915H45.3712ZM45.3712 92.5851C45.3712 92.2867 45.4275 92.0093 45.5385 91.7493L45.2782 91.6382C45.1517 91.9346 45.0882 92.2499 45.0882 92.5851H45.3712ZM45.5385 91.7493C45.6502 91.4875 45.8029 91.2606 45.9973 91.0657L45.7969 90.8659C45.5765 91.0869 45.4037 91.3441 45.2782 91.6382L45.5385 91.7493ZM45.9973 91.0657C46.1927 90.8699 46.4204 90.7166 46.683 90.6046L46.572 90.3443C46.277 90.4701 46.0187 90.6436 45.7969 90.8659L45.9973 91.0657ZM46.6831 90.6046C46.9435 90.4932 47.2217 90.4368 47.5193 90.4368V90.1538C47.1849 90.1538 46.8687 90.2175 46.5719 90.3443L46.6831 90.6046ZM47.5193 90.4368H48.181V90.1538H47.5193V90.4368ZM48.181 90.4368C48.4783 90.4368 48.7551 90.4932 49.014 90.6045L49.1257 90.3444C48.8302 90.2175 48.5153 90.1538 48.181 90.1538V90.4368ZM49.0139 90.6044C49.2739 90.7164 49.5016 90.8698 49.6957 91.0655L49.8967 90.8661C49.6759 90.6437 49.4177 90.4702 49.1259 90.3445L49.0139 90.6044ZM49.6959 91.0656C49.89 91.2606 50.0431 91.4877 50.1564 91.7499L50.4162 91.6376C50.2892 91.3439 50.1164 91.0869 49.8965 90.866L49.6959 91.0656ZM50.1561 91.7492C50.2668 92.0089 50.3219 92.2863 50.3219 92.5851H50.6049C50.6049 92.2503 50.5429 91.935 50.4165 91.6383L50.1561 91.7492ZM50.3219 92.5851V97.5915H50.6049V92.5851H50.3219ZM50.3219 97.5915C50.3219 97.8904 50.2668 98.1682 50.1562 98.4273L50.4164 98.5384C50.543 98.2421 50.6049 97.9262 50.6049 97.5915H50.3219Z" fill="white"/>
<path fill-rule="evenodd" clip-rule="evenodd" d="M57.5595 97.5916C57.5595 97.9084 57.4967 98.205 57.3695 98.4829C57.2407 98.7611 57.0707 99.0032 56.8565 99.2109C56.6421 99.4202 56.3934 99.5836 56.1102 99.7022C55.8273 99.8213 55.5272 99.8813 55.2125 99.8813H54.5438C54.228 99.8813 53.9295 99.8213 53.6463 99.7022C53.3618 99.5836 53.1132 99.4202 52.9003 99.2109C52.6858 99.0032 52.5145 98.7611 52.3873 98.4829C52.2601 98.205 52.1957 97.9084 52.1957 97.5916V97.222L53.0331 97.0845V97.5916C53.0331 97.7995 53.0746 97.9943 53.1589 98.1734C53.2433 98.3538 53.3575 98.5116 53.4992 98.6491C53.642 98.7852 53.8077 98.8929 53.9966 98.97C54.1836 99.0491 54.3824 99.0877 54.5896 99.0877H55.1729C55.3814 99.0877 55.5773 99.0491 55.7632 98.97C55.9488 98.8929 56.1132 98.7852 56.256 98.6491C56.399 98.5116 56.5133 98.3538 56.596 98.1734C56.6806 97.9943 56.7234 97.7995 56.7234 97.5916V97.3122C56.7234 96.9911 56.6604 96.7247 56.5348 96.5127C56.4106 96.3004 56.2431 96.1188 56.0361 95.9697C55.8289 95.8207 55.5943 95.6929 55.3329 95.5886C55.0697 95.4852 54.8013 95.3807 54.5239 95.2775C54.248 95.1729 53.978 95.0584 53.7164 94.9322C53.4548 94.8061 53.2204 94.65 53.0132 94.4609C52.806 94.2718 52.6387 94.0409 52.5145 93.7688C52.3887 93.4952 52.3259 93.1597 52.3259 92.7597V92.5852C52.3259 92.2684 52.3857 91.9718 52.5045 91.6938C52.6231 91.4159 52.7858 91.1738 52.993 90.9659C53.2018 90.7568 53.4448 90.5934 53.7236 90.4745C54.0022 90.3554 54.2997 90.2952 54.6152 90.2952H55.2125C55.5272 90.2952 55.8244 90.3554 56.1003 90.4745C56.3777 90.5934 56.6192 90.7568 56.8277 90.9659C57.0351 91.1738 57.1979 91.4159 57.3165 91.6938C57.4352 91.9718 57.4951 92.2684 57.4951 92.5852V92.8259L56.6591 92.962V92.5852C56.6591 92.3761 56.6192 92.1825 56.5419 92.0034C56.4634 91.8227 56.3576 91.6652 56.2245 91.532C56.0903 91.3972 55.933 91.2911 55.7546 91.2125C55.5743 91.1352 55.3814 91.0947 55.1729 91.0947H54.654C54.4468 91.0947 54.2536 91.1352 54.0739 91.2125C53.8937 91.2911 53.7363 91.3972 53.6005 91.532C53.4634 91.6652 53.3575 91.8227 53.2791 92.0034C53.2018 92.1825 53.1619 92.3761 53.1619 92.5852V92.7597C53.1619 93.0595 53.2247 93.3116 53.3505 93.515C53.4761 93.7186 53.642 93.8934 53.8508 94.0382C54.058 94.1829 54.2922 94.3091 54.5538 94.4147C54.8156 94.5209 55.084 94.6297 55.3615 94.7402C55.6387 94.8504 55.9074 94.9725 56.169 95.1043C56.4306 95.2375 56.665 95.3993 56.8721 95.5927C57.0809 95.7847 57.2466 96.0213 57.3725 96.2979C57.498 96.5757 57.5595 96.9141 57.5595 97.3122V97.5916Z" fill="white"/>
<path fill-rule="evenodd" clip-rule="evenodd" d="M57.5595 97.5916C57.5595 97.9084 57.4967 98.205 57.3695 98.4829C57.2407 98.7611 57.0707 99.0032 56.8565 99.2109C56.6421 99.4202 56.3934 99.5836 56.1102 99.7022C55.8273 99.8213 55.5272 99.8813 55.2125 99.8813H54.5438C54.228 99.8813 53.9295 99.8213 53.6463 99.7022C53.3618 99.5836 53.1132 99.4202 52.9003 99.2109C52.6858 99.0032 52.5145 98.7611 52.3873 98.4829C52.2601 98.205 52.1957 97.9084 52.1957 97.5916V97.222L53.0331 97.0845V97.5916C53.0331 97.7995 53.0746 97.9943 53.1589 98.1734C53.2433 98.3538 53.3575 98.5116 53.4992 98.6491C53.642 98.7852 53.8077 98.8929 53.9966 98.97C54.1836 99.0491 54.3824 99.0877 54.5896 99.0877H55.1729C55.3814 99.0877 55.5773 99.0491 55.7632 98.97C55.9488 98.8929 56.1132 98.7852 56.256 98.6491C56.399 98.5116 56.5133 98.3538 56.596 98.1734C56.6806 97.9943 56.7234 97.7995 56.7234 97.5916V97.3122C56.7234 96.9911 56.6604 96.7247 56.5348 96.5127C56.4106 96.3004 56.2431 96.1188 56.0361 95.9697C55.8289 95.8207 55.5943 95.6929 55.3329 95.5886C55.0697 95.4852 54.8013 95.3807 54.5239 95.2775C54.248 95.1729 53.978 95.0584 53.7164 94.9322C53.4548 94.8061 53.2204 94.65 53.0132 94.4609C52.806 94.2718 52.6387 94.0409 52.5145 93.7688C52.3887 93.4952 52.3259 93.1597 52.3259 92.7597V92.5852C52.3259 92.2684 52.3857 91.9718 52.5045 91.6938C52.6231 91.4159 52.7858 91.1738 52.993 90.9659C53.2018 90.7568 53.4448 90.5934 53.7236 90.4745C54.0022 90.3554 54.2997 90.2952 54.6152 90.2952H55.2125C55.5272 90.2952 55.8244 90.3554 56.1003 90.4745C56.3777 90.5934 56.6192 90.7568 56.8277 90.9659C57.0351 91.1738 57.1979 91.4159 57.3165 91.6938C57.4352 91.9718 57.4951 92.2684 57.4951 92.5852V92.8259L56.6591 92.962V92.5852C56.6591 92.3761 56.6192 92.1825 56.5419 92.0034C56.4634 91.8227 56.3576 91.6652 56.2245 91.532C56.0903 91.3972 55.933 91.2911 55.7546 91.2125C55.5743 91.1352 55.3814 91.0947 55.1729 91.0947H54.654C54.4468 91.0947 54.2536 91.1352 54.0739 91.2125C53.8937 91.2911 53.7363 91.3972 53.6005 91.532C53.4634 91.6652 53.3575 91.8227 53.2791 92.0034C53.2018 92.1825 53.1619 92.3761 53.1619 92.5852V92.7597C53.1619 93.0595 53.2247 93.3116 53.3505 93.515C53.4761 93.7186 53.642 93.8934 53.8508 94.0382C54.058 94.1829 54.2922 94.3091 54.5538 94.4147C54.8156 94.5209 55.084 94.6297 55.3615 94.7402C55.6387 94.8504 55.9074 94.9725 56.169 95.1043C56.4306 95.2375 56.665 95.3993 56.8721 95.5927C57.0809 95.7847 57.2466 96.0213 57.3725 96.2979C57.498 96.5757 57.5595 96.9141 57.5595 97.3122V97.5916Z" stroke="white" stroke-width="0.283" stroke-linecap="round" stroke-linejoin="round"/>
<path fill-rule="evenodd" clip-rule="evenodd" d="M63.2492 91.2253V94.6914H66.8094V95.4912H63.2492V99.7512H62.4118V90.4257H67.647V91.2253H63.2492Z" fill="white"/>
<path fill-rule="evenodd" clip-rule="evenodd" d="M63.2492 91.2253V94.6914H66.8094V95.4912H63.2492V99.7512H62.4118V90.4257H67.647V91.2253H63.2492Z" stroke="white" stroke-width="0.283" stroke-linecap="round" stroke-linejoin="round"/>
<path fill-rule="evenodd" clip-rule="evenodd" d="M73.8971 98.4829C73.7772 98.7611 73.6142 99.0031 73.407 99.2109C73.1998 99.4202 72.9568 99.5836 72.6809 99.7022C72.4034 99.8213 72.1076 99.8813 71.7918 99.8813H71.1301C70.8141 99.8813 70.5171 99.8213 70.2383 99.7022C69.9595 99.5836 69.7167 99.4202 69.5079 99.2109C69.3007 99.0031 69.1377 98.7611 69.0191 98.4829C68.9004 98.205 68.8405 97.9084 68.8405 97.5916V90.4259H69.6768V97.5916C69.6768 97.7995 69.7167 97.9945 69.7938 98.1734C69.8724 98.3541 69.9781 98.5116 70.1152 98.6491C70.251 98.7852 70.4083 98.8929 70.5883 98.9702C70.7685 99.0491 70.9617 99.0877 71.1686 99.0877H71.7533C71.9605 99.0877 72.1536 99.0491 72.3336 98.9702C72.5122 98.8929 72.6696 98.7852 72.8038 98.6491C72.9382 98.5116 73.0438 98.3541 73.1211 98.1734C73.1998 97.9945 73.2383 97.7995 73.2383 97.5916V90.4259H74.0744V97.5916C74.0744 97.9084 74.0156 98.205 73.8971 98.4829Z" fill="white"/>
<path fill-rule="evenodd" clip-rule="evenodd" d="M73.8971 98.4829C73.7772 98.7611 73.6142 99.0031 73.407 99.2109C73.1998 99.4202 72.9568 99.5836 72.6809 99.7022C72.4034 99.8213 72.1076 99.8813 71.7918 99.8813H71.1301C70.8141 99.8813 70.5171 99.8213 70.2383 99.7022C69.9595 99.5836 69.7167 99.4202 69.5079 99.2109C69.3007 99.0031 69.1377 98.7611 69.0191 98.4829C68.9004 98.205 68.8405 97.9084 68.8405 97.5916V90.4259H69.6768V97.5916C69.6768 97.7995 69.7167 97.9945 69.7938 98.1734C69.8724 98.3541 69.9781 98.5116 70.1152 98.6491C70.251 98.7852 70.4083 98.8929 70.5883 98.9702C70.7685 99.0491 70.9617 99.0877 71.1686 99.0877H71.7533C71.9605 99.0877 72.1536 99.0491 72.3336 98.9702C72.5122 98.8929 72.6696 98.7852 72.8038 98.6491C72.9382 98.5116 73.0438 98.3541 73.1211 98.1734C73.1998 97.9945 73.2383 97.7995 73.2383 97.5916V90.4259H74.0744V97.5916C74.0744 97.9084 74.0156 98.205 73.8971 98.4829Z" stroke="white" stroke-width="0.283" stroke-linecap="round" stroke-linejoin="round"/>
<path fill-rule="evenodd" clip-rule="evenodd" d="M80.866 99.7511L76.9871 92.962L76.9098 92.5593V99.7511H76.0724V90.4259H76.507L80.3859 97.222L80.4702 97.6175V90.4259H81.3076V99.7511H80.866Z" fill="white"/>
<path fill-rule="evenodd" clip-rule="evenodd" d="M80.866 99.7511L76.9871 92.962L76.9098 92.5593V99.7511H76.0724V90.4259H76.507L80.3859 97.222L80.4702 97.6175V90.4259H81.3076V99.7511H80.866Z" stroke="white" stroke-width="0.283" stroke-linecap="round" stroke-linejoin="round"/>
<path fill-rule="evenodd" clip-rule="evenodd" d="M88.3553 98.4829C88.2353 98.7611 88.0721 99.0031 87.8652 99.2109C87.6577 99.4202 87.4149 99.5836 87.1388 99.7022C86.8616 99.8213 86.5658 99.8813 86.25 99.8813H85.5883C85.2723 99.8813 84.9751 99.8213 84.6962 99.7022C84.4176 99.5836 84.1748 99.4202 83.9661 99.2109C83.7589 99.0031 83.5959 98.7611 83.4771 98.4829C83.3585 98.205 83.2985 97.9084 83.2985 97.5915V92.5852C83.2985 92.2684 83.3585 91.972 83.4771 91.6938C83.5959 91.4159 83.7589 91.1738 83.9661 90.9659C84.1748 90.7568 84.4176 90.5934 84.6962 90.4745C84.9751 90.3554 85.2723 90.2954 85.5883 90.2954H86.25C86.5658 90.2954 86.8616 90.3554 87.1388 90.4745C87.4149 90.5934 87.6577 90.7568 87.8652 90.9659C88.0721 91.1738 88.2353 91.4159 88.3553 91.6938C88.4736 91.972 88.5323 92.2684 88.5323 92.5852V92.962L87.6963 93.0922V92.5852C87.6963 92.3761 87.6577 92.1825 87.5791 92.0034C87.5018 91.8227 87.3961 91.6652 87.2619 91.532C87.1275 91.3972 86.9704 91.2911 86.7918 91.2125C86.6118 91.1352 86.4186 91.0947 86.2114 91.0947H85.6268C85.4196 91.0947 85.2267 91.1352 85.0465 91.2125C84.8663 91.2911 84.7092 91.3972 84.5734 91.532C84.4362 91.6652 84.3306 91.8227 84.2517 92.0034C84.1748 92.1825 84.1347 92.3761 84.1347 92.5852V97.5915C84.1347 97.7995 84.1748 97.9945 84.2517 98.1734C84.3306 98.354 84.4362 98.5115 84.5734 98.649C84.7092 98.7852 84.8663 98.8929 85.0465 98.9702C85.2267 99.049 85.4196 99.0877 85.6268 99.0877H86.2114C86.4186 99.0877 86.6118 99.049 86.7918 98.9702C86.9704 98.8929 87.1275 98.7852 87.2619 98.649C87.3961 98.5115 87.5018 98.354 87.5791 98.1734C87.6577 97.9945 87.6963 97.7995 87.6963 97.5915V97.0845L88.5323 97.222V97.5915C88.5323 97.9084 88.4736 98.205 88.3553 98.4829Z" fill="white"/>
<path fill-rule="evenodd" clip-rule="evenodd" d="M88.3553 98.4829C88.2353 98.7611 88.0721 99.0031 87.8652 99.2109C87.6577 99.4202 87.4149 99.5836 87.1388 99.7022C86.8616 99.8213 86.5658 99.8813 86.25 99.8813H85.5883C85.2723 99.8813 84.9751 99.8213 84.6962 99.7022C84.4176 99.5836 84.1748 99.4202 83.9661 99.2109C83.7589 99.0031 83.5959 98.7611 83.4771 98.4829C83.3585 98.205 83.2985 97.9084 83.2985 97.5915V92.5852C83.2985 92.2684 83.3585 91.972 83.4771 91.6938C83.5959 91.4159 83.7589 91.1738 83.9661 90.9659C84.1748 90.7568 84.4176 90.5934 84.6962 90.4745C84.9751 90.3554 85.2723 90.2954 85.5883 90.2954H86.25C86.5658 90.2954 86.8616 90.3554 87.1388 90.4745C87.4149 90.5934 87.6577 90.7568 87.8652 90.9659C88.0721 91.1738 88.2353 91.4159 88.3553 91.6938C88.4736 91.972 88.5323 92.2684 88.5323 92.5852V92.962L87.6963 93.0922V92.5852C87.6963 92.3761 87.6577 92.1825 87.5791 92.0034C87.5018 91.8227 87.3961 91.6652 87.2619 91.532C87.1275 91.3972 86.9704 91.2911 86.7918 91.2125C86.6118 91.1352 86.4186 91.0947 86.2114 91.0947H85.6268C85.4196 91.0947 85.2267 91.1352 85.0465 91.2125C84.8663 91.2911 84.7092 91.3972 84.5734 91.532C84.4362 91.6652 84.3306 91.8227 84.2517 92.0034C84.1748 92.1825 84.1347 92.3761 84.1347 92.5852V97.5915C84.1347 97.7995 84.1748 97.9945 84.2517 98.1734C84.3306 98.354 84.4362 98.5115 84.5734 98.649C84.7092 98.7852 84.8663 98.8929 85.0465 98.9702C85.2267 99.049 85.4196 99.0877 85.6268 99.0877H86.2114C86.4186 99.0877 86.6118 99.049 86.7918 98.9702C86.9704 98.8929 87.1275 98.7852 87.2619 98.649C87.3961 98.5115 87.5018 98.354 87.5791 98.1734C87.6577 97.9945 87.6963 97.7995 87.6963 97.5915V97.0845L88.5323 97.222V97.5915C88.5323 97.9084 88.4736 98.205 88.3553 98.4829Z" stroke="white" stroke-width="0.283" stroke-linecap="round" stroke-linejoin="round"/>
<path fill-rule="evenodd" clip-rule="evenodd" d="M90.3933 99.7511H91.2307V90.4259H90.3933V99.7511Z" fill="white"/>
<path fill-rule="evenodd" clip-rule="evenodd" d="M90.3933 99.7511H91.2307V90.4259H90.3933V99.7511Z" stroke="white" stroke-width="0.283" stroke-linecap="round" stroke-linejoin="round"/>
<path fill-rule="evenodd" clip-rule="evenodd" d="M97.6208 92.5851C97.6208 92.376 97.5823 92.1826 97.5036 92.0033C97.4266 91.8228 97.3207 91.6651 97.1865 91.5319C97.0521 91.3972 96.895 91.2913 96.7163 91.2124C96.5361 91.1351 96.3432 91.0947 96.136 91.0947H95.5514C95.3442 91.0947 95.1513 91.1351 94.9713 91.2124C94.7911 91.2913 94.6337 91.3972 94.4982 91.5319C94.3608 91.6651 94.2549 91.8228 94.1765 92.0033C94.0992 92.1826 94.0593 92.376 94.0593 92.5851V97.5915C94.0593 97.7994 94.0992 97.9944 94.1765 98.1733C94.2549 98.354 94.3608 98.5115 94.4982 98.6492C94.6337 98.7851 94.7911 98.8928 94.9713 98.9701C95.1513 99.049 95.3442 99.0876 95.5514 99.0876H96.136C96.3432 99.0876 96.5361 99.049 96.7163 98.9701C96.895 98.8928 97.0521 98.7851 97.1865 98.6492C97.3207 98.5115 97.4266 98.354 97.5036 98.1733C97.5823 97.9944 97.6208 97.7994 97.6208 97.5915V92.5851ZM98.2798 98.4828C98.1599 98.761 97.9969 99.0031 97.7895 99.2108C97.5823 99.4201 97.3395 99.5835 97.0634 99.7022C96.7862 99.8213 96.4906 99.8815 96.1746 99.8815H95.5128C95.1971 99.8815 94.8996 99.8213 94.621 99.7022C94.3422 99.5835 94.0992 99.4201 93.8906 99.2108C93.6834 99.0031 93.5205 98.761 93.4019 98.4828C93.2831 98.2051 93.2233 97.9083 93.2233 97.5915V92.5851C93.2233 92.2683 93.2831 91.9719 93.4019 91.6938C93.5205 91.4158 93.6834 91.1738 93.8906 90.9658C94.0992 90.7567 94.3422 90.5933 94.621 90.4744C94.8996 90.3553 95.1971 90.2953 95.5128 90.2953H96.1746C96.4906 90.2953 96.7862 90.3553 97.0634 90.4744C97.3395 90.5933 97.5823 90.7567 97.7895 90.9658C97.9969 91.1738 98.1599 91.4158 98.2798 91.6938C98.3984 91.9719 98.4569 92.2683 98.4569 92.5851V97.5915C98.4569 97.9083 98.3984 98.2051 98.2798 98.4828Z" fill="white"/>
<path d="M97.5036 92.0033L97.3735 92.0589L97.3741 92.0601L97.5036 92.0033ZM97.1865 91.5319L97.0863 91.6319L97.0868 91.6324L97.1865 91.5319ZM96.7163 91.2124L96.7735 91.0829L96.7721 91.0823L96.7163 91.2124ZM94.9713 91.2124L94.9155 91.0824L94.9146 91.0828L94.9713 91.2124ZM94.4982 91.5319L94.5967 91.6335L94.5979 91.6323L94.4982 91.5319ZM94.1765 92.0033L94.0467 91.9469L94.0466 91.9473L94.1765 92.0033ZM94.1765 98.1733L94.0466 98.2294L94.0467 98.2296L94.1765 98.1733ZM94.4982 98.6492L94.5984 98.5493L94.4982 98.6492ZM94.9713 98.9701L95.0281 98.8405L95.027 98.8401L94.9713 98.9701ZM96.7163 98.9701L96.6602 98.8403L96.6596 98.8405L96.7163 98.9701ZM97.1865 98.6492L97.2871 98.7487L97.2879 98.748L97.1865 98.6492ZM97.5036 98.1733L97.3741 98.1163L97.3735 98.1178L97.5036 98.1733ZM98.2798 98.4828L98.4098 98.5389L98.41 98.5384L98.2798 98.4828ZM97.7895 99.2108L97.6894 99.1108L97.6889 99.1113L97.7895 99.2108ZM97.0634 99.7022L97.1193 99.8322L97.1193 99.8322L97.0634 99.7022ZM94.621 99.7022L94.6767 99.5721L94.6764 99.572L94.621 99.7022ZM93.8906 99.2108L93.9909 99.1109L93.9908 99.1109L93.8906 99.2108ZM93.4019 98.4828L93.5321 98.4274L93.532 98.4272L93.4019 98.4828ZM93.4019 91.6938L93.532 91.7493L93.5321 91.7493L93.4019 91.6938ZM93.8906 90.9658L93.7905 90.8659L93.7904 90.8659L93.8906 90.9658ZM94.621 90.4744L94.6765 90.6046L94.6767 90.6046L94.621 90.4744ZM97.0634 90.4744L97.1194 90.3445L97.1193 90.3444L97.0634 90.4744ZM97.7895 90.9658L97.689 91.0654L97.6893 91.0657L97.7895 90.9658ZM98.2798 91.6938L98.41 91.6383L98.4098 91.6377L98.2798 91.6938ZM97.7623 92.5851C97.7623 92.3581 97.7204 92.1452 97.6332 91.9465L97.3741 92.0601C97.4442 92.2201 97.4793 92.3939 97.4793 92.5851H97.7623ZM97.6338 91.9477C97.5499 91.7513 97.4339 91.5781 97.2862 91.4315L97.0868 91.6324C97.2075 91.7521 97.3033 91.8944 97.3735 92.0589L97.6338 91.9477ZM97.2867 91.432C97.1392 91.2841 96.9673 91.1685 96.7735 91.0829L96.6592 91.3418C96.8227 91.414 96.965 91.5102 97.0863 91.6319L97.2867 91.432ZM96.7721 91.0823C96.5741 90.9975 96.3622 90.9532 96.136 90.9532V91.2362C96.3242 91.2362 96.4981 91.2728 96.6606 91.3424L96.7721 91.0823ZM96.136 90.9532H95.5514V91.2362H96.136V90.9532ZM95.5514 90.9532C95.3252 90.9532 95.1133 90.9975 94.9155 91.0824L95.0271 91.3424C95.1893 91.2728 95.3632 91.2362 95.5514 91.2362V90.9532ZM94.9146 91.0828C94.719 91.1683 94.5469 91.284 94.3984 91.4316L94.5979 91.6323C94.7206 91.5104 94.8631 91.4142 95.028 91.342L94.9146 91.0828ZM94.3997 91.4303C94.2479 91.5775 94.1319 91.751 94.0467 91.9469L94.3063 92.0597C94.378 91.8947 94.4737 91.7527 94.5967 91.6335L94.3997 91.4303ZM94.0466 91.9473C93.9614 92.1449 93.9178 92.3575 93.9178 92.5851H94.2008C94.2008 92.3946 94.237 92.2203 94.3064 92.0593L94.0466 91.9473ZM93.9178 92.5851V97.5915H94.2008V92.5851H93.9178ZM93.9178 97.5915C93.9178 97.8179 93.9613 98.0321 94.0466 98.2294L94.3064 98.1172C94.2371 97.9568 94.2008 97.781 94.2008 97.5915H93.9178ZM94.0467 98.2296C94.132 98.426 94.2477 98.5984 94.398 98.7491L94.5984 98.5493C94.4739 98.4245 94.3779 98.2819 94.3063 98.117L94.0467 98.2296ZM94.398 98.7491C94.5461 98.8977 94.7185 99.0157 94.9155 99.1002L95.027 98.8401C94.8636 98.77 94.7213 98.6726 94.5984 98.5493L94.398 98.7491ZM94.9145 99.0997C95.1136 99.187 95.326 99.2291 95.5514 99.2291V98.9461C95.3623 98.9461 95.1889 98.911 95.0281 98.8405L94.9145 99.0997ZM95.5514 99.2291H96.136V98.9461H95.5514V99.2291ZM96.136 99.2291C96.3614 99.2291 96.5738 99.187 96.7731 99.0998L96.6596 98.8405C96.4985 98.911 96.3251 98.9461 96.136 98.9461V99.2291ZM96.7725 99.1C96.9678 99.0155 97.1399 98.8975 97.2871 98.7487L97.0859 98.5497C96.9642 98.6727 96.8222 98.7702 96.6602 98.8403L96.7725 99.1ZM97.2879 98.748C97.4341 98.5979 97.5498 98.4257 97.6338 98.2288L97.3735 98.1178C97.3033 98.2822 97.2073 98.4251 97.0852 98.5505L97.2879 98.748ZM97.6332 98.2303C97.7204 98.0318 97.7623 97.8172 97.7623 97.5915H97.4793C97.4793 97.7817 97.4442 97.957 97.3741 98.1163L97.6332 98.2303ZM97.7623 97.5915V92.5851H97.4793V97.5915H97.7623ZM98.1499 98.4268C98.0368 98.6892 97.8838 98.9162 97.6894 99.1108L97.8896 99.3108C98.1101 99.09 98.283 98.8329 98.4098 98.5389L98.1499 98.4268ZM97.6889 99.1113C97.4951 99.3071 97.2676 99.4604 97.0076 99.5722L97.1193 99.8322C97.4114 99.7066 97.6696 99.5331 97.8901 99.3103L97.6889 99.1113ZM97.0076 99.5722C96.7485 99.6834 96.472 99.74 96.1746 99.74V100.023C96.5091 100.023 96.8238 99.9591 97.1193 99.8322L97.0076 99.5722ZM96.1746 99.74H95.5128V100.023H96.1746V99.74ZM95.5128 99.74C95.2156 99.74 94.9371 99.6834 94.6767 99.5721L94.5654 99.8323C94.8622 99.9591 95.1786 100.023 95.5128 100.023V99.74ZM94.6764 99.572C94.4139 99.4603 94.1862 99.307 93.9909 99.1109L93.7904 99.3107C94.0122 99.5332 94.2705 99.7068 94.5656 99.8324L94.6764 99.572ZM93.9908 99.1109C93.7966 98.9162 93.6437 98.6893 93.5321 98.4274L93.2717 98.5383C93.3972 98.8328 93.5703 99.09 93.7905 99.3107L93.9908 99.1109ZM93.532 98.4272C93.421 98.1678 93.3648 97.89 93.3648 97.5915H93.0818C93.0818 97.9267 93.1452 98.2425 93.2718 98.5385L93.532 98.4272ZM93.3648 97.5915V92.5851H93.0818V97.5915H93.3648ZM93.3648 92.5851C93.3648 92.2867 93.421 92.0093 93.532 91.7493L93.2718 91.6382C93.1452 91.9346 93.0818 92.2499 93.0818 92.5851H93.3648ZM93.5321 91.7493C93.6437 91.4876 93.7966 91.2606 93.9909 91.0657L93.7904 90.8659C93.5703 91.0869 93.3972 91.344 93.2717 91.6382L93.5321 91.7493ZM93.9908 91.0657C94.1862 90.8699 94.4139 90.7166 94.6765 90.6046L94.5656 90.3443C94.2705 90.4701 94.0122 90.6436 93.7905 90.8659L93.9908 91.0657ZM94.6767 90.6046C94.9371 90.4932 95.2155 90.4368 95.5128 90.4368V90.1538C95.1786 90.1538 94.8622 90.2175 94.5654 90.3443L94.6767 90.6046ZM95.5128 90.4368H96.1746V90.1538H95.5128V90.4368ZM96.1746 90.4368C96.4721 90.4368 96.7486 90.4932 97.0076 90.6045L97.1193 90.3444C96.8237 90.2175 96.5091 90.1538 96.1746 90.1538V90.4368ZM97.0075 90.6044C97.2676 90.7164 97.4951 90.8697 97.689 91.0654L97.89 90.8662C97.6695 90.6437 97.4114 90.4702 97.1194 90.3445L97.0075 90.6044ZM97.6893 91.0657C97.8838 91.2607 98.0368 91.4877 98.1499 91.7498L98.4098 91.6377C98.283 91.3439 98.1101 91.0869 97.8897 90.8659L97.6893 91.0657ZM98.1497 91.7492C98.2603 92.0089 98.3154 92.2863 98.3154 92.5851H98.5984C98.5984 92.2503 98.5365 91.935 98.41 91.6383L98.1497 91.7492ZM98.3154 92.5851V97.5915H98.5984V92.5851H98.3154ZM98.3154 97.5915C98.3154 97.8904 98.2603 98.1682 98.1497 98.4273L98.41 98.5384C98.5365 98.2421 98.5984 97.9262 98.5984 97.5915H98.3154Z" fill="white"/>
<path fill-rule="evenodd" clip-rule="evenodd" d="M105.247 99.7511L101.368 92.962L101.291 92.5593V99.7511H100.454V90.4259H100.888L104.767 97.222L104.852 97.6175V90.4259H105.689V99.7511H105.247Z" fill="white"/>
<path fill-rule="evenodd" clip-rule="evenodd" d="M105.247 99.7511L101.368 92.962L101.291 92.5593V99.7511H100.454V90.4259H100.888L104.767 97.222L104.852 97.6175V90.4259H105.689V99.7511H105.247Z" stroke="white" stroke-width="0.283" stroke-linecap="round" stroke-linejoin="round"/>
<path fill-rule="evenodd" clip-rule="evenodd" d="M108.589 96.7793H111.087L109.861 92.4806L109.835 92.1365L109.809 92.4806L108.589 96.7793ZM111.307 97.5788H108.363L107.753 99.7511H106.884L109.608 90.4258H110.048L112.787 99.7511H111.923L111.307 97.5788Z" fill="white"/>
<path d="M108.589 96.7793L108.453 96.7406C108.44 96.7833 108.449 96.8292 108.476 96.8646C108.503 96.8999 108.544 96.9208 108.589 96.9208V96.7793ZM111.087 96.7793V96.9208C111.131 96.9208 111.173 96.8999 111.2 96.8645C111.227 96.829 111.235 96.7831 111.223 96.7404L111.087 96.7793ZM109.861 92.4806L109.72 92.4911C109.72 92.5007 109.722 92.5102 109.725 92.5194L109.861 92.4806ZM109.835 92.1365L109.976 92.126C109.971 92.0522 109.909 91.995 109.835 91.995C109.761 91.995 109.699 92.0522 109.694 92.126L109.835 92.1365ZM109.809 92.4806L109.946 92.5193C109.948 92.5101 109.95 92.5006 109.951 92.4911L109.809 92.4806ZM111.307 97.5788L111.443 97.5402C111.426 97.4793 111.37 97.4373 111.307 97.4373V97.5788ZM108.363 97.5788V97.4373C108.3 97.4373 108.244 97.4795 108.227 97.5405L108.363 97.5788ZM107.753 99.7511V99.8926C107.816 99.8926 107.872 99.8504 107.889 99.7893L107.753 99.7511ZM106.884 99.7511L106.748 99.7114C106.735 99.7542 106.744 99.8003 106.771 99.8359C106.797 99.8716 106.839 99.8926 106.884 99.8926V99.7511ZM109.608 90.4258V90.2843C109.545 90.2843 109.49 90.3258 109.472 90.3862L109.608 90.4258ZM110.048 90.4258L110.184 90.386C110.166 90.3257 110.111 90.2843 110.048 90.2843V90.4258ZM112.787 99.7511V99.8926C112.831 99.8926 112.873 99.8716 112.9 99.8359C112.927 99.8002 112.935 99.754 112.922 99.7112L112.787 99.7511ZM111.923 99.7511L111.787 99.7897C111.804 99.8506 111.86 99.8926 111.923 99.8926V99.7511ZM108.589 96.9208H111.087V96.6378H108.589V96.9208ZM111.223 96.7404L109.997 92.4418L109.725 92.5194L110.951 96.8181L111.223 96.7404ZM110.002 92.4701L109.976 92.126L109.694 92.147L109.72 92.4911L110.002 92.4701ZM109.694 92.126L109.668 92.4701L109.951 92.4911L109.976 92.147L109.694 92.126ZM109.673 92.442L108.453 96.7406L108.725 96.8179L109.946 92.5193L109.673 92.442ZM111.307 97.4373H108.363V97.7203H111.307V97.4373ZM108.227 97.5405L107.616 99.7128L107.889 99.7893L108.499 97.6171L108.227 97.5405ZM107.753 99.6096H106.884V99.8926H107.753V99.6096ZM107.02 99.7907L109.744 90.4655L109.472 90.3862L106.748 99.7114L107.02 99.7907ZM109.608 90.5673H110.048V90.2843H109.608V90.5673ZM109.912 90.4657L112.651 99.7909L112.922 99.7112L110.184 90.386L109.912 90.4657ZM112.787 99.6096H111.923V99.8926H112.787V99.6096ZM112.059 99.7125L111.443 97.5402L111.171 97.6174L111.787 99.7897L112.059 99.7125Z" fill="white"/>
<path fill-rule="evenodd" clip-rule="evenodd" d="M113.979 99.7511H114.816V90.4259H113.979V99.7511Z" fill="white"/>
<path fill-rule="evenodd" clip-rule="evenodd" d="M113.979 99.7511H114.816V90.4259H113.979V99.7511Z" stroke="white" stroke-width="0.283" stroke-linecap="round" stroke-linejoin="round"/>
<path fill-rule="evenodd" clip-rule="evenodd" d="M122.041 97.5916C122.041 97.9084 121.978 98.205 121.851 98.4829C121.722 98.7611 121.552 99.0032 121.337 99.2109C121.123 99.4202 120.875 99.5836 120.591 99.7022C120.308 99.8213 120.008 99.8813 119.694 99.8813H119.025C118.709 99.8813 118.41 99.8213 118.127 99.7022C117.843 99.5836 117.595 99.4202 117.381 99.2109C117.167 99.0032 116.996 98.7611 116.868 98.4829C116.741 98.205 116.677 97.9084 116.677 97.5916V97.222L117.514 97.0845V97.5916C117.514 97.7995 117.556 97.9943 117.64 98.1734C117.724 98.3538 117.839 98.5116 117.98 98.6491C118.123 98.7852 118.289 98.8929 118.478 98.97C118.665 99.0491 118.864 99.0877 119.071 99.0877H119.654C119.863 99.0877 120.058 99.0491 120.244 98.97C120.43 98.8929 120.594 98.7852 120.737 98.6491C120.88 98.5116 120.995 98.3538 121.078 98.1734C121.162 97.9943 121.205 97.7995 121.205 97.5916V97.3122C121.205 96.9911 121.142 96.7247 121.016 96.5127C120.892 96.3004 120.724 96.1188 120.517 95.9697C120.31 95.8207 120.075 95.6929 119.814 95.5886C119.551 95.4852 119.282 95.3807 119.005 95.2775C118.729 95.1729 118.459 95.0584 118.198 94.9322C117.936 94.8061 117.702 94.65 117.494 94.4609C117.287 94.2718 117.12 94.0409 116.996 93.7688C116.87 93.4952 116.807 93.1597 116.807 92.7597V92.5852C116.807 92.2684 116.867 91.9718 116.985 91.6938C117.104 91.4159 117.267 91.1738 117.474 90.9659C117.683 90.7568 117.926 90.5934 118.205 90.4745C118.483 90.3554 118.781 90.2952 119.097 90.2952H119.694C120.008 90.2952 120.306 90.3554 120.581 90.4745C120.859 90.5934 121.101 90.7568 121.309 90.9659C121.516 91.1738 121.679 91.4159 121.798 91.6938C121.916 91.9718 121.976 92.2684 121.976 92.5852V92.8259L121.14 92.962V92.5852C121.14 92.3761 121.101 92.1825 121.023 92.0034C120.945 91.8227 120.839 91.6652 120.706 91.532C120.572 91.3972 120.414 91.2911 120.235 91.2125C120.055 91.1352 119.863 91.0947 119.654 91.0947H119.135C118.928 91.0947 118.735 91.1352 118.555 91.2125C118.375 91.2911 118.218 91.3972 118.082 91.532C117.945 91.6652 117.839 91.8227 117.76 92.0034C117.683 92.1825 117.643 92.3761 117.643 92.5852V92.7597C117.643 93.0595 117.706 93.3116 117.832 93.515C117.957 93.7186 118.123 93.8934 118.332 94.0382C118.539 94.1829 118.774 94.3091 119.035 94.4147C119.297 94.5209 119.565 94.6297 119.843 94.7402C120.12 94.8504 120.389 94.9725 120.65 95.1043C120.912 95.2375 121.146 95.3993 121.353 95.5927C121.562 95.7847 121.728 96.0213 121.854 96.2979C121.979 96.5757 122.041 96.9141 122.041 97.3122V97.5916Z" fill="white"/>
<path fill-rule="evenodd" clip-rule="evenodd" d="M122.041 97.5916C122.041 97.9084 121.978 98.205 121.851 98.4829C121.722 98.7611 121.552 99.0032 121.337 99.2109C121.123 99.4202 120.875 99.5836 120.591 99.7022C120.308 99.8213 120.008 99.8813 119.694 99.8813H119.025C118.709 99.8813 118.41 99.8213 118.127 99.7022C117.843 99.5836 117.595 99.4202 117.381 99.2109C117.167 99.0032 116.996 98.7611 116.868 98.4829C116.741 98.205 116.677 97.9084 116.677 97.5916V97.222L117.514 97.0845V97.5916C117.514 97.7995 117.556 97.9943 117.64 98.1734C117.724 98.3538 117.839 98.5116 117.98 98.6491C118.123 98.7852 118.289 98.8929 118.478 98.97C118.665 99.0491 118.864 99.0877 119.071 99.0877H119.654C119.863 99.0877 120.058 99.0491 120.244 98.97C120.43 98.8929 120.594 98.7852 120.737 98.6491C120.88 98.5116 120.995 98.3538 121.078 98.1734C121.162 97.9943 121.205 97.7995 121.205 97.5916V97.3122C121.205 96.9911 121.142 96.7247 121.016 96.5127C120.892 96.3004 120.724 96.1188 120.517 95.9697C120.31 95.8207 120.075 95.6929 119.814 95.5886C119.551 95.4852 119.282 95.3807 119.005 95.2775C118.729 95.1729 118.459 95.0584 118.198 94.9322C117.936 94.8061 117.702 94.65 117.494 94.4609C117.287 94.2718 117.12 94.0409 116.996 93.7688C116.87 93.4952 116.807 93.1597 116.807 92.7597V92.5852C116.807 92.2684 116.867 91.9718 116.985 91.6938C117.104 91.4159 117.267 91.1738 117.474 90.9659C117.683 90.7568 117.926 90.5934 118.205 90.4745C118.483 90.3554 118.781 90.2952 119.097 90.2952H119.694C120.008 90.2952 120.306 90.3554 120.581 90.4745C120.859 90.5934 121.101 90.7568 121.309 90.9659C121.516 91.1738 121.679 91.4159 121.798 91.6938C121.916 91.9718 121.976 92.2684 121.976 92.5852V92.8259L121.14 92.962V92.5852C121.14 92.3761 121.101 92.1825 121.023 92.0034C120.945 91.8227 120.839 91.6652 120.706 91.532C120.572 91.3972 120.414 91.2911 120.235 91.2125C120.055 91.1352 119.863 91.0947 119.654 91.0947H119.135C118.928 91.0947 118.735 91.1352 118.555 91.2125C118.375 91.2911 118.218 91.3972 118.082 91.532C117.945 91.6652 117.839 91.8227 117.76 92.0034C117.683 92.1825 117.643 92.3761 117.643 92.5852V92.7597C117.643 93.0595 117.706 93.3116 117.832 93.515C117.957 93.7186 118.123 93.8934 118.332 94.0382C118.539 94.1829 118.774 94.3091 119.035 94.4147C119.297 94.5209 119.565 94.6297 119.843 94.7402C120.12 94.8504 120.389 94.9725 120.65 95.1043C120.912 95.2375 121.146 95.3993 121.353 95.5927C121.562 95.7847 121.728 96.0213 121.854 96.2979C121.979 96.5757 122.041 96.9141 122.041 97.3122V97.5916Z" stroke="white" stroke-width="0.283" stroke-linecap="round" stroke-linejoin="round"/>
<path fill-rule="evenodd" clip-rule="evenodd" d="M64.3214 20.2645L84.1451 20.2322C81.0673 21.7779 77.6576 22.5997 74.2015 22.5997C70.7685 22.5997 67.3824 21.7893 64.3214 20.2645ZM73.8068 38.1702L63.9356 21.0306C69.6942 24.8838 73.3643 31.2547 73.8068 38.1702ZM63.3258 21.3224L73.2247 38.5097C67.4429 34.6527 63.7601 28.2597 63.3258 21.3224ZM52.3557 38.6983L62.5462 21.227C62.1343 28.3195 58.3329 34.8447 52.3557 38.6983ZM61.8731 21.0397L52.0329 37.9106C52.5486 31.0979 56.1922 24.8481 61.8731 21.0397ZM41.8169 20.3011L61.4939 20.269C58.4351 21.7906 55.0524 22.5997 51.624 22.5997C48.2182 22.5997 44.8588 21.8022 41.8169 20.3011ZM61.454 19.5936L41.7287 19.6256C44.7956 18.0961 48.1873 17.2829 51.624 17.2829C55.0366 17.2829 58.4038 18.0849 61.454 19.5936ZM52.0152 1.68448L61.9132 18.8695C56.1295 15.0113 52.4503 8.62494 52.0152 1.68448ZM62.5439 18.6147L52.596 1.34289C58.4231 5.20903 62.1252 11.6349 62.5439 18.6147ZM73.418 1.24585L63.3269 18.5472C63.7698 11.5381 67.5286 5.08562 73.418 1.24585ZM63.9285 18.8577L73.7925 1.94585C73.2834 8.77471 69.6266 15.0483 63.9285 18.8577ZM83.9585 19.5572L64.3801 19.589C67.4277 18.0831 70.7923 17.2829 74.2015 17.2829C77.5871 17.2829 80.9279 18.0718 83.9585 19.5572ZM85.8233 19.8924C85.8233 19.7049 85.6723 19.5547 85.4862 19.5547L85.4125 19.5549C81.9969 17.6297 78.1262 16.6074 74.2015 16.6074C71.4096 16.6074 68.6478 17.1329 66.0544 18.1227C71.2511 13.8781 74.4098 7.49107 74.5254 0.68971L74.5989 0.563801C74.6916 0.401983 74.6383 0.194483 74.4781 0.100392C74.4518 0.0849378 74.4225 0.0963014 74.3946 0.0888014C74.3847 0.0813014 74.3794 0.0694832 74.3688 0.0631196C74.2643 0.00266502 74.1353 0.00266502 74.0308 0.0631196C68.1008 3.51244 64.0673 9.45789 62.9334 16.1149C61.7981 9.44016 57.7501 3.48562 51.7924 0.0374377C51.7749 0.0274377 51.7545 0.0290287 51.7362 0.0224377C51.7162 0.0147105 51.7001 0.0106196 51.6793 0.00675593C51.6029 -0.00619861 51.5249 -0.00256225 51.4555 0.0374377C51.3857 0.0778923 51.3438 0.14471 51.317 0.217665C51.31 0.23721 51.3057 0.252665 51.3023 0.272892C51.2987 0.292665 51.2871 0.30971 51.2871 0.32971C51.2959 7.27016 54.4801 13.8036 59.7706 18.1231C57.177 17.1329 54.4154 16.6074 51.624 16.6074C47.6319 16.6074 43.6945 17.659 40.2371 19.6479C40.221 19.6572 40.2132 19.6743 40.199 19.6858C40.0883 19.7411 40.0002 19.8336 40.0013 19.9658C40.0013 20.1531 40.1523 20.3033 40.3382 20.3033H40.3647C43.7907 22.2454 47.6795 23.2752 51.624 23.2752C54.4168 23.2752 57.1784 22.7497 59.771 21.7602C54.5791 25.9999 51.4249 32.3708 51.3005 39.1656L51.2254 39.2943C51.1327 39.4561 51.186 39.6636 51.3465 39.7579C51.356 39.7633 51.3667 39.7613 51.3766 39.7658C51.4009 39.7943 51.4222 39.8256 51.4555 39.8452C51.5077 39.8754 51.5659 39.8904 51.624 39.8904C51.682 39.8904 51.74 39.8754 51.7924 39.8452C57.7501 36.3979 61.7979 30.444 62.9331 23.7683C64.0668 30.4256 68.1008 36.3713 74.0308 39.8206C74.0315 39.8211 74.0326 39.8211 74.0326 39.8211C74.0841 39.8504 74.1419 39.8661 74.2004 39.8661C74.2584 39.8661 74.3167 39.8511 74.3688 39.8206C74.4386 39.7802 74.481 39.7136 74.5078 39.6402C74.5148 39.6206 74.5186 39.6052 74.5223 39.5849C74.5257 39.5652 74.5374 39.5479 74.5372 39.5272C74.5214 32.6008 71.3357 26.074 66.0533 21.7599C68.6464 22.7497 71.4087 23.2752 74.2015 23.2752C78.1947 23.2752 82.1318 22.2236 85.5884 20.2347C85.6222 20.2154 85.6437 20.1836 85.6682 20.1549C85.7566 20.094 85.8239 20.0079 85.8233 19.8924Z" fill="white"/>
<path fill-rule="evenodd" clip-rule="evenodd" d="M88.6462 71.8964C87.3803 76.1607 83.4452 79.2717 78.7794 79.2717C73.0911 79.2717 68.4804 74.6487 68.4804 68.9462V41.3696C66.8317 40.0517 65.357 38.5587 64.0663 36.918V68.9462C64.0663 77.093 70.6541 83.6969 78.7794 83.6969C85.8973 83.6969 91.8332 78.6294 93.1968 71.8964H88.6462ZM57.6398 41.1614V68.9462C57.6398 74.6487 53.0291 79.2717 47.3406 79.2717C41.6522 79.2717 37.0413 74.6487 37.0413 68.9462V39.4444H32.6276V68.9462C32.6276 77.093 39.2155 83.6969 47.3406 83.6969C55.4661 83.6969 62.0537 77.093 62.0537 68.9462V36.5912C60.7697 38.2755 59.294 39.8067 57.6398 41.1614Z" fill="white"/>
</g>
</svg>
