<svg width="106" height="58" viewBox="0 0 106 58" fill="none" xmlns="http://www.w3.org/2000/svg">
<path fill-rule="evenodd" clip-rule="evenodd" d="M105.548 42.2697C106.332 38.8016 105.559 33.722 104.994 29.6492C105.54 23.5332 104.827 16.7173 103.188 12.599C104.315 12.5778 103.147 10.5808 103.959 10.1109C102.785 8.62624 103.74 5.11169 102.875 3.23156C101.952 2.83332 101.575 1.27079 101.035 0.0555756C100.526 -0.0373071 100.062 -0.00784429 99.6234 0.100019C99.149 0.0261128 98.713 0.0563246 98.3003 0.157946C97.8259 0.0837899 97.3901 0.114251 96.9774 0.215623C96.503 0.141467 96.0671 0.171929 95.6544 0.27355C95.18 0.199394 94.7441 0.229855 94.3314 0.331477C93.8571 0.257321 93.4212 0.287532 93.0085 0.389404C92.5341 0.315247 92.0982 0.345459 91.6855 0.447081C91.2111 0.372925 90.7753 0.403386 90.3626 0.505008C89.8882 0.430851 89.4522 0.461313 89.0396 0.562685C88.5651 0.488778 88.1292 0.51899 87.7165 0.620612C87.2422 0.546455 86.8063 0.576917 86.3936 0.678538C85.9192 0.604382 85.4834 0.634844 85.0706 0.736215C84.5963 0.662309 84.1604 0.692521 83.7477 0.794142C83.2733 0.719986 82.8374 0.750447 82.4248 0.852069C81.9504 0.777913 81.5145 0.808125 81.1018 0.909996C80.6274 0.83584 80.1914 0.866051 79.7788 0.967673C79.3045 0.893517 78.8685 0.923978 78.4559 1.0256C77.9815 0.951443 77.5455 0.981905 77.1328 1.08328C76.6584 1.00937 76.2226 1.03958 75.8099 1.1412C75.3355 1.06705 74.8996 1.09751 74.4869 1.19913C74.0125 1.12497 73.5766 1.15519 73.164 1.25706C72.6896 1.1829 72.2537 1.21311 71.841 1.31473C71.3666 1.24058 70.9308 1.27104 70.518 1.37266C70.0437 1.2985 69.6077 1.32872 69.1951 1.43059C68.7207 1.35643 68.2848 1.38664 67.8722 1.48827C67.3978 1.41411 66.9618 1.44457 66.5491 1.54619C66.0747 1.47204 65.6388 1.5025 65.2261 1.60387C64.7518 1.52971 64.3159 1.56017 63.9032 1.6618C63.4288 1.58764 62.9929 1.6181 62.5802 1.71972C62.1058 1.64557 61.6698 1.67578 61.2572 1.77765C60.7829 1.70349 60.3469 1.7337 59.9343 1.83533C59.4599 1.76117 59.0239 1.79163 58.6112 1.89325C58.137 1.8191 57.701 1.84931 57.2883 1.95093C56.8139 1.87702 56.378 1.90724 55.9653 2.00886C55.491 1.93495 55.0551 1.96516 54.6424 2.06678C54.168 1.99263 53.7321 2.02309 53.3194 2.12446C52.8451 2.0503 52.4092 2.08077 51.9965 2.18239C51.5221 2.10823 51.0861 2.13869 50.6735 2.24031C50.1992 2.16616 49.7631 2.19637 49.3506 2.29824C48.8762 2.22409 48.4402 2.2543 48.0275 2.35592C47.5531 2.28176 47.1173 2.31222 46.7046 2.41385C46.2302 2.33969 45.7943 2.37015 45.3816 2.47152C44.9072 2.39762 44.4713 2.42783 44.0586 2.52945C43.5843 2.45554 43.1484 2.48575 42.7357 2.58738C42.2613 2.51322 41.8253 2.54368 41.4127 2.64505C40.9384 2.57115 40.5024 2.60136 40.0898 2.70298C39.6154 2.62882 39.1794 2.65929 38.7668 2.76091C38.2925 2.68675 37.8565 2.71696 37.4439 2.81883C36.9694 2.74468 36.5335 2.77489 36.1208 2.87651C35.6464 2.80235 35.2105 2.83282 34.7979 2.93444C34.3235 2.86028 33.8876 2.89074 33.4749 2.99211C33.0005 2.91821 32.5647 2.94842 32.152 3.05004C31.6776 2.97589 31.2417 3.00635 30.829 3.10797C30.3546 3.03381 29.9186 3.06402 29.506 3.16589C29.0317 3.09174 28.5957 3.12195 28.1831 3.22357C27.7086 3.14942 27.2727 3.17988 26.86 3.2815C26.3856 3.20734 25.9498 3.23755 25.5371 3.33943C25.0627 3.26527 24.6268 3.29548 24.2141 3.3971C23.7397 3.32295 23.3039 3.35341 22.8912 3.45503C22.4168 3.38087 21.9809 3.41133 21.5682 3.51271C21.0938 3.43855 20.6578 3.46901 20.2453 3.57063C19.7709 3.49648 19.3349 3.52694 18.9223 3.62856C18.4479 3.5544 18.012 3.58462 17.5994 3.68649C17.125 3.61233 16.689 3.64254 16.2763 3.74416C15.8019 3.67001 15.366 3.70047 14.9533 3.80209C14.479 3.72793 14.0431 3.75815 13.6304 3.86002C13.156 3.78586 12.7201 3.81607 12.3074 3.9177C11.833 3.84379 11.3972 3.874 10.9845 3.97562C10.5101 3.90147 10.0741 3.93193 9.66146 4.0333C9.18718 3.95914 8.75123 3.9896 8.33844 4.09123C7.86416 4.01707 7.42821 4.04753 7.01554 4.14915C4.68148 3.78436 3.28765 5.97235 0.926643 6.51192C0.370045 8.87518 0.681784 11.1745 0 12.6794C0.252209 14.926 1.09433 15.9158 1.85414 17.0763C1.58234 17.6131 1.75407 19.0074 1.48373 19.5442C2.2139 20.1682 2.45018 19.4228 3.08934 19.8703C3.08126 19.7989 3.07636 19.732 3.07268 19.667C3.51757 19.8885 3.76733 19.5742 4.15905 19.6878C4.10724 20.2076 4.08348 20.7821 4.10944 21.4533C2.76033 19.9305 2.55798 25.1671 2.55271 25.2025C2.53495 25.3204 2.14775 24.7958 2.148 24.8135C1.83834 29.8187 4.98734 33.3762 4.11998 38.9999C4.36141 39.4583 4.83349 39.4231 5.32578 39.3457C5.42953 41.2872 5.21933 44.6068 4.6097 46.3211C4.85272 47.3318 5.42279 47.6452 5.44374 49.1351C4.95463 51.8721 3.68158 50.7053 3.50201 54.1282C4.20707 54.5694 4.95414 54.9237 4.74223 57.3312C5.53744 58.0633 6.34172 58.1087 7.11427 57.873C7.5605 57.9896 8.00392 57.9474 8.43729 57.8151C8.8834 57.9319 9.32682 57.8895 9.76019 57.7572C10.2064 57.874 10.6498 57.8316 11.0832 57.6992C11.5294 57.8161 11.9727 57.7739 12.4061 57.6416C12.8523 57.7582 13.2958 57.716 13.7291 57.5836C14.1753 57.7005 14.6187 57.658 15.052 57.526C15.4983 57.6426 15.9417 57.6004 16.3751 57.468C16.8213 57.5846 17.2646 57.5424 17.698 57.4101C18.1442 57.5267 18.5876 57.4848 19.021 57.3524C19.4672 57.469 19.9105 57.4268 20.3439 57.2945C20.7901 57.4111 21.2335 57.3689 21.6669 57.2366C22.1131 57.3534 22.5564 57.311 22.9899 57.1786C23.4362 57.2955 23.8795 57.2533 24.3128 57.121C24.7591 57.2376 25.2025 57.1954 25.6359 57.063C26.0821 57.1799 26.5254 57.1374 26.9588 57.0054C27.405 57.122 27.8483 57.0795 28.2817 56.9474C28.728 57.064 29.1713 57.0218 29.6047 56.8895C30.0509 57.0064 30.4943 56.9642 30.9277 56.8316C31.3739 56.9484 31.8172 56.9062 32.2506 56.7739C32.6968 56.8905 33.1403 56.8483 33.5736 56.716C34.0199 56.8328 34.4632 56.7904 34.8965 56.658C35.3428 56.7749 35.7862 56.7327 36.2196 56.6004C36.6658 56.717 37.1091 56.6748 37.5425 56.5424C37.9888 56.659 38.4321 56.6169 38.8655 56.4848C39.3117 56.6014 39.755 56.5589 40.1885 56.4268C40.6347 56.5434 41.078 56.5012 41.5114 56.3689C41.9576 56.4858 42.4011 56.4433 42.8344 56.311C43.2807 56.4278 43.724 56.3856 44.1573 56.2533C44.6036 56.3699 45.047 56.3277 45.4804 56.1954C45.9266 56.3122 46.3699 56.2698 46.8032 56.1377C47.2495 56.2543 47.6929 56.2121 48.1263 56.0798C48.5725 56.1964 49.0158 56.1542 49.4493 56.0219C49.8955 56.1385 50.3388 56.0963 50.7722 55.9642C51.2184 56.0808 51.6617 56.0386 52.0952 55.9062C52.5415 56.0231 52.9847 55.9807 53.4181 55.8483C53.8644 55.9652 54.3078 55.923 54.7411 55.7904C55.1874 55.9072 55.6307 55.865 56.064 55.7327C56.5103 55.8493 56.9537 55.8071 57.3871 55.6748C57.8333 55.7916 58.2766 55.7492 58.7101 55.6171C59.1562 55.7337 59.5996 55.6915 60.033 55.5592C60.4792 55.6758 60.9225 55.6336 61.3559 55.5013C61.8021 55.6179 62.2455 55.5759 62.6789 55.4436C63.1252 55.5602 63.5684 55.518 64.0018 55.3857C64.4482 55.5023 64.8915 55.4601 65.3248 55.3277C65.7711 55.4446 66.2145 55.4021 66.6479 55.2698C67.0941 55.3867 67.5374 55.3445 67.9708 55.2121C68.417 55.3287 68.8604 55.2865 69.2938 55.1542C69.74 55.271 70.1833 55.2286 70.6167 55.0965C71.0629 55.2131 71.5063 55.1707 71.9397 55.0386C72.3859 55.1552 72.8292 55.113 73.2626 54.9807C73.709 55.0973 74.1523 55.0553 74.5856 54.9227C75.0319 55.0396 75.4752 54.9974 75.9085 54.8651C76.3548 54.9817 76.7982 54.9395 77.2316 54.8071C77.6778 54.924 78.1211 54.8815 78.5545 54.7492C79.0007 54.8661 79.4441 54.8239 79.8775 54.6915C80.3237 54.8081 80.7671 54.7659 81.2005 54.6336C81.6467 54.7505 82.09 54.708 82.5234 54.5759C82.9696 54.6925 83.4131 54.6503 83.8464 54.518C84.2927 54.6346 84.736 54.5924 85.1693 54.4601C85.6156 54.5769 86.059 54.5345 86.4924 54.4021C86.9386 54.519 87.3819 54.4768 87.8153 54.3445C88.2615 54.4611 88.7049 54.4189 89.1383 54.2865C89.5845 54.4034 90.0278 54.361 90.4612 54.2286C90.9074 54.3455 91.3508 54.3033 91.7842 54.1709C92.2304 54.2875 92.6737 54.2453 93.1071 54.113C93.5535 54.2296 93.9968 54.1874 94.4301 54.0553C94.8764 54.1719 95.3197 54.1297 95.7532 53.9974C96.1994 54.114 96.6427 54.0718 97.0761 53.9395C97.5223 54.0563 97.9657 54.0141 98.3991 53.8816C98.8453 53.9984 99.2886 53.9562 99.722 53.8239C101.406 54.2643 103.051 52.4271 104.264 52.1293C104.639 50.8624 104.884 49.3503 105.009 47.599C105.653 47.9203 105.621 46.9283 106 46.7368C105.628 44.4432 106.462 43.8842 105.548 42.2697Z" fill="#1071B9"/>
</svg>
