<svg width="514" height="140" viewBox="0 0 514 140" fill="none" xmlns="http://www.w3.org/2000/svg">
<path fill-rule="evenodd" clip-rule="evenodd" d="M4.12923 59.8702C0.283788 55.751 3.89261 49.5565 6.52682 44.5943C3.77169 37.2599 7.05877 28.9752 14.8533 23.868C9.4323 23.937 15.0105 21.4291 11.0962 20.9302C16.7106 19.0402 12.0427 14.8793 16.1644 12.5379C20.5943 11.9798 22.3769 10.0626 24.9464 8.55092C27.3951 8.39606 29.6284 8.39264 31.7402 8.48598C34.0208 8.35696 36.1186 8.35681 38.106 8.44479C40.3866 8.31547 42.4838 8.31563 44.4711 8.40331C46.7517 8.27399 48.8495 8.27414 50.8368 8.36211C53.1174 8.23279 55.2152 8.23295 57.2026 8.32092C59.4826 8.19161 61.5804 8.19146 63.5677 8.27974C65.8483 8.15042 67.9461 8.15027 69.9335 8.23825C72.2141 8.10893 74.3113 8.10909 76.2986 8.19707C78.5792 8.06774 80.677 8.0679 82.6643 8.15557C84.945 8.02655 87.0427 8.0264 89.0301 8.11438C91.3101 7.98507 93.4079 7.98522 95.3953 8.0732C97.6759 7.94388 99.7731 7.94404 101.761 8.0317C104.041 7.9027 106.139 7.90255 108.126 7.99052C110.407 7.8612 112.505 7.86135 114.491 7.94934C116.772 7.82002 118.87 7.81987 120.857 7.90815C123.138 7.77883 125.235 7.77868 127.223 7.86666C129.503 7.73734 131.601 7.7375 133.588 7.82547C135.869 7.69615 137.966 7.69631 139.954 7.78398C142.234 7.65496 144.331 7.65482 146.319 7.7428C148.599 7.61348 150.697 7.61363 152.685 7.70161C154.965 7.57229 157.063 7.57214 159.05 7.66042C161.33 7.5311 163.428 7.53095 165.415 7.61893C167.696 7.48961 169.793 7.48977 171.781 7.57774C174.061 7.44843 176.159 7.44828 178.146 7.53656C180.427 7.40724 182.524 7.4071 184.511 7.49507C186.792 7.36575 188.89 7.36591 190.877 7.45388C193.158 7.32456 195.256 7.32471 197.243 7.41239C199.523 7.28308 201.621 7.28323 203.608 7.37121C205.889 7.24189 207.986 7.24204 209.974 7.33002C212.254 7.20069 214.352 7.20054 216.34 7.28882C218.62 7.15951 220.717 7.15936 222.705 7.24734C224.985 7.11802 227.083 7.11817 229.07 7.20615C231.35 7.07684 233.448 7.07669 235.436 7.16466C237.716 7.03564 239.814 7.0355 241.801 7.12347C244.081 6.99446 246.179 6.99431 248.166 7.08229C250.447 6.95297 252.545 6.95312 254.532 7.0408C256.812 6.91149 258.91 6.91164 260.897 6.99962C263.178 6.87029 265.276 6.87045 267.263 6.95842C269.543 6.82911 271.642 6.82895 273.628 6.91724C275.909 6.78792 278.007 6.78777 279.994 6.87575C282.275 6.74643 284.372 6.74659 286.359 6.83457C288.64 6.70525 290.738 6.7054 292.725 6.79307C295.006 6.66405 297.103 6.6639 299.091 6.75188C301.371 6.62287 303.468 6.62272 305.456 6.7107C307.736 6.58138 309.834 6.58153 311.822 6.66921C314.102 6.5402 316.199 6.54005 318.187 6.62802C320.467 6.4987 322.565 6.49886 324.552 6.58683C326.832 6.45752 328.93 6.45737 330.918 6.54565C333.198 6.41633 335.296 6.41618 337.283 6.50416C339.564 6.37484 341.662 6.37499 343.648 6.46297C345.929 6.33365 348.027 6.33381 350.014 6.42148C352.295 6.29246 354.392 6.29232 356.379 6.3803C358.66 6.25098 360.758 6.25113 362.745 6.33911C365.026 6.20979 367.123 6.20964 369.111 6.29792C371.391 6.1686 373.489 6.16846 375.476 6.25643C377.757 6.12711 379.854 6.12726 381.842 6.21524C384.122 6.08592 386.219 6.08578 388.207 6.17406C390.487 6.04474 392.585 6.04459 394.573 6.13256C396.853 6.00324 398.95 6.00341 400.938 6.09138C403.218 5.96206 405.316 5.96221 407.303 6.04989C409.584 5.92057 411.682 5.92072 413.669 6.00871C415.949 5.87939 418.047 5.87954 420.034 5.96752C422.315 5.83819 424.412 5.83806 426.399 5.92633C428.68 5.79701 430.778 5.79686 432.765 5.88484C435.046 5.75552 437.144 5.75567 439.131 5.84365C441.411 5.71434 443.509 5.71419 445.496 5.80247C447.777 5.67315 449.875 5.673 451.862 5.76097C454.142 5.63195 456.24 5.63181 458.227 5.71979C460.508 5.59047 462.605 5.59062 464.593 5.6783C466.873 5.54899 468.971 5.54914 470.958 5.63711C473.239 5.5078 475.336 5.50795 477.324 5.59592C488.544 4.95974 495.295 7.48297 506.665 7.93582C509.392 10.7409 507.941 13.5417 511.252 15.3004C510.086 18.0326 506.056 19.2977 502.425 20.7619C503.744 21.3869 502.947 23.0837 504.259 23.7088C500.76 24.5231 499.607 23.6435 496.542 24.2371C496.579 24.1503 496.602 24.0691 496.618 23.9905C494.482 24.2951 493.274 23.9367 491.392 24.1067C491.653 24.7297 491.779 25.421 491.668 26.233C498.126 24.2821 499.21 30.5842 499.236 30.6266C499.324 30.7673 501.175 30.1018 501.175 30.1232C502.77 36.137 487.696 40.6943 491.987 47.4076C490.835 47.981 488.564 47.9782 486.194 47.9261C485.736 50.2777 486.817 54.2658 489.785 56.2833C488.638 57.5234 485.902 57.9494 485.832 59.749C488.243 63.0108 494.343 61.4959 495.278 65.6113C491.896 66.2029 488.31 66.6932 489.38 69.5805C485.57 70.5307 481.702 70.653 477.98 70.4335C475.836 70.6117 473.702 70.598 471.615 70.4747C469.471 70.6531 467.337 70.6392 465.249 70.5159C463.105 70.6943 460.971 70.6803 458.884 70.557C456.739 70.7355 454.606 70.7218 452.519 70.5985C450.374 70.7767 448.24 70.763 446.153 70.6397C444.009 70.8182 441.875 70.8042 439.788 70.6812C437.643 70.8594 435.509 70.8457 433.422 70.7224C431.278 70.9006 429.144 70.8869 427.057 70.7636C424.913 70.9418 422.779 70.9284 420.691 70.8051C418.547 70.9832 416.413 70.9696 414.326 70.8463C412.182 71.0244 410.048 71.0107 407.96 70.8874C405.816 71.0659 403.683 71.0519 401.594 70.9286C399.45 71.1071 397.317 71.0934 395.229 70.9701C393.085 71.1483 390.951 71.1346 388.863 71.0113C386.719 71.1898 384.586 71.1758 382.498 71.0528C380.354 71.231 378.221 71.217 376.133 71.094C373.988 71.2722 371.855 71.2585 369.767 71.1352C367.623 71.3136 365.489 71.3 363.402 71.1764C361.258 71.3548 359.124 71.3411 357.037 71.2178C354.892 71.396 352.758 71.3823 350.671 71.259C348.527 71.4375 346.393 71.4235 344.306 71.3002C342.161 71.4787 340.027 71.465 337.94 71.3417C335.796 71.5199 333.662 71.5062 331.575 71.3829C329.43 71.5611 327.297 71.5474 325.209 71.4244C323.065 71.6026 320.931 71.5886 318.843 71.4656C316.699 71.6438 314.566 71.6301 312.478 71.5068C310.334 71.6852 308.2 71.6712 306.112 71.548C303.968 71.7264 301.835 71.7127 299.747 71.5894C297.603 71.7676 295.469 71.7539 293.382 71.6306C291.237 71.8091 289.104 71.7951 287.016 71.6721C284.872 71.8503 282.738 71.8366 280.651 71.7133C278.506 71.8915 276.373 71.8778 274.285 71.7545C272.141 71.9327 270.007 71.919 267.92 71.796C265.776 71.9742 263.642 71.9605 261.554 71.8372C259.41 72.0157 257.276 72.0017 255.189 71.8784C253.045 72.0568 250.911 72.0431 248.823 71.9195C246.679 72.098 244.546 72.0843 242.458 71.961C240.314 72.1392 238.18 72.1255 236.092 72.0022C233.948 72.1807 231.815 72.1667 229.727 72.0437C227.583 72.2219 225.449 72.2082 223.361 72.0849C221.217 72.2631 219.084 72.2494 216.996 72.1261C214.852 72.3043 212.718 72.2909 210.63 72.1676C208.486 72.3457 206.353 72.3321 204.265 72.2088C202.121 72.3869 199.987 72.3732 197.9 72.2499C195.755 72.4284 193.621 72.4144 191.534 72.2911C189.39 72.4696 187.256 72.4559 185.169 72.3326C183.025 72.5108 180.891 72.4971 178.803 72.3738C176.659 72.5523 174.525 72.5383 172.438 72.4153C170.294 72.5935 168.16 72.5795 166.072 72.4565C163.928 72.6347 161.794 72.621 159.707 72.4977C157.562 72.6759 155.429 72.6625 153.341 72.5389C151.197 72.7173 149.064 72.7036 146.976 72.5803C144.832 72.7585 142.698 72.7448 140.61 72.6215C138.466 72.8 136.333 72.786 134.245 72.6627C132.101 72.8412 129.967 72.8275 127.879 72.7042C125.735 72.8824 123.601 72.8687 121.514 72.7454C119.369 72.9239 117.236 72.9099 115.149 72.7869C113.004 72.9651 110.87 72.9514 108.783 72.8281C106.639 73.0063 104.505 72.9926 102.418 72.8693C100.273 73.0477 98.1394 73.0338 96.0519 72.9105C93.9077 73.0889 91.7743 73.0752 89.6867 72.9519C87.5425 73.1301 85.4086 73.1164 83.321 72.9931C81.1768 73.1716 79.0434 73.1576 76.9559 73.0343C74.8117 73.2128 72.6777 73.1991 70.5901 73.0758C68.4459 73.254 66.3125 73.2403 64.225 73.117C62.0802 73.2952 59.9468 73.2815 57.8592 73.1585C55.715 73.3367 53.5817 73.323 51.4935 73.1997C49.3493 73.3778 47.2159 73.3641 45.1284 73.2408C42.9842 73.4193 40.8502 73.4056 38.7626 73.282C36.6184 73.4605 34.485 73.4468 32.3974 73.3235C24.3039 73.9965 16.3527 71.9176 10.5123 71.66C8.68306 70.1627 7.47271 68.3586 6.83066 66.2559C3.74149 66.6977 3.87498 65.4979 2.0472 65.2987C3.78728 62.4997 -0.234354 61.8951 4.12923 59.8702Z" fill="#1071B9"/>
<path fill-rule="evenodd" clip-rule="evenodd" d="M4.12922 120.777C0.283776 116.658 3.8926 110.464 6.52681 105.501C3.77168 98.167 7.05876 89.8823 14.8533 84.7752C9.43229 84.8442 15.0105 82.3363 11.0962 81.8374C16.7106 79.9473 12.0427 75.7865 16.1644 73.4451C20.5943 72.887 22.3769 70.9698 24.9463 69.4581C27.3951 69.3032 29.6284 69.2998 31.7402 69.3932C34.0208 69.2641 36.1186 69.264 38.106 69.352C40.3866 69.2227 42.4838 69.2228 44.4711 69.3105C46.7517 69.1812 48.8495 69.1813 50.8368 69.2693C53.1174 69.14 55.2152 69.1401 57.2026 69.2281C59.4826 69.0988 61.5804 69.0986 63.5677 69.1869C65.8483 69.0576 67.9461 69.0575 69.9335 69.1454C72.2141 69.0161 74.3113 69.0163 76.2986 69.1042C78.5792 68.9749 80.677 68.9751 82.6643 69.0628C84.945 68.9337 87.0427 68.9336 89.0301 69.0216C91.3101 68.8923 93.4079 68.8924 95.3952 68.9804C97.6759 68.8511 99.773 68.8512 101.761 68.9389C104.041 68.8099 106.139 68.8097 108.126 68.8977C110.407 68.7684 112.505 68.7685 114.491 68.8565C116.772 68.7272 118.87 68.7271 120.857 68.8153C123.138 68.686 125.235 68.6859 127.223 68.7738C129.503 68.6445 131.601 68.6447 133.588 68.7327C135.869 68.6033 137.966 68.6035 139.954 68.6912C142.234 68.5621 144.331 68.562 146.319 68.65C148.599 68.5207 150.697 68.5208 152.684 68.6088C154.965 68.4795 157.063 68.4793 159.05 68.5676C161.33 68.4383 163.428 68.4381 165.415 68.5261C167.696 68.3968 169.793 68.397 171.781 68.4849C174.061 68.3556 176.159 68.3555 178.146 68.4437C180.427 68.3144 182.524 68.3143 184.511 68.4023C186.792 68.2729 188.89 68.2731 190.877 68.3611C193.158 68.2317 195.256 68.2319 197.243 68.3196C199.523 68.1903 201.621 68.1904 203.608 68.2784C205.889 68.1491 207.986 68.1492 209.974 68.2372C212.254 68.1079 214.352 68.1077 216.34 68.196C218.62 68.0667 220.717 68.0665 222.705 68.1545C224.985 68.0252 227.083 68.0254 229.07 68.1133C231.35 67.984 233.448 67.9839 235.436 68.0718C237.716 67.9428 239.814 67.9427 241.801 68.0307C244.081 67.9016 246.179 67.9015 248.166 67.9895C250.447 67.8602 252.545 67.8603 254.532 67.948C256.812 67.8187 258.91 67.8188 260.897 67.9068C263.178 67.7775 265.276 67.7776 267.263 67.8656C269.543 67.7363 271.642 67.7361 273.628 67.8244C275.909 67.6951 278.007 67.695 279.994 67.7829C282.275 67.6536 284.372 67.6538 286.359 67.7417C288.64 67.6124 290.738 67.6126 292.725 67.7003C295.006 67.5712 297.103 67.5711 299.091 67.6591C301.371 67.5301 303.468 67.5299 305.456 67.6179C307.736 67.4886 309.834 67.4887 311.822 67.5764C314.102 67.4474 316.199 67.4472 318.187 67.5352C320.467 67.4059 322.565 67.406 324.552 67.494C326.832 67.3647 328.93 67.3646 330.918 67.4528C333.198 67.3235 335.296 67.3234 337.283 67.4113C339.564 67.282 341.662 67.2822 343.648 67.3702C345.929 67.2408 348.027 67.241 350.014 67.3287C352.295 67.1996 354.392 67.1995 356.379 67.2875C358.66 67.1582 360.758 67.1583 362.745 67.2463C365.026 67.117 367.123 67.1168 369.111 67.2051C371.391 67.0758 373.489 67.0756 375.476 67.1636C377.757 67.0343 379.854 67.0344 381.842 67.1224C384.122 66.9931 386.219 66.993 388.207 67.0812C390.487 66.9519 392.585 66.9518 394.573 67.0397C396.853 66.9104 398.95 66.9106 400.938 66.9986C403.218 66.8692 405.316 66.8694 407.303 66.9571C409.584 66.8278 411.682 66.8279 413.669 66.9159C415.949 66.7866 418.047 66.7867 420.034 66.8747C422.315 66.7454 424.412 66.7452 426.4 66.8335C428.68 66.7042 430.778 66.704 432.765 66.792C435.046 66.6627 437.144 66.6629 439.131 66.7508C441.411 66.6215 443.509 66.6214 445.496 66.7097C447.777 66.5803 449.875 66.5802 451.862 66.6682C454.142 66.5391 456.24 66.539 458.227 66.627C460.508 66.4977 462.605 66.4978 464.593 66.5855C466.873 66.4562 468.971 66.4563 470.958 66.5443C473.239 66.415 475.336 66.4151 477.324 66.5031C488.544 65.8669 495.295 68.3902 506.665 68.843C509.392 71.6481 507.941 74.4489 511.252 76.2075C510.086 78.9398 506.056 80.2049 502.425 81.6691C503.744 82.2941 502.947 83.9909 504.259 84.616C500.76 85.4303 499.607 84.5507 496.542 85.1443C496.579 85.0575 496.602 84.9763 496.618 84.8977C494.482 85.2023 493.274 84.8439 491.392 85.0139C491.653 85.6368 491.779 86.3281 491.668 87.1402C498.126 85.1893 499.21 91.4914 499.236 91.5338C499.324 91.6745 501.175 91.0089 501.175 91.0304C502.77 97.0442 487.696 101.601 491.987 108.315C490.835 108.888 488.564 108.885 486.194 108.833C485.736 111.185 486.817 115.173 489.785 117.191C488.638 118.431 485.902 118.857 485.832 120.656C488.243 123.918 494.343 122.403 495.278 126.518C491.896 127.11 488.31 127.6 489.38 130.488C485.57 131.438 481.702 131.56 477.98 131.341C475.836 131.519 473.702 131.505 471.615 131.382C469.471 131.56 467.337 131.546 465.249 131.423C463.105 131.602 460.971 131.588 458.884 131.464C456.739 131.643 454.606 131.629 452.519 131.506C450.374 131.684 448.24 131.67 446.153 131.547C444.009 131.725 441.875 131.711 439.788 131.588C437.643 131.767 435.509 131.753 433.422 131.63C431.278 131.808 429.144 131.794 427.057 131.671C424.913 131.849 422.779 131.836 420.691 131.712C418.547 131.89 416.413 131.877 414.326 131.753C412.182 131.932 410.048 131.918 407.96 131.795C405.816 131.973 403.683 131.959 401.594 131.836C399.45 132.014 397.317 132.001 395.229 131.877C393.085 132.055 390.951 132.042 388.863 131.918C386.719 132.097 384.586 132.083 382.498 131.96C380.354 132.138 378.221 132.124 376.133 132.001C373.988 132.179 371.855 132.166 369.767 132.042C367.623 132.221 365.489 132.207 363.402 132.084C361.258 132.262 359.124 132.248 357.037 132.125C354.892 132.303 352.758 132.29 350.671 132.166C348.527 132.345 346.393 132.331 344.306 132.207C342.162 132.386 340.028 132.372 337.94 132.249C335.796 132.427 333.662 132.413 331.575 132.29C329.43 132.468 327.297 132.455 325.209 132.332C323.065 132.51 320.931 132.496 318.843 132.373C316.699 132.551 314.566 132.537 312.478 132.414C310.334 132.592 308.2 132.578 306.112 132.455C303.968 132.634 301.835 132.62 299.747 132.497C297.603 132.675 295.469 132.661 293.382 132.538C291.237 132.716 289.104 132.702 287.016 132.579C284.872 132.757 282.738 132.744 280.651 132.62C278.506 132.799 276.373 132.785 274.285 132.662C272.141 132.84 270.007 132.826 267.92 132.703C265.776 132.881 263.642 132.868 261.554 132.744C259.41 132.923 257.276 132.909 255.189 132.786C253.045 132.964 250.911 132.95 248.823 132.827C246.679 133.005 244.546 132.992 242.458 132.868C240.314 133.046 238.18 133.033 236.092 132.909C233.948 133.088 231.815 133.074 229.727 132.951C227.583 133.129 225.449 133.115 223.361 132.992C221.217 133.17 219.084 133.157 216.996 133.033C214.852 133.211 212.718 133.198 210.63 133.075C208.486 133.253 206.353 133.239 204.265 133.116C202.121 133.294 199.987 133.28 197.9 133.157C195.755 133.336 193.621 133.322 191.534 133.198C189.39 133.377 187.256 133.363 185.169 133.24C183.025 133.418 180.891 133.404 178.803 133.281C176.659 133.459 174.525 133.445 172.438 133.322C170.294 133.501 168.16 133.487 166.072 133.364C163.928 133.542 161.794 133.528 159.707 133.405C157.562 133.583 155.429 133.57 153.341 133.446C151.197 133.625 149.064 133.611 146.976 133.488C144.832 133.666 142.698 133.652 140.61 133.529C138.466 133.707 136.333 133.693 134.245 133.57C132.101 133.748 129.967 133.735 127.879 133.611C125.735 133.79 123.601 133.776 121.514 133.653C119.369 133.831 117.236 133.817 115.149 133.694C113.004 133.872 110.87 133.859 108.783 133.735C106.639 133.913 104.505 133.9 102.418 133.776C100.273 133.955 98.1394 133.941 96.0519 133.818C93.9077 133.996 91.7743 133.982 89.6867 133.859C87.5425 134.037 85.4086 134.024 83.321 133.9C81.1768 134.079 79.0434 134.065 76.9558 133.941C74.8117 134.12 72.6777 134.106 70.5901 133.983C68.4459 134.161 66.3125 134.147 64.225 134.024C62.0802 134.202 59.9468 134.189 57.8592 134.066C55.715 134.244 53.5816 134.23 51.4935 134.107C49.3493 134.285 47.2159 134.271 45.1283 134.148C42.9842 134.327 40.8501 134.313 38.7626 134.189C36.6184 134.368 34.485 134.354 32.3974 134.231C24.3039 134.904 16.3527 132.825 10.5123 132.567C8.68305 131.07 7.4727 129.266 6.83065 127.163C3.74148 127.605 3.87496 126.405 2.04719 126.206C3.78727 123.407 -0.234366 122.802 4.12922 120.777Z" fill="#1071B9"/>
</svg>
