<svg width="400" height="110" viewBox="0 0 400 110" fill="none" xmlns="http://www.w3.org/2000/svg">
<path fill-rule="evenodd" clip-rule="evenodd" d="M398.293 42.2697C401.252 38.8016 398.337 33.722 396.204 29.6492C398.264 23.5332 395.573 16.7173 389.39 12.599C393.642 12.5778 389.234 10.5808 392.296 10.1109C387.868 8.62624 391.471 5.11169 388.207 3.23156C384.726 2.83332 383.301 1.27079 381.266 0.0555756C379.343 -0.0373071 377.592 -0.00784429 375.937 0.100019C374.147 0.0261128 372.502 0.0563246 370.945 0.157946C369.154 0.0837899 367.51 0.114251 365.953 0.215623C364.162 0.141467 362.517 0.171929 360.96 0.27355C359.17 0.199394 357.525 0.229855 355.968 0.331477C354.178 0.257321 352.533 0.287532 350.975 0.389404C349.185 0.315247 347.54 0.345459 345.983 0.447081C344.193 0.372925 342.548 0.403386 340.991 0.505008C339.201 0.430851 337.556 0.461313 335.998 0.562685C334.208 0.488778 332.563 0.51899 331.006 0.620612C329.216 0.546455 327.571 0.576917 326.014 0.678538C324.223 0.604382 322.579 0.634844 321.021 0.736215C319.231 0.662309 317.586 0.692521 316.029 0.794142C314.239 0.719986 312.594 0.750447 311.037 0.852069C309.247 0.777913 307.602 0.808125 306.044 0.909996C304.254 0.83584 302.609 0.866051 301.052 0.967673C299.262 0.893517 297.617 0.923978 296.06 1.0256C294.27 0.951443 292.625 0.981905 291.067 1.08328C289.277 1.00937 287.632 1.03958 286.075 1.1412C284.285 1.06705 282.64 1.09751 281.083 1.19913C279.292 1.12497 277.647 1.15519 276.091 1.25706C274.3 1.1829 272.655 1.21311 271.098 1.31473C269.308 1.24058 267.663 1.27104 266.106 1.37266C264.316 1.2985 262.671 1.32872 261.113 1.43059C259.323 1.35643 257.679 1.38664 256.121 1.48827C254.331 1.41411 252.686 1.44457 251.129 1.54619C249.339 1.47204 247.694 1.5025 246.136 1.60387C244.347 1.52971 242.701 1.56017 241.144 1.6618C239.354 1.58764 237.709 1.6181 236.152 1.71972C234.361 1.64557 232.716 1.67578 231.159 1.77765C229.369 1.70349 227.724 1.7337 226.167 1.83533C224.377 1.76117 222.732 1.79163 221.174 1.89325C219.385 1.8191 217.74 1.84931 216.182 1.95093C214.392 1.87702 212.747 1.90724 211.19 2.00886C209.4 1.93495 207.755 1.96516 206.198 2.06678C204.408 1.99263 202.763 2.02309 201.205 2.12446C199.416 2.0503 197.77 2.08077 196.213 2.18239C194.423 2.10823 192.778 2.13869 191.221 2.24031C189.431 2.16616 187.785 2.19637 186.229 2.29824C184.438 2.22409 182.793 2.2543 181.236 2.35592C179.446 2.28176 177.801 2.31222 176.244 2.41385C174.454 2.33969 172.809 2.37015 171.251 2.47152C169.461 2.39762 167.816 2.42783 166.259 2.52945C164.469 2.45554 162.824 2.48575 161.267 2.58738C159.477 2.51322 157.831 2.54368 156.274 2.64505C154.484 2.57115 152.839 2.60136 151.282 2.70298C149.492 2.62882 147.847 2.65929 146.29 2.76091C144.5 2.68675 142.855 2.71696 141.298 2.81883C139.507 2.74468 137.862 2.77489 136.305 2.87651C134.515 2.80235 132.87 2.83282 131.313 2.93444C129.523 2.86028 127.878 2.89074 126.32 2.99211C124.53 2.91821 122.886 2.94842 121.328 3.05004C119.538 2.97589 117.893 3.00635 116.336 3.10797C114.546 3.03381 112.9 3.06402 111.343 3.16589C109.553 3.09174 107.908 3.12195 106.351 3.22357C104.561 3.14942 102.916 3.17988 101.359 3.2815C99.5684 3.20734 97.9238 3.23755 96.3665 3.33943C94.5763 3.26527 92.9312 3.29548 91.374 3.3971C89.5838 3.32295 87.9392 3.35341 86.3819 3.45503C84.5917 3.38087 82.9466 3.41133 81.3894 3.51271C79.5992 3.43855 77.9541 3.46901 76.3973 3.57063C74.6071 3.49648 72.962 3.52694 71.4047 3.62856C69.6145 3.5544 67.9699 3.58462 66.4127 3.68649C64.6225 3.61233 62.9774 3.64254 61.4201 3.74416C59.6299 3.67001 57.9848 3.70047 56.4276 3.80209C54.6378 3.72793 52.9928 3.75815 51.4355 3.86002C49.6453 3.78586 48.0002 3.81607 46.443 3.9177C44.6528 3.84379 43.0081 3.874 41.4509 3.97562C39.6607 3.90147 38.0156 3.93193 36.4584 4.0333C34.6686 3.95914 33.0235 3.9896 31.4658 4.09123C29.6761 4.01707 28.031 4.04753 26.4737 4.14915C17.6659 3.78436 12.4062 5.97235 3.49677 6.51192C1.3964 8.87518 2.57277 11.1745 0 12.6794C0.951731 14.926 4.12956 15.9158 6.99677 17.0763C5.97108 17.6131 6.61913 19.0074 5.59899 19.5442C8.35434 20.1682 9.24598 19.4228 11.6579 19.8703C11.6274 19.7989 11.6089 19.732 11.595 19.667C13.2738 19.8885 14.2163 19.5742 15.6945 19.6878C15.499 20.2076 15.4093 20.7821 15.5073 21.4533C10.4163 19.9305 9.65274 25.1671 9.63286 25.2025C9.56584 25.3204 8.10473 24.7958 8.10566 24.8135C6.93714 29.8187 18.8201 33.3762 15.5471 38.9999C16.4581 39.4583 18.2396 39.4231 20.0973 39.3457C20.4888 41.2872 19.6956 44.6068 17.3951 46.3211C18.3121 47.3318 20.4634 47.6452 20.5424 49.1351C18.6967 51.8721 13.8928 50.7053 13.2151 54.1282C15.8757 54.5694 18.6949 54.9237 17.8952 57.3312C20.896 58.0633 23.931 58.1087 26.8463 57.873C28.5302 57.9896 30.2035 57.9474 31.8388 57.8151C33.5223 57.9319 35.1955 57.8895 36.8309 57.7572C38.5148 57.874 40.1881 57.8316 41.8234 57.6992C43.5074 57.8161 45.1802 57.7739 46.8155 57.6416C48.4994 57.7582 50.1727 57.716 51.8081 57.5836C53.4915 57.7005 55.1648 57.658 56.8001 57.526C58.4841 57.6426 60.1573 57.6004 61.7927 57.468C63.4766 57.5846 65.1494 57.5424 66.7848 57.4101C68.4687 57.5267 70.1419 57.4848 71.7773 57.3524C73.4612 57.469 75.134 57.4268 76.7694 57.2945C78.4533 57.4111 80.1266 57.3689 81.7619 57.2366C83.4458 57.3534 85.1186 57.311 86.7545 57.1786C88.4384 57.2955 90.1112 57.2533 91.7465 57.121C93.4304 57.2376 95.1037 57.1954 96.7391 57.063C98.423 57.1799 100.096 57.1374 101.731 57.0054C103.415 57.122 105.088 57.0795 106.723 56.9474C108.408 57.064 110.08 57.0218 111.716 56.8895C113.4 57.0064 115.073 56.9642 116.708 56.8316C118.392 56.9484 120.065 56.9062 121.7 56.7739C123.384 56.8905 125.058 56.8483 126.693 56.716C128.377 56.8328 130.05 56.7904 131.685 56.658C133.369 56.7749 135.042 56.7327 136.678 56.6004C138.361 56.717 140.034 56.6748 141.67 56.5424C143.354 56.659 145.027 56.6169 146.662 56.4848C148.346 56.6014 150.019 56.5589 151.655 56.4268C153.339 56.5434 155.011 56.5012 156.647 56.3689C158.331 56.4858 160.004 56.4433 161.639 56.311C163.323 56.4278 164.996 56.3856 166.631 56.2533C168.315 56.3699 169.989 56.3277 171.624 56.1954C173.308 56.3122 174.981 56.2698 176.616 56.1377C178.3 56.2543 179.973 56.2121 181.609 56.0798C183.292 56.1964 184.965 56.1542 186.601 56.0219C188.285 56.1385 189.958 56.0963 191.593 55.9642C193.277 56.0808 194.95 56.0386 196.586 55.9062C198.27 56.0231 199.942 55.9807 201.578 55.8483C203.262 55.9652 204.935 55.923 206.57 55.7904C208.254 55.9072 209.927 55.865 211.562 55.7327C213.246 55.8493 214.92 55.8071 216.555 55.6748C218.239 55.7916 219.912 55.7492 221.548 55.6171C223.231 55.7337 224.904 55.6915 226.54 55.5592C228.223 55.6758 229.896 55.6336 231.532 55.5013C233.216 55.6179 234.889 55.5759 236.524 55.4436C238.208 55.5602 239.881 55.518 241.516 55.3857C243.201 55.5023 244.873 55.4601 246.509 55.3277C248.193 55.4446 249.866 55.4021 251.501 55.2698C253.185 55.3867 254.858 55.3445 256.493 55.2121C258.177 55.3287 259.851 55.2865 261.486 55.1542C263.17 55.271 264.843 55.2286 266.478 55.0965C268.162 55.2131 269.835 55.1707 271.471 55.0386C273.155 55.1552 274.827 55.113 276.463 54.9807C278.147 55.0973 279.82 55.0553 281.455 54.9227C283.139 55.0396 284.812 54.9974 286.447 54.8651C288.131 54.9817 289.804 54.9395 291.44 54.8071C293.124 54.924 294.797 54.8815 296.432 54.7492C298.116 54.8661 299.789 54.8239 301.424 54.6915C303.108 54.8081 304.782 54.7659 306.417 54.6336C308.101 54.7505 309.774 54.708 311.409 54.5759C313.093 54.6925 314.766 54.6503 316.402 54.518C318.086 54.6346 319.758 54.5924 321.394 54.4601C323.078 54.5769 324.751 54.5345 326.386 54.4021C328.07 54.519 329.743 54.4768 331.378 54.3445C333.062 54.4611 334.736 54.4189 336.371 54.2865C338.055 54.4034 339.728 54.361 341.363 54.2286C343.047 54.3455 344.72 54.3033 346.355 54.1709C348.039 54.2875 349.712 54.2453 351.348 54.113C353.032 54.2296 354.705 54.1874 356.34 54.0553C358.024 54.1719 359.697 54.1297 361.333 53.9974C363.017 54.114 364.689 54.0718 366.325 53.9395C368.009 54.0563 369.682 54.0141 371.317 53.8816C373.001 53.9984 374.674 53.9562 376.309 53.8239C382.665 54.2643 388.872 52.4271 393.449 52.1293C394.863 50.8624 395.787 49.3503 396.262 47.599C398.691 47.9203 398.569 46.9283 400 46.7368C398.597 44.4432 401.743 43.8842 398.293 42.2697Z" fill="#C7295B"/>
<path fill-rule="evenodd" clip-rule="evenodd" d="M398.293 94.2697C401.252 90.8016 398.337 85.722 396.204 81.6492C398.264 75.5332 395.573 68.7173 389.39 64.599C393.642 64.5778 389.234 62.5808 392.296 62.1109C387.868 60.6262 391.471 57.1117 388.207 55.2316C384.726 54.8333 383.301 53.2708 381.266 52.0556C379.343 51.9627 377.592 51.9922 375.937 52.1C374.147 52.0261 372.502 52.0563 370.945 52.1579C369.154 52.0838 367.51 52.1143 365.953 52.2156C364.162 52.1415 362.517 52.1719 360.96 52.2736C359.17 52.1994 357.525 52.2299 355.968 52.3315C354.178 52.2573 352.533 52.2875 350.975 52.3894C349.185 52.3152 347.54 52.3455 345.983 52.4471C344.193 52.3729 342.548 52.4034 340.991 52.505C339.201 52.4309 337.556 52.4613 335.998 52.5627C334.208 52.4888 332.563 52.519 331.006 52.6206C329.216 52.5465 327.571 52.5769 326.014 52.6785C324.223 52.6044 322.579 52.6348 321.021 52.7362C319.231 52.6623 317.586 52.6925 316.029 52.7941C314.239 52.72 312.594 52.7504 311.037 52.8521C309.247 52.7779 307.602 52.8081 306.044 52.91C304.254 52.8358 302.609 52.8661 301.052 52.9677C299.262 52.8935 297.617 52.924 296.06 53.0256C294.27 52.9514 292.625 52.9819 291.067 53.0833C289.277 53.0094 287.632 53.0396 286.075 53.1412C284.285 53.067 282.64 53.0975 281.083 53.1991C279.292 53.125 277.647 53.1552 276.091 53.2571C274.3 53.1829 272.655 53.2131 271.098 53.3147C269.308 53.2406 267.663 53.271 266.106 53.3727C264.316 53.2985 262.671 53.3287 261.113 53.4306C259.323 53.3564 257.679 53.3866 256.121 53.4883C254.331 53.4141 252.686 53.4446 251.129 53.5462C249.339 53.472 247.694 53.5025 246.136 53.6039C244.347 53.5297 242.701 53.5602 241.144 53.6618C239.354 53.5876 237.709 53.6181 236.152 53.7197C234.361 53.6456 232.716 53.6758 231.159 53.7776C229.369 53.7035 227.724 53.7337 226.167 53.8353C224.377 53.7612 222.732 53.7916 221.174 53.8933C219.385 53.8191 217.74 53.8493 216.182 53.9509C214.392 53.877 212.747 53.9072 211.19 54.0089C209.4 53.935 207.755 53.9652 206.198 54.0668C204.408 53.9926 202.763 54.0231 201.205 54.1245C199.416 54.0503 197.77 54.0808 196.213 54.1824C194.423 54.1082 192.778 54.1387 191.221 54.2403C189.431 54.1662 187.785 54.1964 186.229 54.2982C184.438 54.2241 182.793 54.2543 181.236 54.3559C179.446 54.2818 177.801 54.3122 176.244 54.4138C174.454 54.3397 172.809 54.3702 171.251 54.4715C169.461 54.3976 167.816 54.4278 166.259 54.5294C164.469 54.4555 162.824 54.4858 161.267 54.5874C159.477 54.5132 157.831 54.5437 156.274 54.6451C154.484 54.5711 152.839 54.6014 151.282 54.703C149.492 54.6288 147.847 54.6593 146.29 54.7609C144.5 54.6868 142.855 54.717 141.298 54.8188C139.507 54.7447 137.862 54.7749 136.305 54.8765C134.515 54.8024 132.87 54.8328 131.313 54.9344C129.523 54.8603 127.878 54.8907 126.32 54.9921C124.53 54.9182 122.886 54.9484 121.328 55.05C119.538 54.9759 117.893 55.0063 116.336 55.108C114.546 55.0338 112.9 55.064 111.343 55.1659C109.553 55.0917 107.908 55.122 106.351 55.2236C104.561 55.1494 102.916 55.1799 101.359 55.2815C99.5684 55.2073 97.9238 55.2376 96.3665 55.3394C94.5763 55.2653 92.9312 55.2955 91.374 55.3971C89.5838 55.3229 87.9392 55.3534 86.3819 55.455C84.5917 55.3809 82.9466 55.4113 81.3894 55.5127C79.5992 55.4386 77.9541 55.469 76.3973 55.5706C74.6071 55.4965 72.962 55.5269 71.4047 55.6286C69.6145 55.5544 67.9699 55.5846 66.4127 55.6865C64.6225 55.6123 62.9774 55.6425 61.4201 55.7442C59.6299 55.67 57.9848 55.7005 56.4276 55.8021C54.6378 55.7279 52.9928 55.7581 51.4355 55.86C49.6453 55.7859 48.0002 55.8161 46.443 55.9177C44.6528 55.8438 43.0081 55.874 41.4509 55.9756C39.6607 55.9015 38.0156 55.9319 36.4584 56.0333C34.6686 55.9591 33.0235 55.9896 31.4658 56.0912C29.6761 56.0171 28.031 56.0475 26.4737 56.1492C17.6659 55.7844 12.4062 57.9723 3.49677 58.5119C1.3964 60.8752 2.57277 63.1745 0 64.6794C0.951731 66.926 4.12956 67.9158 6.99677 69.0763C5.97108 69.6131 6.61913 71.0074 5.59899 71.5442C8.35434 72.1682 9.24598 71.4229 11.6579 71.8703C11.6274 71.7989 11.6089 71.732 11.595 71.667C13.2738 71.8885 14.2163 71.5742 15.6945 71.6878C15.499 72.2076 15.4093 72.7821 15.5073 73.4533C10.4163 71.9305 9.65274 77.1671 9.63286 77.2025C9.56584 77.3204 8.10473 76.7958 8.10566 76.8135C6.93714 81.8187 18.8201 85.3762 15.5471 90.9999C16.4581 91.4583 18.2396 91.4231 20.0973 91.3457C20.4888 93.2872 19.6956 96.6068 17.3951 98.3211C18.3121 99.3318 20.4634 99.6452 20.5424 101.135C18.6967 103.872 13.8928 102.705 13.2151 106.128C15.8757 106.569 18.6949 106.924 17.8952 109.331C20.896 110.063 23.931 110.109 26.8463 109.873C28.5302 109.99 30.2035 109.947 31.8388 109.815C33.5223 109.932 35.1955 109.889 36.8309 109.757C38.5148 109.874 40.1881 109.832 41.8234 109.699C43.5074 109.816 45.1802 109.774 46.8155 109.642C48.4994 109.758 50.1727 109.716 51.8081 109.584C53.4915 109.7 55.1648 109.658 56.8001 109.526C58.4841 109.643 60.1573 109.6 61.7927 109.468C63.4766 109.585 65.1494 109.542 66.7848 109.41C68.4687 109.527 70.1419 109.485 71.7773 109.352C73.4612 109.469 75.134 109.427 76.7694 109.294C78.4533 109.411 80.1266 109.369 81.7619 109.237C83.4458 109.353 85.1186 109.311 86.7545 109.179C88.4384 109.295 90.1112 109.253 91.7465 109.121C93.4304 109.238 95.1037 109.195 96.7391 109.063C98.423 109.18 100.096 109.137 101.731 109.005C103.415 109.122 105.088 109.08 106.723 108.947C108.408 109.064 110.08 109.022 111.716 108.89C113.4 109.006 115.073 108.964 116.708 108.832C118.392 108.948 120.065 108.906 121.7 108.774C123.384 108.891 125.058 108.848 126.693 108.716C128.377 108.833 130.05 108.79 131.685 108.658C133.369 108.775 135.042 108.733 136.678 108.6C138.361 108.717 140.034 108.675 141.67 108.542C143.354 108.659 145.027 108.617 146.662 108.485C148.346 108.601 150.019 108.559 151.655 108.427C153.339 108.543 155.011 108.501 156.647 108.369C158.331 108.486 160.004 108.443 161.639 108.311C163.323 108.428 164.996 108.386 166.631 108.253C168.315 108.37 169.989 108.328 171.624 108.195C173.308 108.312 174.981 108.27 176.616 108.138C178.3 108.254 179.973 108.212 181.609 108.08C183.292 108.196 184.965 108.154 186.601 108.022C188.285 108.138 189.958 108.096 191.593 107.964C193.277 108.081 194.95 108.039 196.586 107.906C198.27 108.023 199.942 107.981 201.578 107.848C203.262 107.965 204.935 107.923 206.57 107.79C208.254 107.907 209.927 107.865 211.562 107.733C213.246 107.849 214.92 107.807 216.555 107.675C218.239 107.792 219.912 107.749 221.548 107.617C223.231 107.734 224.904 107.692 226.54 107.559C228.223 107.676 229.896 107.634 231.532 107.501C233.216 107.618 234.889 107.576 236.524 107.444C238.208 107.56 239.881 107.518 241.516 107.386C243.201 107.502 244.873 107.46 246.509 107.328C248.193 107.445 249.866 107.402 251.501 107.27C253.185 107.387 254.858 107.344 256.493 107.212C258.177 107.329 259.851 107.287 261.486 107.154C263.17 107.271 264.843 107.229 266.478 107.097C268.162 107.213 269.835 107.171 271.471 107.039C273.155 107.155 274.827 107.113 276.463 106.981C278.147 107.097 279.82 107.055 281.455 106.923C283.139 107.04 284.812 106.997 286.447 106.865C288.131 106.982 289.804 106.939 291.44 106.807C293.124 106.924 294.797 106.882 296.432 106.749C298.116 106.866 299.789 106.824 301.424 106.692C303.108 106.808 304.782 106.766 306.417 106.634C308.101 106.75 309.774 106.708 311.409 106.576C313.093 106.693 314.766 106.65 316.402 106.518C318.086 106.635 319.758 106.592 321.394 106.46C323.078 106.577 324.751 106.534 326.386 106.402C328.07 106.519 329.743 106.477 331.378 106.344C333.062 106.461 334.736 106.419 336.371 106.287C338.055 106.403 339.728 106.361 341.363 106.229C343.047 106.345 344.72 106.303 346.355 106.171C348.039 106.288 349.712 106.245 351.348 106.113C353.032 106.23 354.705 106.187 356.34 106.055C358.024 106.172 359.697 106.13 361.333 105.997C363.017 106.114 364.689 106.072 366.325 105.939C368.009 106.056 369.682 106.014 371.317 105.882C373.001 105.998 374.674 105.956 376.309 105.824C382.665 106.264 388.872 104.427 393.449 104.129C394.863 102.862 395.787 101.35 396.262 99.599C398.691 99.9203 398.569 98.9283 400 98.7368C398.597 96.4432 401.743 95.8842 398.293 94.2697" fill="#C7295B"/>
</svg>
