<svg width="300" height="58" viewBox="0 0 300 58" fill="none" xmlns="http://www.w3.org/2000/svg">
<path fill-rule="evenodd" clip-rule="evenodd" d="M298.72 42.2697C300.939 38.8016 298.753 33.722 297.153 29.6492C298.698 23.5332 296.68 16.7173 292.043 12.599C295.232 12.5778 291.925 10.5808 294.222 10.1109C290.901 8.62624 293.604 5.11169 291.155 3.23156C288.544 2.83332 287.476 1.27079 285.949 0.0555756C284.508 -0.0373071 283.194 -0.00784429 281.953 0.100019C280.61 0.0261128 279.376 0.0563246 278.209 0.157946C276.866 0.0837899 275.632 0.114251 274.464 0.215623C273.122 0.141467 271.888 0.171929 270.72 0.27355C269.377 0.199394 268.144 0.229855 266.976 0.331477C265.633 0.257321 264.4 0.287532 263.232 0.389404C261.889 0.315247 260.655 0.345459 259.487 0.447081C258.145 0.372925 256.911 0.403386 255.743 0.505008C254.4 0.430851 253.167 0.461313 251.999 0.562685C250.656 0.488778 249.422 0.51899 248.254 0.620612C246.912 0.546455 245.678 0.576917 244.51 0.678538C243.168 0.604382 241.934 0.634844 240.766 0.736215C239.424 0.662309 238.19 0.692521 237.022 0.794142C235.679 0.719986 234.445 0.750447 233.278 0.852069C231.935 0.777913 230.701 0.808125 229.533 0.909996C228.191 0.83584 226.957 0.866051 225.789 0.967673C224.447 0.893517 223.213 0.923978 222.045 1.0256C220.702 0.951443 219.468 0.981905 218.3 1.08328C216.958 1.00937 215.724 1.03958 214.556 1.1412C213.214 1.06705 211.98 1.09751 210.812 1.19913C209.469 1.12497 208.236 1.15519 207.068 1.25706C205.725 1.1829 204.491 1.21311 203.324 1.31473C201.981 1.24058 200.747 1.27104 199.579 1.37266C198.237 1.2985 197.003 1.32872 195.835 1.43059C194.492 1.35643 193.259 1.38664 192.091 1.48827C190.748 1.41411 189.515 1.44457 188.347 1.54619C187.004 1.47204 185.77 1.5025 184.602 1.60387C183.26 1.52971 182.026 1.56017 180.858 1.6618C179.515 1.58764 178.282 1.6181 177.114 1.71972C175.771 1.64557 174.537 1.67578 173.369 1.77765C172.027 1.70349 170.793 1.7337 169.625 1.83533C168.283 1.76117 167.049 1.79163 165.881 1.89325C164.539 1.8191 163.305 1.84931 162.137 1.95093C160.794 1.87702 159.56 1.90724 158.392 2.00886C157.05 1.93495 155.816 1.96516 154.648 2.06678C153.306 1.99263 152.072 2.02309 150.904 2.12446C149.562 2.0503 148.328 2.08077 147.16 2.18239C145.817 2.10823 144.583 2.13869 143.415 2.24031C142.073 2.16616 140.839 2.19637 139.671 2.29824C138.329 2.22409 137.095 2.2543 135.927 2.35592C134.584 2.28176 133.351 2.31222 132.183 2.41385C130.84 2.33969 129.606 2.37015 128.439 2.47152C127.096 2.39762 125.862 2.42783 124.694 2.52945C123.352 2.45554 122.118 2.48575 120.95 2.58738C119.607 2.51322 118.374 2.54368 117.206 2.64505C115.863 2.57115 114.63 2.60136 113.462 2.70298C112.119 2.62882 110.885 2.65929 109.717 2.76091C108.375 2.68675 107.141 2.71696 105.973 2.81883C104.63 2.74468 103.397 2.77489 102.229 2.87651C100.886 2.80235 99.6523 2.83282 98.4847 2.93444C97.142 2.86028 95.9082 2.89074 94.7403 2.99211C93.3976 2.91821 92.1642 2.94842 90.9962 3.05004C89.6536 2.97589 88.4198 3.00635 87.2518 3.10797C85.9092 3.03381 84.6754 3.06402 83.5074 3.16589C82.1651 3.09174 80.9313 3.12195 79.7634 3.22357C78.4207 3.14942 77.1869 3.17988 76.019 3.2815C74.6763 3.20734 73.4428 3.23755 72.2749 3.33943C70.9322 3.26527 69.6984 3.29548 68.5305 3.3971C67.1878 3.32295 65.9544 3.35341 64.7864 3.45503C63.4438 3.38087 62.21 3.41133 61.042 3.51271C59.6994 3.43855 58.4656 3.46901 57.298 3.57063C55.9553 3.49648 54.7215 3.52694 53.5536 3.62856C52.2109 3.5544 50.9774 3.58462 49.8095 3.68649C48.4668 3.61233 47.233 3.64254 46.0651 3.74416C44.7224 3.67001 43.4886 3.70047 42.3207 3.80209C40.9784 3.72793 39.7446 3.75815 38.5766 3.86002C37.234 3.78586 36.0002 3.81607 34.8322 3.9177C33.4896 3.84379 32.2561 3.874 31.0882 3.97562C29.7455 3.90147 28.5117 3.93193 27.3438 4.0333C26.0014 3.95914 24.7676 3.9896 23.5994 4.09123C22.257 4.01707 21.0232 4.04753 19.8553 4.14915C13.2495 3.78436 9.30468 5.97235 2.62257 6.51192C1.0473 8.87518 1.92958 11.1745 0 12.6794C0.713798 14.926 3.09717 15.9158 5.24758 17.0763C4.47831 17.6131 4.96434 19.0074 4.19924 19.5442C6.26575 20.1682 6.93448 19.4229 8.74342 19.8703C8.72054 19.7989 8.70667 19.732 8.69627 19.667C9.95538 19.8885 10.6622 19.5742 11.7709 19.6878C11.6243 20.2076 11.557 20.7821 11.6305 21.4533C7.81226 19.9305 7.23955 25.1671 7.22465 25.2025C7.17438 25.3204 6.07855 24.7958 6.07924 24.8135C5.20286 29.8187 14.1151 33.3762 11.6603 38.9999C12.3436 39.4583 13.6797 39.4231 15.073 39.3457C15.3666 41.2872 14.7717 44.6068 13.0463 46.3211C13.7341 47.3318 15.3475 47.6452 15.4068 49.1351C14.0225 51.8721 10.4196 50.7053 9.91136 54.1282C11.9068 54.5694 14.0212 54.9237 13.4214 57.3312C15.672 58.0633 17.9483 58.1087 20.1347 57.873C21.3976 57.9896 22.6526 57.9474 23.8791 57.8151C25.1417 57.9319 26.3967 57.8895 27.6232 57.7572C28.8861 57.874 30.1411 57.8316 31.3676 57.6992C32.6305 57.8161 33.8851 57.7739 35.1116 57.6416C36.3746 57.7582 37.6295 57.716 38.8561 57.5836C40.1186 57.7005 41.3736 57.658 42.6001 57.526C43.863 57.6426 45.118 57.6004 46.3445 57.468C47.6074 57.5846 48.862 57.5424 50.0886 57.4101C51.3515 57.5267 52.6065 57.4848 53.833 57.3524C55.0959 57.469 56.3505 57.4268 57.577 57.2945C58.84 57.4111 60.0949 57.3689 61.3214 57.2366C62.5844 57.3534 63.839 57.311 65.0658 57.1786C66.3288 57.2955 67.5834 57.2533 68.8099 57.121C70.0728 57.2376 71.3278 57.1954 72.5543 57.063C73.8172 57.1799 75.0718 57.1374 76.2984 57.0054C77.5613 57.122 78.8159 57.0795 80.0424 56.9474C81.3057 57.064 82.5603 57.0218 83.7868 56.8895C85.0498 57.0064 86.3047 56.9642 87.5312 56.8316C88.7942 56.9484 90.0488 56.9062 91.2753 56.7739C92.5382 56.8905 93.7932 56.8483 95.0197 56.716C96.2826 56.8328 97.5372 56.7904 98.7638 56.658C100.027 56.7749 101.282 56.7327 102.508 56.6004C103.771 56.717 105.026 56.6748 106.252 56.5424C107.516 56.659 108.77 56.6169 109.997 56.4848C111.26 56.6014 112.514 56.5589 113.741 56.4268C115.004 56.5434 116.259 56.5012 117.485 56.3689C118.748 56.4858 120.003 56.4433 121.23 56.311C122.492 56.4278 123.747 56.3856 124.974 56.2533C126.236 56.3699 127.491 56.3277 128.718 56.1954C129.981 56.3122 131.236 56.2698 132.462 56.1377C133.725 56.2543 134.98 56.2121 136.206 56.0798C137.469 56.1964 138.724 56.1542 139.951 56.0219C141.214 56.1385 142.468 56.0963 143.695 55.9642C144.958 56.0808 146.212 56.0386 147.439 55.9062C148.702 56.0231 149.957 55.9807 151.183 55.8483C152.446 55.9652 153.701 55.923 154.928 55.7904C156.191 55.9072 157.445 55.865 158.672 55.7327C159.935 55.8493 161.19 55.8071 162.416 55.6748C163.679 55.7916 164.934 55.7492 166.161 55.6171C167.423 55.7337 168.678 55.6915 169.905 55.5592C171.168 55.6758 172.422 55.6336 173.649 55.5013C174.912 55.6179 176.167 55.5759 177.393 55.4436C178.656 55.5602 179.911 55.518 181.137 55.3857C182.4 55.5023 183.655 55.4601 184.882 55.3277C186.145 55.4446 187.4 55.4021 188.626 55.2698C189.889 55.3867 191.144 55.3445 192.37 55.2121C193.633 55.3287 194.888 55.2865 196.115 55.1542C197.377 55.2711 198.632 55.2286 199.859 55.0965C201.121 55.2131 202.376 55.1707 203.603 55.0386C204.866 55.1552 206.12 55.113 207.347 54.9807C208.61 55.0973 209.865 55.0553 211.091 54.9227C212.354 55.0396 213.609 54.9974 214.835 54.8651C216.098 54.9817 217.353 54.9395 218.58 54.8071C219.843 54.924 221.097 54.8815 222.324 54.7492C223.587 54.8661 224.842 54.8239 226.068 54.6915C227.331 54.8081 228.586 54.7659 229.813 54.6336C231.076 54.7505 232.33 54.708 233.557 54.5759C234.82 54.6925 236.075 54.6503 237.301 54.518C238.564 54.6346 239.819 54.5924 241.045 54.4601C242.308 54.5769 243.563 54.5345 244.79 54.4021C246.053 54.519 247.307 54.4768 248.534 54.3445C249.797 54.4611 251.052 54.4189 252.278 54.2865C253.541 54.4034 254.796 54.361 256.022 54.2286C257.285 54.3455 258.54 54.3033 259.767 54.1709C261.03 54.2875 262.284 54.2453 263.511 54.113C264.774 54.2296 266.029 54.1874 267.255 54.0553C268.518 54.1719 269.773 54.1297 270.999 53.9974C272.262 54.114 273.517 54.0718 274.744 53.9395C276.006 54.0563 277.261 54.0141 278.488 53.8816C279.751 53.9984 281.005 53.9562 282.232 53.8239C286.999 54.2643 291.654 52.4271 295.087 52.1293C296.147 50.8624 296.84 49.3503 297.196 47.599C299.018 47.9203 298.927 46.9283 300 46.7368C298.948 44.4432 301.307 43.8842 298.72 42.2697Z" fill="#1071B9"/>
</svg>
