<svg width="55" height="102" viewBox="0 0 55 102" fill="none" xmlns="http://www.w3.org/2000/svg">
<path fill-rule="evenodd" clip-rule="evenodd" d="M22.0906 38.7863C22.4249 38.3807 22.3672 37.7807 21.9616 37.4464C21.556 37.112 20.956 37.1699 20.6216 37.5755C20.0585 38.2588 19.2286 38.6506 18.3444 38.6506C17.5565 38.6506 16.8157 38.3437 16.2588 37.7866C15.887 37.4148 15.2843 37.4148 14.9125 37.7866C14.5409 38.1584 14.5409 38.761 14.9125 39.1327C15.8293 40.0494 17.0479 40.5541 18.3444 40.5541C19.7992 40.5541 21.1645 39.9098 22.0906 38.7863Z" fill="#1071B9"/>
<path d="M22.0906 38.7863C22.4249 38.3807 22.3672 37.7807 21.9616 37.4464C21.556 37.112 20.956 37.1699 20.6216 37.5755C20.0585 38.2588 19.2286 38.6506 18.3444 38.6506C17.5565 38.6506 16.8157 38.3437 16.2588 37.7866C15.887 37.4148 15.2843 37.4148 14.9125 37.7866C14.5409 38.1584 14.5409 38.761 14.9125 39.1327C15.8293 40.0494 17.0479 40.5541 18.3444 40.5541C19.7992 40.5541 21.1645 39.9098 22.0906 38.7863" stroke="#1071B9" stroke-width="1.5"/>
<path fill-rule="evenodd" clip-rule="evenodd" d="M34.4115 40.5541C35.8663 40.5541 37.2317 39.9099 38.1578 38.7863C38.4923 38.3807 38.4344 37.7808 38.0288 37.4464C37.6232 37.1122 37.0232 37.1698 36.689 37.5755C36.1259 38.2587 35.2956 38.6505 34.4115 38.6505C33.6237 38.6505 32.8831 38.3436 32.326 37.7867C31.9544 37.4149 31.3516 37.4149 30.9799 37.7867C30.6083 38.1584 30.6083 38.761 30.9799 39.1328C31.8965 40.0493 33.1152 40.5541 34.4115 40.5541Z" fill="#1071B9"/>
<path d="M34.4115 40.5541C35.8663 40.5541 37.2317 39.9099 38.1578 38.7863C38.4923 38.3807 38.4344 37.7808 38.0288 37.4464C37.6232 37.1122 37.0232 37.1698 36.689 37.5755C36.1259 38.2587 35.2956 38.6505 34.4115 38.6505C33.6237 38.6505 32.8831 38.3436 32.326 37.7867C31.9544 37.4149 31.3516 37.4149 30.9799 37.7867C30.6083 38.1584 30.6083 38.761 30.9799 39.1328C31.8965 40.0493 33.1152 40.5541 34.4115 40.5541" stroke="#1071B9" stroke-width="1.5"/>
<path fill-rule="evenodd" clip-rule="evenodd" d="M20.8422 48.2808C20.8422 47.7551 20.4159 47.329 19.8903 47.329C19.3647 47.329 18.9385 47.7551 18.9385 48.2808C18.9385 49.8183 19.7609 51.2403 21.2544 52.2846C22.6441 53.2565 24.4749 53.7918 26.4095 53.7918C28.3444 53.7918 30.1754 53.2565 31.5651 52.2846C33.0585 51.2403 33.8809 49.8183 33.8809 48.2808C33.8809 47.7551 33.4546 47.329 32.929 47.329C32.4033 47.329 31.9772 47.7551 31.9772 48.2808C31.9772 50.2362 29.4276 51.8881 26.4095 51.8881C23.3918 51.8881 20.8422 50.2362 20.8422 48.2808Z" fill="#1071B9"/>
<path d="M20.8422 48.2808C20.8422 47.7551 20.4159 47.329 19.8903 47.329C19.3647 47.329 18.9385 47.7551 18.9385 48.2808C18.9385 49.8183 19.7609 51.2403 21.2544 52.2846C22.6441 53.2565 24.4749 53.7918 26.4095 53.7918C28.3444 53.7918 30.1754 53.2565 31.5651 52.2846C33.0585 51.2403 33.8809 49.8183 33.8809 48.2808C33.8809 47.7551 33.4547 47.329 32.929 47.329C32.4033 47.329 31.9772 47.7551 31.9772 48.2808C31.9772 50.2362 29.4276 51.8881 26.4095 51.8881C23.3918 51.8881 20.8422 50.2362 20.8422 48.2808" stroke="#1071B9" stroke-width="1.5"/>
<mask id="mask0" mask-type="alpha" maskUnits="userSpaceOnUse" x="0" y="0" width="55" height="101">
<path fill-rule="evenodd" clip-rule="evenodd" d="M0 0.147217H54.6578V100.907H0V0.147217Z" fill="white"/>
</mask>
<g mask="url(#mask0)">
<path fill-rule="evenodd" clip-rule="evenodd" d="M52.891 93.4176C52.891 96.5727 50.3233 99.1404 47.1682 99.1404H7.48961C4.33446 99.1404 1.76676 96.5727 1.76676 93.4176V73.3899C1.76676 70.8251 3.46433 68.6476 5.79351 67.9232C6.32943 67.7568 6.89921 67.667 7.48961 67.667H19.9747V70.9252C19.9747 74.4558 22.8472 77.3283 26.3778 77.3283C29.9084 77.3283 32.7808 74.4558 32.7808 70.9252V67.667H47.1682C47.7586 67.667 48.3284 67.7568 48.8643 67.9232C48.8819 67.9291 48.9011 67.935 48.9187 67.9409C51.22 68.6829 52.891 70.8442 52.891 73.3899V93.4176ZM5.80971 66.0195C5.78615 66.0195 5.76407 66.021 5.74198 66.021V24.9702C5.74198 15.2677 13.635 7.37326 23.3375 7.37326H25.4295C25.4281 9.63618 25.4252 15.4812 25.4252 19.9349C25.3251 22.1493 24.9364 25.356 22.7441 27.7278C20.4282 30.2381 16.3748 31.5102 10.6978 31.5102H9.74665V46.2008C9.74665 52.8203 13.847 58.6668 19.9747 60.8385V65.9003H7.48961C7.03614 65.9003 6.59003 65.9415 6.15864 66.0195H5.80971ZM30.247 29.792C32.9457 32.504 36.6177 34.6683 41.1685 36.2289V46.114C41.1685 52.0429 37.4554 57.2711 31.9284 59.1218C31.8032 59.1645 31.6766 59.2042 31.55 59.244C31.5485 59.2454 31.5456 59.2454 31.5426 59.2469C29.8745 59.7622 28.1357 60.0243 26.3778 60.0243C24.6197 60.0243 22.8825 59.7622 21.2129 59.2469C21.2115 59.2454 21.2085 59.2454 21.2056 59.244C21.0804 59.2057 20.9553 59.1645 20.8316 59.1232C15.3399 57.2843 11.6503 52.0915 11.6503 46.2008V33.4021C17.46 33.2622 21.553 31.8253 24.1428 29.0205C25.3766 27.6837 26.1304 26.1643 26.5927 24.6669C27.4938 26.5382 28.7158 28.2535 30.247 29.792ZM21.8784 67.667V65.9003V61.3979C23.3478 61.7484 24.8554 61.928 26.3778 61.928C27.9001 61.928 29.4078 61.7484 30.877 61.3979V65.9003V67.667V70.9252C30.877 73.4061 28.8586 75.4246 26.3778 75.4246C23.897 75.4246 21.8784 73.4061 21.8784 70.9252V67.667ZM27.3289 19.9791C27.351 19.4991 27.3628 18.9912 27.3628 18.3831C27.3628 18.2977 27.351 18.2138 27.3289 18.1358C27.3304 14.0236 27.3318 9.3432 27.3333 7.37326H29.4196C32.5379 7.37326 35.4707 8.19038 38.0134 9.62146C36.3306 10.1191 34.7832 11.0319 33.5214 12.3025C33.1136 12.5307 32.8868 13.0019 32.9766 13.4671C32.9825 13.5186 32.9943 13.5746 33.0118 13.6335C33.0694 13.8249 33.1784 13.9957 33.3138 14.1179C33.4478 14.243 33.6142 14.3328 33.7938 14.3785L33.8188 14.3844C35.8889 14.8481 38.0134 14.6774 39.9465 13.9265C39.3606 15.9067 39.3635 18.0313 39.9907 20.0483L40.1512 20.5592L40.4206 20.6269C40.5384 20.7079 40.6694 20.7639 40.8005 20.7904C40.8756 20.808 40.9521 20.8154 41.0287 20.8154C41.2024 20.8154 41.3747 20.7742 41.5322 20.6932C41.5705 20.674 41.6014 20.6549 41.6279 20.6372C41.7 20.5931 41.7648 20.5415 41.8237 20.4826L41.8429 20.462C43.0987 19.0898 43.9497 17.4379 44.3486 15.6697C46.0374 18.3699 47.0151 21.5574 47.0151 24.9702V65.9003H32.7808V60.8385C38.9468 58.655 43.0722 52.7732 43.0722 46.114V34.8508L42.4141 34.6374C34.1884 31.9696 29.1148 27.4731 27.3289 21.2718V19.9791ZM40.6665 11.4501C39.2369 12.3305 37.5953 12.7737 35.9345 12.7354C37.2007 11.8167 38.6951 11.2601 40.2629 11.1217C40.4 11.2292 40.534 11.3382 40.6665 11.4501ZM39.9156 6.95218C40.5929 7.57496 41.1641 8.30228 41.6161 9.11941C40.7666 8.73661 39.9936 8.22719 39.3164 7.60441C38.6318 6.97426 38.0545 6.23811 37.6056 5.42834C38.4492 5.80672 39.231 6.32203 39.9156 6.95218ZM42.3361 13.0357C42.4598 13.1697 42.5834 13.3052 42.7027 13.4421C42.6835 14.9895 42.2566 16.4927 41.4645 17.806C41.2952 16.1717 41.594 14.5198 42.3361 13.0357ZM44.7462 3.14774C44.9479 5.01757 44.5342 6.90948 43.5448 8.54963C43.3446 6.64152 43.773 4.75256 44.7462 3.14774ZM50.2497 8.24928C48.7421 9.33731 46.9091 9.91445 45.0186 9.88206C46.557 8.77783 48.3872 8.21247 50.2497 8.24928ZM48.5948 15.5416C47.7512 15.1617 46.9709 14.6479 46.2863 14.0178C45.609 13.395 45.0378 12.6677 44.5858 11.852C45.4353 12.2333 46.2082 12.7427 46.887 13.367C47.5701 13.9942 48.1458 14.7304 48.5948 15.5416ZM48.9187 66.1078V24.9702C48.9187 22.1243 48.3048 19.4196 47.205 16.9786C48.0221 17.4129 48.8967 17.7383 49.8051 17.9444C49.9184 17.9709 50.0186 17.9724 50.0906 17.9694C50.3955 17.9694 50.684 17.8457 50.8887 17.622C51.086 17.407 51.1876 17.1287 51.1758 16.8387C51.1684 16.6443 51.1095 16.4588 51.005 16.2954C50.4352 14.6405 49.4591 13.1462 48.1752 11.9668C48 11.8049 47.8189 11.6488 47.6334 11.5001C49.5342 11.0481 51.2877 10.0735 52.6878 8.65858C53.1295 8.4127 53.3577 7.88267 53.2046 7.38798C53.187 7.32614 53.1619 7.26578 53.1325 7.20983C52.9882 6.89476 52.7026 6.66213 52.3713 6.59293C50.3101 6.13652 48.1929 6.30878 46.2671 7.05671C46.856 5.0691 46.8502 2.93721 46.2171 0.912789L46.195 0.845063L46.1641 0.780281C46.1405 0.731695 46.1153 0.690471 46.0949 0.659553C46.0801 0.637468 46.0654 0.615383 46.0507 0.593299L46.033 0.571214C45.8726 0.365092 45.6561 0.226695 45.4088 0.17222C45.1629 0.117745 44.9038 0.15308 44.677 0.269392C44.6388 0.288532 44.6078 0.307672 44.5813 0.32534L44.5092 0.365092L44.4297 0.437235L44.3679 0.499071C42.9309 2.06413 42.0195 3.99432 41.7104 6.04965C41.5484 5.8774 41.3791 5.71102 41.2039 5.55054C39.8508 4.30498 38.1886 3.4319 36.3981 3.02554C36.3497 3.01377 36.2996 3.0064 36.2496 3.00346C35.9006 2.95929 35.5546 3.08149 35.3191 3.34062C34.9878 3.70133 34.9451 4.22694 35.1792 4.62888C35.4192 5.33706 35.7356 6.01726 36.1185 6.65624C34.0279 5.88917 31.7708 5.46957 29.4196 5.46957H23.3375C12.5852 5.46957 3.83829 14.218 3.83829 24.9702V66.8528C1.54886 68.1352 0 70.5851 0 73.3899V93.4176C0 97.5474 3.3598 100.907 7.48961 100.907H47.1682C51.298 100.907 54.6578 97.5474 54.6578 93.4176V73.3899C54.6578 69.8622 52.2079 66.897 48.9187 66.1078Z" fill="#1071B9"/>
<path d="M5.79351 67.9232L5.57115 67.2069L5.57079 67.207L5.79351 67.9232ZM19.9747 67.667H20.7247V66.917H19.9747V67.667ZM32.7808 67.667V66.917H32.0308V67.667H32.7808ZM48.8643 67.9232L49.1014 67.2117L49.0941 67.2092L49.0866 67.2069L48.8643 67.9232ZM48.9187 67.9409L48.6816 68.6524L48.6886 68.6547L48.9187 67.9409ZM5.74198 66.021H4.99198V66.771H5.74198V66.021ZM25.4295 7.37326L26.1795 7.37369L26.1799 6.62326H25.4295V7.37326ZM25.4252 19.9349L26.1744 19.9688L26.1752 19.9519V19.9349H25.4252ZM22.7441 27.7278L22.1934 27.2188L22.1929 27.2193L22.7441 27.7278ZM9.74665 31.5102V30.7602H8.99665V31.5102H9.74665ZM19.9747 60.8385H20.7247V60.3086L20.2253 60.1316L19.9747 60.8385ZM19.9747 65.9003V66.6503H20.7247V65.9003H19.9747ZM6.15864 66.0195V66.7695H6.22593L6.29214 66.7575L6.15864 66.0195ZM41.1685 36.2289H41.9185V35.6932L41.4118 35.5195L41.1685 36.2289ZM31.9284 59.1218L31.6902 58.4106L31.6862 58.4119L31.9284 59.1218ZM31.55 59.244L31.3253 58.5284L31.1498 58.5835L31.0197 58.7136L31.55 59.244ZM31.5426 59.2469L31.764 59.9635L31.8229 59.9453L31.878 59.9177L31.5426 59.2469ZM21.2129 59.2469L20.6826 59.7772L20.8141 59.9087L20.9918 59.9636L21.2129 59.2469ZM21.2056 59.244L21.541 58.5732L21.4849 58.5451L21.425 58.5268L21.2056 59.244ZM20.8316 59.1232L20.5935 59.8344L20.5944 59.8348L20.8316 59.1232ZM11.6503 33.4021L11.6323 32.6523L10.9003 32.6699V33.4021H11.6503ZM24.1428 29.0205L24.6939 29.5293L24.694 29.5292L24.1428 29.0205ZM26.5927 24.6669L27.2685 24.3416L26.4397 22.6203L25.8761 24.4457L26.5927 24.6669ZM21.8784 61.3979L22.0524 60.6684L21.1284 60.4481V61.3979H21.8784ZM30.877 61.3979H31.627V60.448L30.703 60.6684L30.877 61.3979ZM27.3289 19.9791L26.5797 19.9446L26.5789 19.9619V19.9791H27.3289ZM27.3289 18.1358L26.5789 18.1355L26.5789 18.2397L26.6072 18.34L27.3289 18.1358ZM27.3333 7.37326V6.62326H26.5839L26.5833 7.37269L27.3333 7.37326ZM38.0134 9.62146L38.2261 10.3407L39.9268 9.83775L38.3813 8.96787L38.0134 9.62146ZM33.5214 12.3025L33.8876 12.957L33.9794 12.9057L34.0536 12.831L33.5214 12.3025ZM32.9766 13.4671L33.7218 13.382L33.7185 13.3533L33.7131 13.325L32.9766 13.4671ZM33.0118 13.6335L32.293 13.8474L32.2936 13.8495L33.0118 13.6335ZM33.3138 14.1179L33.8258 13.5697L33.8162 13.561L33.3138 14.1179ZM33.7938 14.3785L33.609 15.1055L33.622 15.1085L33.7938 14.3785ZM33.8188 14.3844L33.647 15.1145L33.6548 15.1162L33.8188 14.3844ZM39.9465 13.9265L40.6657 14.1393L41.0993 12.6741L39.675 13.2274L39.9465 13.9265ZM39.9907 20.0483L39.2745 20.271L39.2752 20.2731L39.9907 20.0483ZM40.1512 20.5592L39.4356 20.784L39.5614 21.1843L39.9683 21.2866L40.1512 20.5592ZM40.4206 20.6269L40.8455 20.0089L40.7343 19.9325L40.6035 19.8996L40.4206 20.6269ZM40.8005 20.7904L40.9722 20.0603L40.9607 20.0576L40.9491 20.0552L40.8005 20.7904ZM41.5322 20.6932L41.1968 20.0223L41.1893 20.0261L41.5322 20.6932ZM41.6279 20.6372L41.2363 19.9976L41.2239 20.0052L41.2119 20.0132L41.6279 20.6372ZM41.8237 20.4826L42.354 21.013L42.3639 21.0032L42.3733 20.993L41.8237 20.4826ZM41.8429 20.462L42.3925 20.9724L42.3961 20.9684L41.8429 20.462ZM44.3486 15.6697L44.9844 15.272L44.018 13.7268L43.617 15.5047L44.3486 15.6697ZM47.0151 65.9003V66.6503H47.7651V65.9003H47.0151ZM32.7808 65.9003H32.0308V66.6503H32.7808V65.9003ZM32.7808 60.8385L32.5305 60.1315L32.0308 60.3084V60.8385H32.7808ZM43.0722 34.8508H43.8222V34.3057L43.3036 34.1374L43.0722 34.8508ZM42.4141 34.6374L42.6455 33.924L42.6455 33.924L42.4141 34.6374ZM27.3289 21.2718H26.5789V21.3776L26.6082 21.4794L27.3289 21.2718ZM35.9345 12.7354L35.494 12.1283L33.6946 13.434L35.9172 13.4852L35.9345 12.7354ZM40.2629 11.1217L40.7257 10.5315L40.4924 10.3486L40.197 10.3746L40.2629 11.1217ZM41.6161 9.11941L41.308 9.80319L43.3639 10.7296L42.2724 8.75638L41.6161 9.11941ZM39.3164 7.60441L38.8085 8.15624L38.8087 8.15648L39.3164 7.60441ZM37.6056 5.42834L37.9125 4.74402L35.8578 3.82245L36.9496 5.79198L37.6056 5.42834ZM42.7027 13.4421L43.4526 13.4514L43.4562 13.1653L43.2682 12.9495L42.7027 13.4421ZM41.4645 17.806L40.7185 17.8833L40.9494 20.1122L42.1067 18.1933L41.4645 17.806ZM43.5448 8.54963L42.7989 8.6279L43.0323 10.8513L44.187 8.93702L43.5448 8.54963ZM45.0186 9.88206L44.5813 9.27277L42.7417 10.5932L45.0058 10.6319L45.0186 9.88206ZM46.2863 14.0178L46.7942 13.4659L46.7939 13.4657L46.2863 14.0178ZM44.5858 11.852L44.8929 11.1678L42.838 10.2454L43.9297 12.2155L44.5858 11.852ZM46.887 13.367L46.3793 13.919L46.3797 13.9195L46.887 13.367ZM47.205 16.9786L47.557 16.3163L45.6202 15.2868L46.5212 17.2866L47.205 16.9786ZM49.8051 17.9444L49.9758 17.2141L49.971 17.213L49.8051 17.9444ZM50.0906 17.9694V17.2194H50.0752L50.0599 17.22L50.0906 17.9694ZM50.8887 17.622L50.3361 17.1148L50.3352 17.1158L50.8887 17.622ZM51.1758 16.8387L50.4263 16.8671L50.4264 16.8691L51.1758 16.8387ZM51.005 16.2954L50.2959 16.5396L50.325 16.6242L50.3732 16.6995L51.005 16.2954ZM48.1752 11.9668L47.6661 12.5176L47.6679 12.5192L48.1752 11.9668ZM47.6334 11.5001L47.4599 10.7705L45.9669 11.1255L47.1643 12.0853L47.6334 11.5001ZM52.6878 8.65858L52.3231 8.00327L52.2298 8.05517L52.1547 8.13103L52.6878 8.65858ZM53.2046 7.38798L52.4835 7.59402L52.4857 7.60191L52.4882 7.60974L53.2046 7.38798ZM53.1325 7.20983L52.4506 7.5221L52.4592 7.54087L52.4688 7.55914L53.1325 7.20983ZM52.3713 6.59293L52.2091 7.32525L52.2179 7.32709L52.3713 6.59293ZM46.2671 7.05671L45.548 6.84364L45.1138 8.30922L46.5387 7.75583L46.2671 7.05671ZM46.2171 0.912789L46.9329 0.688918L46.9301 0.680249L46.2171 0.912789ZM46.195 0.845063L46.908 0.612523L46.8929 0.566092L46.8718 0.522018L46.195 0.845063ZM46.1641 0.780281L46.8409 0.45723L46.8389 0.453076L46.1641 0.780281ZM46.0949 0.659553L46.7203 0.245589L46.7189 0.243527L46.0949 0.659553ZM46.0507 0.593299L46.6747 0.177274L46.6567 0.150175L46.6363 0.124744L46.0507 0.593299ZM46.033 0.571214L45.4412 1.032L45.4474 1.03977L46.033 0.571214ZM45.4088 0.17222L45.2465 0.904464L45.2475 0.904667L45.4088 0.17222ZM44.677 0.269392L45.0125 0.940248L45.0194 0.93671L44.677 0.269392ZM44.5813 0.32534L44.9433 0.98222L44.971 0.96694L44.9974 0.949377L44.5813 0.32534ZM44.5092 0.365092L44.1472 -0.291788L44.0703 -0.249377L44.0052 -0.190321L44.5092 0.365092ZM44.4297 0.437235L43.9257 -0.118178L43.9122 -0.105955L43.8994 -0.0930933L44.4297 0.437235ZM44.3679 0.499071L43.8375 -0.0312566L43.8262 -0.0199487L43.8154 -0.00816901L44.3679 0.499071ZM41.7104 6.04965L41.1639 6.56339L42.2222 7.68899L42.452 6.16122L41.7104 6.04965ZM41.2039 5.55054L40.6959 6.10234L40.6973 6.1036L41.2039 5.55054ZM36.3981 3.02554L36.2209 3.75439L36.2321 3.75694L36.3981 3.02554ZM36.2496 3.00346L36.1554 3.74752L36.1804 3.75069L36.2055 3.75217L36.2496 3.00346ZM35.3191 3.34062L35.8715 3.84793L35.874 3.84512L35.3191 3.34062ZM35.1792 4.62888L35.8895 4.38817L35.8653 4.31666L35.8273 4.25142L35.1792 4.62888ZM36.1185 6.65624L35.8602 7.36035L37.8531 8.09155L36.7619 6.2707L36.1185 6.65624ZM3.83829 66.8528L4.20481 67.5072L4.58829 67.2924V66.8528H3.83829ZM52.141 93.4176C52.141 96.1585 49.9091 98.3904 47.1682 98.3904V99.8904C50.7375 99.8904 53.641 96.987 53.641 93.4176H52.141ZM47.1682 98.3904H7.48961V99.8904H47.1682V98.3904ZM7.48961 98.3904C4.74867 98.3904 2.51676 96.1585 2.51676 93.4176H1.01676C1.01676 96.987 3.92025 99.8904 7.48961 99.8904V98.3904ZM2.51676 93.4176V73.3899H1.01676V93.4176H2.51676ZM2.51676 73.3899C2.51676 71.1636 3.99097 69.2692 6.01624 68.6394L5.57079 67.207C2.93768 68.0259 1.01676 70.4867 1.01676 73.3899H2.51676ZM6.01587 68.6395C6.48078 68.4951 6.97564 68.417 7.48961 68.417V66.917C6.82279 66.917 6.17808 67.0185 5.57115 67.2069L6.01587 68.6395ZM7.48961 68.417H19.9747V66.917H7.48961V68.417ZM19.2247 67.667V70.9252H20.7247V67.667H19.2247ZM19.2247 70.9252C19.2247 74.87 22.433 78.0783 26.3778 78.0783V76.5783C23.2614 76.5783 20.7247 74.0416 20.7247 70.9252H19.2247ZM26.3778 78.0783C30.3226 78.0783 33.5308 74.87 33.5308 70.9252H32.0308C32.0308 74.0416 29.4942 76.5783 26.3778 76.5783V78.0783ZM33.5308 70.9252V67.667H32.0308V70.9252H33.5308ZM32.7808 68.417H47.1682V66.917H32.7808V68.417ZM47.1682 68.417C47.6821 68.417 48.177 68.4951 48.6419 68.6395L49.0866 67.2069C48.4797 67.0185 47.835 66.917 47.1682 66.917V68.417ZM48.6271 68.6347C48.641 68.6393 48.6546 68.6437 48.6629 68.6463C48.673 68.6496 48.6778 68.6511 48.6816 68.6524L49.1559 67.2293C49.142 67.2247 49.1285 67.2204 49.1201 67.2177C49.1101 67.2145 49.1052 67.213 49.1014 67.2117L48.6271 68.6347ZM48.6886 68.6547C50.6902 69.3001 52.141 71.1804 52.141 73.3899H53.641C53.641 70.5081 51.7497 68.0657 49.1489 67.2271L48.6886 68.6547ZM52.141 73.3899V93.4176H53.641V73.3899H52.141ZM5.80971 65.2695C5.78388 65.2695 5.76069 65.2703 5.75078 65.2706C5.73704 65.2711 5.73857 65.271 5.74198 65.271V66.771C5.76748 66.771 5.79109 66.7701 5.79981 66.7698C5.81235 66.7694 5.81198 66.7695 5.80971 66.7695V65.2695ZM6.49198 66.021V24.9702H4.99198V66.021H6.49198ZM6.49198 24.9702C6.49198 15.6819 14.0493 8.12326 23.3375 8.12326V6.62326C13.2207 6.62326 4.99198 14.8536 4.99198 24.9702H6.49198ZM23.3375 8.12326H25.4295V6.62326H23.3375V8.12326ZM24.6795 7.37282C24.6781 9.63578 24.6752 15.481 24.6752 19.9349H26.1752C26.1752 15.4815 26.1781 9.63659 26.1795 7.37369L24.6795 7.37282ZM24.676 19.9011C24.5769 22.0917 24.1915 25.0569 22.1934 27.2188L23.2949 28.2369C25.6813 25.655 26.0732 22.2069 26.1744 19.9688L24.676 19.9011ZM22.1929 27.2193C20.0892 29.4995 16.2985 30.7602 10.6978 30.7602V32.2602C16.4512 32.2602 20.7672 30.9768 23.2954 28.2364L22.1929 27.2193ZM10.6978 30.7602H9.74665V32.2602H10.6978V30.7602ZM8.99665 31.5102V46.2008H10.4966V31.5102H8.99665ZM8.99665 46.2008C8.99665 53.1321 13.2917 59.2657 19.7242 61.5454L20.2253 60.1316C14.4024 58.0679 10.4966 52.5085 10.4966 46.2008H8.99665ZM19.2247 60.8385V65.9003H20.7247V60.8385H19.2247ZM19.9747 65.1503H7.48961V66.6503H19.9747V65.1503ZM7.48961 65.1503C6.99078 65.1503 6.5 65.1956 6.02515 65.2815L6.29214 66.7575C6.68006 66.6874 7.08149 66.6503 7.48961 66.6503V65.1503ZM6.15864 65.2695H5.80971V66.7695H6.15864V65.2695ZM29.7154 30.321C32.5132 33.1327 36.2929 35.3498 40.9253 36.9384L41.4118 35.5195C36.9424 33.9868 33.3782 31.8753 30.7786 29.263L29.7154 30.321ZM40.4185 36.2289V46.114H41.9185V36.2289H40.4185ZM40.4185 46.114C40.4185 51.7282 36.9043 56.6647 31.6902 58.4106L32.1665 59.833C38.0065 57.8775 41.9185 52.3577 41.9185 46.114H40.4185ZM31.6862 58.4119C31.5712 58.4512 31.4534 58.4882 31.3253 58.5284L31.7746 59.9595C31.8998 59.9202 32.0352 59.8778 32.1705 59.8316L31.6862 58.4119ZM31.0197 58.7136C31.1078 58.6255 31.1979 58.5795 31.2496 58.557C31.2981 58.5359 31.3389 58.5248 31.3408 58.5243C31.3564 58.5199 31.3313 58.5269 31.3146 58.5323C31.291 58.5399 31.2524 58.5535 31.2072 58.5761L31.878 59.9177C31.8344 59.9396 31.7972 59.9527 31.7751 59.9598C31.7597 59.9648 31.736 59.9714 31.7529 59.9666C31.7561 59.9657 31.7981 59.9542 31.8477 59.9326C31.9005 59.9097 31.9914 59.8632 32.0803 59.7743L31.0197 58.7136ZM31.3213 58.5303C29.7252 59.0234 28.061 59.2743 26.3778 59.2743V60.7743C28.2104 60.7743 30.0238 60.5011 31.764 59.9635L31.3213 58.5303ZM26.3778 59.2743C24.6945 59.2743 23.0319 59.0234 21.4341 58.5303L20.9918 59.9636C22.7332 60.501 24.5449 60.7743 26.3778 60.7743V59.2743ZM21.7433 58.7166C21.6544 58.6277 21.5635 58.5812 21.5107 58.5583C21.4611 58.5367 21.4191 58.5252 21.4159 58.5243C21.399 58.5195 21.4227 58.5261 21.4381 58.5311C21.4602 58.5382 21.4973 58.5513 21.541 58.5732L20.8702 59.9148C20.9153 59.9374 20.9539 59.951 20.9775 59.9586C20.9942 59.964 21.0193 59.971 21.0037 59.9666C21.0018 59.966 20.961 59.9549 20.9125 59.9338C20.8608 59.9113 20.7707 59.8654 20.6826 59.7772L21.7433 58.7166ZM21.425 58.5268C21.3093 58.4914 21.1916 58.4527 21.0688 58.4117L20.5944 59.8348C20.719 59.8763 20.8516 59.92 20.9862 59.9612L21.425 58.5268ZM21.0698 58.4121C15.8909 56.6779 12.4003 51.7766 12.4003 46.2008H10.9003C10.9003 52.4064 14.7889 57.8908 20.5935 59.8344L21.0698 58.4121ZM12.4003 46.2008V33.4021H10.9003V46.2008H12.4003ZM11.6684 34.1519C17.5767 34.0096 21.9088 32.5456 24.6939 29.5293L23.5918 28.5117C21.1973 31.105 17.3434 32.5148 11.6323 32.6523L11.6684 34.1519ZM24.694 29.5292C26.0189 28.0936 26.8214 26.4688 27.3094 24.8882L25.8761 24.4457C25.4395 25.8597 24.7344 27.2737 23.5917 28.5119L24.694 29.5292ZM25.917 24.9923C26.8559 26.9422 28.1276 28.7256 29.7154 30.3211L30.7786 29.263C29.304 27.7813 28.1317 26.1343 27.2685 24.3416L25.917 24.9923ZM22.6284 67.667V65.9003H21.1284V67.667H22.6284ZM22.6284 65.9003V61.3979H21.1284V65.9003H22.6284ZM21.7044 62.1275C23.2303 62.4914 24.7963 62.678 26.3778 62.678V61.178C24.9146 61.178 23.4653 61.0053 22.0524 60.6684L21.7044 62.1275ZM26.3778 62.678C27.9593 62.678 29.5253 62.4914 31.051 62.1275L30.703 60.6684C29.2903 61.0053 27.841 61.178 26.3778 61.178V62.678ZM30.127 61.3979V65.9003H31.627V61.3979H30.127ZM30.127 65.9003V67.667H31.627V65.9003H30.127ZM30.127 67.667V70.9252H31.627V67.667H30.127ZM30.127 70.9252C30.127 72.9919 28.4444 74.6746 26.3778 74.6746V76.1746C29.2729 76.1746 31.627 73.8202 31.627 70.9252H30.127ZM26.3778 74.6746C24.3112 74.6746 22.6284 72.9918 22.6284 70.9252H21.1284C21.1284 73.8203 23.4827 76.1746 26.3778 76.1746V74.6746ZM22.6284 70.9252V67.667H21.1284V70.9252H22.6284ZM28.0781 20.0136C28.1008 19.5209 28.1128 19.0014 28.1128 18.3831H26.6128C26.6128 18.981 26.6012 19.4774 26.5797 19.9446L28.0781 20.0136ZM28.1128 18.3831C28.1128 18.2297 28.0917 18.077 28.0505 17.9315L26.6072 18.34C26.6102 18.3507 26.6128 18.3658 26.6128 18.3831H28.1128ZM28.0789 18.1361C28.0804 14.0238 28.0818 9.34356 28.0833 7.37382L26.5833 7.37269C26.5818 9.34283 26.5804 14.0235 26.5789 18.1355L28.0789 18.1361ZM27.3333 8.12326H29.4196V6.62326H27.3333V8.12326ZM29.4196 8.12326C32.4053 8.12326 35.2119 8.90534 37.6455 10.2751L38.3813 8.96787C35.7296 7.47543 32.6705 6.62326 29.4196 6.62326V8.12326ZM37.8007 8.90225C35.9984 9.4352 34.3408 10.413 32.9892 11.774L34.0536 12.831C35.2255 11.6508 36.6627 10.803 38.2261 10.3407L37.8007 8.90225ZM33.1552 11.648C32.4713 12.0307 32.0878 12.8195 32.2402 13.6093L33.7131 13.325C33.6859 13.1842 33.7559 13.0308 33.8876 12.957L33.1552 11.648ZM32.2315 13.5523C32.2431 13.6538 32.2649 13.7531 32.293 13.8474L33.7307 13.4196C33.7237 13.3961 33.722 13.3835 33.7218 13.382L32.2315 13.5523ZM32.2936 13.8495C32.3894 14.1678 32.5709 14.4578 32.8114 14.6747L33.8162 13.561C33.7858 13.5335 33.7495 13.482 33.7301 13.4175L32.2936 13.8495ZM32.8018 14.666C33.0306 14.8796 33.3104 15.0295 33.6091 15.1054L33.9785 13.6516C33.9179 13.6362 33.865 13.6064 33.8258 13.5698L32.8018 14.666ZM33.622 15.1085L33.647 15.1144L33.9906 13.6543L33.9656 13.6484L33.622 15.1085ZM33.6548 15.1162C35.8711 15.6128 38.1472 15.43 40.2181 14.6256L39.675 13.2274C37.8796 13.9247 35.9066 14.0835 33.9828 13.6525L33.6548 15.1162ZM39.2274 13.7137C38.5996 15.835 38.6029 18.1111 39.2745 20.271L40.7069 19.8256C40.1241 17.9514 40.1215 15.9784 40.6657 14.1393L39.2274 13.7137ZM39.2752 20.2731L39.4356 20.784L40.8667 20.3344L40.7062 19.8236L39.2752 20.2731ZM39.9683 21.2866L40.2378 21.3543L40.6035 19.8996L40.334 19.8318L39.9683 21.2866ZM39.9957 21.245C40.1928 21.3804 40.4171 21.478 40.6518 21.5255L40.9491 20.0552C40.9217 20.0497 40.884 20.0354 40.8455 20.0089L39.9957 21.245ZM40.6287 21.5204C40.7691 21.5535 40.9044 21.5654 41.0287 21.5654V20.0654C40.9998 20.0654 40.982 20.0626 40.9722 20.0603L40.6287 21.5204ZM41.0287 21.5654C41.3215 21.5654 41.6114 21.4958 41.8751 21.3602L41.1893 20.0261C41.138 20.0525 41.0833 20.0654 41.0287 20.0654V21.5654ZM41.8676 21.364C41.9415 21.327 42 21.2905 42.0439 21.2613L41.2119 20.0132C41.2067 20.0166 41.2038 20.0184 41.2019 20.0196C41.2001 20.0206 41.1986 20.0215 41.1968 20.0224L41.8676 21.364ZM42.0195 21.2769C42.1436 21.2009 42.2547 21.1123 42.354 21.013L41.2934 19.9523C41.275 19.9707 41.2565 19.9852 41.2363 19.9976L42.0195 21.2769ZM42.3733 20.993L42.3925 20.9724L41.2933 19.9517L41.2741 19.9723L42.3733 20.993ZM42.3961 20.9684C43.741 19.4989 44.6529 17.729 45.0802 15.8347L43.617 15.5047C43.2465 17.1468 42.4564 18.6808 41.2896 19.9557L42.3961 20.9684ZM43.7127 16.0674C45.3295 18.6523 46.2651 21.7027 46.2651 24.9702H47.7651C47.7651 21.4122 46.7454 18.0875 44.9844 15.272L43.7127 16.0674ZM46.2651 24.9702V65.9003H47.7651V24.9702H46.2651ZM47.0151 65.1503H32.7808V66.6503H47.0151V65.1503ZM33.5308 65.9003V60.8385H32.0308V65.9003H33.5308ZM33.0312 61.5455C39.5021 59.254 43.8222 53.0851 43.8222 46.114H42.3222C42.3222 52.4613 38.3915 58.056 32.5305 60.1315L33.0312 61.5455ZM43.8222 46.114V34.8508H42.3222V46.114H43.8222ZM43.3036 34.1374L42.6455 33.924L42.1827 35.3508L42.8408 35.5643L43.3036 34.1374ZM42.6455 33.924C34.5679 31.3042 29.7442 26.9486 28.0496 21.0642L26.6082 21.4794C28.4854 27.9977 33.8088 32.6349 42.1827 35.3508L42.6455 33.924ZM28.0789 21.2718V19.9791H26.5789V21.2718H28.0789ZM40.2732 10.8115C38.9665 11.6162 37.4675 12.0205 35.9518 11.9856L35.9172 13.4852C37.7231 13.5268 39.5072 13.0448 41.0598 12.0887L40.2732 10.8115ZM36.375 13.3424C37.5303 12.5041 38.8951 11.9954 40.3289 11.8688L40.197 10.3746C38.4951 10.5249 36.871 11.1292 35.494 12.1283L36.375 13.3424ZM39.8002 11.7119C39.9303 11.814 40.0572 11.9172 40.1826 12.0231L41.1504 10.877C41.0108 10.7592 40.8698 10.6445 40.7257 10.5315L39.8002 11.7119ZM39.4079 7.50424C40.0252 8.07185 40.5465 8.73516 40.9598 9.48243L42.2724 8.75638C41.7818 7.8694 41.1605 7.07808 40.4233 6.40011L39.4079 7.50424ZM41.9242 8.43562C41.147 8.08541 40.4416 7.62023 39.824 7.05234L38.8087 8.15648C39.5457 8.83415 40.3862 9.38781 41.308 9.80319L41.9242 8.43562ZM39.8243 7.05258C39.1992 6.4772 38.6717 5.8047 38.2615 5.06471L36.9496 5.79198C37.4372 6.67152 38.0643 7.47132 38.8085 8.15624L39.8243 7.05258ZM37.2986 6.11266C38.0684 6.45789 38.7823 6.9284 39.4077 7.50401L40.4235 6.40035C39.6797 5.71567 38.83 5.15556 37.9125 4.74402L37.2986 6.11266ZM41.785 13.5444C41.9073 13.677 42.0251 13.8061 42.1371 13.9347L43.2682 12.9495C43.1417 12.8043 43.0122 12.6625 42.8872 12.527L41.785 13.5444ZM41.9527 13.4328C41.9352 14.8479 41.5449 16.2204 40.8222 17.4186L42.1067 18.1933C42.9682 16.765 43.4318 15.1311 43.4526 13.4514L41.9527 13.4328ZM42.2105 17.7287C42.0559 16.2364 42.3286 14.7277 43.0069 13.3711L41.6653 12.7003C40.8594 14.312 40.5344 16.107 40.7185 17.8833L42.2105 17.7287ZM44.0006 3.22818C44.1847 4.93468 43.8074 6.66229 42.9026 8.16223L44.187 8.93702C45.261 7.15667 45.7112 5.10046 45.4919 3.06731L44.0006 3.22818ZM44.2907 8.47135C44.1076 6.72584 44.4995 5.00102 45.3875 3.53664L44.1049 2.75885C43.0466 4.50409 42.5816 6.5572 42.7989 8.6279L44.2907 8.47135ZM49.8108 7.64111C48.4352 8.63387 46.7608 9.1618 45.0315 9.13217L45.0058 10.6319C47.0573 10.6671 49.049 10.0407 50.6886 8.85744L49.8108 7.64111ZM45.4559 10.4914C46.8631 9.48134 48.5348 8.96553 50.2349 8.99913L50.2645 7.49942C48.2397 7.45941 46.2509 8.07433 44.5813 9.27277L45.4559 10.4914ZM48.9028 14.8577C48.1321 14.5107 47.4194 14.0414 46.7942 13.4659L45.7783 14.5696C46.5224 15.2544 47.3703 15.8128 48.2869 16.2255L48.9028 14.8577ZM46.7939 13.4657C46.1766 12.8981 45.6552 12.2346 45.2418 11.4885L43.9297 12.2155C44.4203 13.1007 45.0414 13.8919 45.7786 14.5698L46.7939 13.4657ZM44.2786 12.5362C45.055 12.8847 45.7602 13.3496 46.3793 13.919L47.3947 12.815C46.6563 12.1359 45.8156 11.5819 44.8929 11.1678L44.2786 12.5362ZM46.3797 13.9195C47.0022 14.4909 47.528 15.1629 47.9387 15.9048L49.251 15.1784C48.7636 14.2978 48.138 13.4975 47.3942 12.8145L46.3797 13.9195ZM49.6687 66.1078V24.9702H48.1687V66.1078H49.6687ZM49.6687 24.9702C49.6687 22.0154 49.0311 19.2059 47.8888 16.6705L46.5212 17.2866C47.5785 19.6333 48.1687 22.2332 48.1687 24.9702H49.6687ZM46.853 17.6408C47.7288 18.1064 48.6659 18.455 49.6391 18.6758L49.971 17.213C49.1274 17.0216 48.3154 16.7194 47.557 16.3163L46.853 17.6408ZM49.6343 18.6747C49.8366 18.722 50.01 18.7233 50.1212 18.7188L50.0599 17.22C50.0272 17.2214 50.0003 17.2198 49.9758 17.2141L49.6343 18.6747ZM50.0906 18.7194C50.5995 18.7194 51.0911 18.512 51.4422 18.1281L50.3352 17.1158C50.277 17.1795 50.1915 17.2194 50.0906 17.2194V18.7194ZM51.4412 18.1291C51.7726 17.768 51.945 17.2965 51.9252 16.8083L50.4264 16.8691C50.4301 16.961 50.3993 17.046 50.3361 17.1148L51.4412 18.1291ZM51.9253 16.8103C51.9128 16.4806 51.8123 16.1656 51.6368 15.8913L50.3732 16.6995C50.4068 16.752 50.4241 16.8081 50.4263 16.8671L51.9253 16.8103ZM51.7141 16.0512C51.104 14.2793 50.0589 12.6787 48.6826 11.4145L47.6679 12.5192C48.8593 13.6136 49.7664 15.0018 50.2959 16.5396L51.7141 16.0512ZM48.6843 11.4161C48.4964 11.2423 48.3019 11.0748 48.1025 10.9149L47.1643 12.0853C47.3359 12.2229 47.5037 12.3674 47.6661 12.5176L48.6843 11.4161ZM47.8069 12.2298C49.8429 11.7456 51.7213 10.7015 53.2209 9.18612L52.1547 8.13103C50.854 9.44542 49.2254 10.3506 47.4599 10.7705L47.8069 12.2298ZM53.0526 9.31388C53.7917 8.90245 54.1832 8.01302 53.9211 7.16622L52.4882 7.60974C52.5323 7.75232 52.4673 7.92295 52.3231 8.00327L53.0526 9.31388ZM53.9258 7.18194C53.8924 7.06533 53.847 6.9571 53.7962 6.86052L52.4688 7.55914C52.4768 7.57445 52.4815 7.58696 52.4835 7.59402L53.9258 7.18194ZM53.8144 6.89756C53.5747 6.37421 53.0979 5.97853 52.5247 5.85878L52.2179 7.32709C52.3072 7.34574 52.4017 7.41531 52.4506 7.5221L53.8144 6.89756ZM52.5334 5.86067C50.3266 5.37201 48.0586 5.55637 45.9956 6.35759L46.5387 7.75583C48.3272 7.06119 50.2935 6.90103 52.2092 7.3252L52.5334 5.86067ZM46.9862 7.26978C47.6172 5.14019 47.6106 2.85619 46.9329 0.688934L45.5013 1.13664C46.0897 3.01822 46.0949 4.99801 45.548 6.84364L46.9862 7.26978ZM46.9301 0.680249L46.908 0.612523L45.4819 1.0776L45.504 1.14533L46.9301 0.680249ZM46.8718 0.522018L46.8409 0.457236L45.4872 1.10333L45.5181 1.16811L46.8718 0.522018ZM46.8389 0.453076C46.797 0.366509 46.7535 0.295746 46.7203 0.245591L45.4695 1.07351C45.4772 1.0852 45.4841 1.09688 45.4892 1.10749L46.8389 0.453076ZM46.7189 0.243527C46.7116 0.2325 46.7042 0.22147 46.6968 0.210425C46.6895 0.199385 46.6821 0.18833 46.6747 0.177274L45.4267 1.00932C45.434 1.02035 45.4414 1.03138 45.4487 1.04243C45.4561 1.05347 45.4635 1.06452 45.4708 1.07558L46.7189 0.243527ZM46.6363 0.124744L46.6187 0.10266L45.4474 1.03977L45.4651 1.06185L46.6363 0.124744ZM46.6248 0.110466C46.3607 -0.228777 45.9941 -0.466836 45.5701 -0.560227L45.2475 0.904667C45.3181 0.920226 45.3844 0.958961 45.4412 1.03196L46.6248 0.110466ZM45.571 -0.560023C45.1494 -0.653433 44.7122 -0.591574 44.3347 -0.397926L45.0194 0.93671C45.0953 0.897734 45.1764 0.888923 45.2465 0.904463L45.571 -0.560023ZM44.3416 -0.401428C44.2677 -0.364467 44.2092 -0.327965 44.1653 -0.298698L44.9974 0.949377C45.0025 0.945951 45.0055 0.944126 45.0073 0.943014C45.0091 0.941953 45.0107 0.941093 45.0125 0.940213L44.3416 -0.401428ZM44.2194 -0.33154L44.1472 -0.291788L44.8711 1.02197L44.9433 0.98222L44.2194 -0.33154ZM44.0052 -0.190321L43.9257 -0.118178L44.9337 0.992648L45.0132 0.920505L44.0052 -0.190321ZM43.8994 -0.0930933L43.8375 -0.0312566L44.8982 1.0294L44.96 0.967563L43.8994 -0.0930933ZM43.8154 -0.00816901C42.2767 1.66767 41.3 3.73588 40.9687 5.93809L42.452 6.16122C42.7391 4.25276 43.5851 2.46059 44.9203 1.00631L43.8154 -0.00816901ZM42.2568 5.53592C42.0812 5.34921 41.8985 5.16976 41.7105 4.99749L40.6973 6.1036C40.8596 6.25229 41.0156 6.40558 41.1639 6.56339L42.2568 5.53592ZM41.7118 4.99875C40.2625 3.66457 38.4824 2.72951 36.5641 2.29414L36.2321 3.75694C37.8948 4.13429 39.4391 4.94538 40.6959 6.10234L41.7118 4.99875ZM36.5753 2.29678C36.4818 2.27403 36.3871 2.26025 36.2936 2.25475L36.2055 3.75217C36.2122 3.75256 36.2176 3.7535 36.2209 3.75431L36.5753 2.29678ZM36.3438 2.2594C35.7615 2.18569 35.1702 2.38942 34.7641 2.83611L35.874 3.84512C35.9391 3.77356 36.0398 3.73289 36.1554 3.74752L36.3438 2.2594ZM34.7667 2.83331C34.2069 3.44288 34.1363 4.32839 34.5311 5.00634L35.8273 4.25142C35.754 4.12549 35.7687 3.95978 35.8715 3.84792L34.7667 2.83331ZM34.4689 4.86959C34.7263 5.62918 35.0653 6.35786 35.4752 7.04179L36.7619 6.2707C36.4058 5.67667 36.1121 5.04494 35.8895 4.38817L34.4689 4.86959ZM36.3769 5.95214C34.205 5.15529 31.8606 4.71957 29.4196 4.71957V6.21957C31.681 6.21957 33.8507 6.62306 35.8602 7.36035L36.3769 5.95214ZM29.4196 4.71957H23.3375V6.21957H29.4196V4.71957ZM23.3375 4.71957C12.171 4.71957 3.08829 13.8039 3.08829 24.9702H4.58829C4.58829 14.6321 12.9995 6.21957 23.3375 6.21957V4.71957ZM3.08829 24.9702V66.8528H4.58829V24.9702H3.08829ZM3.47178 66.1985C0.955627 67.6079 -0.75 70.3023 -0.75 73.3899H0.75C0.75 70.8679 2.1421 68.6626 4.20481 67.5072L3.47178 66.1985ZM-0.75 73.3899V93.4176H0.75V73.3899H-0.75ZM-0.75 93.4176C-0.75 97.9616 2.94558 101.657 7.48961 101.657V100.157C3.77401 100.157 0.75 97.1332 0.75 93.4176H-0.75ZM7.48961 101.657H47.1682V100.157H7.48961V101.657ZM47.1682 101.657C51.7122 101.657 55.4078 97.9616 55.4078 93.4176H53.9078C53.9078 97.1332 50.8838 100.157 47.1682 100.157V101.657ZM55.4078 93.4176V73.3899H53.9078V93.4176H55.4078ZM55.4078 73.3899C55.4078 69.5071 52.7119 66.2467 49.0937 65.3785L48.7438 66.8372C51.7038 67.5473 53.9078 70.2173 53.9078 73.3899H55.4078Z" fill="#1071B9"/>
</g>
</svg>
