<svg width="120" height="67" viewBox="0 0 120 67" fill="none" xmlns="http://www.w3.org/2000/svg">
<mask id="mask0" mask-type="alpha" maskUnits="userSpaceOnUse" x="0" y="0" width="120" height="66">
<path fill-rule="evenodd" clip-rule="evenodd" d="M0 0.151917H119.853V65.9544H0V0.151917Z" fill="white"/>
</mask>
<g mask="url(#mask0)">
<path fill-rule="evenodd" clip-rule="evenodd" d="M117.423 52.3929H106.618C106.611 52.3836 106.603 52.3752 106.596 52.3661C106.508 52.2486 106.418 52.1334 106.324 52.0213C106.31 52.0049 106.296 51.9887 106.282 51.9723C106.187 51.8589 106.089 51.7481 105.988 51.6405C105.977 51.629 105.965 51.6176 105.955 51.606C105.849 51.4947 105.741 51.3859 105.629 51.2808C105.627 51.2782 105.624 51.2758 105.621 51.2731C105.509 51.1674 105.394 51.0653 105.276 50.9662C105.269 50.9596 105.261 50.9527 105.253 50.946C105.139 50.8505 105.022 50.7586 104.904 50.6694C104.888 50.658 104.873 50.6463 104.858 50.6351C104.743 50.5494 104.625 50.4673 104.505 50.3878C104.486 50.3752 104.467 50.3626 104.448 50.3501C104.33 50.2724 104.209 50.1978 104.086 50.1264C104.066 50.1148 104.047 50.1036 104.027 50.0924C103.903 50.0211 103.777 49.9529 103.649 49.8881C103.632 49.8796 103.615 49.8713 103.598 49.8628C103.465 49.7969 103.331 49.7339 103.196 49.6749C103.186 49.671 103.177 49.6673 103.168 49.6634C103.029 49.6037 102.888 49.5477 102.746 49.4954C102.74 49.4933 102.735 49.491 102.729 49.4889C102.588 49.4375 102.445 49.3904 102.3 49.3465C102.284 49.3415 102.267 49.3361 102.25 49.331C102.112 49.2897 101.971 49.2525 101.83 49.2182C101.808 49.2127 101.786 49.2072 101.763 49.2019C101.624 49.1694 101.484 49.1404 101.342 49.1147C101.319 49.1105 101.295 49.1064 101.271 49.1021C101.129 49.0777 100.986 49.0564 100.842 49.0391C100.82 49.0365 100.798 49.0342 100.776 49.0318C100.628 49.0151 100.48 49.0017 100.33 48.9928C100.315 48.9917 100.3 48.9914 100.285 48.9905C100.127 48.9818 99.9693 48.9767 99.8104 48.9767C99.6513 48.9767 99.4932 48.9818 99.3358 48.9905C99.3207 48.9914 99.3055 48.9917 99.2903 48.9926C99.1407 49.0017 98.992 49.0153 98.8442 49.0318C98.8224 49.0342 98.8006 49.0365 98.7788 49.0391C98.6347 49.0564 98.4914 49.0777 98.3491 49.1021C98.3253 49.1062 98.3013 49.1105 98.2776 49.1147C98.136 49.1404 97.9957 49.1694 97.8564 49.2021C97.834 49.2072 97.812 49.2127 97.7898 49.2182C97.6483 49.2524 97.5082 49.2897 97.3692 49.331C97.3525 49.3361 97.336 49.3415 97.3191 49.3465C97.1748 49.3904 97.0319 49.4375 96.8906 49.489C96.885 49.491 96.8796 49.4931 96.8742 49.4952C96.7314 49.5475 96.5904 49.6039 96.4511 49.6636C96.4422 49.6675 96.4331 49.671 96.4243 49.6748C96.288 49.7339 96.1537 49.7971 96.0211 49.8631C96.0044 49.8715 95.9875 49.8796 95.971 49.8879C95.8428 49.9528 95.7164 50.0214 95.5917 50.0927C95.5724 50.1038 95.5531 50.1147 95.5338 50.1259C95.4109 50.1976 95.2896 50.2727 95.1702 50.3506C95.1518 50.3626 95.1334 50.3749 95.115 50.387C94.995 50.4668 94.8767 50.5494 94.7608 50.6354C94.7461 50.6463 94.7317 50.6576 94.7171 50.6687C94.5978 50.7581 94.4804 50.8505 94.3659 50.9466C94.3587 50.9526 94.3519 50.9588 94.3448 50.9647C94.2264 51.0647 94.1104 51.1677 93.9972 51.2743C93.9951 51.2764 93.993 51.2784 93.9907 51.2804C93.8795 51.3855 93.7713 51.4945 93.6655 51.606C93.6544 51.6176 93.6431 51.629 93.6324 51.6405C93.5316 51.7478 93.434 51.8582 93.3384 51.9712C93.3243 51.9882 93.3097 52.0051 93.2953 52.0224C93.2029 52.1334 93.113 52.2474 93.0258 52.3639C93.0184 52.3737 93.0102 52.383 93.0027 52.3929H82.1962V40.0359V9.66816C91.5557 9.78619 100.338 13.4864 106.97 20.1179C113.711 26.8585 117.423 35.8203 117.423 45.3524V52.3929ZM99.8104 63.524C96.4694 63.524 93.7511 60.8059 93.7511 57.4648C93.7511 56.3246 94.0698 55.2144 94.6732 54.253C95.7892 52.4709 97.7096 51.407 99.8104 51.407C100.073 51.407 100.332 51.4238 100.588 51.4563C100.745 51.4763 100.899 51.5043 101.052 51.536C102.651 51.8673 104.056 52.8305 104.948 54.2536L104.949 54.2545C105.55 55.2158 105.868 56.3258 105.868 57.4648C105.868 60.8059 103.151 63.524 99.8104 63.524ZM79.7658 52.3929H71.2498C71.2425 52.3828 71.2343 52.3736 71.2268 52.3637C71.1399 52.2478 71.0506 52.1345 70.9586 52.0239C70.9432 52.0054 70.9277 51.9873 70.9123 51.9689C70.8179 51.8576 70.7215 51.7484 70.6221 51.6425C70.6095 51.629 70.5965 51.6159 70.5837 51.6025C70.4795 51.493 70.3733 51.3858 70.2641 51.2823C70.2591 51.2778 70.2541 51.2734 70.2491 51.2687C70.1397 51.1657 70.0276 51.066 69.9132 50.9693C69.9036 50.9612 69.8944 50.9529 69.8847 50.9448C69.7721 50.8505 69.6568 50.7598 69.5397 50.6717C69.523 50.6591 69.5064 50.6462 69.4897 50.6337C69.3753 50.549 69.2587 50.4677 69.1405 50.389C69.1205 50.3757 69.1006 50.3623 69.0805 50.3492C68.9626 50.2722 68.8428 50.1981 68.7211 50.1271C68.7003 50.1151 68.6796 50.1033 68.659 50.0914C68.5353 50.0208 68.4103 49.9529 68.2833 49.8885C68.2656 49.8796 68.2477 49.8709 68.2299 49.8621C68.098 49.7966 67.9648 49.7339 67.8299 49.6752C67.8199 49.671 67.81 49.667 67.8 49.6628C67.6616 49.6035 67.5219 49.5477 67.3803 49.4957C67.3742 49.4934 67.3685 49.491 67.3624 49.4889C67.2214 49.4375 67.0786 49.3906 66.9348 49.3468C66.9179 49.3417 66.9009 49.3361 66.8838 49.331C66.7452 49.2897 66.6052 49.2525 66.4642 49.2182C66.4417 49.2127 66.4195 49.2072 66.3969 49.2019C66.2578 49.1693 66.1173 49.1404 65.976 49.1147C65.9521 49.1105 65.9285 49.1062 65.9048 49.1021C65.7623 49.0777 65.6192 49.0564 65.4749 49.0391C65.4532 49.0365 65.4316 49.0342 65.4096 49.0318C65.2618 49.0152 65.1132 49.0017 64.9637 48.9926C64.9486 48.9917 64.9332 48.9914 64.9182 48.9905C64.7608 48.9818 64.6027 48.9767 64.4438 48.9767C64.2848 48.9767 64.1266 48.9818 63.9693 48.9905C63.9541 48.9914 63.9389 48.9917 63.9237 48.9926C63.7741 49.0017 63.6254 49.0152 63.4776 49.0318C63.4558 49.0342 63.434 49.0365 63.4123 49.0391C63.2679 49.0564 63.1249 49.0777 62.9825 49.1021C62.9587 49.1062 62.9347 49.1105 62.911 49.1147C62.7694 49.1404 62.6289 49.1694 62.4896 49.2021C62.4674 49.2072 62.4453 49.2127 62.4232 49.2182C62.2817 49.2524 62.1415 49.2897 62.0026 49.331C61.9859 49.3361 61.9694 49.3415 61.9525 49.3465C61.8082 49.3904 61.6653 49.4375 61.524 49.489C61.5184 49.491 61.5131 49.4931 61.5076 49.4952C61.3648 49.5475 61.2237 49.6039 61.0844 49.6636C61.0756 49.6675 61.0665 49.671 61.0577 49.6748C60.9214 49.7339 60.787 49.7971 60.6544 49.8631C60.6378 49.8715 60.621 49.8796 60.6044 49.8879C60.4762 49.9528 60.3498 50.0214 60.2251 50.0927C60.2058 50.1038 60.1865 50.1147 60.1672 50.1259C60.0444 50.1976 59.923 50.2727 59.8036 50.3506C59.7852 50.3626 59.7668 50.3749 59.7485 50.387C59.6285 50.4668 59.5101 50.5494 59.3942 50.6354C59.3795 50.6463 59.3651 50.6576 59.3503 50.6687C59.2312 50.7581 59.1138 50.8505 58.9993 50.9466C58.9922 50.9526 58.9853 50.9588 58.9782 50.9647C58.8598 51.0647 58.7438 51.1677 58.6306 51.2743C58.6285 51.2764 58.6264 51.2784 58.6241 51.2804C58.5129 51.3855 58.4048 51.4945 58.2989 51.606C58.2878 51.6176 58.2766 51.629 58.2658 51.6405C58.1651 51.7478 58.0674 51.8582 57.9718 51.9712C57.9577 51.9882 57.9431 52.0051 57.9287 52.0224C57.8364 52.1334 57.7464 52.2473 57.6592 52.3639C57.6518 52.3737 57.6436 52.383 57.6362 52.3929H28.7638C28.7564 52.3828 28.7484 52.3736 28.7409 52.3637C28.654 52.2478 28.5647 52.1345 28.4727 52.0239C28.4573 52.0054 28.4418 51.9873 28.4262 51.9689C28.3318 51.8576 28.2355 51.7484 28.1361 51.6425C28.1234 51.629 28.1104 51.6159 28.0976 51.6025C27.9936 51.493 27.8874 51.3858 27.7782 51.2823C27.7732 51.2778 27.768 51.2734 27.7631 51.2687C27.6538 51.1657 27.5417 51.066 27.4271 50.9693C27.4177 50.9612 27.4083 50.9529 27.3987 50.9448C27.2862 50.8505 27.1709 50.7598 27.0536 50.6717C27.0371 50.6591 27.0205 50.6462 27.0038 50.6337C26.8893 50.549 26.7728 50.4677 26.6544 50.389C26.6345 50.3757 26.6146 50.3623 26.5946 50.3492C26.4767 50.2722 26.3567 50.1981 26.2352 50.1271C26.2144 50.1151 26.1937 50.1033 26.1731 50.0914C26.0494 50.0208 25.9244 49.9529 25.7974 49.8885C25.7796 49.8796 25.7617 49.8709 25.7438 49.8621C25.6121 49.7966 25.4789 49.7339 25.344 49.6752C25.334 49.671 25.3241 49.667 25.3141 49.6628C25.1757 49.6035 25.0359 49.5477 24.8944 49.4957C24.8883 49.4934 24.8824 49.491 24.8763 49.4889C24.7355 49.4375 24.5927 49.3906 24.4489 49.3468C24.432 49.3417 24.415 49.3361 24.3978 49.331C24.2593 49.2897 24.1192 49.2525 23.9783 49.2182C23.9558 49.2127 23.9335 49.2072 23.911 49.2019C23.7718 49.1693 23.6313 49.1404 23.4899 49.1147C23.4662 49.1105 23.4425 49.1062 23.4188 49.1021C23.2764 49.0777 23.1333 49.0564 22.989 49.0391C22.9672 49.0365 22.9455 49.0342 22.9236 49.0318C22.7758 49.0152 22.6273 49.0017 22.4777 48.9926C22.4626 48.9917 22.4473 48.9914 22.4323 48.9905C22.2747 48.9818 22.1166 48.9767 21.9579 48.9767C21.7988 48.9767 21.6407 48.9818 21.4832 48.9905C21.4682 48.9914 21.4528 48.9917 21.4378 48.9926C21.288 49.0017 21.1394 49.0152 20.9916 49.0318C20.9698 49.0342 20.9479 49.0365 20.9262 49.0391C20.7819 49.0564 20.6389 49.0777 20.4965 49.1021C20.4726 49.1062 20.4488 49.1105 20.4249 49.1147C20.2835 49.1404 20.143 49.1694 20.0037 49.2019C19.9815 49.2072 19.9592 49.2127 19.937 49.2182C19.7957 49.2524 19.6554 49.2897 19.5167 49.331C19.4998 49.3361 19.4831 49.3415 19.4664 49.3467C19.3223 49.3906 19.1792 49.4375 19.0381 49.4889C19.0325 49.491 19.0268 49.4933 19.0212 49.4952C18.8787 49.5477 18.7378 49.6039 18.5983 49.6636C18.5895 49.6675 18.5804 49.671 18.5714 49.6748C18.4352 49.7339 18.3011 49.7971 18.1683 49.8631C18.1517 49.8715 18.135 49.8796 18.1183 49.8879C17.9901 49.9528 17.8637 50.0213 17.739 50.0927C17.7197 50.1038 17.7005 50.1147 17.6813 50.1259C17.5583 50.1976 17.4369 50.2727 17.3177 50.3506C17.2991 50.3626 17.2808 50.3749 17.2624 50.387C17.1422 50.4668 17.024 50.5494 16.9082 50.6354C16.8934 50.6463 16.879 50.6576 16.8643 50.6685C16.7452 50.7581 16.6279 50.8505 16.5134 50.9465C16.5061 50.9526 16.4991 50.9589 16.4918 50.965C16.3736 51.0647 16.2579 51.1677 16.1449 51.274C16.1426 51.2763 16.1402 51.2784 16.1379 51.2805C16.0268 51.3856 15.9187 51.4945 15.8127 51.606C15.8017 51.6176 15.7906 51.629 15.7797 51.6405C15.6791 51.7478 15.5813 51.8582 15.4859 51.9712C15.4713 51.9882 15.4569 52.0051 15.4426 52.0224C15.3501 52.1334 15.2605 52.2473 15.173 52.3639C15.1656 52.3737 15.1575 52.383 15.1501 52.3929H6.88511V42.4663H79.7658V52.3929ZM64.4438 63.524C61.1028 63.524 58.3846 60.8059 58.3846 57.4648C58.3846 56.3246 58.7032 55.2144 59.3066 54.253C60.4226 52.4709 62.343 51.407 64.4438 51.407C64.7061 51.407 64.9659 51.4238 65.2215 51.4563C66.883 51.668 68.3743 52.5534 69.3612 53.9278C69.437 54.0334 69.5096 54.1418 69.5793 54.253L69.5812 54.2561C70.1831 55.2159 70.5015 56.3254 70.5015 57.4648C70.5015 60.8059 67.784 63.524 64.4438 63.524ZM21.9579 63.524C18.6166 63.524 15.8985 60.8059 15.8985 57.4648C15.8985 56.3246 16.2172 55.2144 16.8205 54.253C17.9365 52.4709 19.8568 51.407 21.9579 51.407C22.2202 51.407 22.4799 51.4238 22.7356 51.4563C24.3971 51.668 25.8883 52.5534 26.8753 53.9278C26.9511 54.0334 27.0237 54.1418 27.0934 54.253L27.0952 54.2561C27.6972 55.2159 28.0154 56.3254 28.0154 57.4648C28.0154 60.8059 25.2981 63.524 21.9579 63.524ZM2.43038 52.393H4.45443V42.4664H2.43038V52.393ZM6.88481 40.0359H79.7658V35.4982H6.88481V40.0359ZM79.7658 2.58224V7.23489V33.0679H6.88481V2.58224H79.7658ZM119.853 45.3524C119.853 35.1712 115.888 25.599 108.688 18.3993C101.597 11.3088 92.2048 7.35854 82.1962 7.24051V0.151855H4.45443V40.0359V40.0361H0V54.8232H6.88511H13.8887C13.6113 55.6704 13.4681 56.561 13.4681 57.4648C13.4681 62.146 17.2765 65.9544 21.9579 65.9544C26.6382 65.9544 30.4458 62.146 30.4458 57.4648C30.4458 56.561 30.3026 55.6702 30.0252 54.8232H56.3749C56.0974 55.6704 55.9542 56.561 55.9542 57.4648C55.9542 62.146 59.7626 65.9544 64.4438 65.9544C69.1241 65.9544 72.9319 62.146 72.9319 57.4648C72.9319 56.561 72.7885 55.6702 72.5111 54.8232H79.7658H82.1962H91.7415C91.4641 55.6704 91.3208 56.561 91.3208 57.4648C91.3208 62.146 95.1292 65.9544 99.8104 65.9544C104.491 65.9544 108.298 62.146 108.298 57.4648C108.298 56.5614 108.155 55.6708 107.878 54.8232H119.853V45.3524Z" fill="#1071B9"/>
<path d="M117.423 52.3929V52.8929H117.923V52.3929H117.423ZM106.618 52.3929L106.215 52.6897L106.365 52.8929H106.618V52.3929ZM106.596 52.3661L106.196 52.666L106.196 52.6661L106.596 52.3661ZM106.324 52.0213L106.708 51.7012L106.324 52.0213ZM106.282 51.9723L105.901 52.2952L105.902 52.2965L106.282 51.9723ZM105.988 51.6405L106.352 51.2982L106.351 51.2966L105.988 51.6405ZM105.955 51.606L106.318 51.2622L106.317 51.2617L105.955 51.606ZM105.629 51.2808L105.276 51.6344L105.281 51.6395L105.286 51.6444L105.629 51.2808ZM105.621 51.2731L105.985 50.9298L105.975 50.919L105.964 50.9089L105.621 51.2731ZM105.276 50.9662L104.953 51.3479L104.954 51.3486L105.276 50.9662ZM105.253 50.946L104.932 51.3291L104.934 51.3307L105.253 50.946ZM104.904 50.6694L105.204 50.2697L105.204 50.2694L104.904 50.6694ZM104.858 50.6351L104.56 51.0366L104.561 51.037L104.858 50.6351ZM104.505 50.3878L104.782 49.9714L104.782 49.9713L104.505 50.3878ZM104.448 50.3501L104.723 49.9321L104.722 49.9317L104.448 50.3501ZM104.086 50.1264L103.834 50.558L103.835 50.5585L104.086 50.1264ZM104.027 50.0924L104.277 49.6595L104.275 49.6583L104.027 50.0924ZM103.649 49.8881L103.875 49.4421L103.872 49.4408L103.649 49.8881ZM103.598 49.8628L103.375 50.3105L103.376 50.3108L103.598 49.8628ZM103.196 49.6749L103.395 49.2163L103.392 49.215L103.196 49.6749ZM103.168 49.6634L102.97 50.1228L102.974 50.1245L103.168 49.6634ZM102.746 49.4954L102.919 49.0261L102.915 49.0248L102.746 49.4954ZM102.729 49.4889L102.906 49.0212L102.9 49.0189L102.729 49.4889ZM102.3 49.3465L102.446 48.8682L102.445 48.868L102.3 49.3465ZM102.25 49.331L102.108 49.8102L102.109 49.8107L102.25 49.331ZM101.83 49.2182L101.711 49.7038L101.712 49.704L101.83 49.2182ZM101.763 49.2019L101.879 48.7155L101.877 48.715L101.763 49.2019ZM101.342 49.1147L101.432 48.6228L101.431 48.6226L101.342 49.1147ZM101.271 49.1021L101.359 48.61L101.356 48.6094L101.271 49.1021ZM100.842 49.0391L100.901 48.5427L100.9 48.5425L100.842 49.0391ZM100.776 49.0318L100.719 49.5286L100.721 49.5288L100.776 49.0318ZM100.33 48.9928L100.296 49.4916L100.3 49.4919L100.33 48.9928ZM100.285 48.9905L100.315 48.4914L100.312 48.4912L100.285 48.9905ZM99.3358 48.9905L99.3084 48.4912L99.3059 48.4914L99.3358 48.9905ZM99.2903 48.9926L99.2603 48.4935L99.2599 48.4935L99.2903 48.9926ZM98.8442 49.0318L98.8997 49.5287L98.8998 49.5287L98.8442 49.0318ZM98.7788 49.0391L98.7198 48.5426L98.7192 48.5427L98.7788 49.0391ZM98.3491 49.1021L98.2644 48.6094L98.2644 48.6094L98.3491 49.1021ZM98.2776 49.1147L98.1892 48.6226L98.1884 48.6228L98.2776 49.1147ZM97.8564 49.2021L97.969 49.6892L97.9705 49.6889L97.8564 49.2021ZM97.7898 49.2182L97.9072 49.7042L97.9095 49.7036L97.7898 49.2182ZM97.3692 49.331L97.2267 48.8518L97.2255 48.8521L97.3692 49.331ZM97.3191 49.3465L97.1766 48.8673L97.1736 48.8682L97.3191 49.3465ZM96.8906 49.489L97.0563 49.9608L97.0618 49.9588L96.8906 49.489ZM96.8742 49.4952L97.0461 49.9649L97.0554 49.9613L96.8742 49.4952ZM96.4511 49.6636L96.2542 49.204L96.2495 49.206L96.4511 49.6636ZM96.4243 49.6748L96.2263 49.2156L96.2253 49.2161L96.4243 49.6748ZM96.0211 49.8631L95.7981 49.4156L95.7975 49.4159L96.0211 49.8631ZM95.971 49.8879L95.7458 49.4415L95.7453 49.4418L95.971 49.8879ZM95.5917 50.0927L95.3437 49.6585L95.3425 49.6592L95.5917 50.0927ZM95.5338 50.1259L95.2821 49.6939L95.2819 49.6941L95.5338 50.1259ZM95.1702 50.3506L94.8969 49.9319L94.8968 49.9319L95.1702 50.3506ZM95.115 50.387L94.8393 49.97L94.8383 49.9706L95.115 50.387ZM94.7608 50.6354L94.4629 50.2338L94.4628 50.2339L94.7608 50.6354ZM94.7171 50.6687L95.0172 51.0686L95.0197 51.0667L94.7171 50.6687ZM94.3659 50.9466L94.6852 51.3314L94.6874 51.3296L94.3659 50.9466ZM94.3448 50.9647L94.0255 50.5799L94.0221 50.5827L94.3448 50.9647ZM93.9972 51.2743L93.6543 50.9104L93.6489 50.9155L93.6437 50.9207L93.9972 51.2743ZM93.9907 51.2804L93.6632 50.9025L93.6551 50.9096L93.6472 50.917L93.9907 51.2804ZM93.6655 51.606L94.0261 51.9524L94.028 51.9503L93.6655 51.606ZM93.6324 51.6405L93.9968 51.9828L93.9977 51.9818L93.6324 51.6405ZM93.3384 51.9712L92.9566 51.6484L92.9538 51.6518L93.3384 51.9712ZM93.2953 52.0224L92.9112 51.7023L92.9109 51.7027L93.2953 52.0224ZM93.0258 52.3639L93.4251 52.6648L93.4261 52.6634L93.0258 52.3639ZM93.0027 52.3929V52.8929H93.252L93.402 52.6939L93.0027 52.3929ZM82.1962 52.3929H81.6962V52.8929H82.1962V52.3929ZM82.1962 9.66816L82.2025 9.1682L81.6962 9.16181V9.66816H82.1962ZM106.97 20.1179L107.323 19.7643L107.323 19.7643L106.97 20.1179ZM94.6732 54.253L95.0967 54.5188L95.0969 54.5184L94.6732 54.253ZM100.588 51.4563L100.652 50.9603L100.651 50.9602L100.588 51.4563ZM101.052 51.536L101.154 51.0464L101.154 51.0464L101.052 51.536ZM104.948 54.2536L104.524 54.5193L104.532 54.5309L104.948 54.2536ZM104.949 54.2545L105.372 53.9893L105.369 53.9832L105.365 53.9772L104.949 54.2545ZM79.7658 52.3929V52.8929H80.2658V52.3929H79.7658ZM71.2498 52.3929L70.8454 52.687L70.9952 52.8929H71.2498V52.3929ZM71.2268 52.3637L70.8268 52.6636L70.8276 52.6647L71.2268 52.3637ZM70.9586 52.0239L70.5734 52.3428L70.5743 52.3438L70.9586 52.0239ZM70.9123 51.9689L71.2945 51.6467L71.2937 51.6457L70.9123 51.9689ZM70.6221 51.6425L70.2565 51.9835L70.2575 51.9846L70.6221 51.6425ZM70.5837 51.6025L70.2215 51.9472L70.222 51.9478L70.5837 51.6025ZM70.2641 51.2823L70.608 50.9192L70.6004 50.9124L70.2641 51.2823ZM70.2491 51.2687L69.9063 51.6327L69.9067 51.6331L70.2491 51.2687ZM69.9132 50.9693L70.2361 50.5875L70.2351 50.5867L69.9132 50.9693ZM69.8847 50.9448L69.5635 51.328L69.5658 51.3299L69.8847 50.9448ZM69.5397 50.6717L69.2385 51.0708L69.2391 51.0713L69.5397 50.6717ZM69.4897 50.6337L69.7886 50.2329L69.7874 50.232L69.4897 50.6337ZM69.1405 50.389L68.8632 50.805L68.8634 50.8052L69.1405 50.389ZM69.0805 50.3492L68.807 50.7678L68.8076 50.7682L69.0805 50.3492ZM68.7211 50.1271L68.973 49.6952L68.9709 49.694L68.7211 50.1271ZM68.659 50.0914L68.9077 49.6577L68.907 49.6573L68.659 50.0914ZM68.2833 49.8885L68.5095 49.4426L68.5085 49.4421L68.2833 49.8885ZM68.2299 49.8621L68.0075 50.3099L68.0078 50.3101L68.2299 49.8621ZM67.8299 49.6752L68.0293 49.2167L68.0252 49.215L67.8299 49.6752ZM67.8 49.6628L67.6032 50.1224L67.6047 50.1231L67.8 49.6628ZM67.3803 49.4957L67.2047 49.9639L67.2081 49.9651L67.3803 49.4957ZM67.3624 49.4889L67.1912 49.9587L67.1972 49.9608L67.3624 49.4889ZM66.9348 49.3468L66.7883 49.8249L66.7893 49.8252L66.9348 49.3468ZM66.8838 49.331L66.7408 49.8102L66.7436 49.811L66.8838 49.331ZM66.4642 49.2182L66.5825 48.7324L66.5824 48.7323L66.4642 49.2182ZM66.3969 49.2019L66.5113 48.7152L66.5112 48.7152L66.3969 49.2019ZM65.976 49.1147L66.0654 48.6228L66.0638 48.6225L65.976 49.1147ZM65.9048 49.1021L65.99 48.6095L65.9893 48.6093L65.9048 49.1021ZM65.4749 49.0391L65.5345 48.5427L65.5339 48.5426L65.4749 49.0391ZM65.4096 49.0318L65.3539 49.5287L65.3547 49.5288L65.4096 49.0318ZM64.9637 48.9926L64.9942 48.4935L64.9937 48.4935L64.9637 48.9926ZM64.9182 48.9905L64.9484 48.4914L64.9456 48.4912L64.9182 48.9905ZM63.9693 48.9905L63.9418 48.4912L63.9393 48.4914L63.9693 48.9905ZM63.9237 48.9926L63.8937 48.4935L63.8933 48.4935L63.9237 48.9926ZM63.4776 49.0318L63.5332 49.5287L63.5332 49.5287L63.4776 49.0318ZM63.4123 49.0391L63.3532 48.5426L63.3527 48.5427L63.4123 49.0391ZM62.9825 49.1021L62.8979 48.6094L62.8978 48.6094L62.9825 49.1021ZM62.911 49.1147L62.8227 48.6226L62.8218 48.6228L62.911 49.1147ZM62.4896 49.2021L62.603 49.6891L62.6038 49.6889L62.4896 49.2021ZM62.4232 49.2182L62.5406 49.7042L62.5437 49.7035L62.4232 49.2182ZM62.0026 49.331L61.86 48.8518L61.859 48.8521L62.0026 49.331ZM61.9525 49.3465L61.81 48.8673L61.807 48.8682L61.9525 49.3465ZM61.524 49.489L61.6898 49.9608L61.6952 49.9588L61.524 49.489ZM61.5076 49.4952L61.6795 49.9649L61.6888 49.9613L61.5076 49.4952ZM61.0844 49.6636L60.8874 49.2039L60.8799 49.2073L61.0844 49.6636ZM61.0577 49.6748L60.8598 49.2156L60.8587 49.2161L61.0577 49.6748ZM60.6544 49.8631L60.4314 49.4156L60.4291 49.4168L60.6544 49.8631ZM60.6044 49.8879L60.3792 49.4415L60.3787 49.4418L60.6044 49.8879ZM60.2251 50.0927L59.9771 49.6585L59.9759 49.6592L60.2251 50.0927ZM60.1672 50.1259L59.9155 49.6939L59.9153 49.6941L60.1672 50.1259ZM59.8036 50.3506L59.5303 49.9319L59.5303 49.9319L59.8036 50.3506ZM59.7485 50.387L59.4727 49.97L59.4717 49.9706L59.7485 50.387ZM59.3942 50.6354L59.0963 50.2338L59.0962 50.2339L59.3942 50.6354ZM59.3503 50.6687L59.6507 51.0684L59.651 51.0682L59.3503 50.6687ZM58.9993 50.9466L59.3186 51.3314L59.3208 51.3296L58.9993 50.9466ZM58.9782 50.9647L58.6589 50.5799L58.6555 50.5827L58.9782 50.9647ZM58.6306 51.2743L58.2877 50.9104L58.2823 50.9155L58.2771 50.9207L58.6306 51.2743ZM58.6241 51.2804L58.2966 50.9025L58.2885 50.9096L58.2806 50.917L58.6241 51.2804ZM58.2989 51.606L58.6595 51.9524L58.6615 51.9503L58.2989 51.606ZM58.2658 51.6405L58.6302 51.9828L58.6311 51.9818L58.2658 51.6405ZM57.9718 51.9712L57.59 51.6484L57.5872 51.6518L57.9718 51.9712ZM57.9287 52.0224L57.5446 51.7023L57.5443 51.7027L57.9287 52.0224ZM57.6592 52.3639L58.0585 52.6648L58.0596 52.6634L57.6592 52.3639ZM57.6362 52.3929V52.8929H57.8854L58.0354 52.6939L57.6362 52.3929ZM28.7638 52.3929L28.3624 52.6909L28.5123 52.8929H28.7638V52.3929ZM28.7409 52.3637L28.3408 52.6636L28.3416 52.6647L28.7409 52.3637ZM28.4727 52.0239L28.0875 52.3428L28.0884 52.3438L28.4727 52.0239ZM28.4262 51.9689L28.0447 52.2921L28.0454 52.293L28.4262 51.9689ZM28.1361 51.6425L27.7704 51.9835L27.7717 51.9849L28.1361 51.6425ZM28.0976 51.6025L27.7351 51.9469L27.7359 51.9478L28.0976 51.6025ZM27.7782 51.2823L28.1221 50.9192L28.1145 50.9124L27.7782 51.2823ZM27.7631 51.2687L28.1111 50.9095L28.1059 50.9047L27.7631 51.2687ZM27.4271 50.9693L27.1022 51.3493L27.1045 51.3512L27.4271 50.9693ZM27.3987 50.9448L27.7206 50.5622L27.7199 50.5616L27.3987 50.9448ZM27.0536 50.6717L26.7507 51.0695L26.7533 51.0715L27.0536 50.6717ZM27.0038 50.6337L27.3026 50.2329L27.3012 50.2318L27.0038 50.6337ZM26.6544 50.389L26.3756 50.8041L26.3776 50.8054L26.6544 50.389ZM26.5946 50.3492L26.3211 50.7678L26.3216 50.7682L26.5946 50.3492ZM26.2352 50.1271L26.4873 49.6953L26.485 49.694L26.2352 50.1271ZM26.1731 50.0914L26.4218 49.6577L26.4211 49.6573L26.1731 50.0914ZM25.7974 49.8885L26.0236 49.4426L26.0225 49.4421L25.7974 49.8885ZM25.7438 49.8621L25.5212 50.3098L25.5232 50.3108L25.7438 49.8621ZM25.344 49.6752L25.5433 49.2167L25.5393 49.215L25.344 49.6752ZM25.3141 49.6628L25.1173 50.1224L25.1188 50.1231L25.3141 49.6628ZM24.8944 49.4957L24.7188 49.9639L24.7221 49.9651L24.8944 49.4957ZM24.8763 49.4889L24.705 49.9587L24.7111 49.9608L24.8763 49.4889ZM24.4489 49.3468L24.3024 49.8249L24.3034 49.8252L24.4489 49.3468ZM24.3978 49.331L24.2549 49.8102L24.2577 49.811L24.3978 49.331ZM23.9783 49.2182L24.0966 48.7324L24.0965 48.7323L23.9783 49.2182ZM23.911 49.2019L24.0261 48.7154L24.0252 48.7152L23.911 49.2019ZM23.4899 49.1147L23.5792 48.6228L23.5783 48.6226L23.4899 49.1147ZM23.4188 49.1021L23.5041 48.6095L23.5034 48.6093L23.4188 49.1021ZM22.989 49.0391L23.0485 48.5427L23.048 48.5426L22.989 49.0391ZM22.9236 49.0318L22.868 49.5287L22.8684 49.5287L22.9236 49.0318ZM22.4777 48.9926L22.5081 48.4935L22.5079 48.4935L22.4777 48.9926ZM22.4323 48.9905L22.4625 48.4914L22.4597 48.4912L22.4323 48.9905ZM21.4832 48.9905L21.4557 48.4912L21.4529 48.4914L21.4832 48.9905ZM21.4378 48.9926L21.4075 48.4935L21.4074 48.4935L21.4378 48.9926ZM20.9916 49.0318L21.0469 49.5287L21.0473 49.5287L20.9916 49.0318ZM20.9262 49.0391L20.8672 48.5426L20.8666 48.5427L20.9262 49.0391ZM20.4965 49.1021L20.4119 48.6093L20.4117 48.6094L20.4965 49.1021ZM20.4249 49.1147L20.3371 48.6225L20.3356 48.6228L20.4249 49.1147ZM20.0037 49.2019L19.8901 48.715L19.8871 48.7157L20.0037 49.2019ZM19.937 49.2182L20.0546 49.7042L20.0567 49.7036L19.937 49.2182ZM19.5167 49.331L19.6592 49.8103L19.6595 49.8102L19.5167 49.331ZM19.4664 49.3467L19.6121 49.825L19.6141 49.8244L19.4664 49.3467ZM19.0381 49.4889L18.8671 49.019L18.8611 49.0212L19.0381 49.4889ZM19.0212 49.4952L18.8555 49.0235L18.8486 49.026L19.0212 49.4952ZM18.5983 49.6636L18.4015 49.2038L18.3938 49.2073L18.5983 49.6636ZM18.5714 49.6748L18.3764 49.2144L18.3725 49.2161L18.5714 49.6748ZM18.1683 49.8631L17.9455 49.4155L17.9431 49.4168L18.1683 49.8631ZM18.1183 49.8879L17.8947 49.4407L17.8926 49.4418L18.1183 49.8879ZM17.739 50.0927L17.4906 49.6587L17.4899 49.6592L17.739 50.0927ZM17.6813 50.1259L17.9331 50.5579L17.9345 50.5571L17.6813 50.1259ZM17.3177 50.3506L17.5894 50.7703L17.5912 50.7691L17.3177 50.3506ZM17.2624 50.387L16.9866 49.97L16.9859 49.9705L17.2624 50.387ZM16.9082 50.6354L16.6103 50.2338L16.6101 50.2339L16.9082 50.6354ZM16.8643 50.6685L16.5662 50.267L16.5636 50.269L16.8643 50.6685ZM16.5134 50.9465L16.8335 51.3306L16.8346 51.3297L16.5134 50.9465ZM16.4918 50.965L16.1717 50.5809L16.1695 50.5828L16.4918 50.965ZM16.1449 51.274L15.8022 50.9098L15.7967 50.915L15.7913 50.9204L16.1449 51.274ZM16.1379 51.2805L15.7967 50.915L15.7941 50.9174L16.1379 51.2805ZM15.8127 51.606L15.4503 51.2615L15.4497 51.2622L15.8127 51.606ZM15.7797 51.6405L15.4167 51.2966L15.415 51.2985L15.7797 51.6405ZM15.4859 51.9712L15.8656 52.2966L15.868 52.2937L15.4859 51.9712ZM15.4426 52.0224L15.8268 52.3424L15.8284 52.3405L15.4426 52.0224ZM15.173 52.3639L15.5723 52.6648L15.5728 52.6641L15.173 52.3639ZM15.1501 52.3929V52.8929H15.3993L15.5493 52.6939L15.1501 52.3929ZM6.88511 52.3929H6.38511V52.8929H6.88511V52.3929ZM6.88511 42.4663V41.9663H6.38511V42.4663H6.88511ZM79.7658 42.4663H80.2658V41.9663H79.7658V42.4663ZM59.3066 54.253L59.7301 54.5188L59.7303 54.5184L59.3066 54.253ZM65.2215 51.4563L65.2847 50.9603L65.2846 50.9603L65.2215 51.4563ZM69.3612 53.9278L69.7674 53.6362L69.7674 53.6362L69.3612 53.9278ZM69.5793 54.253L70.0082 53.9958L70.003 53.9874L69.5793 54.253ZM69.5812 54.2561L69.1523 54.5133L69.1576 54.5217L69.5812 54.2561ZM16.8205 54.253L17.244 54.5188L17.2443 54.5184L16.8205 54.253ZM22.7356 51.4563L22.7988 50.9603L22.7987 50.9603L22.7356 51.4563ZM26.8753 53.9278L27.2814 53.6362L27.2814 53.6361L26.8753 53.9278ZM27.0934 54.253L27.5223 53.9958L27.517 53.9874L27.0934 54.253ZM27.0952 54.2561L26.6664 54.5133L26.6717 54.5217L27.0952 54.2561ZM2.43038 52.393H1.93038V52.893H2.43038V52.393ZM4.45443 52.393V52.893H4.95443V52.393H4.45443ZM4.45443 42.4664H4.95443V41.9664H4.45443V42.4664ZM2.43038 42.4664V41.9664H1.93038V42.4664H2.43038ZM6.88481 40.0359H6.38481V40.5359H6.88481V40.0359ZM79.7658 40.0359V40.5359H80.2658V40.0359H79.7658ZM79.7658 35.4982H80.2658V34.9982H79.7658V35.4982ZM6.88481 35.4982V34.9982H6.38481V35.4982H6.88481ZM79.7658 2.58224H80.2658V2.08224H79.7658V2.58224ZM79.7658 33.0679V33.5679H80.2658V33.0679H79.7658ZM6.88481 33.0679H6.38481V33.5679H6.88481V33.0679ZM6.88481 2.58224V2.08224H6.38481V2.58224H6.88481ZM108.688 18.3993L109.042 18.0457L108.688 18.3993ZM82.1962 7.24051H81.6962V7.73465L82.1903 7.74048L82.1962 7.24051ZM82.1962 0.151855H82.6962V-0.348145H82.1962V0.151855ZM4.45443 0.151855V-0.348145H3.95443V0.151855H4.45443ZM4.45443 40.0361V40.5361H4.95443V40.0361H4.45443ZM0 40.0361V39.5361H-0.5V40.0361H0ZM0 54.8232H-0.5V55.3232H0V54.8232ZM13.8887 54.8232L14.3639 54.9788L14.5785 54.3232H13.8887V54.8232ZM30.0252 54.8232V54.3232H29.3354L29.55 54.9789L30.0252 54.8232ZM56.3749 54.8232L56.8501 54.9789L57.0649 54.3232H56.3749V54.8232ZM72.5111 54.8232V54.3232H71.8213L72.036 54.9789L72.5111 54.8232ZM91.7415 54.8232L92.2167 54.9788L92.4313 54.3232H91.7415V54.8232ZM107.878 54.8232V54.3232H107.188L107.403 54.9787L107.878 54.8232ZM119.853 54.8232V55.3232H120.353V54.8232H119.853ZM117.423 51.8929H106.618V52.8929H117.423V51.8929ZM107.02 52.096C107.009 52.0806 106.998 52.0676 106.995 52.0638C106.994 52.0624 106.993 52.0619 106.993 52.0612C106.992 52.0606 106.992 52.0605 106.992 52.0607C106.992 52.061 106.994 52.063 106.996 52.0661L106.196 52.6661C106.202 52.6738 106.207 52.6803 106.211 52.685C106.215 52.6894 106.218 52.6936 106.219 52.6951C106.221 52.6973 106.221 52.6972 106.22 52.6966C106.22 52.6958 106.218 52.6933 106.215 52.6897L107.02 52.096ZM106.997 52.0663C106.904 51.9421 106.807 51.8202 106.708 51.7012L105.94 52.3414C106.028 52.4466 106.113 52.555 106.196 52.666L106.997 52.0663ZM106.708 51.7012C106.692 51.6821 106.675 51.6621 106.663 51.648L105.902 52.2965C105.918 52.3152 105.929 52.3278 105.94 52.3414L106.708 51.7012ZM106.664 51.6494C106.564 51.5306 106.46 51.4131 106.352 51.2982L105.623 51.9828C105.717 52.083 105.809 52.1873 105.901 52.2952L106.664 51.6494ZM106.351 51.2966C106.343 51.2887 106.336 51.2812 106.331 51.2757C106.325 51.2697 106.321 51.2658 106.318 51.2622L105.592 51.9499C105.599 51.9578 105.606 51.9654 105.612 51.9708C105.617 51.9769 105.621 51.9808 105.625 51.9844L106.351 51.2966ZM106.317 51.2617C106.206 51.1451 106.092 51.0297 105.973 50.9172L105.286 51.6444C105.39 51.7422 105.491 51.8443 105.592 51.9503L106.317 51.2617ZM105.983 50.9273C105.976 50.92 105.97 50.9142 105.966 50.9111C105.964 50.9095 105.963 50.9081 105.962 50.9074C105.962 50.9071 105.961 50.9067 105.961 50.9066C105.961 50.9064 105.961 50.9064 105.961 50.9064C105.961 50.9064 105.962 50.9071 105.963 50.908C105.964 50.909 105.965 50.9104 105.967 50.9123C105.971 50.9159 105.977 50.9219 105.985 50.9298L105.258 51.6164C105.266 51.6256 105.274 51.6329 105.279 51.6378C105.284 51.6426 105.288 51.6464 105.29 51.6476C105.29 51.6479 105.29 51.6483 105.291 51.6484C105.291 51.6485 105.291 51.6485 105.291 51.6485C105.291 51.6484 105.29 51.6477 105.289 51.6467C105.287 51.6448 105.282 51.6404 105.276 51.6344L105.983 50.9273ZM105.964 50.9089C105.845 50.7967 105.723 50.6886 105.599 50.5838L104.954 51.3486C105.065 51.442 105.173 51.538 105.279 51.6373L105.964 50.9089ZM105.599 50.5845C105.6 50.5847 105.6 50.5849 105.594 50.5802C105.59 50.5767 105.582 50.5694 105.572 50.5613L104.934 51.3307C104.932 51.3294 104.931 51.3288 104.935 51.3321C104.937 51.3332 104.939 51.3358 104.942 51.3382C104.945 51.3408 104.949 51.3442 104.953 51.3479L105.599 50.5845ZM105.574 50.5629C105.452 50.4606 105.328 50.3631 105.204 50.2697L104.603 51.0691C104.716 51.154 104.826 51.2404 104.932 51.3291L105.574 50.5629ZM105.204 50.2694C105.202 50.2683 105.168 50.2425 105.156 50.2332L104.561 51.037C104.578 51.0502 104.575 51.0478 104.604 51.0694L105.204 50.2694ZM105.156 50.2336C105.033 50.1422 104.908 50.055 104.782 49.9714L104.229 50.8042C104.342 50.8795 104.452 50.9567 104.56 51.0366L105.156 50.2336ZM104.782 49.9713C104.763 49.9588 104.743 49.9454 104.723 49.9321L104.174 50.7682C104.192 50.7798 104.21 50.7916 104.229 50.8043L104.782 49.9713ZM104.722 49.9317C104.596 49.8492 104.468 49.7701 104.338 49.6943L103.835 50.5585C103.95 50.6255 104.063 50.6955 104.175 50.7686L104.722 49.9317ZM104.339 49.6947C104.318 49.6827 104.293 49.6682 104.277 49.6595L103.777 50.5252C103.801 50.539 103.815 50.547 103.834 50.558L104.339 49.6947ZM104.275 49.6583C104.144 49.5833 104.011 49.5111 103.875 49.4421L103.423 50.334C103.543 50.3948 103.661 50.459 103.779 50.5264L104.275 49.6583ZM103.872 49.4408C103.858 49.4335 103.827 49.4185 103.82 49.4148L103.376 50.3108C103.403 50.3242 103.406 50.3256 103.425 50.3353L103.872 49.4408ZM103.82 49.4152C103.682 49.3461 103.54 49.2793 103.395 49.2163L102.997 50.1336C103.123 50.1885 103.249 50.2477 103.375 50.3105L103.82 49.4152ZM103.392 49.215C103.383 49.2114 103.375 49.2082 103.371 49.2063C103.365 49.204 103.363 49.2031 103.361 49.2023L102.974 50.1245C103.006 50.138 102.983 50.1278 103 50.1349L103.392 49.215ZM103.365 49.2041C103.218 49.1408 103.069 49.0815 102.919 49.0261L102.573 49.9646C102.707 50.0138 102.84 50.0666 102.97 50.1227L103.365 49.2041ZM102.915 49.0248C102.918 49.0258 102.919 49.0264 102.918 49.0258C102.917 49.0256 102.917 49.0254 102.916 49.0252C102.916 49.0249 102.915 49.0246 102.914 49.0242C102.912 49.0235 102.909 49.0224 102.906 49.0212L102.552 49.9565C102.552 49.9564 102.552 49.9564 102.553 49.9568C102.553 49.957 102.554 49.9571 102.554 49.9575C102.555 49.9577 102.556 49.9581 102.557 49.9585C102.561 49.96 102.568 49.9629 102.577 49.966L102.915 49.0248ZM102.9 49.0189C102.749 48.9642 102.598 48.9143 102.446 48.8682L102.155 49.8249C102.292 49.8666 102.426 49.9109 102.558 49.9588L102.9 49.0189ZM102.445 48.868C102.44 48.8665 102.435 48.8649 102.425 48.8618C102.417 48.8591 102.405 48.8553 102.392 48.8514L102.109 49.8107C102.133 49.8178 102.114 49.8124 102.156 49.8251L102.445 48.868ZM102.393 48.8519C102.245 48.8077 102.096 48.7683 101.949 48.7324L101.712 49.704C101.847 49.7367 101.978 49.7718 102.108 49.8102L102.393 48.8519ZM101.949 48.7325C101.928 48.7273 101.904 48.7213 101.879 48.7155L101.648 49.6883C101.668 49.6932 101.688 49.6981 101.711 49.7038L101.949 48.7325ZM101.877 48.715C101.729 48.6806 101.581 48.6499 101.432 48.6228L101.253 49.6067C101.386 49.6309 101.519 49.6583 101.65 49.6889L101.877 48.715ZM101.431 48.6226C101.418 48.6203 101.405 48.618 101.393 48.616C101.381 48.6139 101.37 48.6119 101.359 48.61L101.183 49.5943C101.196 49.5966 101.208 49.5988 101.22 49.6009C101.232 49.603 101.243 49.6049 101.254 49.6069L101.431 48.6226ZM101.356 48.6094C101.206 48.5836 101.055 48.5611 100.901 48.5427L100.782 49.5355C100.917 49.5517 101.051 49.5717 101.186 49.5949L101.356 48.6094ZM100.9 48.5425C100.876 48.5397 100.848 48.5368 100.831 48.5348L100.721 49.5288C100.747 49.5317 100.763 49.5334 100.783 49.5357L100.9 48.5425ZM100.832 48.535C100.677 48.5174 100.519 48.5032 100.36 48.4937L100.3 49.4919C100.44 49.5002 100.58 49.5128 100.719 49.5286L100.832 48.535ZM100.365 48.494C100.35 48.4929 100.336 48.4923 100.328 48.492C100.319 48.4916 100.317 48.4915 100.315 48.4914L100.254 49.4896C100.268 49.4904 100.281 49.4909 100.286 49.4911C100.29 49.4913 100.292 49.4914 100.294 49.4915C100.295 49.4915 100.296 49.4916 100.296 49.4916L100.365 48.494ZM100.312 48.4912C100.147 48.4822 99.98 48.4767 99.8104 48.4767V49.4767C99.9585 49.4767 100.107 49.4815 100.257 49.4897L100.312 48.4912ZM99.8104 48.4767C99.6406 48.4767 99.4731 48.4822 99.3084 48.4912L99.3633 49.4897C99.5133 49.4815 99.6621 49.4767 99.8104 49.4767V48.4767ZM99.3059 48.4914C99.3041 48.4915 99.3015 48.4916 99.2931 48.492C99.2863 48.4922 99.2738 48.4927 99.2603 48.4935L99.3202 49.4917C99.322 49.4916 99.3246 49.4915 99.333 49.4912C99.3398 49.4909 99.3524 49.4904 99.3658 49.4896L99.3059 48.4914ZM99.2599 48.4935C99.1004 48.5033 98.9432 48.5176 98.7885 48.5349L98.8998 49.5287C99.0407 49.5129 99.1809 49.5002 99.3207 49.4917L99.2599 48.4935ZM98.7886 48.5349C98.7724 48.5367 98.7434 48.5398 98.7198 48.5426L98.8379 49.5356C98.8577 49.5332 98.8725 49.5318 98.8997 49.5287L98.7886 48.5349ZM98.7192 48.5427C98.5659 48.5611 98.4143 48.5836 98.2644 48.6094L98.4338 49.5949C98.5686 49.5717 98.7035 49.5517 98.8385 49.5355L98.7192 48.5427ZM98.2644 48.6094C98.2389 48.6138 98.2136 48.6182 98.1892 48.6226L98.3659 49.6069C98.3889 49.6027 98.4116 49.5987 98.4339 49.5949L98.2644 48.6094ZM98.1884 48.6228C98.0388 48.6499 97.8901 48.6806 97.7422 48.7153L97.9705 49.6889C98.1012 49.6582 98.2332 49.6309 98.3668 49.6067L98.1884 48.6228ZM97.7437 48.7149C97.717 48.7211 97.6909 48.7276 97.6701 48.7327L97.9095 49.7036C97.9331 49.6978 97.951 49.6934 97.969 49.6892L97.7437 48.7149ZM97.6725 48.7321C97.5232 48.7682 97.3747 48.8078 97.2267 48.8518L97.5117 49.8103C97.6417 49.7717 97.7733 49.7365 97.9072 49.7042L97.6725 48.7321ZM97.2255 48.8521C97.2134 48.8558 97.2018 48.8594 97.1943 48.8618C97.1857 48.8645 97.1808 48.866 97.1766 48.8673L97.4616 49.8258C97.4742 49.822 97.4861 49.8183 97.4941 49.8158C97.5033 49.8129 97.5083 49.8113 97.5129 49.81L97.2255 48.8521ZM97.1736 48.8682C97.022 48.9143 96.8704 48.9642 96.7193 49.0193L97.0618 49.9588C97.1933 49.9109 97.3276 49.8666 97.4646 49.8249L97.1736 48.8682ZM96.7248 49.0173C96.7158 49.0205 96.7081 49.0234 96.7029 49.0254C96.7003 49.0264 96.698 49.0273 96.6964 49.0279C96.6945 49.0287 96.6939 49.0289 96.693 49.0292L97.0554 49.9613C97.0572 49.9606 97.0593 49.9597 97.0601 49.9594C97.0612 49.959 97.0616 49.9588 97.0617 49.9588C97.062 49.9587 97.0598 49.9595 97.0563 49.9608L96.7248 49.0173ZM96.7023 49.0257C96.5504 49.0813 96.401 49.1411 96.2542 49.204L96.6481 50.1231C96.7799 50.0667 96.9124 50.0137 97.046 49.9648L96.7023 49.0257ZM96.2495 49.206C96.2518 49.205 96.2528 49.2046 96.2482 49.2065C96.2467 49.2071 96.2432 49.2086 96.2399 49.2099C96.2363 49.2114 96.2316 49.2134 96.2263 49.2156L96.6222 50.134C96.6213 50.1343 96.6208 50.1345 96.6271 50.132C96.6315 50.1301 96.6416 50.126 96.6528 50.1211L96.2495 49.206ZM96.2253 49.2161C96.0798 49.2792 95.9374 49.3462 95.7981 49.4156L96.2441 50.3107C96.3701 50.2479 96.4963 50.1886 96.6232 50.1335L96.2253 49.2161ZM95.7975 49.4159C95.7914 49.419 95.7852 49.422 95.7761 49.4265C95.7678 49.4306 95.757 49.4358 95.7458 49.4415L96.1962 50.3343C96.2227 50.3209 96.206 50.3297 96.2447 50.3104L95.7975 49.4159ZM95.7453 49.4418C95.6084 49.511 95.4745 49.5838 95.3437 49.6585L95.8397 50.5268C95.9583 50.4591 96.0772 50.3945 96.1967 50.3341L95.7453 49.4418ZM95.3425 49.6592C95.3269 49.6681 95.3029 49.6818 95.2821 49.6939L95.7855 50.5579C95.8034 50.5476 95.8179 50.5394 95.8409 50.5262L95.3425 49.6592ZM95.2819 49.6941C95.1516 49.7701 95.0231 49.8495 94.8969 49.9319L95.4435 50.7693C95.556 50.6958 95.6703 50.6252 95.7858 50.5578L95.2819 49.6941ZM94.8968 49.9319C94.8771 49.9448 94.8542 49.9601 94.8393 49.97L95.3908 50.8041C95.4126 50.7897 95.4265 50.7803 95.4435 50.7693L94.8968 49.9319ZM94.8383 49.9706C94.7119 50.0546 94.5865 50.1422 94.4629 50.2338L95.0587 51.037C95.167 50.9567 95.2782 50.879 95.3918 50.8035L94.8383 49.9706ZM94.4628 50.2339C94.4454 50.2469 94.4224 50.2646 94.4144 50.2707L95.0197 51.0667C95.0409 51.0506 95.0468 51.0458 95.0588 51.0369L94.4628 50.2339ZM94.417 50.2687C94.2917 50.3627 94.167 50.4608 94.0444 50.5637L94.6874 51.3296C94.7938 51.2402 94.9039 51.1535 95.0172 51.0686L94.417 50.2687ZM94.0466 50.5619C94.0378 50.5691 94.03 50.576 94.0272 50.5784C94.023 50.5821 94.0238 50.5813 94.0255 50.5799L94.664 51.3495C94.6728 51.3422 94.6807 51.3354 94.6834 51.333C94.6876 51.3293 94.6868 51.3301 94.6852 51.3314L94.0466 50.5619ZM94.0221 50.5827C93.8976 50.6879 93.7747 50.797 93.6543 50.9104L94.3401 51.6382C94.4461 51.5384 94.5553 51.4414 94.6674 51.3467L94.0221 50.5827ZM93.6437 50.9207C93.6502 50.9142 93.6568 50.9081 93.6632 50.9025L94.3182 51.6582C94.3291 51.6487 94.34 51.6386 94.3508 51.6278L93.6437 50.9207ZM93.6472 50.917C93.5282 51.0295 93.4137 51.1451 93.3029 51.2617L94.028 51.9503C94.129 51.844 94.2308 51.7415 94.3342 51.6437L93.6472 50.917ZM93.3049 51.2597C93.3004 51.2643 93.2806 51.2846 93.267 51.2992L93.9977 51.9818C94.0057 51.9733 94.0084 51.9708 94.0261 51.9524L93.3049 51.2597ZM93.2679 51.2982C93.1604 51.4127 93.0569 51.5298 92.9566 51.6484L93.7203 52.294C93.8111 52.1866 93.9029 52.0828 93.9968 51.9828L93.2679 51.2982ZM92.9538 51.6518C92.9216 51.6906 92.9519 51.6534 92.9112 51.7023L93.6794 52.3425C93.685 52.3358 93.6907 52.329 93.6983 52.3201C93.7053 52.3118 93.7141 52.3014 93.7231 52.2906L92.9538 51.6518ZM92.9109 51.7027C92.813 51.8203 92.7178 51.9409 92.6255 52.0643L93.4261 52.6634C93.5082 52.5538 93.5928 52.4466 93.6797 52.3421L92.9109 51.7027ZM92.6266 52.0629C92.6286 52.0602 92.6299 52.0586 92.6299 52.0585C92.63 52.0585 92.6298 52.0587 92.6293 52.0593C92.6288 52.0599 92.6282 52.0606 92.6272 52.0619C92.6255 52.064 92.622 52.0683 92.6182 52.0729C92.6143 52.0778 92.6092 52.0843 92.6035 52.0919L93.402 52.6939C93.4 52.6965 93.3987 52.6982 93.3986 52.6982C93.3986 52.6982 93.3988 52.6981 93.3992 52.6975C93.3997 52.6968 93.4003 52.6961 93.4014 52.6948C93.4031 52.6928 93.4066 52.6885 93.4103 52.6838C93.4142 52.6789 93.4194 52.6724 93.4251 52.6648L92.6266 52.0629ZM93.0027 51.8929H82.1962V52.8929H93.0027V51.8929ZM82.6962 52.3929V40.0359H81.6962V52.3929H82.6962ZM82.6962 40.0359V9.66816H81.6962V40.0359H82.6962ZM82.1899 10.1681C91.419 10.2845 100.076 13.9322 106.616 20.4714L107.323 19.7643C100.599 13.0407 91.6925 9.28787 82.2025 9.1682L82.1899 10.1681ZM106.616 20.4714C113.263 27.1183 116.923 35.9529 116.923 45.3524H117.923C117.923 35.6876 114.158 26.5987 107.323 19.7643L106.616 20.4714ZM116.923 45.3524V52.3929H117.923V45.3524H116.923ZM99.8104 63.024C96.7455 63.024 94.2511 60.5298 94.2511 57.4648H93.2511C93.2511 61.0821 96.1932 64.024 99.8104 64.024V63.024ZM94.2511 57.4648C94.2511 56.4182 94.5436 55.4001 95.0967 54.5188L94.2497 53.9872C93.5961 55.0286 93.2511 56.2311 93.2511 57.4648H94.2511ZM95.0969 54.5184C96.1216 52.8821 97.882 51.907 99.8104 51.907V50.907C97.5372 50.907 95.4567 52.0597 94.2494 53.9876L95.0969 54.5184ZM99.8104 51.907C100.051 51.907 100.29 51.9224 100.525 51.9523L100.651 50.9602C100.375 50.9251 100.094 50.907 99.8104 50.907V51.907ZM100.525 51.9522C100.665 51.9701 100.806 51.9955 100.951 52.0256L101.154 51.0464C100.993 51.013 100.825 50.9825 100.652 50.9603L100.525 51.9522ZM100.951 52.0256C102.416 52.3293 103.705 53.2119 104.524 54.5192L105.372 53.988C104.407 52.4491 102.885 51.4053 101.154 51.0464L100.951 52.0256ZM104.532 54.5309L104.532 54.5318L105.365 53.9772L105.364 53.9763L104.532 54.5309ZM104.525 54.5198C105.076 55.4011 105.368 56.4192 105.368 57.4648H106.368C106.368 56.2324 106.024 55.0304 105.372 53.9893L104.525 54.5198ZM105.368 57.4648C105.368 60.5299 102.874 63.024 99.8104 63.024V64.024C103.427 64.024 106.368 61.082 106.368 57.4648H105.368ZM79.7658 51.8929H71.2498V52.8929H79.7658V51.8929ZM71.6541 52.0988C71.642 52.0821 71.6307 52.0682 71.6269 52.0635C71.624 52.0599 71.6237 52.0596 71.6231 52.0588C71.6229 52.0586 71.6241 52.0601 71.6261 52.0627L70.8276 52.6647C70.8333 52.6722 70.8383 52.6786 70.842 52.6832C70.8452 52.6873 70.8488 52.6917 70.8499 52.693C70.8515 52.6951 70.8515 52.695 70.8509 52.6943C70.8502 52.6934 70.8482 52.6908 70.8454 52.687L71.6541 52.0988ZM71.6269 52.0638C71.5352 51.9415 71.4406 51.8215 71.3429 51.704L70.5743 52.3438C70.6606 52.4475 70.7447 52.5541 70.8268 52.6636L71.6269 52.0638ZM71.3437 51.7051C71.3267 51.6845 71.3063 51.6606 71.2945 51.6467L70.53 52.2912C70.5492 52.314 70.5598 52.3263 70.5734 52.3428L71.3437 51.7051ZM71.2937 51.6457C71.1951 51.5292 71.0929 51.4135 70.9867 51.3004L70.2575 51.9846C70.35 52.0832 70.4408 52.1859 70.5308 52.2921L71.2937 51.6457ZM70.9878 51.3015C70.9778 51.2908 70.9684 51.2811 70.9616 51.2741C70.9538 51.266 70.9498 51.2619 70.9454 51.2573L70.222 51.9478C70.2485 51.9755 70.2435 51.9696 70.2565 51.9835L70.9878 51.3015ZM70.9459 51.2579C70.8373 51.1437 70.7248 51.0301 70.6079 50.9193L69.9203 51.6454C70.0218 51.7415 70.1217 51.8424 70.2215 51.9472L70.9459 51.2579ZM70.6004 50.9124C70.5982 50.9104 70.5962 50.9085 70.5947 50.9072C70.5929 50.9056 70.5924 50.9051 70.5914 50.9042C70.5897 50.9027 70.5902 50.9031 70.5914 50.9042L69.9067 51.6331C69.913 51.6389 69.9184 51.6439 69.9218 51.6469C69.9265 51.6512 69.9261 51.6508 69.9278 51.6523L70.6004 50.9124ZM70.5918 50.9047C70.4755 50.7951 70.3568 50.6896 70.2361 50.5875L69.5903 51.351C69.6984 51.4425 69.8039 51.5362 69.9063 51.6327L70.5918 50.9047ZM70.2351 50.5867C70.2339 50.5857 70.2326 50.5845 70.2266 50.5793C70.2219 50.5752 70.2133 50.5678 70.2036 50.5597L69.5658 51.3299C69.5656 51.3298 69.5658 51.33 69.5668 51.3308C69.5678 51.3317 69.5691 51.3328 69.5714 51.3347C69.5748 51.3378 69.583 51.3448 69.5913 51.3519L70.2351 50.5867ZM70.2058 50.5616C70.0854 50.4607 69.9631 50.3645 69.8403 50.2721L69.2391 51.0713C69.3505 51.1551 69.4588 51.2403 69.5635 51.328L70.2058 50.5616ZM69.8409 50.2726C69.8365 50.2693 69.8029 50.2436 69.7886 50.2329L69.1909 51.0346C69.2099 51.0488 69.2095 51.0489 69.2385 51.0708L69.8409 50.2726ZM69.7874 50.232C69.6652 50.1415 69.5416 50.0554 69.4176 49.9728L68.8634 50.8052C68.9758 50.88 69.0854 50.9565 69.192 51.0354L69.7874 50.232ZM69.4179 49.973C69.3998 49.961 69.3764 49.9452 69.3534 49.9303L68.8076 50.7682C68.8247 50.7793 68.8411 50.7904 68.8632 50.805L69.4179 49.973ZM69.354 49.9306C69.2292 49.8491 69.1021 49.7705 68.9729 49.6952L68.4693 50.5591C68.5834 50.6257 68.6961 50.6953 68.807 50.7678L69.354 49.9306ZM68.9709 49.694C68.9495 49.6817 68.9283 49.6695 68.9077 49.6577L68.4102 50.5252C68.431 50.5371 68.4511 50.5486 68.4713 50.5603L68.9709 49.694ZM68.907 49.6573C68.7772 49.5831 68.6448 49.5112 68.5095 49.4426L68.0572 50.3344C68.1758 50.3946 68.2935 50.4585 68.411 50.5256L68.907 49.6573ZM68.5085 49.4421C68.4897 49.4326 68.4626 49.4194 68.452 49.4141L68.0078 50.3101C68.0327 50.3224 68.0415 50.3265 68.0582 50.335L68.5085 49.4421ZM68.4522 49.4143C68.3143 49.3457 68.1733 49.2793 68.0293 49.2167L67.6306 50.1338C67.7564 50.1885 67.8818 50.2475 68.0075 50.3099L68.4522 49.4143ZM68.0252 49.215C68.0174 49.2117 68.0101 49.2087 68.0055 49.2068C68.0002 49.2046 67.9976 49.2035 67.9953 49.2025L67.6047 50.1231C67.6125 50.1264 67.6198 50.1294 67.6244 50.1313C67.6297 50.1335 67.6324 50.1346 67.6347 50.1355L68.0252 49.215ZM67.9968 49.2031C67.8511 49.1408 67.7031 49.0816 67.5526 49.0263L67.2081 49.9651C67.3406 50.0137 67.4722 50.0663 67.6032 50.1224L67.9968 49.2031ZM67.5559 49.0275C67.5572 49.0281 67.558 49.0284 67.5575 49.0282C67.5573 49.0281 67.5569 49.0279 67.5562 49.0276C67.5556 49.0274 67.5545 49.027 67.5534 49.0266C67.5493 49.025 67.5395 49.0211 67.5275 49.0169L67.1972 49.9608C67.1914 49.9588 67.1874 49.9572 67.1893 49.9579C67.1897 49.9581 67.1901 49.9582 67.1909 49.9586C67.1917 49.9589 67.1928 49.9593 67.1941 49.9598C67.1966 49.9608 67.2003 49.9622 67.2047 49.9639L67.5559 49.0275ZM67.5335 49.0191C67.3827 48.9641 67.2312 48.9144 67.0803 48.8685L66.7893 49.8252C66.9261 49.8668 67.0602 49.9109 67.1913 49.9587L67.5335 49.0191ZM67.0812 48.8688C67.0752 48.8669 67.0701 48.8653 67.0595 48.862C67.0503 48.8591 67.0377 48.8551 67.0239 48.8511L66.7436 49.811C66.7595 49.8156 66.7546 49.8146 66.7883 49.8249L67.0812 48.8688ZM67.0266 48.8519C66.8785 48.8077 66.7301 48.7683 66.5825 48.7324L66.3459 49.704C66.4802 49.7367 66.6119 49.7717 66.7408 49.8102L67.0266 48.8519ZM66.5824 48.7323C66.5619 48.7274 66.5364 48.7211 66.5113 48.7152L66.2826 49.6887C66.3027 49.6934 66.3215 49.6981 66.346 49.704L66.5824 48.7323ZM66.5112 48.7152C66.363 48.6804 66.2141 48.6498 66.0654 48.6228L65.8866 49.6067C66.0204 49.631 66.1526 49.6582 66.2827 49.6887L66.5112 48.7152ZM66.0638 48.6225C66.0407 48.6184 66.0153 48.6138 65.99 48.6095L65.8195 49.5948C65.8416 49.5986 65.8636 49.6026 65.8882 49.607L66.0638 48.6225ZM65.9893 48.6093C65.8395 48.5836 65.688 48.5611 65.5345 48.5427L65.4153 49.5355C65.5504 49.5517 65.6851 49.5717 65.8202 49.5949L65.9893 48.6093ZM65.5339 48.5426C65.5094 48.5397 65.4834 48.5369 65.4644 48.5348L65.3547 49.5288C65.3798 49.5316 65.3969 49.5333 65.4159 49.5356L65.5339 48.5426ZM65.4652 48.5349C65.3106 48.5176 65.1535 48.5033 64.9942 48.4935L64.9333 49.4917C65.0729 49.5002 65.213 49.5129 65.3539 49.5287L65.4652 48.5349ZM64.9937 48.4935C64.9802 48.4927 64.9676 48.4922 64.9608 48.4919C64.9524 48.4916 64.9499 48.4915 64.9484 48.4914L64.8879 49.4896C64.9015 49.4904 64.9142 49.4909 64.921 49.4912C64.9295 49.4915 64.9321 49.4916 64.9338 49.4917L64.9937 48.4935ZM64.9456 48.4912C64.7809 48.4822 64.6135 48.4767 64.4438 48.4767V49.4767C64.5919 49.4767 64.7407 49.4815 64.8907 49.4897L64.9456 48.4912ZM64.4438 48.4767C64.274 48.4767 64.1066 48.4822 63.9418 48.4912L63.9967 49.4897C64.1467 49.4815 64.2955 49.4767 64.4438 49.4767V48.4767ZM63.9393 48.4914C63.9375 48.4915 63.9349 48.4916 63.9265 48.492C63.9197 48.4922 63.9072 48.4927 63.8937 48.4935L63.9536 49.4917C63.9554 49.4916 63.958 49.4915 63.9665 49.4912C63.9732 49.4909 63.9858 49.4904 63.9992 49.4896L63.9393 48.4914ZM63.8933 48.4935C63.7338 48.5033 63.5766 48.5176 63.4219 48.5349L63.5332 49.5287C63.6741 49.5129 63.8143 49.5002 63.9541 49.4917L63.8933 48.4935ZM63.422 48.5349C63.4058 48.5367 63.3768 48.5398 63.3532 48.5426L63.4713 49.5356C63.4911 49.5332 63.5059 49.5317 63.5332 49.5287L63.422 48.5349ZM63.3527 48.5427C63.1991 48.5611 63.0476 48.5836 62.8979 48.6094L63.0672 49.5949C63.2021 49.5717 63.3368 49.5517 63.4718 49.5355L63.3527 48.5427ZM62.8978 48.6094C62.8723 48.6138 62.847 48.6182 62.8227 48.6226L62.9993 49.6069C63.0224 49.6027 63.0451 49.5987 63.0673 49.5949L62.8978 48.6094ZM62.8218 48.6228C62.6723 48.6499 62.5235 48.6806 62.3755 48.7153L62.6038 49.6889C62.7344 49.6583 62.8666 49.631 63.0002 49.6067L62.8218 48.6228ZM62.3762 48.7151C62.3502 48.7212 62.3249 48.7274 62.3028 48.7329L62.5437 49.7035C62.5656 49.698 62.5847 49.6933 62.603 49.6891L62.3762 48.7151ZM62.3059 48.7321C62.1567 48.7682 62.008 48.8078 61.86 48.8518L62.1452 49.8103C62.2749 49.7717 62.4066 49.7366 62.5406 49.7042L62.3059 48.7321ZM61.859 48.8521C61.8468 48.8558 61.8352 48.8595 61.8277 48.8618C61.819 48.8645 61.8142 48.866 61.81 48.8673L62.095 49.8258C62.1077 49.822 62.1195 49.8183 62.1276 49.8158C62.1368 49.8129 62.1417 49.8113 62.1463 49.81L61.859 48.8521ZM61.807 48.8682C61.6554 48.9143 61.5038 48.9642 61.3528 49.0193L61.6952 49.9588C61.8267 49.9109 61.961 49.8666 62.098 49.8249L61.807 48.8682ZM61.3583 49.0173C61.3491 49.0205 61.3414 49.0234 61.3362 49.0254C61.3336 49.0264 61.3313 49.0273 61.3298 49.0279C61.3278 49.0287 61.3273 49.0289 61.3264 49.0292L61.6888 49.9613C61.6906 49.9605 61.6928 49.9597 61.6936 49.9594C61.6947 49.9589 61.6951 49.9588 61.6953 49.9587C61.6955 49.9586 61.6933 49.9595 61.6897 49.9608L61.3583 49.0173ZM61.3358 49.0257C61.1839 49.0813 61.0344 49.141 60.8874 49.204L61.2814 50.1231C61.413 50.0667 61.5457 50.0137 61.6794 49.9648L61.3358 49.0257ZM60.8799 49.2073C60.8832 49.2058 60.8851 49.2051 60.881 49.2068C60.8799 49.2072 60.8761 49.2088 60.8731 49.21C60.8697 49.2114 60.865 49.2134 60.8598 49.2156L61.2556 50.134C61.2547 50.1343 61.2545 50.1344 61.2555 50.134C61.257 50.1334 61.2577 50.1331 61.2611 50.1317C61.266 50.1297 61.2768 50.1253 61.2889 50.1198L60.8799 49.2073ZM60.8587 49.2161C60.7133 49.2791 60.5708 49.3462 60.4314 49.4156L60.8774 50.3107C61.0032 50.248 61.1295 50.1886 61.2566 50.1335L60.8587 49.2161ZM60.4291 49.4168C60.4237 49.4195 60.4178 49.4224 60.409 49.4267C60.4011 49.4306 60.3903 49.4359 60.3792 49.4415L60.8296 50.3343C60.8351 50.3316 60.841 50.3287 60.8497 50.3244C60.8577 50.3205 60.8685 50.3152 60.8796 50.3095L60.4291 49.4168ZM60.3787 49.4418C60.2418 49.511 60.1079 49.5838 59.9771 49.6585L60.4731 50.5268C60.5917 50.4591 60.7106 50.3945 60.8301 50.3341L60.3787 49.4418ZM59.9759 49.6592C59.9603 49.6682 59.9363 49.6818 59.9155 49.6939L60.419 50.5579C60.4368 50.5476 60.4514 50.5393 60.4743 50.5262L59.9759 49.6592ZM59.9153 49.6941C59.785 49.7701 59.6565 49.8495 59.5303 49.9319L60.0769 50.7693C60.1894 50.6958 60.3037 50.6252 60.4192 50.5578L59.9153 49.6941ZM59.5303 49.9319C59.5105 49.9448 59.4876 49.9601 59.4727 49.97L60.0242 50.8041C60.046 50.7897 60.06 50.7803 60.0769 50.7693L59.5303 49.9319ZM59.4717 49.9706C59.3453 50.0546 59.2199 50.1422 59.0963 50.2338L59.6921 51.037C59.8004 50.9567 59.9116 50.879 60.0252 50.8035L59.4717 49.9706ZM59.0962 50.2339C59.0833 50.2435 59.052 50.2674 59.0497 50.2692L59.651 51.0682C59.6781 51.0478 59.6757 51.0491 59.6922 51.0369L59.0962 50.2339ZM59.05 50.2689C58.925 50.3628 58.8004 50.4608 58.6778 50.5637L59.3208 51.3296C59.4272 51.2402 59.5374 51.1535 59.6507 51.0684L59.05 50.2689ZM58.68 50.5619C58.6713 50.5691 58.6634 50.576 58.6607 50.5784C58.6564 50.582 58.6573 50.5813 58.6589 50.5799L59.2975 51.3495C59.3062 51.3422 59.314 51.3354 59.3168 51.333C59.321 51.3293 59.3202 51.3301 59.3186 51.3314L58.68 50.5619ZM58.6555 50.5827C58.531 50.6879 58.4081 50.797 58.2877 50.9104L58.9735 51.6382C59.0795 51.5384 59.1887 51.4414 59.3008 51.3467L58.6555 50.5827ZM58.2771 50.9207C58.2836 50.9142 58.2902 50.9081 58.2966 50.9025L58.9516 51.6582C58.9626 51.6487 58.9734 51.6386 58.9842 51.6278L58.2771 50.9207ZM58.2806 50.917C58.1617 51.0295 58.0471 51.1451 57.9363 51.2617L58.6615 51.9503C58.7624 51.844 58.8642 51.7415 58.9676 51.6437L58.2806 50.917ZM57.9383 51.2597C57.9338 51.2643 57.914 51.2846 57.9004 51.2992L58.6311 51.9818C58.6391 51.9733 58.6418 51.9709 58.6595 51.9524L57.9383 51.2597ZM57.9013 51.2982C57.7938 51.4127 57.6903 51.5298 57.59 51.6484L58.3537 52.294C58.4445 52.1866 58.5363 52.0828 58.6302 51.9828L57.9013 51.2982ZM57.5872 51.6518C57.5549 51.6906 57.5854 51.6533 57.5446 51.7023L58.3128 52.3425C58.3184 52.3358 58.3241 52.329 58.3317 52.3201C58.3387 52.3118 58.3475 52.3014 58.3565 52.2906L57.5872 51.6518ZM57.5443 51.7027C57.4465 51.8203 57.3512 51.9409 57.2589 52.0643L58.0596 52.6634C58.1416 52.5538 58.2262 52.4466 58.3131 52.3421L57.5443 51.7027ZM57.26 52.0629C57.262 52.0602 57.2633 52.0586 57.2633 52.0585C57.2634 52.0585 57.2632 52.0587 57.2628 52.0593C57.2622 52.0599 57.2616 52.0606 57.2606 52.0619C57.2589 52.064 57.2554 52.0683 57.2517 52.0729C57.2478 52.0778 57.2426 52.0843 57.2369 52.0919L58.0354 52.6939C58.0334 52.6965 58.0321 52.6982 58.032 52.6982C58.032 52.6982 58.0322 52.6981 58.0326 52.6975C58.0332 52.6968 58.0338 52.6961 58.0348 52.6948C58.0365 52.6928 58.04 52.6885 58.0437 52.6838C58.0476 52.6789 58.0528 52.6724 58.0585 52.6648L57.26 52.0629ZM57.6362 51.8929H28.7638V52.8929H57.6362V51.8929ZM29.1653 52.0948C29.1548 52.0807 29.1451 52.0687 29.1416 52.0644C29.1392 52.0613 29.1386 52.0606 29.1381 52.06C29.1378 52.0596 29.1387 52.0607 29.1402 52.0627L28.3416 52.6647C28.3469 52.6716 28.3516 52.6776 28.3551 52.6821C28.3584 52.6862 28.3617 52.6903 28.3632 52.6921C28.3674 52.6974 28.3654 52.695 28.3624 52.6909L29.1653 52.0948ZM29.141 52.0638C29.0493 51.9415 28.9547 51.8215 28.8569 51.704L28.0884 52.3438C28.1747 52.4475 28.2588 52.5542 28.3408 52.6636L29.141 52.0638ZM28.8578 51.7051C28.8396 51.6831 28.821 51.6614 28.8069 51.6448L28.0454 52.293C28.0626 52.3132 28.075 52.3276 28.0875 52.3428L28.8578 51.7051ZM28.8077 51.6457C28.7092 51.5294 28.6071 51.4136 28.5004 51.3001L27.7717 51.9849C27.864 52.0831 27.9545 52.1857 28.0447 52.2921L28.8077 51.6457ZM28.5017 51.3015C28.4917 51.2908 28.4824 51.2811 28.4756 51.2741C28.4677 51.266 28.4637 51.2619 28.4593 51.2573L27.7359 51.9478C27.7624 51.9755 27.7575 51.9696 27.7704 51.9835L28.5017 51.3015ZM28.4601 51.2582C28.3514 51.1437 28.2389 51.0301 28.122 50.9193L27.4343 51.6454C27.5359 51.7415 27.6357 51.8423 27.7351 51.9469L28.4601 51.2582ZM28.1145 50.9124C28.1114 50.9096 28.1087 50.9071 28.1071 50.9057C28.1048 50.9036 28.1048 50.9037 28.104 50.9029C28.103 50.902 28.1063 50.905 28.111 50.9095L27.4152 51.6278C27.4248 51.6371 27.4332 51.6446 27.4372 51.6482C27.4389 51.6497 27.4415 51.652 27.4417 51.6522C27.4426 51.653 27.4424 51.6528 27.4418 51.6523L28.1145 50.9124ZM28.1059 50.9047C27.9896 50.7951 27.8708 50.6895 27.7498 50.5873L27.1045 51.3512C27.2126 51.4426 27.318 51.5362 27.4204 51.6327L28.1059 50.9047ZM27.752 50.5892C27.7491 50.5867 27.7464 50.5844 27.7406 50.5794C27.7357 50.575 27.7285 50.5688 27.7206 50.5622L27.0769 51.3274C27.0878 51.3367 27.0801 51.3304 27.1022 51.3493L27.752 50.5892ZM27.7199 50.5616C27.5995 50.4607 27.4771 50.3645 27.354 50.272L26.7533 51.0715C26.8647 51.1552 26.9729 51.2403 27.0776 51.328L27.7199 50.5616ZM27.3565 50.2739C27.3466 50.2664 27.3215 50.2469 27.3026 50.2329L26.705 51.0346C26.7195 51.0454 26.7275 51.0518 26.7507 51.0695L27.3565 50.2739ZM27.3012 50.2318C27.1792 50.1415 27.0558 50.0554 26.9313 49.9727L26.3776 50.8054C26.4897 50.88 26.5993 50.9564 26.7064 51.0356L27.3012 50.2318ZM26.9332 49.974C26.9138 49.9609 26.891 49.9456 26.8675 49.9303L26.3216 50.7682C26.3382 50.779 26.3552 50.7904 26.3756 50.8041L26.9332 49.974ZM26.8681 49.9306C26.7431 49.849 26.616 49.7705 26.4873 49.6953L25.9831 50.559C26.0975 50.6257 26.2103 50.6954 26.3211 50.7678L26.8681 49.9306ZM26.485 49.694C26.4636 49.6817 26.4424 49.6695 26.4218 49.6577L25.9243 50.5252C25.9451 50.5371 25.9652 50.5486 25.9854 50.5603L26.485 49.694ZM26.4211 49.6573C26.2913 49.5831 26.1589 49.5112 26.0236 49.4426L25.5713 50.3344C25.6899 50.3946 25.8076 50.4585 25.9251 50.5256L26.4211 49.6573ZM26.0225 49.4421C26.0018 49.4316 25.9781 49.4201 25.9644 49.4134L25.5232 50.3108C25.5453 50.3217 25.5575 50.3275 25.5723 50.335L26.0225 49.4421ZM25.9664 49.4144C25.8284 49.3458 25.6873 49.2793 25.5433 49.2167L25.1447 50.1338C25.2704 50.1885 25.3958 50.2475 25.5212 50.3098L25.9664 49.4144ZM25.5393 49.215C25.5315 49.2117 25.5242 49.2087 25.5196 49.2068C25.5143 49.2046 25.5116 49.2035 25.5094 49.2025L25.1188 50.1231C25.1266 50.1264 25.1339 50.1294 25.1385 50.1313C25.1438 50.1335 25.1464 50.1346 25.1487 50.1355L25.5393 49.215ZM25.5109 49.2031C25.3651 49.1408 25.2172 49.0816 25.0666 49.0263L24.7221 49.9651C24.8547 50.0137 24.9863 50.0663 25.1173 50.1224L25.5109 49.2031ZM25.0699 49.0275C25.0707 49.0278 25.0709 49.0279 25.0701 49.0276C25.0696 49.0274 25.0692 49.0272 25.0684 49.0269C25.0676 49.0266 25.0666 49.0262 25.0654 49.0258C25.0612 49.0242 25.0522 49.0207 25.0415 49.0169L24.7111 49.9608C24.7064 49.9592 24.7035 49.958 24.7053 49.9587C24.7056 49.9588 24.7061 49.959 24.7068 49.9593C24.7075 49.9595 24.7085 49.9599 24.7096 49.9604C24.7118 49.9612 24.715 49.9625 24.7188 49.9639L25.0699 49.0275ZM25.0476 49.0191C24.8968 48.9641 24.7452 48.9144 24.5943 48.8685L24.3034 49.8252C24.4402 49.8668 24.5742 49.9109 24.705 49.9586L25.0476 49.0191ZM24.5953 48.8688C24.5953 48.8688 24.5565 48.8565 24.538 48.8511L24.2577 49.811C24.2735 49.8156 24.2687 49.8146 24.3024 49.8249L24.5953 48.8688ZM24.5407 48.8519C24.3926 48.8077 24.2442 48.7683 24.0966 48.7324L23.86 49.704C23.9943 49.7367 24.126 49.7717 24.2549 49.8102L24.5407 48.8519ZM24.0965 48.7323C24.075 48.7271 24.0505 48.7211 24.0261 48.7154L23.7959 49.6885C23.8164 49.6934 23.8366 49.6983 23.8601 49.704L24.0965 48.7323ZM24.0252 48.7152C23.877 48.6804 23.7282 48.6498 23.5792 48.6228L23.4006 49.6067C23.5345 49.631 23.6667 49.6582 23.7967 49.6887L24.0252 48.7152ZM23.5783 48.6226C23.5548 48.6184 23.5296 48.6139 23.5041 48.6095L23.3336 49.5948C23.3555 49.5986 23.3776 49.6026 23.4016 49.6069L23.5783 48.6226ZM23.5034 48.6093C23.3536 48.5836 23.2021 48.5611 23.0485 48.5427L22.9294 49.5355C23.0644 49.5517 23.1991 49.5717 23.3343 49.5949L23.5034 48.6093ZM23.048 48.5426C23.0238 48.5397 22.9966 48.5368 22.9789 48.5349L22.8684 49.5287C22.8945 49.5316 22.9106 49.5333 22.9299 49.5356L23.048 48.5426ZM22.9793 48.5349C22.8247 48.5176 22.6675 48.5033 22.5081 48.4935L22.4473 49.4917C22.587 49.5002 22.727 49.5129 22.868 49.5287L22.9793 48.5349ZM22.5079 48.4935C22.4944 48.4927 22.4817 48.4922 22.4749 48.492C22.4665 48.4916 22.464 48.4915 22.4625 48.4914L22.402 49.4896C22.4155 49.4904 22.4283 49.4909 22.435 49.4911C22.4435 49.4915 22.4459 49.4916 22.4474 49.4917L22.5079 48.4935ZM22.4597 48.4912C22.2948 48.4822 22.1274 48.4767 21.9579 48.4767V49.4767C22.1058 49.4767 22.2547 49.4815 22.4048 49.4897L22.4597 48.4912ZM21.9579 48.4767C21.7881 48.4767 21.6206 48.4822 21.4557 48.4912L21.5106 49.4897C21.6608 49.4815 21.8096 49.4767 21.9579 49.4767V48.4767ZM21.4529 48.4914C21.4514 48.4915 21.449 48.4916 21.4405 48.492C21.4338 48.4922 21.421 48.4927 21.4075 48.4935L21.468 49.4917C21.4695 49.4916 21.472 49.4915 21.4805 49.4911C21.4872 49.4909 21.4999 49.4904 21.5134 49.4896L21.4529 48.4914ZM21.4074 48.4935C21.2478 48.5033 21.0906 48.5176 20.936 48.5349L21.0473 49.5287C21.1882 49.5129 21.3282 49.5002 21.4681 49.4917L21.4074 48.4935ZM20.9364 48.5349C20.9193 48.5368 20.8912 48.5397 20.8672 48.5426L20.9852 49.5356C21.0046 49.5333 21.0202 49.5317 21.0469 49.5287L20.9364 48.5349ZM20.8666 48.5427C20.713 48.5611 20.5617 48.5836 20.4119 48.6093L20.581 49.5949C20.7162 49.5717 20.8507 49.5517 20.9858 49.5355L20.8666 48.5427ZM20.4117 48.6094C20.3861 48.6138 20.3607 48.6183 20.3371 48.6225L20.5127 49.607C20.5368 49.6027 20.5591 49.5987 20.5812 49.5949L20.4117 48.6094ZM20.3356 48.6228C20.1863 48.6499 20.0377 48.6806 19.8901 48.715L20.1173 49.6888C20.2483 49.6583 20.3807 49.6309 20.5142 49.6067L20.3356 48.6228ZM19.8871 48.7157C19.8634 48.7214 19.8399 48.7271 19.8173 48.7327L20.0567 49.7036C20.0784 49.6983 20.0996 49.6931 20.1203 49.6882L19.8871 48.7157ZM19.8194 48.7322C19.6708 48.7682 19.522 48.8078 19.3739 48.8519L19.6595 49.8102C19.7888 49.7717 19.9207 49.7366 20.0546 49.7042L19.8194 48.7322ZM19.3742 48.8518C19.3557 48.8573 19.3231 48.8676 19.3188 48.869L19.6141 49.8244C19.6431 49.8154 19.644 49.8148 19.6592 49.8103L19.3742 48.8518ZM19.3208 48.8684C19.1699 48.9143 19.0182 48.964 18.8671 49.019L19.209 49.9587C19.3402 49.911 19.4746 49.8669 19.6121 49.825L19.3208 48.8684ZM18.8611 49.0212C18.858 49.0224 18.8552 49.0235 18.8535 49.0242C18.8511 49.0251 18.8509 49.0251 18.8499 49.0255C18.8485 49.0261 18.8512 49.025 18.8555 49.0235L19.187 49.967C19.1969 49.9635 19.2052 49.9603 19.2094 49.9587C19.2112 49.958 19.2138 49.957 19.2143 49.9568C19.2153 49.9564 19.2154 49.9564 19.215 49.9565L18.8611 49.0212ZM18.8486 49.026C18.6977 49.0815 18.5487 49.1409 18.4016 49.2039L18.7951 50.1232C18.9269 50.0668 19.0598 50.0138 19.1938 49.9645L18.8486 49.026ZM18.3938 49.2073C18.3973 49.2057 18.3991 49.205 18.3955 49.2065C18.3948 49.2068 18.3939 49.2071 18.3927 49.2076C18.3916 49.2081 18.3901 49.2087 18.3885 49.2093C18.3855 49.2106 18.3812 49.2124 18.3764 49.2144L18.7665 50.1352C18.7662 50.1353 18.7664 50.1352 18.7678 50.1346C18.7685 50.1343 18.7693 50.134 18.7704 50.1336C18.7714 50.1332 18.7729 50.1326 18.7743 50.132C18.7798 50.1297 18.7906 50.1253 18.8029 50.1198L18.3938 49.2073ZM18.3725 49.2161C18.2268 49.2793 18.0846 49.3463 17.9455 49.4155L18.3911 50.3108C18.5175 50.2479 18.6436 50.1885 18.7704 50.1335L18.3725 49.2161ZM17.9431 49.4168C17.921 49.4279 17.9268 49.4247 17.8947 49.4407L18.3419 50.3351C18.3433 50.3344 18.3825 50.3151 18.3935 50.3095L17.9431 49.4168ZM17.8926 49.4418C17.756 49.5109 17.622 49.5835 17.4906 49.6587L17.9874 50.5266C18.1055 50.459 18.2243 50.3947 18.344 50.3341L17.8926 49.4418ZM17.4899 49.6592C17.474 49.6683 17.4499 49.682 17.4281 49.6948L17.9345 50.5571C17.951 50.5474 17.9655 50.5392 17.9882 50.5262L17.4899 49.6592ZM17.4296 49.6939C17.299 49.77 17.1704 49.8495 17.0441 49.932L17.5912 50.7691C17.7034 50.6958 17.8175 50.6252 17.9331 50.5579L17.4296 49.6939ZM17.0459 49.9309C17.0247 49.9446 17.0018 49.9599 16.9866 49.97L17.5381 50.8041C17.5597 50.7899 17.5736 50.7806 17.5894 50.7703L17.0459 49.9309ZM16.9859 49.9705C16.859 50.0547 16.7337 50.1423 16.6103 50.2338L17.206 51.037C17.3144 50.9566 17.4255 50.8789 17.5389 50.8036L16.9859 49.9705ZM16.6101 50.2339C16.6001 50.2414 16.5905 50.2487 16.5836 50.254C16.5759 50.2598 16.5709 50.2636 16.5662 50.267L17.1623 51.07C17.1723 51.0625 17.1819 51.0552 17.1888 51.05C17.1965 51.0441 17.2015 51.0403 17.2062 51.0369L16.6101 50.2339ZM16.5636 50.269C16.4387 50.363 16.3144 50.4608 16.1922 50.5633L16.8346 51.3297C16.9414 51.2402 17.0516 51.1533 17.1649 51.068L16.5636 50.269ZM16.1933 50.5624C16.1846 50.5696 16.1768 50.5765 16.1739 50.579C16.1696 50.5827 16.1703 50.5821 16.1717 50.5809L16.8119 51.3491C16.8206 51.3419 16.8284 51.335 16.8313 51.3325C16.8355 51.3288 16.8349 51.3294 16.8335 51.3306L16.1933 50.5624ZM16.1695 50.5828C16.0445 50.6881 15.922 50.7972 15.8022 50.9098L16.4875 51.6381C16.5938 51.5382 16.7027 51.4412 16.8141 51.3473L16.1695 50.5828ZM15.7913 50.9204C15.7976 50.9142 15.8024 50.9097 15.8029 50.9092C15.803 50.9092 15.8036 50.9086 15.8021 50.91C15.8012 50.9108 15.7992 50.9127 15.7967 50.915L16.479 51.646C16.4777 51.6473 16.4768 51.6481 16.4771 51.6478C16.4774 51.6475 16.4771 51.6478 16.4779 51.6471C16.4783 51.6467 16.479 51.6461 16.4798 51.6454C16.4827 51.6427 16.4899 51.6361 16.4984 51.6275L15.7913 50.9204ZM15.7941 50.9174C15.6757 51.0296 15.5613 51.1448 15.4503 51.2615L16.175 51.9506C16.2761 51.8442 16.378 51.7417 16.4816 51.6436L15.7941 50.9174ZM15.4497 51.2622C15.4456 51.2665 15.4412 51.271 15.4355 51.277C15.4302 51.2825 15.4235 51.2894 15.4167 51.2966L16.1427 51.9844C16.1468 51.98 16.1511 51.9755 16.1568 51.9696C16.1621 51.9641 16.1688 51.9571 16.1756 51.9499L15.4497 51.2622ZM15.415 51.2985C15.3079 51.4126 15.2043 51.5296 15.1038 51.6487L15.868 52.2937C15.9583 52.1867 16.0503 52.0829 16.1444 51.9825L15.415 51.2985ZM15.1063 51.6458C15.092 51.6625 15.0746 51.6828 15.0569 51.7043L15.8284 52.3405C15.8392 52.3274 15.8507 52.3139 15.8656 52.2966L15.1063 51.6458ZM15.0585 51.7023C14.96 51.8206 14.8651 51.9412 14.7732 52.0636L15.5728 52.6641C15.6559 52.5535 15.7403 52.4463 15.8268 52.3424L15.0585 51.7023ZM14.7738 52.0629C14.7761 52.0598 14.7777 52.0579 14.7729 52.0638C14.7699 52.0674 14.7606 52.0789 14.7508 52.0919L15.5493 52.6939C15.547 52.697 15.5454 52.6988 15.5502 52.693C15.5531 52.6893 15.5625 52.6778 15.5723 52.6648L14.7738 52.0629ZM15.1501 51.8929H6.88511V52.8929H15.1501V51.8929ZM7.38511 52.3929V42.4663H6.38511V52.3929H7.38511ZM6.88511 42.9663H79.7658V41.9663H6.88511V42.9663ZM79.2658 42.4663V52.3929H80.2658V42.4663H79.2658ZM64.4438 63.024C61.3789 63.024 58.8846 60.5298 58.8846 57.4648H57.8846C57.8846 61.0821 60.8266 64.024 64.4438 64.024V63.024ZM58.8846 57.4648C58.8846 56.4182 59.177 55.4001 59.7301 54.5188L58.8831 53.9872C58.2295 55.0286 57.8846 56.2311 57.8846 57.4648H58.8846ZM59.7303 54.5184C60.755 52.8821 62.5155 51.907 64.4438 51.907V50.907C62.1706 50.907 60.0901 52.0597 58.8828 53.9876L59.7303 54.5184ZM64.4438 51.907C64.6849 51.907 64.9236 51.9224 65.1584 51.9523L65.2846 50.9603C65.0082 50.9251 64.7274 50.907 64.4438 50.907V51.907ZM65.1583 51.9522C66.6819 52.1464 68.0491 52.9577 68.9551 54.2194L69.7674 53.6362C68.6996 52.1491 67.0841 51.1896 65.2847 50.9603L65.1583 51.9522ZM68.9551 54.2194C69.0245 54.3161 69.0913 54.4158 69.1557 54.5186L70.003 53.9874C69.928 53.8678 69.8496 53.7507 69.7674 53.6362L68.9551 54.2194ZM69.1506 54.5102L69.1524 54.5133L70.0099 53.9988L70.0081 53.9958L69.1506 54.5102ZM69.1576 54.5217C69.7094 55.4015 70.0015 56.4189 70.0015 57.4648H71.0015C71.0015 56.2319 70.6569 55.0303 70.0048 53.9904L69.1576 54.5217ZM70.0015 57.4648C70.0015 60.5299 67.5078 63.024 64.4438 63.024V64.024C68.0603 64.024 71.0015 61.082 71.0015 57.4648H70.0015ZM21.9579 63.024C18.8927 63.024 16.3985 60.5298 16.3985 57.4648H15.3985C15.3985 61.0821 18.3404 64.024 21.9579 64.024V63.024ZM16.3985 57.4648C16.3985 56.4182 16.6909 55.4001 17.244 54.5188L16.397 53.9872C15.7434 55.0286 15.3985 56.2311 15.3985 57.4648H16.3985ZM17.2443 54.5184C18.269 52.8821 20.0292 51.907 21.9579 51.907V50.907C19.6844 50.907 17.6041 52.0597 16.3967 53.9876L17.2443 54.5184ZM21.9579 51.907C22.199 51.907 22.4377 51.9224 22.6725 51.9523L22.7987 50.9603C22.5222 50.9251 22.2414 50.907 21.9579 50.907V51.907ZM22.6724 51.9522C24.196 52.1464 25.563 52.9577 26.4692 54.2195L27.2814 53.6361C26.2135 52.1491 24.5982 51.1896 22.7988 50.9603L22.6724 51.9522ZM26.4691 54.2194C26.5385 54.3161 26.6053 54.4158 26.6698 54.5186L27.517 53.9874C27.442 53.8678 27.3636 53.7507 27.2814 53.6362L26.4691 54.2194ZM26.6647 54.5102L26.6665 54.5133L27.524 53.9988L27.5222 53.9958L26.6647 54.5102ZM26.6717 54.5217C27.2234 55.4015 27.5154 56.4188 27.5154 57.4648H28.5154C28.5154 56.2319 28.171 55.0303 27.5188 53.9904L26.6717 54.5217ZM27.5154 57.4648C27.5154 60.5299 25.0219 63.024 21.9579 63.024V64.024C25.5744 64.024 28.5154 61.0819 28.5154 57.4648H27.5154ZM2.43038 52.893H4.45443V51.893H2.43038V52.893ZM4.95443 52.393V42.4664H3.95443V52.393H4.95443ZM4.45443 41.9664H2.43038V42.9664H4.45443V41.9664ZM1.93038 42.4664V52.393H2.93038V42.4664H1.93038ZM6.88481 40.5359H79.7658V39.5359H6.88481V40.5359ZM80.2658 40.0359V35.4982H79.2658V40.0359H80.2658ZM79.7658 34.9982H6.88481V35.9982H79.7658V34.9982ZM6.38481 35.4982V40.0359H7.38481V35.4982H6.38481ZM79.2658 2.58224V7.23489H80.2658V2.58224H79.2658ZM79.2658 7.23489V33.0679H80.2658V7.23489H79.2658ZM79.7658 32.5679H6.88481V33.5679H79.7658V32.5679ZM7.38481 33.0679V2.58224H6.38481V33.0679H7.38481ZM6.88481 3.08224H79.7658V2.08224H6.88481V3.08224ZM120.353 45.3524C120.353 35.0386 116.336 25.3392 109.042 18.0457L108.335 18.7529C115.441 25.8588 119.353 35.3038 119.353 45.3524H120.353ZM109.042 18.0457C101.858 10.8629 92.3412 6.86011 82.2021 6.74055L82.1903 7.74048C92.0684 7.85697 101.336 11.7547 108.335 18.7529L109.042 18.0457ZM82.6962 7.24051V0.151855H81.6962V7.24051H82.6962ZM82.1962 -0.348145H4.45443V0.651855H82.1962V-0.348145ZM3.95443 0.151855V40.0359H4.95443V0.151855H3.95443ZM3.95443 40.0359V40.0361H4.95443V40.0359H3.95443ZM4.45443 39.5361H0V40.5361H4.45443V39.5361ZM-0.5 40.0361V54.8232H0.5V40.0361H-0.5ZM0 55.3232H6.88511V54.3232H0V55.3232ZM6.88511 55.3232H13.8887V54.3232H6.88511V55.3232ZM13.4135 54.6677C13.1197 55.565 12.9681 56.5081 12.9681 57.4648H13.9681C13.9681 56.6139 14.1029 55.7758 14.3639 54.9788L13.4135 54.6677ZM12.9681 57.4648C12.9681 62.4221 17.0004 66.4544 21.9579 66.4544V65.4544C17.5526 65.4544 13.9681 61.8698 13.9681 57.4648H12.9681ZM21.9579 66.4544C26.9144 66.4544 30.9458 62.422 30.9458 57.4648H29.9458C29.9458 61.8699 26.3619 65.4544 21.9579 65.4544V66.4544ZM30.9458 57.4648C30.9458 56.5081 30.7942 55.5648 30.5004 54.6676L29.55 54.9789C29.811 55.7756 29.9458 56.6139 29.9458 57.4648H30.9458ZM30.0252 55.3232H56.3749V54.3232H30.0252V55.3232ZM55.8998 54.6676C55.6058 55.5649 55.4542 56.5081 55.4542 57.4648H56.4542C56.4542 56.6139 56.589 55.7758 56.8501 54.9789L55.8998 54.6676ZM55.4542 57.4648C55.4542 62.4221 59.4864 66.4544 64.4438 66.4544V65.4544C60.0387 65.4544 56.4542 61.8698 56.4542 57.4648H55.4542ZM64.4438 66.4544C69.4003 66.4544 73.4319 62.422 73.4319 57.4648H72.4319C72.4319 61.8699 68.8479 65.4544 64.4438 65.4544V66.4544ZM73.4319 57.4648C73.4319 56.508 73.2801 55.5648 72.9863 54.6676L72.036 54.9789C72.2969 55.7757 72.4319 56.6139 72.4319 57.4648H73.4319ZM72.5111 55.3232H79.7658V54.3232H72.5111V55.3232ZM79.7658 55.3232H82.1962V54.3232H79.7658V55.3232ZM82.1962 55.3232H91.7415V54.3232H82.1962V55.3232ZM91.2663 54.6677C90.9726 55.5649 90.8208 56.508 90.8208 57.4648H91.8208C91.8208 56.6139 91.9557 55.7759 92.2167 54.9788L91.2663 54.6677ZM90.8208 57.4648C90.8208 62.4221 94.853 66.4544 99.8104 66.4544V65.4544C95.4053 65.4544 91.8208 61.8698 91.8208 57.4648H90.8208ZM99.8104 66.4544C104.767 66.4544 108.798 62.422 108.798 57.4648H107.798C107.798 61.8699 104.214 65.4544 99.8104 65.4544V66.4544ZM108.798 57.4648C108.798 56.5085 108.647 55.5655 108.353 54.6678L107.403 54.9787C107.664 55.7762 107.798 56.6144 107.798 57.4648H108.798ZM107.878 55.3232H119.853V54.3232H107.878V55.3232ZM120.353 54.8232V45.3524H119.353V54.8232H120.353Z" fill="#1071B9"/>
</g>
<mask id="mask1" mask-type="alpha" maskUnits="userSpaceOnUse" x="0" y="0" width="120" height="66">
<path fill-rule="evenodd" clip-rule="evenodd" d="M0 65.9544H119.853V0.151917H0V65.9544Z" fill="white"/>
</mask>
<g mask="url(#mask1)">
<path fill-rule="evenodd" clip-rule="evenodd" d="M88.3132 35.3163H100.943V24.9863H88.3132V35.3163ZM85.8828 37.7468H103.373V22.556H85.8828V37.7468Z" fill="#1071B9"/>
<path d="M88.3132 35.3163H87.8132V35.8163H88.3132V35.3163ZM100.943 35.3163V35.8163H101.443V35.3163H100.943ZM100.943 24.9863H101.443V24.4863H100.943V24.9863ZM88.3132 24.9863V24.4863H87.8132V24.9863H88.3132ZM85.8828 37.7468H85.3828V38.2468H85.8828V37.7468ZM103.373 37.7468V38.2468H103.873V37.7468H103.373ZM103.373 22.556H103.873V22.056H103.373V22.556ZM85.8828 22.556V22.056H85.3828V22.556H85.8828ZM88.3132 35.8163H100.943V34.8163H88.3132V35.8163ZM101.443 35.3163V24.9863H100.443V35.3163H101.443ZM100.943 24.4863H88.3132V25.4863H100.943V24.4863ZM87.8132 24.9863V35.3163H88.8132V24.9863H87.8132ZM85.8828 38.2468H103.373V37.2468H85.8828V38.2468ZM103.873 37.7468V22.556H102.873V37.7468H103.873ZM103.373 22.056H85.8828V23.056H103.373V22.056ZM85.3828 22.556V37.7468H86.3828V22.556H85.3828Z" fill="#1071B9"/>
</g>
</svg>
