<svg width="78" height="102" viewBox="0 0 78 102" fill="none" xmlns="http://www.w3.org/2000/svg">
<path fill-rule="evenodd" clip-rule="evenodd" d="M1 1.14087V100.88H77.0887V35.0265L43.9515 1.14087H1ZM3.25352 3.39439H42.3511V36.6127H74.8352V98.6266H3.25352V3.39439ZM44.6045 5.03171L73.2841 34.359H44.6045V5.03171Z" fill="#1071B9"/>
<path d="M1 1.14087V0.640869H0.5V1.14087H1ZM1 100.88H0.5V101.38H1V100.88ZM77.0887 100.88V101.38H77.5887V100.88H77.0887ZM77.0887 35.0265H77.5887V34.8227L77.4462 34.6769L77.0887 35.0265ZM43.9515 1.14087L44.309 0.791286L44.1619 0.640869H43.9515V1.14087ZM3.25352 3.39439V2.89439H2.75352V3.39439H3.25352ZM42.3511 3.39439H42.8511V2.89439H42.3511V3.39439ZM42.3511 36.6127H41.8511V37.1127H42.3511V36.6127ZM74.8352 36.6127H75.3352V36.1127H74.8352V36.6127ZM74.8352 98.6266V99.1266H75.3352V98.6266H74.8352ZM3.25352 98.6266H2.75352V99.1266H3.25352V98.6266ZM44.6045 5.03171L44.962 4.68213L44.1045 3.80528V5.03171H44.6045ZM73.2841 34.359V34.859H74.4724L73.6416 34.0095L73.2841 34.359ZM44.6045 34.359H44.1045V34.859H44.6045V34.359ZM0.5 1.14087V100.88H1.5V1.14087H0.5ZM1 101.38H77.0887V100.38H1V101.38ZM77.5887 100.88V35.0265H76.5887V100.88H77.5887ZM77.4462 34.6769L44.309 0.791286L43.5941 1.49045L76.7312 35.3761L77.4462 34.6769ZM43.9515 0.640869H1V1.64087H43.9515V0.640869ZM3.25352 3.89439H42.3511V2.89439H3.25352V3.89439ZM41.8511 3.39439V36.6127H42.8511V3.39439H41.8511ZM42.3511 37.1127H74.8352V36.1127H42.3511V37.1127ZM74.3352 36.6127V98.6266H75.3352V36.6127H74.3352ZM74.8352 98.1266H3.25352V99.1266H74.8352V98.1266ZM3.75352 98.6266V3.39439H2.75352V98.6266H3.75352ZM44.247 5.3813L72.9266 34.7086L73.6416 34.0095L44.962 4.68213L44.247 5.3813ZM73.2841 33.859H44.6045V34.859H73.2841V33.859ZM45.1045 34.359V5.03171H44.1045V34.359H45.1045Z" fill="#1071B9"/>
<path fill-rule="evenodd" clip-rule="evenodd" d="M31.5864 65.0727H46.4514C47.1249 66.5861 47.2588 68.0867 47.2598 69.0301H30.8293C30.817 68.0905 30.9297 66.5884 31.5864 65.0727ZM36.6171 60.6358L37.9176 60.1979V62.8192H33.0715C33.9114 61.937 35.0555 61.1615 36.6171 60.6358ZM38.9991 51.3667C41.1715 51.3667 42.9388 53.134 42.9388 55.3064C42.9388 56.652 42.2628 57.891 41.1304 58.6208L39.2376 59.8405H38.7643L36.8671 58.6202C35.7346 57.8919 35.0584 56.653 35.0584 55.3064C35.0584 53.134 36.8263 51.3667 38.9991 51.3667ZM44.9415 62.8192H40.1711V60.2282L41.3812 60.6357C42.9432 61.1616 44.0931 61.9371 44.9415 62.8192ZM28.8121 71.2836H49.304L49.4397 70.3129C49.4525 70.2213 49.7443 68.0441 49.0012 65.5168C48.3998 63.4722 47.0097 60.8574 43.8062 59.2156C44.6932 58.1272 45.1924 56.7563 45.1924 55.3064C45.1924 51.8915 42.414 49.1132 38.9991 49.1132C35.5836 49.1132 32.8049 51.8915 32.8049 55.3064C32.8049 56.7572 33.3042 58.1285 34.1917 59.2164C30.9905 60.8606 29.6252 63.4799 29.046 65.5282C28.3309 68.0575 28.6518 70.2358 28.6657 70.3272L28.8121 71.2836Z" fill="#1071B9"/>
<path d="M46.4514 65.0727L46.9082 64.8694L46.7761 64.5727H46.4514V65.0727ZM47.2598 69.0301V69.5301H47.7603L47.7598 69.0295L47.2598 69.0301ZM30.8293 69.0301L30.3293 69.0366L30.3357 69.5301H30.8293V69.0301ZM37.9176 60.1979H38.4176V59.502L37.758 59.7241L37.9176 60.1979ZM37.9176 62.8192V63.3192H38.4176V62.8192H37.9176ZM33.0715 62.8192L32.7094 62.4745L31.9052 63.3192H33.0715V62.8192ZM41.1304 58.6208L41.4012 59.0411L41.4012 59.0411L41.1304 58.6208ZM39.2376 59.8405V60.3405H39.3847L39.5084 60.2608L39.2376 59.8405ZM38.7643 59.8405L38.4938 60.261L38.6174 60.3405H38.7643V59.8405ZM36.8671 58.6202L37.1376 58.1997L37.1376 58.1997L36.8671 58.6202ZM40.1711 62.8192H39.6711V63.3192H40.1711V62.8192ZM40.1711 60.2282L40.3306 59.7544L39.6711 59.5323V60.2282H40.1711ZM41.3812 60.6357L41.2217 61.1096L41.2217 61.1096L41.3812 60.6357ZM28.8121 71.2836L28.3178 71.3592L28.3828 71.7836H28.8121V71.2836ZM49.304 71.2836V71.7836H49.739L49.7992 71.3528L49.304 71.2836ZM49.4397 70.3129L48.9445 70.2436L48.9445 70.2437L49.4397 70.3129ZM49.0012 65.5168L49.4809 65.3758L49.4809 65.3757L49.0012 65.5168ZM43.8062 59.2156L43.4186 58.8997L43.0282 59.3787L43.5781 59.6605L43.8062 59.2156ZM34.1917 59.2164L34.4201 59.6612L34.9695 59.379L34.5791 58.9003L34.1917 59.2164ZM29.046 65.5282L28.5649 65.3922L28.5649 65.3922L29.046 65.5282ZM28.6657 70.3272L28.1715 70.4026L28.1715 70.4029L28.6657 70.3272ZM31.5864 65.5727H46.4514V64.5727H31.5864V65.5727ZM45.9946 65.276C46.6299 66.7036 46.7589 68.1281 46.7598 69.0306L47.7598 69.0295C47.7588 68.0452 47.6199 66.4686 46.9082 64.8694L45.9946 65.276ZM47.2598 68.5301H30.8293V69.5301H47.2598V68.5301ZM31.3292 69.0235C31.3175 68.1248 31.4263 66.6998 32.0452 65.2715L31.1277 64.8739C30.433 66.477 30.3165 68.0562 30.3293 69.0366L31.3292 69.0235ZM36.7767 61.1097L38.0771 60.6718L37.758 59.7241L36.4576 60.162L36.7767 61.1097ZM37.4176 60.1979V62.8192H38.4176V60.1979H37.4176ZM37.9176 62.3192H33.0715V63.3192H37.9176V62.3192ZM33.4337 63.164C34.2154 62.3428 35.289 61.6104 36.7766 61.1097L36.4576 60.162C34.8219 60.7125 33.6074 61.5311 32.7094 62.4745L33.4337 63.164ZM38.9991 51.8667C40.8954 51.8667 42.4388 53.4101 42.4388 55.3064H43.4388C43.4388 52.8579 41.4477 50.8667 38.9991 50.8667V51.8667ZM42.4388 55.3064C42.4388 56.4819 41.8493 57.5627 40.8595 58.2005L41.4012 59.0411C42.6763 58.2194 43.4388 56.8222 43.4388 55.3064H42.4388ZM40.8595 58.2005L38.9667 59.4202L39.5084 60.2608L41.4012 59.0411L40.8595 58.2005ZM39.2376 59.3405H38.7643V60.3405H39.2376V59.3405ZM39.0348 59.42L37.1376 58.1997L36.5967 59.0407L38.4938 60.261L39.0348 59.42ZM37.1376 58.1997C36.1481 57.5634 35.5584 56.4829 35.5584 55.3064H34.5584C34.5584 56.8231 35.3211 58.2204 36.5967 59.0407L37.1376 58.1997ZM35.5584 55.3064C35.5584 53.4103 37.1023 51.8667 38.9991 51.8667V50.8667C36.5503 50.8667 34.5584 52.8577 34.5584 55.3064H35.5584ZM44.9415 62.3192H40.1711V63.3192H44.9415V62.3192ZM40.6711 62.8192V60.2282H39.6711V62.8192H40.6711ZM40.0115 60.7021L41.2217 61.1096L41.5408 60.1618L40.3306 59.7544L40.0115 60.7021ZM41.2217 61.1096C42.71 61.6107 43.7903 62.3436 44.5811 63.1658L45.3019 62.4726C44.3958 61.5306 43.1764 60.7125 41.5408 60.1618L41.2217 61.1096ZM28.8121 71.7836H49.304V70.7836H28.8121V71.7836ZM49.7992 71.3528L49.9349 70.3821L48.9445 70.2437L48.8089 71.2144L49.7992 71.3528ZM49.9349 70.3822C49.952 70.2599 50.2529 68.0014 49.4809 65.3758L48.5215 65.6579C49.2357 68.0868 48.953 70.1827 48.9445 70.2436L49.9349 70.3822ZM49.4809 65.3757C48.8529 63.2407 47.3932 60.4921 44.0342 58.7706L43.5781 59.6605C46.6262 61.2227 47.9467 63.7037 48.5215 65.6579L49.4809 65.3757ZM44.1937 59.5314C45.153 58.3545 45.6924 56.8721 45.6924 55.3064H44.6924C44.6924 56.6404 44.2334 57.9 43.4186 58.8997L44.1937 59.5314ZM45.6924 55.3064C45.6924 51.6153 42.6902 48.6132 38.9991 48.6132V49.6132C42.1379 49.6132 44.6924 52.1676 44.6924 55.3064H45.6924ZM38.9991 48.6132C35.3076 48.6132 32.3049 51.6153 32.3049 55.3064H33.3049C33.3049 52.1677 35.8597 49.6132 38.9991 49.6132V48.6132ZM32.3049 55.3064C32.3049 56.873 32.8443 58.3558 33.8042 59.5325L34.5791 58.9003C33.764 57.9012 33.3049 56.6415 33.3049 55.3064H32.3049ZM33.9632 58.7716C30.6048 60.4966 29.17 63.252 28.5649 65.3922L29.5272 65.6643C30.0803 63.7078 31.3762 61.2246 34.4201 59.6612L33.9632 58.7716ZM28.5649 65.3922C27.8217 68.021 28.1529 70.2812 28.1715 70.4026L29.16 70.2518C29.1507 70.1905 28.8402 68.094 29.5272 65.6643L28.5649 65.3922ZM28.1715 70.4029L28.3178 71.3592L29.3063 71.208L29.16 70.2516L28.1715 70.4029Z" fill="#1071B9"/>
<path fill-rule="evenodd" clip-rule="evenodd" d="M39.0443 44.5427C47.6768 44.5427 54.6999 51.5658 54.6999 60.1983C54.6999 68.8309 47.6768 75.854 39.0443 75.854C30.4117 75.854 23.3888 68.8309 23.3888 60.1983C23.3888 51.5658 30.4117 44.5427 39.0443 44.5427ZM39.0443 78.1075C48.9193 78.1075 56.9534 70.0734 56.9534 60.1983C56.9534 50.3233 48.9193 42.2892 39.0443 42.2892C29.1692 42.2892 21.1353 50.3233 21.1353 60.1983C21.1353 70.0734 29.1692 78.1075 39.0443 78.1075Z" fill="#1071B9"/>
<path d="M39.0443 45.0427C47.4007 45.0427 54.1999 51.8419 54.1999 60.1983H55.1999C55.1999 51.2897 47.9529 44.0427 39.0443 44.0427V45.0427ZM54.1999 60.1983C54.1999 68.5547 47.4007 75.354 39.0443 75.354V76.354C47.9529 76.354 55.1999 69.107 55.1999 60.1983H54.1999ZM39.0443 75.354C30.6879 75.354 23.8888 68.5547 23.8888 60.1983H22.8888C22.8888 69.107 30.1356 76.354 39.0443 76.354V75.354ZM23.8888 60.1983C23.8888 51.8419 30.6879 45.0427 39.0443 45.0427V44.0427C30.1356 44.0427 22.8888 51.2897 22.8888 60.1983H23.8888ZM39.0443 78.6075C49.1955 78.6075 57.4534 70.3496 57.4534 60.1983H56.4534C56.4534 69.7973 48.6432 77.6075 39.0443 77.6075V78.6075ZM57.4534 60.1983C57.4534 50.0471 49.1955 41.7892 39.0443 41.7892V42.7892C48.6432 42.7892 56.4534 50.5994 56.4534 60.1983H57.4534ZM39.0443 41.7892C28.893 41.7892 20.6353 50.0471 20.6353 60.1983H21.6353C21.6353 50.5994 29.4453 42.7892 39.0443 42.7892V41.7892ZM20.6353 60.1983C20.6353 70.3495 28.893 78.6075 39.0443 78.6075V77.6075C29.4453 77.6075 21.6353 69.7973 21.6353 60.1983H20.6353Z" fill="#1071B9"/>
<mask id="mask0" mask-type="alpha" maskUnits="userSpaceOnUse" x="1" y="1" width="77" height="100">
<path fill-rule="evenodd" clip-rule="evenodd" d="M1 100.88H77.0887V1.14087H1V100.88Z" fill="white"/>
</mask>
<g mask="url(#mask0)">
<path fill-rule="evenodd" clip-rule="evenodd" d="M15.1199 85.6599H62.9687V83.4064H15.1199V85.6599Z" fill="#1071B9" stroke="#1071B9"/>
<path fill-rule="evenodd" clip-rule="evenodd" d="M15.1199 91.8911H62.9687V89.6376H15.1199V91.8911Z" fill="#1071B9" stroke="#1071B9"/>
</g>
</svg>
