<svg width="67" height="101" viewBox="0 0 67 101" fill="none" xmlns="http://www.w3.org/2000/svg">
<path fill-rule="evenodd" clip-rule="evenodd" d="M29.8625 32.2845C30.1453 31.9469 30.0965 31.4475 29.7534 31.1692C29.4103 30.8909 28.9028 30.939 28.62 31.2767C28.1436 31.8453 27.4416 32.1715 26.6938 32.1715C26.0273 32.1715 25.4009 31.9161 24.9296 31.4524C24.6152 31.143 24.1053 31.143 23.791 31.4524C23.4766 31.7618 23.4766 32.2634 23.791 32.5729C24.5664 33.3359 25.5973 33.756 26.6938 33.756C27.9243 33.756 29.0792 33.2197 29.8625 32.2845Z" fill="#1071B9"/>
<path d="M29.8625 32.2845C30.1453 31.9469 30.0965 31.4475 29.7534 31.1692C29.4103 30.8909 28.9028 30.939 28.62 31.2767C28.1436 31.8453 27.4416 32.1715 26.6938 32.1715C26.0273 32.1715 25.4009 31.9161 24.9296 31.4524C24.6152 31.143 24.1053 31.143 23.791 31.4524C23.4766 31.7618 23.4766 32.2634 23.791 32.5729C24.5664 33.3359 25.5973 33.756 26.6938 33.756C27.9243 33.756 29.0792 33.2197 29.8625 32.2845" stroke="#1071B9"/>
<path fill-rule="evenodd" clip-rule="evenodd" d="M43.4535 32.2846C43.7363 31.9469 43.6875 31.4476 43.3444 31.1692C43.0013 30.8909 42.4939 30.939 42.211 31.2766C41.7346 31.8453 41.0326 32.1715 40.2847 32.1715C39.6183 32.1715 38.9919 31.9161 38.5207 31.4525C38.2062 31.143 37.6963 31.143 37.382 31.4525C37.0677 31.7619 37.0677 32.2635 37.382 32.5729C38.1573 33.3358 39.1881 33.756 40.2847 33.756C41.5152 33.756 42.6701 33.2197 43.4535 32.2846Z" fill="#1071B9"/>
<path d="M43.4535 32.2846C43.7363 31.9469 43.6875 31.4476 43.3444 31.1692C43.0013 30.8909 42.4939 30.939 42.211 31.2766C41.7346 31.8453 41.0326 32.1715 40.2847 32.1715C39.6183 32.1715 38.9919 31.9161 38.5207 31.4525C38.2062 31.143 37.6963 31.143 37.382 31.4525C37.0677 31.7619 37.0677 32.2635 37.382 32.5729C38.1573 33.3358 39.1881 33.756 40.2847 33.756C41.5152 33.756 42.6701 33.2197 43.4535 32.2846" stroke="#1071B9"/>
<path fill-rule="evenodd" clip-rule="evenodd" d="M39.0301 39.395C38.5855 39.395 38.225 39.7498 38.225 40.1873C38.225 41.8149 36.0684 43.19 33.5158 43.19C30.9631 43.19 28.8064 41.8149 28.8064 40.1873C28.8064 39.7498 28.446 39.395 28.0013 39.395C27.5567 39.395 27.1963 39.7498 27.1963 40.1873C27.1963 41.4672 27.8919 42.6507 29.1551 43.52C30.3307 44.329 31.8792 44.7744 33.5158 44.7744C35.1522 44.7744 36.7009 44.329 37.8764 43.52C39.1396 42.6507 39.8353 41.4672 39.8353 40.1873C39.8353 39.7498 39.4747 39.395 39.0301 39.395Z" fill="#1071B9"/>
<path d="M39.0301 39.395C38.5855 39.395 38.225 39.7498 38.225 40.1873C38.225 41.8149 36.0684 43.19 33.5158 43.19C30.9631 43.19 28.8064 41.8149 28.8064 40.1873C28.8064 39.7498 28.446 39.395 28.0013 39.395C27.5567 39.395 27.1963 39.7498 27.1963 40.1873C27.1963 41.4672 27.8919 42.6507 29.1551 43.52C30.3307 44.329 31.8792 44.7744 33.5158 44.7744C35.1522 44.7744 36.7009 44.329 37.8764 43.52C39.1396 42.6507 39.8353 41.4672 39.8353 40.1873C39.8353 39.7498 39.4747 39.395 39.0301 39.395" stroke="#1071B9"/>
<mask id="mask0" mask-type="alpha" maskUnits="userSpaceOnUse" x="0" y="0" width="67" height="100">
<path fill-rule="evenodd" clip-rule="evenodd" d="M0 0.122559H66.9783V99.9672H0V0.122559Z" fill="white"/>
</mask>
<g mask="url(#mask0)">
<path fill-rule="evenodd" clip-rule="evenodd" d="M57.351 98.3826H44.199V82.621H50.8877C51.0166 82.621 51.1498 82.6148 51.2836 82.6042H57.351C61.7716 82.6042 65.3681 86.1433 65.3681 90.4934C65.3681 94.8436 61.7716 98.3826 57.351 98.3826ZM34.2943 95.8244V85.1624C34.2943 83.8482 35.3069 82.7633 36.6044 82.621H42.5887V98.3827H36.894C35.4606 98.3827 34.2943 97.2351 34.2943 95.8244ZM30.0845 98.3827H24.3899V82.621H30.374C31.6716 82.7633 32.6842 83.8482 32.6842 85.1624V95.8244C32.6842 97.2351 31.5179 98.3827 30.0845 98.3827ZM1.61024 90.4934C1.61024 86.1433 5.20682 82.6042 9.62745 82.6042H15.6951C15.8291 82.6148 15.9622 82.621 16.0911 82.621H22.7795V98.3826H9.62745C5.20682 98.3826 1.61024 94.8436 1.61024 90.4934ZM12.7305 77.7307V69.9232H19.4209V73.3545C19.4209 73.792 19.7813 74.1466 20.226 74.1466H20.2263H20.2265H28.3801C30.4357 74.1466 32.1079 75.6882 32.1079 77.5829C32.1079 78.4889 31.7244 79.3451 31.0275 79.9942C30.319 80.6552 29.3789 81.0192 28.3801 81.0192H20.2265C20.223 81.0192 20.2197 81.0195 20.2162 81.0197H15.7611C14.0598 80.8554 12.7305 79.4156 12.7305 77.7307ZM15.3964 56.6092C15.6251 56.5613 15.8588 56.5371 16.0911 56.5371H28.0736V59.0355C28.0736 61.9744 30.5028 64.3655 33.4889 64.3655C36.4754 64.3655 38.9053 61.9744 38.9053 59.0355V56.5371H50.8877C51.1201 56.5371 51.3539 56.5613 51.5828 56.6092C53.1265 56.9317 54.2471 58.2916 54.2471 59.8429V68.3387H47.557V64.9074C47.557 64.4698 47.1966 64.1151 46.7521 64.1151C46.3072 64.1151 45.9469 64.4698 45.9469 64.9074V72.5622H38.2449C36.0226 72.5622 34.1032 73.7574 33.2235 75.4759C32.3751 73.7574 30.5237 72.5622 28.3801 72.5622H21.031V64.9074C21.031 64.4698 20.6706 64.1151 20.226 64.1151C19.7813 64.1151 19.4209 64.4698 19.4209 64.9074V68.3387H12.7305V59.8429C12.7305 58.2916 13.8516 56.9317 15.3964 56.6092ZM16.034 20.784C16.034 12.7081 22.7108 6.13804 30.9174 6.13804H32.687C32.686 8.0215 32.6837 12.8868 32.6837 16.5937C32.5991 18.4362 32.2696 21.1051 30.4159 23.0804C28.4562 25.1688 25.028 26.2276 20.2265 26.2276H19.4215V38.4565C19.4215 43.9657 22.8896 48.8319 28.0736 50.64V54.9525H16.0911C16.0722 54.9525 16.0531 54.9538 16.034 54.9541V35.3166V29.1926V20.784ZM29.6839 51.1061C30.9267 51.3977 32.202 51.5471 33.4889 51.5471C34.7764 51.5471 36.052 51.3977 37.295 51.1061V59.0355C37.295 61.1008 35.5876 62.7809 33.4889 62.7809C31.3907 62.7809 29.6839 61.1008 29.6839 59.0355V51.1061ZM38.184 49.2114C38.0779 49.2464 37.9714 49.2802 37.8642 49.3128C37.8623 49.3134 37.8602 49.314 37.8582 49.3146C36.4464 49.7445 34.9762 49.9626 33.4889 49.9626C32.0022 49.9626 30.5324 49.7445 29.1206 49.3146C29.1187 49.314 29.1166 49.3134 29.1146 49.3128C29.0085 49.2804 28.9029 49.247 28.7979 49.2124C24.1528 47.6817 21.0316 43.3591 21.0316 38.4565V27.8027C25.9457 27.6868 29.4076 26.4905 31.5988 24.1554C32.6424 23.0433 33.2796 21.778 33.6715 20.5325C34.4334 22.0895 35.4669 23.5173 36.7617 24.7976C39.0446 27.0551 42.1506 28.8563 46.0001 30.1559V38.384C46.0001 43.319 42.8592 47.6703 38.184 49.2114ZM43.3313 8.00814C41.9077 8.42297 40.5989 9.18253 39.5317 10.241C39.186 10.4301 38.9951 10.8227 39.0707 11.2097C39.0761 11.2523 39.0853 11.2996 39.1012 11.3486C39.1498 11.5073 39.2412 11.6494 39.3564 11.7515C39.47 11.8556 39.6102 11.9304 39.7623 11.9682L39.7834 11.9732C41.5339 12.3591 43.3316 12.2166 44.9658 11.5921C44.4708 13.2405 44.4738 15.0089 45.0038 16.6878L45.1391 17.1135L45.3671 17.1695C45.4671 17.2364 45.5779 17.2833 45.6881 17.3057C45.7519 17.3195 45.8169 17.3264 45.8818 17.3264C46.028 17.3264 46.1742 17.2917 46.3073 17.2243C46.3395 17.2083 46.3667 17.1921 46.3889 17.1779C46.4499 17.1413 46.5041 17.0988 46.5535 17.0487L46.5699 17.0318C47.6321 15.8901 48.353 14.5154 48.6902 13.0428C50.118 15.2902 50.9448 17.9437 50.9448 20.784V29.1926V35.3166V54.9541C50.9257 54.9538 50.9067 54.9525 50.8877 54.9525H38.9053V50.6401C44.1209 48.8225 47.6103 43.9266 47.6103 38.384V29.0092L47.0537 28.8314C40.0959 26.6101 35.8038 22.8676 34.2939 17.7062V16.63C34.313 16.23 34.3217 15.8074 34.3217 15.3021C34.3217 15.2307 34.3121 15.1614 34.294 15.0955C34.2945 11.6726 34.2964 7.77652 34.2973 6.13804H36.0614C38.7001 6.13804 41.18 6.81807 43.3313 8.00814ZM45.5758 9.53044C44.3655 10.2632 42.9778 10.6324 41.5725 10.6001C42.6436 9.83559 43.9083 9.37248 45.2342 9.25789C45.3495 9.34699 45.4632 9.43804 45.5758 9.53044ZM46.2499 14.8208C46.1065 13.4611 46.3601 12.0861 46.9879 10.8508C47.0927 10.9623 47.1963 11.0748 47.2974 11.1895C47.2816 12.4773 46.9204 13.7279 46.2499 14.8208ZM44.9404 5.78669C45.5133 6.30495 45.9961 6.91084 46.3789 7.59086C45.6601 7.27223 45.0064 6.84883 44.4328 6.32983C43.8541 5.80569 43.3659 5.19245 42.9866 4.51819C43.6997 4.83412 44.3606 5.26194 44.9404 5.78669ZM49.0267 2.62076C49.1963 4.17603 48.8466 5.75201 48.0102 7.11721C47.8407 5.52861 48.2024 3.95655 49.0267 2.62076ZM53.6813 6.86611C52.4055 7.77211 50.856 8.25275 49.2566 8.22615C50.5575 7.30667 52.1058 6.8362 53.6813 6.86611ZM52.2812 12.9364C51.5682 12.6208 50.9077 12.1929 50.3285 11.6683C49.7558 11.1503 49.273 10.5447 48.8903 9.86512C49.6095 10.1831 50.2628 10.6063 50.8364 11.1268C51.4143 11.6491 51.9021 12.2618 52.2812 12.9364ZM46.7618 81.0197C46.7582 81.0195 46.7549 81.0192 46.7514 81.0192H38.2449C37.1879 81.0192 36.1939 80.6512 35.4461 79.9824C34.7206 79.3347 34.3211 78.4825 34.3211 77.5829C34.3211 75.6882 36.0814 74.1466 38.2449 74.1466H46.7514H46.7517H46.7521C47.1966 74.1466 47.557 73.792 47.557 73.3545V69.9232H54.2471V77.7307C54.2471 79.4156 52.9183 80.8553 51.2176 81.0197H46.7618ZM33.5729 82.621C33.5445 82.6569 33.5164 82.6932 33.4893 82.73C33.462 82.6932 33.434 82.6569 33.4056 82.621H33.5729ZM33.2234 79.6927C33.4745 80.1819 33.815 80.635 34.2368 81.0366H32.2453C32.6523 80.6348 32.9811 80.1818 33.2234 79.6927ZM57.351 81.0197H54.5486C55.3612 80.1436 55.8573 78.9828 55.8573 77.7307V59.8429C55.8573 57.7677 54.5023 55.9243 52.555 55.2377V35.3166V29.1926V20.784C52.555 18.4155 52.0365 16.1639 51.1058 14.1331C51.7976 14.4938 52.5372 14.7652 53.3052 14.9367C53.4007 14.9585 53.4854 14.9603 53.5468 14.9573H53.5473C53.8041 14.9573 54.0488 14.8541 54.2221 14.6683C54.3887 14.4898 54.475 14.258 54.4649 14.0161C54.4583 13.854 54.409 13.7001 54.3204 13.5644C53.8386 12.1862 53.0128 10.9425 51.9267 9.96084C51.7782 9.82591 51.6251 9.69637 51.468 9.57223C53.0767 9.19576 54.5593 8.38547 55.7441 7.20728C56.1176 7.00299 56.3098 6.56182 56.1812 6.15005C56.1654 6.09785 56.1448 6.04809 56.1194 6.00091C55.9982 5.73902 55.7565 5.54576 55.4761 5.48804C53.7325 5.10802 51.9417 5.25201 50.3131 5.87407C50.8103 4.21978 50.8056 2.44478 50.2701 0.759733L50.252 0.703238L50.2257 0.650052C50.2057 0.609365 50.1845 0.575174 50.1668 0.549316C50.155 0.530444 50.1424 0.512061 50.1292 0.494292L50.1148 0.475419C49.979 0.303483 49.7963 0.188654 49.5862 0.143189C49.3787 0.0983358 49.1594 0.127135 48.9672 0.224561C48.9355 0.24037 48.9086 0.256302 48.8861 0.270762L48.8258 0.304708L48.7589 0.364267L48.7065 0.415615C47.4902 1.71868 46.72 3.32554 46.4586 5.03522C46.3209 4.89233 46.1781 4.75397 46.0305 4.62039C44.8849 3.58351 43.4791 2.85679 41.9647 2.51868C41.9234 2.50924 41.8817 2.50299 41.8396 2.49993C41.5439 2.46292 41.2517 2.56463 41.0517 2.78106C40.7721 3.08142 40.7363 3.51807 40.9339 3.85324C41.1374 4.44294 41.4045 5.00838 41.7279 5.54037C39.9601 4.90213 38.0513 4.55348 36.0614 4.55348H30.9174C21.8228 4.55348 14.4239 11.8345 14.4239 20.784V29.1926V35.3166V55.2377C12.4757 55.9242 11.1203 57.7676 11.1203 59.8429V77.7307C11.1203 78.9828 11.6165 80.1436 12.4294 81.0197H9.62745C4.31888 81.0197 0 85.2695 0 90.4934C0 95.7172 4.31888 99.9672 9.62745 99.9672H30.0845C31.4828 99.9672 32.7231 99.2923 33.4893 98.2569C34.2553 99.2923 35.4958 99.9672 36.894 99.9672H57.351C62.6596 99.9672 66.9785 95.7172 66.9785 90.4934C66.9785 85.2695 62.6596 81.0197 57.351 81.0197Z" fill="#1071B9"/>
<path d="M44.199 98.3826H43.699V98.8826H44.199V98.3826ZM44.199 82.621V82.121H43.699V82.621H44.199ZM51.2836 82.6042V82.1042H51.264L51.2444 82.1058L51.2836 82.6042ZM36.6044 82.621V82.121H36.5771L36.5499 82.124L36.6044 82.621ZM42.5887 82.621H43.0887V82.121H42.5887V82.621ZM42.5887 98.3827V98.8827H43.0887V98.3827H42.5887ZM24.3899 98.3827H23.8899V98.8827H24.3899V98.3827ZM24.3899 82.621V82.121H23.8899V82.621H24.3899ZM30.374 82.621L30.4285 82.124L30.4014 82.121H30.374V82.621ZM15.6951 82.6042L15.7343 82.1058L15.7147 82.1042H15.6951V82.6042ZM22.7795 82.621H23.2795V82.121H22.7795V82.621ZM22.7795 98.3826V98.8826H23.2795V98.3826H22.7795ZM12.7305 69.9232V69.4232H12.2305V69.9232H12.7305ZM19.4209 69.9232H19.9209V69.4232H19.4209V69.9232ZM31.0275 79.9942L30.6867 79.6283L30.6864 79.6286L31.0275 79.9942ZM20.2162 81.0197V81.5197H20.225L20.2338 81.5193L20.2162 81.0197ZM15.7611 81.0197L15.713 81.5173L15.737 81.5197H15.7611V81.0197ZM28.0736 56.5371H28.5736V56.0371H28.0736V56.5371ZM38.9053 56.5371V56.0371H38.4053V56.5371H38.9053ZM51.5828 56.6092L51.4803 57.0986L51.4806 57.0987L51.5828 56.6092ZM54.2471 68.3387V68.8387H54.7471V68.3387H54.2471ZM47.557 68.3387H47.057V68.8387H47.557V68.3387ZM45.9469 72.5622V73.0622H46.4469V72.5622H45.9469ZM33.2235 75.4759L32.7752 75.6973L33.2155 76.589L33.6686 75.7037L33.2235 75.4759ZM21.031 72.5622H20.531V73.0622H21.031V72.5622ZM19.4209 68.3387V68.8387H19.9209V68.3387H19.4209ZM12.7305 68.3387H12.2305V68.8387H12.7305V68.3387ZM32.687 6.13804L33.187 6.13831L33.1873 5.63804H32.687V6.13804ZM32.6837 16.5937L33.1831 16.6166L33.1837 16.6051V16.5937H32.6837ZM30.4159 23.0804L30.0513 22.7383L30.0513 22.7383L30.4159 23.0804ZM19.4215 26.2276V25.7276H18.9215V26.2276H19.4215ZM28.0736 50.64H28.5736V50.2849L28.2383 50.1679L28.0736 50.64ZM28.0736 54.9525V55.4525H28.5736V54.9525H28.0736ZM16.034 54.9541H15.534V55.4606L16.0405 55.4541L16.034 54.9541ZM29.6839 51.1061L29.7981 50.6193L29.1839 50.4751V51.1061H29.6839ZM37.295 51.1061H37.795V50.4752L37.1807 50.6193L37.295 51.1061ZM37.8642 49.3128L37.7187 48.8343L37.7084 48.8377L37.8642 49.3128ZM37.8582 49.3146L38.0039 49.793L38.0052 49.7925L37.8582 49.3146ZM29.1206 49.3146L28.9647 49.7898L28.9749 49.793L29.1206 49.3146ZM29.1146 49.3128L29.2616 48.8349L29.2604 48.8345L29.1146 49.3128ZM28.7979 49.2124L28.6414 49.6873L28.6416 49.6874L28.7979 49.2124ZM21.0316 27.8027L21.0199 27.3029L20.5316 27.3144V27.8027H21.0316ZM31.5988 24.1554L31.9634 24.4976L31.9635 24.4976L31.5988 24.1554ZM33.6715 20.5325L34.1206 20.3128L33.5703 19.1882L33.1945 20.3824L33.6715 20.5325ZM36.7617 24.7976L37.1133 24.4421L37.1133 24.4421L36.7617 24.7976ZM46.0001 30.1559H46.5001V29.797L46.16 29.6822L46.0001 30.1559ZM39.5317 10.241L39.7717 10.6797L39.8337 10.6457L39.8838 10.596L39.5317 10.241ZM39.0707 11.2097L39.5668 11.1473L39.5647 11.1305L39.5614 11.1139L39.0707 11.2097ZM39.1012 11.3486L39.5794 11.2022L39.5767 11.194L39.1012 11.3486ZM39.3564 11.7515L39.6942 11.3828L39.688 11.3773L39.3564 11.7515ZM39.7623 11.9682L39.6418 12.4535L39.6468 12.4547L39.7623 11.9682ZM39.7834 11.9732L39.668 12.4598L39.6758 12.4615L39.7834 11.9732ZM44.9658 11.5921L45.4447 11.7359L45.7372 10.7621L44.7874 11.125L44.9658 11.5921ZM45.0038 16.6878L44.527 16.8383L44.5273 16.8392L45.0038 16.6878ZM45.1391 17.1135L44.6625 17.2649L44.7474 17.5322L45.0198 17.5991L45.1391 17.1135ZM45.3671 17.1695L45.6451 16.754L45.5719 16.705L45.4864 16.684L45.3671 17.1695ZM45.6881 17.3057L45.7943 16.817L45.7878 16.8157L45.6881 17.3057ZM46.3073 17.2243L46.0839 16.777L46.0815 16.7782L46.3073 17.2243ZM46.3889 17.1779L46.1321 16.7488L46.1255 16.7528L46.119 16.757L46.3889 17.1779ZM46.5535 17.0487L46.9095 17.3998L46.9134 17.3958L46.5535 17.0487ZM46.5699 17.0318L46.9298 17.379L46.9359 17.3724L46.5699 17.0318ZM48.6902 13.0428L49.1122 12.7747L48.4701 11.764L48.2028 12.9312L48.6902 13.0428ZM50.9448 54.9541L50.9384 55.4541L51.4448 55.4606V54.9541H50.9448ZM38.9053 54.9525H38.4053V55.4525H38.9053V54.9525ZM38.9053 50.6401L38.7408 50.168L38.4053 50.2849V50.6401H38.9053ZM47.6103 29.0092H48.1103V28.6441L47.7625 28.533L47.6103 29.0092ZM47.0537 28.8314L47.2058 28.3551L47.2057 28.3551L47.0537 28.8314ZM34.2939 17.7062H33.7939V17.7778L33.814 17.8466L34.2939 17.7062ZM34.2939 16.63L33.7945 16.6062L33.7939 16.6181V16.63H34.2939ZM34.294 15.0955L33.794 15.0954L33.794 15.1627L33.8118 15.2276L34.294 15.0955ZM34.2973 6.13804V5.63804H33.7975L33.7973 6.13778L34.2973 6.13804ZM41.5725 10.6001L41.282 10.1931L40.0598 11.0654L41.561 11.0999L41.5725 10.6001ZM45.2342 9.25789L45.5399 8.86222L45.3855 8.74296L45.1912 8.75975L45.2342 9.25789ZM46.9879 10.8508L47.3524 10.5085L46.8648 9.98936L46.5422 10.6243L46.9879 10.8508ZM47.2974 11.1895L47.7974 11.1957L47.7997 11.0032L47.6725 10.8589L47.2974 11.1895ZM46.3789 7.59086L46.1763 8.04797L47.5538 8.65855L46.8146 7.34558L46.3789 7.59086ZM44.4328 6.32983L44.0972 6.70043L44.0974 6.70059L44.4328 6.32983ZM42.9866 4.51819L43.1891 4.06105L41.8126 3.45119L42.5508 4.76335L42.9866 4.51819ZM48.0102 7.11721L47.5131 7.17025L47.6689 8.6314L48.4366 7.37841L48.0102 7.11721ZM49.2566 8.22615L48.968 7.81785L47.719 8.70066L49.2483 8.72609L49.2566 8.22615ZM50.3285 11.6683L50.6641 11.2977L50.6639 11.2975L50.3285 11.6683ZM48.8903 9.86512L49.0925 9.40784L47.7162 8.79925L48.4547 10.1105L48.8903 9.86512ZM50.8364 11.1268L50.5005 11.4971L50.5012 11.4977L50.8364 11.1268ZM46.7618 81.0197L46.7448 81.5194L46.7533 81.5197H46.7618V81.0197ZM35.4461 79.9824L35.7794 79.6097L35.7791 79.6094L35.4461 79.9824ZM47.557 69.9232V69.4232H47.057V69.9232H47.557ZM54.2471 69.9232H54.7471V69.4232H54.2471V69.9232ZM51.2176 81.0197V81.5197H51.2417L51.2657 81.5173L51.2176 81.0197ZM33.5729 82.621L33.965 82.9311L34.6057 82.121H33.5729V82.621ZM33.4893 82.73L33.0877 83.0279L33.4902 83.5704L33.8915 83.027L33.4893 82.73ZM33.4056 82.621V82.121H32.3728L33.0134 82.9311L33.4056 82.621ZM34.2368 81.0366V81.5366H35.487L34.5815 80.6744L34.2368 81.0366ZM32.2453 81.0366L31.8941 80.6807L31.027 81.5366H32.2453V81.0366ZM54.5486 81.0197L54.182 80.6796L53.4029 81.5197H54.5486V81.0197ZM52.555 55.2377H52.055V55.5915L52.3887 55.7092L52.555 55.2377ZM51.1058 14.1331L51.337 13.6898L50.0436 13.0155L50.6513 14.3414L51.1058 14.1331ZM53.3052 14.9367L53.4165 14.4492L53.4142 14.4487L53.3052 14.9367ZM53.5468 14.9573V14.4573H53.5344L53.5219 14.4579L53.5468 14.9573ZM54.2221 14.6683L53.8565 14.3272L53.8564 14.3273L54.2221 14.6683ZM54.4649 14.0161L53.9653 14.0364L53.9653 14.0369L54.4649 14.0161ZM54.3204 13.5644L53.8485 13.7294L53.8685 13.7868L53.9017 13.8377L54.3204 13.5644ZM51.9267 9.96084L51.5906 10.331L51.5915 10.3318L51.9267 9.96084ZM51.468 9.57223L51.354 9.08539L50.3441 9.32171L51.158 9.96459L51.468 9.57223ZM55.7441 7.20728L55.5042 6.76862L55.4419 6.80268L55.3916 6.85274L55.7441 7.20728ZM56.1812 6.15005L55.7027 6.29503L55.704 6.29902L56.1812 6.15005ZM56.1194 6.00091L55.6656 6.21087L55.6719 6.22462L55.6791 6.23796L56.1194 6.00091ZM55.4761 5.48804L55.3696 5.97661L55.3753 5.97777L55.4761 5.48804ZM50.3131 5.87407L49.8343 5.73017L49.5416 6.704L50.4916 6.34116L50.3131 5.87407ZM50.2701 0.759733L50.7466 0.608298L50.7463 0.607495L50.2701 0.759733ZM50.252 0.703238L50.7283 0.551L50.7169 0.51534L50.7003 0.481774L50.252 0.703238ZM50.2257 0.650052L49.7772 0.871071L49.7774 0.871515L50.2257 0.650052ZM50.1668 0.549316L49.7432 0.814889L49.7485 0.823338L49.7541 0.831569L50.1668 0.549316ZM50.1292 0.494292L50.5306 0.196092L50.5262 0.190377L50.1292 0.494292ZM50.1148 0.475419L50.5118 0.17147L50.5072 0.165591L50.1148 0.475419ZM49.5862 0.143189L49.692 -0.345499L49.6919 -0.345522L49.5862 0.143189ZM48.9672 0.224561L49.1907 0.671822L49.1932 0.670576L48.9672 0.224561ZM48.8861 0.270762L49.1314 0.706424L49.144 0.699368L49.1561 0.691604L48.8861 0.270762ZM48.8258 0.304708L48.5805 -0.130953L48.5335 -0.104514L48.4933 -0.0686801L48.8258 0.304708ZM48.7589 0.364267L48.4264 -0.00912131L48.4176 -0.00124085L48.4091 0.00704992L48.7589 0.364267ZM48.7065 0.415615L48.3567 0.058398L48.3486 0.0662408L48.341 0.0744346L48.7065 0.415615ZM46.4586 5.03522L46.0987 5.38222L46.8001 6.10996L46.9529 5.11079L46.4586 5.03522ZM46.0305 4.62039L46.366 4.2497L46.366 4.24969L46.0305 4.62039ZM41.9647 2.51868L41.8531 3.00608L41.8557 3.00667L41.9647 2.51868ZM41.8396 2.49993L41.7775 2.99606L41.7904 2.99767L41.8033 2.99861L41.8396 2.49993ZM41.0517 2.78106L41.4177 3.12172L41.4189 3.12041L41.0517 2.78106ZM40.9339 3.85324L41.4065 3.69014L41.3901 3.6426L41.3646 3.59927L40.9339 3.85324ZM41.7279 5.54037L41.5581 6.01066L42.8917 6.49212L42.1552 5.28063L41.7279 5.54037ZM14.4239 55.2377L14.5901 55.7093L14.9239 55.5916V55.2377H14.4239ZM12.4294 81.0197V81.5197H13.5753L12.7959 80.6796L12.4294 81.0197ZM33.4893 98.2569L33.8912 97.9595L33.4893 97.4163L33.0874 97.9595L33.4893 98.2569ZM57.351 97.8826H44.199V98.8826H57.351V97.8826ZM44.699 98.3826V82.621H43.699V98.3826H44.699ZM44.199 83.121H50.8877V82.121H44.199V83.121ZM50.8877 83.121C51.0324 83.121 51.1789 83.114 51.3229 83.1027L51.2444 82.1058C51.1206 82.1155 51.0009 82.121 50.8877 82.121V83.121ZM51.2836 83.1042H57.351V82.1042H51.2836V83.1042ZM57.351 83.1042C61.5031 83.1042 64.8681 86.427 64.8681 90.4934H65.8681C65.8681 85.8596 62.0402 82.1042 57.351 82.1042V83.1042ZM64.8681 90.4934C64.8681 94.5599 61.5031 97.8826 57.351 97.8826V98.8826C62.0402 98.8826 65.8681 95.1272 65.8681 90.4934H64.8681ZM34.7943 95.8244V85.1624H33.7943V95.8244H34.7943ZM34.7943 85.1624C34.7943 84.113 35.6051 83.2336 36.6589 83.118L36.5499 82.124C35.0087 82.293 33.7943 83.5834 33.7943 85.1624H34.7943ZM36.6044 83.121H42.5887V82.121H36.6044V83.121ZM42.0887 82.621V98.3827H43.0887V82.621H42.0887ZM42.5887 97.8827H36.894V98.8827H42.5887V97.8827ZM36.894 97.8827C35.7291 97.8827 34.7943 96.9514 34.7943 95.8244H33.7943C33.7943 97.5188 35.192 98.8827 36.894 98.8827V97.8827ZM30.0845 97.8827H24.3899V98.8827H30.0845V97.8827ZM24.8899 98.3827V82.621H23.8899V98.3827H24.8899ZM24.3899 83.121H30.374V82.121H24.3899V83.121ZM30.3195 83.118C31.3733 83.2336 32.1842 84.113 32.1842 85.1624H33.1842C33.1842 83.5834 31.9698 82.293 30.4285 82.124L30.3195 83.118ZM32.1842 85.1624V95.8244H33.1842V85.1624H32.1842ZM32.1842 95.8244C32.1842 96.9514 31.2494 97.8827 30.0845 97.8827V98.8827C31.7864 98.8827 33.1842 97.5188 33.1842 95.8244H32.1842ZM2.11024 90.4934C2.11024 86.427 5.47534 83.1042 9.62745 83.1042V82.1042C4.9383 82.1042 1.11024 85.8596 1.11024 90.4934H2.11024ZM9.62745 83.1042H15.6951V82.1042H9.62745V83.1042ZM15.6559 83.1027C15.7999 83.114 15.9464 83.121 16.0911 83.121V82.121C15.978 82.121 15.8582 82.1155 15.7343 82.1058L15.6559 83.1027ZM16.0911 83.121H22.7795V82.121H16.0911V83.121ZM22.2795 82.621V98.3826H23.2795V82.621H22.2795ZM22.7795 97.8826H9.62745V98.8826H22.7795V97.8826ZM9.62745 97.8826C5.47534 97.8826 2.11024 94.5599 2.11024 90.4934H1.11024C1.11024 95.1273 4.9383 98.8826 9.62745 98.8826V97.8826ZM13.2305 77.7307V69.9232H12.2305V77.7307H13.2305ZM12.7305 70.4232H19.4209V69.4232H12.7305V70.4232ZM18.9209 69.9232V73.3545H19.9209V69.9232H18.9209ZM18.9209 73.3545C18.9209 74.0757 19.5128 74.6466 20.226 74.6466V73.6466C20.0498 73.6466 19.9209 73.5082 19.9209 73.3545H18.9209ZM20.226 74.6466H20.2263V73.6466H20.226V74.6466ZM20.2263 74.6466H20.2265V73.6466H20.2263V74.6466ZM20.2265 74.6466H28.3801V73.6466H20.2265V74.6466ZM28.3801 74.6466C30.1987 74.6466 31.6079 76.0019 31.6079 77.5829H32.6079C32.6079 75.3745 30.6727 73.6466 28.3801 73.6466V74.6466ZM31.6079 77.5829C31.6079 78.3424 31.2879 79.0684 30.6867 79.6283L31.3682 80.3601C32.1609 79.6219 32.6079 78.6354 32.6079 77.5829H31.6079ZM30.6864 79.6286C30.0736 80.2003 29.2566 80.5192 28.3801 80.5192V81.5192C29.5012 81.5192 30.5644 81.1101 31.3686 80.3597L30.6864 79.6286ZM28.3801 80.5192H20.2265V81.5192H28.3801V80.5192ZM20.2265 80.5192C20.2169 80.5192 20.2088 80.5194 20.2028 80.5197C20.1969 80.5199 20.1922 80.5202 20.1901 80.5203C20.1892 80.5204 20.188 80.5205 20.188 80.5205C20.1877 80.5205 20.1881 80.5205 20.1888 80.5204C20.19 80.5204 20.1937 80.5201 20.1986 80.52L20.2338 81.5193C20.2404 81.5191 20.2458 81.5188 20.2488 81.5186C20.2503 81.5185 20.2516 81.5185 20.2521 81.5184C20.253 81.5184 20.2527 81.5184 20.2526 81.5184C20.2522 81.5184 20.2492 81.5186 20.2451 81.5188C20.2408 81.519 20.2344 81.5192 20.2265 81.5192V80.5192ZM20.2162 80.5197H15.7611V81.5197H20.2162V80.5197ZM15.8091 80.522C14.3574 80.3818 13.2305 79.1513 13.2305 77.7307H12.2305C12.2305 79.6799 13.7622 81.329 15.713 81.5173L15.8091 80.522ZM15.499 57.0986C15.694 57.0577 15.8934 57.0371 16.0911 57.0371V56.0371C15.8242 56.0371 15.5561 56.0649 15.2939 56.1199L15.499 57.0986ZM16.0911 57.0371H28.0736V56.0371H16.0911V57.0371ZM27.5736 56.5371V59.0355H28.5736V56.5371H27.5736ZM27.5736 59.0355C27.5736 62.258 30.2342 64.8655 33.4889 64.8655V63.8655C30.7714 63.8655 28.5736 61.6908 28.5736 59.0355H27.5736ZM33.4889 64.8655C36.7439 64.8655 39.4053 62.2581 39.4053 59.0355H38.4053C38.4053 61.6907 36.2069 63.8655 33.4889 63.8655V64.8655ZM39.4053 59.0355V56.5371H38.4053V59.0355H39.4053ZM38.9053 57.0371H50.8877V56.0371H38.9053V57.0371ZM50.8877 57.0371C51.0855 57.0371 51.2849 57.0577 51.4803 57.0986L51.6852 56.1199C51.4228 56.0649 51.1547 56.0371 50.8877 56.0371V57.0371ZM51.4806 57.0987C52.7982 57.3739 53.7471 58.5341 53.7471 59.8429H54.7471C54.7471 58.0491 53.4548 56.4894 51.685 56.1198L51.4806 57.0987ZM53.7471 59.8429V68.3387H54.7471V59.8429H53.7471ZM54.2471 67.8387H47.557V68.8387H54.2471V67.8387ZM48.057 68.3387V64.9074H47.057V68.3387H48.057ZM48.057 64.9074C48.057 64.1861 47.4652 63.6151 46.7521 63.6151V64.6151C46.9281 64.6151 47.057 64.7534 47.057 64.9074H48.057ZM46.7521 63.6151C46.0386 63.6151 45.4469 64.1861 45.4469 64.9074H46.4469C46.4469 64.7534 46.5758 64.6151 46.7521 64.6151V63.6151ZM45.4469 64.9074V72.5622H46.4469V64.9074H45.4469ZM45.9469 72.0622H38.2449V73.0622H45.9469V72.0622ZM38.2449 72.0622C35.8462 72.0622 33.7487 73.3527 32.7785 75.2481L33.6686 75.7037C34.4578 74.1621 36.199 73.0622 38.2449 73.0622V72.0622ZM33.6719 75.2546C32.7372 73.3615 30.7096 72.0622 28.3801 72.0622V73.0622C30.3379 73.0622 32.0129 74.1533 32.7752 75.6973L33.6719 75.2546ZM28.3801 72.0622H21.031V73.0622H28.3801V72.0622ZM21.531 72.5622V64.9074H20.531V72.5622H21.531ZM21.531 64.9074C21.531 64.1861 20.9392 63.6151 20.226 63.6151V64.6151C20.402 64.6151 20.531 64.7534 20.531 64.9074H21.531ZM20.226 63.6151C19.5128 63.6151 18.9209 64.1861 18.9209 64.9074H19.9209C19.9209 64.7535 20.0498 64.6151 20.226 64.6151V63.6151ZM18.9209 64.9074V68.3387H19.9209V64.9074H18.9209ZM19.4209 67.8387H12.7305V68.8387H19.4209V67.8387ZM13.2305 68.3387V59.8429H12.2305V68.3387H13.2305ZM13.2305 59.8429C13.2305 58.5343 14.1796 57.374 15.4986 57.0987L15.2943 56.1198C13.5235 56.4894 12.2305 58.0489 12.2305 59.8429H13.2305ZM16.534 20.784C16.534 12.9918 22.9793 6.63804 30.9174 6.63804V5.63804C22.4422 5.63804 15.534 12.4244 15.534 20.784H16.534ZM30.9174 6.63804H32.687V5.63804H30.9174V6.63804ZM32.187 6.13778C32.186 8.02123 32.1837 12.8867 32.1837 16.5937H33.1837C33.1837 12.887 33.186 8.02176 33.187 6.13831L32.187 6.13778ZM32.1842 16.5708C32.1004 18.3961 31.7736 20.903 30.0513 22.7383L30.7805 23.4226C32.7656 21.3072 33.0978 18.4763 33.1831 16.6166L32.1842 16.5708ZM30.0513 22.7383C28.2334 24.6756 24.9789 25.7276 20.2265 25.7276V26.7276C25.0771 26.7276 28.679 25.662 30.7805 23.4226L30.0513 22.7383ZM20.2265 25.7276H19.4215V26.7276H20.2265V25.7276ZM18.9215 26.2276V38.4565H19.9215V26.2276H18.9215ZM18.9215 38.4565C18.9215 44.1787 22.5244 49.2341 27.909 51.1121L28.2383 50.1679C23.2548 48.4297 19.9215 43.7528 19.9215 38.4565H18.9215ZM27.5736 50.64V54.9525H28.5736V50.64H27.5736ZM28.0736 54.4525H16.0911V55.4525H28.0736V54.4525ZM16.0911 54.4525C16.0709 54.4525 16.0527 54.4532 16.0433 54.4536C16.0375 54.4538 16.0346 54.4539 16.0314 54.454C16.0301 54.4541 16.0292 54.4541 16.0285 54.4541C16.0279 54.4541 16.0276 54.4541 16.0276 54.4541L16.0405 55.4541C16.058 55.4538 16.0751 55.4531 16.0819 55.4528C16.0916 55.4525 16.0923 55.4525 16.0911 55.4525V54.4525ZM16.534 54.9541V35.3166H15.534V54.9541H16.534ZM16.534 35.3166V29.1926H15.534V35.3166H16.534ZM16.534 29.1926V20.784H15.534V29.1926H16.534ZM29.5696 51.5928C30.8496 51.8932 32.1632 52.0471 33.4889 52.0471V51.0471C32.2407 51.0471 31.0038 50.9022 29.7981 50.6193L29.5696 51.5928ZM33.4889 52.0471C34.8151 52.0471 36.129 51.8932 37.4092 51.5928L37.1807 50.6193C35.9749 50.9022 34.7376 51.0471 33.4889 51.0471V52.0471ZM36.795 51.1061V59.0355H37.795V51.1061H36.795ZM36.795 59.0355C36.795 60.8171 35.319 62.2809 33.4889 62.2809V63.2809C35.8561 63.2809 37.795 61.3845 37.795 59.0355H36.795ZM33.4889 62.2809C31.6594 62.2809 30.1839 60.8172 30.1839 59.0355H29.1839C29.1839 61.3843 31.1221 63.2809 33.4889 63.2809V62.2809ZM30.1839 59.0355V51.1061H29.1839V59.0355H30.1839ZM38.0277 48.7365C37.9249 48.7704 37.822 48.803 37.7188 48.8344L38.0097 49.7912C38.1208 49.7574 38.231 49.7224 38.3404 49.6864L38.0277 48.7365ZM37.7084 48.8377C37.7109 48.8369 37.713 48.8362 37.7142 48.8358C37.7154 48.8355 37.7162 48.8352 37.7163 48.8352C37.7164 48.8352 37.7164 48.8352 37.7162 48.8352C37.7161 48.8352 37.7156 48.8354 37.7153 48.8355C37.7146 48.8357 37.7131 48.8362 37.7113 48.8367L38.0052 49.7925C38.0044 49.7928 38.0039 49.7929 38.0042 49.7929C38.0044 49.7928 38.0044 49.7928 38.0048 49.7927C38.0051 49.7926 38.0056 49.7924 38.0062 49.7922C38.0081 49.7917 38.0135 49.79 38.0201 49.7879L37.7084 48.8377ZM37.7126 48.8363C36.3483 49.2517 34.9273 49.4626 33.4889 49.4626V50.4626C35.0252 50.4626 36.5444 50.2373 38.0039 49.793L37.7126 48.8363ZM33.4889 49.4626C32.0512 49.4626 30.6305 49.2517 29.2662 48.8363L28.9749 49.793C30.4344 50.2373 31.9532 50.4626 33.4889 50.4626V49.4626ZM29.2764 48.8395C29.2699 48.8374 29.2644 48.8357 29.2626 48.8352C29.262 48.835 29.2615 48.8349 29.2612 48.8348C29.2608 48.8346 29.2607 48.8346 29.2606 48.8346C29.2603 48.8345 29.2608 48.8346 29.2616 48.8349L28.9676 49.7907C28.9694 49.7913 28.971 49.7917 28.9717 49.7919C28.972 49.792 28.9725 49.7922 28.9726 49.7922C28.9728 49.7923 28.9728 49.7923 28.9727 49.7922C28.9726 49.7922 28.9718 49.792 28.9706 49.7916C28.9693 49.7912 28.9673 49.7906 28.9648 49.7897L29.2764 48.8395ZM29.2604 48.8345C29.1578 48.8032 29.0557 48.7709 28.9543 48.7375L28.6416 49.6874C28.7501 49.7231 28.8592 49.7577 28.9688 49.7911L29.2604 48.8345ZM28.9544 48.7375C24.5149 47.2746 21.5316 43.144 21.5316 38.4565H20.5316C20.5316 43.5743 23.7906 48.0888 28.6414 49.6873L28.9544 48.7375ZM21.5316 38.4565V27.8027H20.5316V38.4565H21.5316ZM21.0434 28.3026C26.0213 28.1852 29.6417 26.9718 31.9634 24.4976L31.2342 23.8133C29.1736 26.0092 25.87 27.1885 21.0199 27.3029L21.0434 28.3026ZM31.9635 24.4976C33.0687 23.3198 33.7389 21.9839 34.1484 20.6826L33.1945 20.3824C32.8202 21.5721 32.2162 22.7669 31.2342 23.8133L31.9635 24.4976ZM33.2224 20.7523C34.0101 22.362 35.0773 23.8353 36.4102 25.1531L37.1133 24.4421C35.8565 23.1994 34.8567 21.817 34.1206 20.3128L33.2224 20.7523ZM36.4101 25.1531C38.7595 27.4763 41.9372 29.312 45.8402 30.6297L46.16 29.6822C42.3639 28.4006 39.3297 26.6338 37.1133 24.4421L36.4101 25.1531ZM45.5001 30.1559V38.384H46.5001V30.1559H45.5001ZM45.5001 38.384C45.5001 43.104 42.497 47.2632 38.0275 48.7366L38.3406 49.6863C43.2214 48.0773 46.5001 43.5341 46.5001 38.384H45.5001ZM43.1914 7.52811C41.6895 7.96577 40.3072 8.76758 39.1796 9.88599L39.8838 10.596C40.8906 9.59747 42.126 8.88016 43.4712 8.48817L43.1914 7.52811ZM39.2918 9.80231C38.7608 10.0928 38.4614 10.6984 38.58 11.3056L39.5614 11.1139C39.5289 10.947 39.6113 10.7674 39.7717 10.6797L39.2918 9.80231ZM38.5746 11.2722C38.5831 11.3393 38.5982 11.4184 38.6257 11.5032L39.5767 11.194C39.5724 11.1807 39.569 11.1652 39.5668 11.1473L38.5746 11.2722ZM38.6231 11.4949C38.6976 11.7383 38.8382 11.9603 39.0248 12.1257L39.688 11.3773C39.6443 11.3385 39.602 11.2763 39.5793 11.2023L38.6231 11.4949ZM39.0187 12.1202C39.1948 12.2816 39.4101 12.396 39.6418 12.4535L39.8827 11.4829C39.8103 11.4649 39.7451 11.4295 39.6941 11.3828L39.0187 12.1202ZM39.6468 12.4547L39.668 12.4597L39.8989 11.4867L39.8777 11.4817L39.6468 12.4547ZM39.6758 12.4615C41.5222 12.8686 43.4194 12.7183 45.1443 12.0591L44.7874 11.125C43.2438 11.7149 41.5456 11.8497 39.8911 11.4849L39.6758 12.4615ZM44.487 11.4483C43.9633 13.1921 43.9666 15.063 44.527 16.8383L45.4806 16.5373C44.981 14.9547 44.9783 13.2889 45.4447 11.7359L44.487 11.4483ZM44.5273 16.8392L44.6625 17.2649L45.6156 16.9622L45.4804 16.5364L44.5273 16.8392ZM45.0198 17.5991L45.2478 17.6551L45.4864 16.684L45.2583 16.628L45.0198 17.5991ZM45.089 17.5851C45.2399 17.6861 45.4109 17.7595 45.5884 17.7956L45.7878 16.8157C45.745 16.807 45.6943 16.7868 45.6451 16.754L45.089 17.5851ZM45.582 17.7943C45.6811 17.8158 45.7817 17.8264 45.8818 17.8264V16.8264C45.8521 16.8264 45.8227 16.8233 45.7943 16.8171L45.582 17.7943ZM45.8818 17.8264C46.1068 17.8264 46.3303 17.7731 46.5332 17.6704L46.0815 16.7782C46.0181 16.8103 45.9492 16.8264 45.8818 16.8264V17.8264ZM46.5308 17.6716C46.5819 17.6461 46.6248 17.6206 46.6588 17.5988L46.119 16.757C46.1087 16.7636 46.097 16.7704 46.0839 16.777L46.5308 17.6716ZM46.6457 17.6069C46.7427 17.5489 46.8302 17.4802 46.9095 17.3998L46.1976 16.6976C46.178 16.7174 46.1572 16.7338 46.1321 16.7488L46.6457 17.6069ZM46.9134 17.3958L46.9297 17.3789L46.21 16.6846L46.1937 16.7016L46.9134 17.3958ZM46.9359 17.3724C48.0581 16.1663 48.8207 14.7126 49.1776 13.1544L48.2028 12.9312C47.8852 14.3182 47.2062 15.6139 46.2038 16.6912L46.9359 17.3724ZM48.2682 13.3109C49.647 15.4813 50.4448 18.0422 50.4448 20.784H51.4448C51.4448 17.8451 50.589 15.0992 49.1122 12.7747L48.2682 13.3109ZM50.4448 20.784V29.1926H51.4448V20.784H50.4448ZM50.4448 29.1926V35.3166H51.4448V29.1926H50.4448ZM50.4448 35.3166V54.9541H51.4448V35.3166H50.4448ZM50.9512 54.4541C50.9512 54.4541 50.951 54.4541 50.9503 54.4541C50.9496 54.4541 50.9487 54.4541 50.9474 54.454C50.9442 54.4539 50.9414 54.4538 50.9355 54.4536C50.9261 54.4532 50.9079 54.4525 50.8877 54.4525V55.4525C50.8865 55.4525 50.8873 55.4525 50.8969 55.4528C50.9037 55.4531 50.9208 55.4538 50.9384 55.4541L50.9512 54.4541ZM50.8877 54.4525H38.9053V55.4525H50.8877V54.4525ZM39.4053 54.9525V50.6401H38.4053V54.9525H39.4053ZM39.0699 51.1123C44.486 49.2247 48.1103 44.1396 48.1103 38.384H47.1103C47.1103 43.7137 43.7557 48.4202 38.7408 50.168L39.0699 51.1123ZM48.1103 38.384V29.0092H47.1103V38.384H48.1103ZM47.7625 28.533L47.2058 28.3551L46.9015 29.3077L47.4582 29.4855L47.7625 28.533ZM47.2057 28.3551C40.344 26.1645 36.2212 22.5138 34.7738 17.5658L33.814 17.8466C35.3863 23.2213 39.8478 27.0557 46.9016 29.3077L47.2057 28.3551ZM34.7939 17.7062V16.63H33.7939V17.7062H34.7939ZM34.7933 16.6537C34.8129 16.244 34.8217 15.8132 34.8217 15.3021H33.8217C33.8217 15.8016 33.8131 16.2159 33.7945 16.6062L34.7933 16.6537ZM34.8217 15.3021C34.8217 15.1857 34.806 15.0721 34.7763 14.9634L33.8118 15.2276C33.8182 15.2508 33.8217 15.2757 33.8217 15.3021H34.8217ZM34.794 15.0956C34.7945 11.6728 34.7964 7.77677 34.7973 6.13831L33.7973 6.13778C33.7964 7.77628 33.7945 11.6724 33.794 15.0954L34.794 15.0956ZM34.2973 6.63804H36.0614V5.63804H34.2973V6.63804ZM36.0614 6.63804C38.6133 6.63804 41.0101 7.2955 43.0893 8.44566L43.5733 7.57062C41.3498 6.34063 38.7869 5.63804 36.0614 5.63804V6.63804ZM45.3169 9.10271C44.1879 9.78619 42.894 10.1303 41.584 10.1002L41.561 11.0999C43.0615 11.1345 44.543 10.7401 45.8348 9.95817L45.3169 9.10271ZM41.863 11.007C42.8603 10.2953 44.0392 9.86302 45.2773 9.75604L45.1912 8.75975C43.7773 8.88193 42.427 9.37592 41.282 10.1931L41.863 11.007ZM44.9285 9.65357C45.0393 9.73913 45.1491 9.82705 45.2586 9.91693L45.893 9.14396C45.7774 9.04903 45.6598 8.95485 45.5399 8.86222L44.9285 9.65357ZM46.7472 14.7683C46.6139 13.5053 46.8493 12.2271 47.4337 11.0773L46.5422 10.6243C45.8709 11.9451 45.599 13.4169 45.7527 14.8732L46.7472 14.7683ZM46.6235 11.1931C46.7261 11.3024 46.8259 11.4108 46.9223 11.5202L47.6725 10.8589C47.5667 10.7389 47.4592 10.6222 47.3524 10.5085L46.6235 11.1931ZM46.7974 11.1834C46.7827 12.3812 46.4469 13.5435 45.8237 14.5593L46.6761 15.0822C47.3939 13.9122 47.7804 12.5733 47.7974 11.1957L46.7974 11.1834ZM44.605 6.15748C45.1374 6.63912 45.5865 7.20248 45.9432 7.83614L46.8146 7.34558C46.4057 6.6192 45.8892 5.97079 45.2759 5.41591L44.605 6.15748ZM46.5816 7.13376C45.9104 6.83627 45.3018 6.44175 44.7683 5.95907L44.0974 6.70059C44.7111 7.2559 45.4098 7.7082 46.1763 8.04797L46.5816 7.13376ZM44.7685 5.95924C44.2298 5.47137 43.7754 4.90054 43.4224 4.27303L42.5508 4.76335C42.9565 5.48437 43.4784 6.14 44.0972 6.70043L44.7685 5.95924ZM42.7841 4.97533C43.449 5.26994 44.0649 5.66873 44.6049 6.15742L45.2759 5.41597C44.6563 4.85515 43.9504 4.3983 43.1891 4.06105L42.7841 4.97533ZM48.5296 2.67497C48.6872 4.11963 48.3627 5.58475 47.5839 6.85601L48.4366 7.37841C49.3305 5.91927 49.7054 4.23243 49.5237 2.56655L48.5296 2.67497ZM48.5074 7.06416C48.3497 5.58581 48.6861 4.12477 49.4522 2.88334L48.6012 2.35819C47.7187 3.78832 47.3318 5.4714 47.5131 7.17025L48.5074 7.06416ZM53.3918 6.45844C52.2037 7.3021 50.7588 7.75106 49.2649 7.72622L49.2483 8.72609C50.9531 8.75443 52.6072 8.24212 53.9708 7.27378L53.3918 6.45844ZM49.5452 8.63446C50.7586 7.77682 52.2024 7.33813 53.6718 7.36602L53.6908 6.3662C52.0093 6.33428 50.3564 6.83652 48.968 7.81785L49.5452 8.63446ZM52.4836 12.4793C51.8189 12.1849 51.2034 11.7862 50.6641 11.2977L49.9928 12.0389C50.6119 12.5997 51.3175 13.0566 52.0787 13.3936L52.4836 12.4793ZM50.6639 11.2975C50.1317 10.8161 49.6826 10.2529 49.326 9.61977L48.4547 10.1105C48.8635 10.8364 49.38 11.4845 49.993 12.0391L50.6639 11.2975ZM48.6881 10.3224C49.3593 10.6192 49.9673 11.0133 50.5005 11.4971L51.1724 10.7565C50.5584 10.1993 49.8597 9.74708 49.0925 9.40784L48.6881 10.3224ZM50.5012 11.4977C51.0386 11.9835 51.4925 12.5536 51.8453 13.1814L52.7171 12.6915C52.3116 11.97 51.79 11.3147 51.1717 10.7558L50.5012 11.4977ZM46.7787 80.5199C46.7836 80.5201 46.7874 80.5203 46.7889 80.5204C46.7897 80.5205 46.7902 80.5205 46.79 80.5205C46.7897 80.5205 46.7899 80.5205 46.7894 80.5204C46.7891 80.5204 46.7886 80.5204 46.7881 80.5204C46.7847 80.5201 46.7698 80.5192 46.7514 80.5192V81.5192C46.7435 81.5192 46.7371 81.519 46.7326 81.5188C46.7284 81.5186 46.7253 81.5184 46.725 81.5184C46.7249 81.5184 46.7248 81.5184 46.725 81.5184C46.725 81.5184 46.7251 81.5184 46.7252 81.5184C46.7253 81.5184 46.7255 81.5184 46.7257 81.5184C46.7263 81.5185 46.7277 81.5185 46.7293 81.5186C46.7326 81.5188 46.7381 81.5191 46.7448 81.5194L46.7787 80.5199ZM46.7514 80.5192H38.2449V81.5192H46.7514V80.5192ZM38.2449 80.5192C37.3035 80.5192 36.4303 80.1917 35.7794 79.6097L35.1128 80.3551C35.9576 81.1106 37.0722 81.5192 38.2449 81.5192V80.5192ZM35.7791 79.6094C35.1501 79.048 34.8211 78.3276 34.8211 77.5829H33.8211C33.8211 78.6374 34.291 79.6215 35.1131 80.3554L35.7791 79.6094ZM34.8211 77.5829C34.8211 76.0246 36.2931 74.6466 38.2449 74.6466V73.6466C35.8696 73.6466 33.8211 75.3518 33.8211 77.5829H34.8211ZM38.2449 74.6466H46.7514V73.6466H38.2449V74.6466ZM46.7514 74.6466H46.7517V73.6466H46.7514V74.6466ZM46.7517 74.6466H46.7521V73.6466H46.7517V74.6466ZM46.7521 74.6466C47.4652 74.6466 48.057 74.0757 48.057 73.3545H47.057C47.057 73.5083 46.9281 73.6466 46.7521 73.6466V74.6466ZM48.057 73.3545V69.9232H47.057V73.3545H48.057ZM47.557 70.4232H54.2471V69.4232H47.557V70.4232ZM53.7471 69.9232V77.7307H54.7471V69.9232H53.7471ZM53.7471 77.7307C53.7471 79.1514 52.6206 80.3818 51.1695 80.522L51.2657 81.5173C53.216 81.3289 54.7471 79.6798 54.7471 77.7307H53.7471ZM51.2176 80.5197H46.7618V81.5197H51.2176V80.5197ZM33.1807 82.3109C33.15 82.3496 33.1184 82.3905 33.0871 82.4329L33.8915 83.027C33.9144 82.9959 33.9389 82.9642 33.965 82.9311L33.1807 82.3109ZM33.8909 82.4321C33.8598 82.3902 33.8285 82.3497 33.7978 82.3109L33.0134 82.9311C33.0395 82.9641 33.0643 82.9962 33.0877 83.0279L33.8909 82.4321ZM33.4056 83.121H33.5729V82.121H33.4056V83.121ZM32.7786 79.921C33.0564 80.4623 33.4314 80.9601 33.892 81.3987L34.5815 80.6744C34.1986 80.3098 33.8926 79.9016 33.6683 79.4644L32.7786 79.921ZM34.2368 80.5366H32.2453V81.5366H34.2368V80.5366ZM32.5965 81.3924C33.0416 80.9531 33.4036 80.4552 33.6714 79.9147L32.7754 79.4707C32.5585 79.9084 32.263 80.3166 31.8941 80.6807L32.5965 81.3924ZM57.351 80.5197H54.5486V81.5197H57.351V80.5197ZM54.9152 81.3597C55.8079 80.3972 56.3573 79.117 56.3573 77.7307H55.3573C55.3573 78.8486 54.9145 79.8899 54.182 80.6796L54.9152 81.3597ZM56.3573 77.7307V59.8429H55.3573V77.7307H56.3573ZM56.3573 59.8429C56.3573 57.5479 54.8611 55.5207 52.7213 54.7661L52.3887 55.7092C54.1434 56.328 55.3573 57.9875 55.3573 59.8429H56.3573ZM53.055 55.2377V35.3166H52.055V55.2377H53.055ZM53.055 35.3166V29.1926H52.055V35.3166H53.055ZM53.055 29.1926V20.784H52.055V29.1926H53.055ZM53.055 20.784C53.055 18.3418 52.5202 16.0193 51.5603 13.9248L50.6513 14.3414C51.5527 16.3085 52.055 18.4892 52.055 20.784H53.055ZM50.8747 14.5765C51.6047 14.9571 52.3854 15.2437 53.1963 15.4247L53.4142 14.4487C52.689 14.2868 51.9905 14.0305 51.337 13.6898L50.8747 14.5765ZM53.1939 15.4241C53.3455 15.4588 53.478 15.4613 53.5717 15.4567L53.5219 14.4579C53.4928 14.4594 53.456 14.4582 53.4165 14.4492L53.1939 15.4241ZM53.5468 15.4573H53.5473V14.4573H53.5468V15.4573ZM53.5473 15.4573C53.9376 15.4573 54.3165 15.3002 54.5877 15.0093L53.8564 14.3273C53.7812 14.408 53.6706 14.4573 53.5473 14.4573V15.4573ZM54.5876 15.0094C54.8446 14.734 54.9802 14.3723 54.9645 13.9953L53.9653 14.0369C53.9698 14.1438 53.9327 14.2455 53.8565 14.3272L54.5876 15.0094ZM54.9645 13.9958C54.9542 13.7434 54.8769 13.5021 54.7391 13.2911L53.9017 13.8377C53.9411 13.898 53.9624 13.9645 53.9653 14.0364L54.9645 13.9958ZM54.7924 13.3994C54.2829 11.9421 53.4101 10.6275 52.262 9.58989L51.5915 10.3318C52.6156 11.2574 53.3943 12.4303 53.8485 13.7294L54.7924 13.3994ZM52.2629 9.59069C52.1057 9.44795 51.9439 9.31101 51.7779 9.17987L51.158 9.96459C51.3063 10.0817 51.4506 10.2039 51.5906 10.331L52.2629 9.59069ZM51.5819 10.0591C53.2793 9.66185 54.845 8.80652 56.0967 7.56183L55.3916 6.85274C54.2736 7.96442 52.8741 8.72967 51.354 9.08539L51.5819 10.0591ZM55.9841 7.64595C56.5561 7.33306 56.8615 6.65146 56.6585 6.00108L55.704 6.29902C55.758 6.47218 55.6791 6.67292 55.5042 6.76862L55.9841 7.64595ZM56.6598 6.00508C56.6344 5.92136 56.601 5.84072 56.5596 5.76386L55.6791 6.23796C55.6885 6.25546 55.6965 6.27433 55.7027 6.29502L56.6598 6.00508ZM56.5731 5.79095C56.3864 5.38729 56.015 5.08851 55.577 4.99832L55.3753 5.97777C55.4979 6.00302 55.61 6.09075 55.6656 6.21087L56.5731 5.79095ZM55.5826 4.99951C53.7433 4.59864 51.8535 4.75046 50.1347 5.40699L50.4916 6.34116C52.0299 5.75357 53.7217 5.6174 55.3696 5.97657L55.5826 4.99951ZM50.792 6.01797C51.3179 4.26788 51.3128 2.38994 50.7466 0.608298L49.7935 0.911168C50.2983 2.49963 50.3027 4.17168 49.8343 5.73017L50.792 6.01797ZM50.7463 0.607495L50.7283 0.551L49.7757 0.855475L49.7938 0.91197L50.7463 0.607495ZM50.7003 0.481774L50.674 0.428588L49.7774 0.871515L49.8037 0.924701L50.7003 0.481774ZM50.6742 0.429032C50.6418 0.363246 50.6079 0.308545 50.5795 0.267063L49.7541 0.831569C49.7611 0.841804 49.7695 0.855485 49.7772 0.871071L50.6742 0.429032ZM50.5905 0.283744C50.5715 0.253578 50.5515 0.224328 50.5306 0.196123L49.7278 0.79246C49.7333 0.799794 49.7384 0.807309 49.7432 0.814889L50.5905 0.283744ZM50.5262 0.190377L50.5118 0.171504L49.7177 0.779334L49.7322 0.798207L50.5262 0.190377ZM50.5072 0.165591C50.301 -0.0955478 50.0178 -0.274986 49.692 -0.345499L49.4805 0.631876C49.5748 0.652295 49.657 0.702514 49.7223 0.785247L50.5072 0.165591ZM49.6919 -0.345522C49.3704 -0.415015 49.0342 -0.369907 48.7412 -0.221453L49.1932 0.670576C49.2847 0.624177 49.3871 0.611687 49.4806 0.631899L49.6919 -0.345522ZM48.7436 -0.222693C48.6931 -0.197431 48.6506 -0.17219 48.6161 -0.15008L49.1561 0.691604C49.1667 0.684793 49.178 0.678171 49.1907 0.671815L48.7436 -0.222693ZM48.6407 -0.164899L48.5805 -0.130953L49.0712 0.74037L49.1314 0.706424L48.6407 -0.164899ZM48.4933 -0.0686801L48.4264 -0.00912131L49.0915 0.737656L49.1584 0.678097L48.4933 -0.0686801ZM48.4091 0.00704992L48.3567 0.058398L49.0564 0.772833L49.1088 0.721484L48.4091 0.00704992ZM48.341 0.0744346C47.056 1.45107 46.241 3.15051 45.9644 4.95965L46.9529 5.11079C47.1991 3.50057 47.9244 1.98629 49.072 0.756796L48.341 0.0744346ZM46.8186 4.68822C46.673 4.53708 46.5219 4.39083 46.366 4.2497L45.695 4.99109C45.8342 5.11712 45.9689 5.24758 46.0987 5.38222L46.8186 4.68822ZM46.366 4.24969C45.156 3.15452 43.6721 2.38757 42.0736 2.03069L41.8557 3.00667C43.2862 3.32602 44.6138 4.01249 45.695 4.9911L46.366 4.24969ZM42.0762 2.03129C42.0102 2.01617 41.9433 2.00615 41.8759 2.00125L41.8033 2.99861C41.8201 2.99983 41.8367 3.00231 41.8531 3.00607L42.0762 2.03129ZM41.9017 2.0038C41.4531 1.94766 40.9987 2.10166 40.6845 2.44171L41.4189 3.12041C41.5047 3.02761 41.6346 2.97818 41.7775 2.99606L41.9017 2.0038ZM40.6857 2.44039C40.2514 2.90697 40.196 3.58632 40.5032 4.1072L41.3646 3.59927C41.2765 3.44982 41.2928 3.25588 41.4177 3.12172L40.6857 2.44039ZM40.4612 4.01634C40.6766 4.64041 40.9591 5.2382 41.3007 5.80011L42.1552 5.28063C41.8499 4.77857 41.5982 4.24548 41.4065 3.69014L40.4612 4.01634ZM41.8977 5.07008C40.0763 4.41248 38.11 4.05348 36.0614 4.05348V5.05348C37.9925 5.05348 39.844 5.39179 41.5581 6.01066L41.8977 5.07008ZM36.0614 4.05348H30.9174V5.05348H36.0614V4.05348ZM30.9174 4.05348C21.5543 4.05348 13.9239 11.5508 13.9239 20.784H14.9239C14.9239 12.1182 22.0914 5.05348 30.9174 5.05348V4.05348ZM13.9239 20.784V29.1926H14.9239V20.784H13.9239ZM13.9239 29.1926V35.3166H14.9239V29.1926H13.9239ZM13.9239 35.3166V55.2377H14.9239V35.3166H13.9239ZM14.2578 54.7661C12.117 55.5205 10.6203 57.5477 10.6203 59.8429H11.6203C11.6203 57.9875 12.8344 56.3279 14.5901 55.7093L14.2578 54.7661ZM10.6203 59.8429V77.7307H11.6203V59.8429H10.6203ZM10.6203 77.7307C10.6203 79.117 11.1699 80.3973 12.0628 81.3597L12.7959 80.6796C12.0632 79.8898 11.6203 78.8486 11.6203 77.7307H10.6203ZM12.4294 80.5197H9.62745V81.5197H12.4294V80.5197ZM9.62745 80.5197C4.05036 80.5197 -0.5 84.9858 -0.5 90.4934H0.5C0.5 85.5532 4.58741 81.5197 9.62745 81.5197V80.5197ZM-0.5 90.4934C-0.5 96.0009 4.05036 100.467 9.62745 100.467V99.4672C4.58741 99.4672 0.5 95.4335 0.5 90.4934H-0.5ZM9.62745 100.467H30.0845V99.4672H9.62745V100.467ZM30.0845 100.467C31.6468 100.467 33.0341 99.7126 33.8912 98.5543L33.0874 97.9595C32.4122 98.872 31.3187 99.4672 30.0845 99.4672V100.467ZM33.0873 98.5543C33.9443 99.7126 35.3318 100.467 36.894 100.467V99.4672C35.6599 99.4672 34.5663 98.872 33.8912 97.9595L33.0873 98.5543ZM36.894 100.467H57.351V99.4672H36.894V100.467ZM57.351 100.467C62.9281 100.467 67.4785 96.0009 67.4785 90.4934H66.4785C66.4785 95.4335 62.391 99.4672 57.351 99.4672V100.467ZM67.4785 90.4934C67.4785 84.9858 62.9281 80.5197 57.351 80.5197V81.5197C62.391 81.5197 66.4785 85.5532 66.4785 90.4934H67.4785Z" fill="#1071B9"/>
</g>
</svg>
